<svg xmlns="http://www.w3.org/2000/svg" xml:space="preserve" width="610" height="600" viewBox="0 0 610 600"><path d="M0 0v36.198h-17.935v-49.916Z" style="fill:#f9d208;fill-opacity:1;fill-rule:nonzero;stroke:none" transform="matrix(1.62047 0 0 -1.62047 356.894 525.991)"/><path d="M0 0v36.198h17.935v-49.916Z" style="fill:#f9d208;fill-opacity:1;fill-rule:nonzero;stroke:none" transform="matrix(1.62047 0 0 -1.62047 265.244 525.991)"/><path d="M0 0c-12.175-10.395-20.869-28.055-20.869-55.098 0-89.664-16.433-89.753-18.374-128.257-1.611-31.992 8.486-84.195 72.999-82.864 62.782-.024 73.97 48.016 72.598 82.864-1.516 38.528-19.12 50.005-19.12 128.257 0 27.043-8.514 44.358-20.018 55.018-1.73 1.603-7.099 3.623-7.099 3.623S53.359 8.238 49.252 14.22c-2.273 3.31-3.939 7.112-4.788 9.85-.229.739-1.243.815-1.572.115-1.229-2.61-3.303-7.384-4.743-12.629a.842.842 0 0 0-1.373-.4c-2.141 1.93-7.083 6.987-9.916 14.734-.262.715-1.259.768-1.568.071-1.074-2.418-2.594-7.321-1.942-14.82a.844.844 0 0 0-1.242-.818c-2.312 1.247-7.063 4.344-10.968 10.344-.414.636-1.394.436-1.535-.31-.604-3.217-1.608-9.648-1.459-16.183 0 0-5.267-1.506-8.146-4.174" style="fill:#fff;fill-opacity:1;fill-rule:nonzero;stroke:none" transform="matrix(1.62047 0 0 -1.62047 255.597 63.914)"/><path d="m-38.668-169-39.519-27.51 12.942-16.521 24.749 22.57s-.934 14.116 1.828 21.46zM105.734-168.863l39.518-27.51-12.941-16.521-24.75 22.57s.935 14.116-1.827 21.46zM-18.076-287.07c5.598 3.4 10.155 6.043 14.093 7.743 10.568 4.563 16.397-6.356 27.828-8.077 1.474-9.401 6.941-17.418 4.277-28.255-20.582-4.449-49.361-3.964-58.311-1.569-4.884 6.018 5.002 25.685 12.113 30.159zM86.716-288.476c-1.566 1.254-11.392 7.11-15.33 8.81-10.568 4.562-15.159-7.424-26.59-9.145-1.474-9.402-8.794-15.016-6.13-25.854 20.582-6.644 49.807-5.055 58.757-2.66 4.884 6.018-3.595 24.375-10.707 28.849z" style="fill:#fff;fill-opacity:1;stroke:none;stroke-width:2.00126;stroke-linecap:round;stroke-linejoin:round" transform="matrix(1.62047 0 0 -1.62047 255.597 63.914)"/><path d="M0 0c-2.932 3.485-8.943 7.644-20.9 7.644-23.125 0-25.058-15.434-25.075-15.588-.008-.033-.008-.057-.008-.09v-.081c-.016-.609.033-5.206 3.623-8.992 2.997-3.16 7.529-4.809 13.402-4.89.187-.007.366-.007.553-.007h14.426c.179 0 .349 0 .52.007 5.929.09 10.445 1.739 13.443 4.89C3.404-13.492 3.59-9.138 3.59-8.22V-8.009C3.583-7.847 3.282-3.899 0 0" style="fill:#f9d208;fill-opacity:1;fill-rule:nonzero;stroke:none" transform="matrix(1.62047 0 0 -1.62047 344.54 175.297)"/><path d="m0 0-.552-.422-2.331-1.787c.17-.073.268-.098.268-.098.706-.243 1.332-.317 1.876-.252.097.009.187.025.276.049.041 0 .073.008.114.025a.63.63 0 0 1 .114.032c.008-.008.024-.008.032.008a.502.502 0 0 1 .155.049c.016 0 .032 0 .04.016.114.041.219.089.333.147a3.7 3.7 0 0 1 .682.43c.065.049.139.106.203.17.106.098.22.203.326.309.105.106.202.22.3.341.276.317.536.666.788 1.04.13.187.26.382.39.577.422.634.844 1.307 1.308 1.957.113.163.235.325.357.488.113.162.236.316.374.471.13.162.259.316.398.463.13.154.268.3.422.438.049.049.089.09.138.131.041.048.09.089.138.129zm11.161 8.602c-.439 0-.853-.024-1.251-.073v-.942L7.229 5.532c-.008-.009-.024-.016-.032-.025l-.926-.69a1.282 1.282 0 0 1-.122-.106L0 0l-.552-.422-2.331-1.787-1.097-.837v5.077c-.731.91-1.6 1.429-2.567 1.567a3.491 3.491 0 0 1-1.478-.129v-14.686l9.763 7.465.009.008.779.6a.304.304 0 0 1 .065.049L12.534 4.5l1.421 1.088v2.803c-.861.13-1.795.211-2.794.211" style="fill:#110f0d;fill-opacity:1;fill-rule:nonzero;stroke:none" transform="matrix(1.62047 0 0 -1.62047 337.76 523.951)"/><path d="M0 0a6.115 6.115 0 1 0-12.231.001A6.115 6.115 0 0 0 0 0" style="fill:#110f0d;fill-opacity:1;fill-rule:nonzero;stroke:none" transform="matrix(1.62047 0 0 -1.62047 288.516 148.217)"/><path d="M0 0a6.115 6.115 0 1 0-12.231.001A6.115 6.115 0 0 0 0 0" style="fill:#110f0d;fill-opacity:1;fill-rule:nonzero;stroke:none" transform="matrix(1.62047 0 0 -1.62047 351.307 148.217)"/><path d="M0 0c-.864.477-1.744.928-2.64 1.356l-.008.008a50.486 50.486 0 0 0-1.808 1.728C-5.885 4.528-7.33 6.159-8.524 7.903a6.743 6.743 0 0 0-.203.306 34.823 34.823 0 0 0-2.421 4.247 34.971 34.971 0 0 0-1.97 4.899 2.837 2.837 0 0 1-2.534 2.011 2.844 2.844 0 0 1-2.794-1.639c-1.049-2.236-2.913-6.474-4.383-11.277-2.317 2.365-5.941 6.74-8.169 12.843a2.87 2.87 0 0 1-2.607 1.889 2.844 2.844 0 0 1-2.705-1.687c-.637-1.437-1.485-3.859-1.953-7.225a33.63 33.63 0 0 1-.299-3.495 35.545 35.545 0 0 1-.016-3.092 28.35 28.35 0 0 0-3.956 3.164 29.593 29.593 0 0 0-2.591 2.793c-.678.84-1.364 1.76-2.018 2.761a2.828 2.828 0 0 1-2.946 1.243 2.848 2.848 0 0 1-2.261-2.284 92.344 92.344 0 0 1-1.339-10.284c-.098-1.3-.162-2.64-.186-4.012-.25-.146-.501-.291-.751-.452h2.494c.049-.259.105-.501.178-.751v-.008c.024-.097.057-.186.089-.283v-.008c.089-.331.201-.654.323-.977.088-.218.177-.436.282-.645.097.056.202.112.299.169.274.154.549.307.823.453h.008a3.3 3.3 0 0 0 .275.153 64.43 64.43 0 0 0 .072 4.52c.146 2.882.452 5.578.783 7.79.041.307.089.597.129.88.114-.145.226-.291.34-.428a34.875 34.875 0 0 1 2.276-2.591 34.27 34.27 0 0 1 3.277-2.971 29.853 29.853 0 0 1 4.327-2.865c.041-.025.081-.041.121-.057a2.845 2.845 0 0 1 2.81.186c.225.145.419.322.581.516h.008c.5.581.758 1.34.686 2.132a36.011 36.011 0 0 0-.121 2.026c-.008.169-.008.331-.008.492a33.44 33.44 0 0 0 .153 4.351c.186 1.735.484 3.205.816 4.408 1.622-3.536 3.608-6.442 5.408-8.662a38.623 38.623 0 0 1 3.729-3.996c.106-.097.202-.194.299-.275a2.855 2.855 0 0 1 3.705-.105v.008c.041.025.081.065.122.097.403.355.694.824.847 1.365.226.815.46 1.622.719 2.413 0 .009.007.009.007.016a75.627 75.627 0 0 0 2.059 5.708c.251.63.501 1.219.734 1.76.178-.436.364-.88.566-1.325a43.403 43.403 0 0 1 1.574-3.196h.008c.621-1.155 1.3-2.26 1.994-3.278a35.32 35.32 0 0 1 2.381-3.059 48.953 48.953 0 0 1 3.859-3.963l.71-.638c0-.008.008-.016.024-.016.065-.017.105-.041.162-.073a39.96 39.96 0 0 0 3.092-1.598A11.511 11.511 0 0 1-.977-1.76c.033.121.057.242.081.372h3.253C1.59-.904.799-.444 0 0" style="fill:#110f0d;fill-opacity:1;fill-rule:nonzero;stroke:none" transform="matrix(1.62047 0 0 -1.62047 352.37 51.97)"/><path d="m0 0 .008.017h.008L0 0m-14.724 16.209c-2.769-2.897-4.972-5.012-6.66-6.522-9.743 7.992-14.159 13.263-17.404 17.146-1.962 2.341-3.544 4.238-5.642 6.014l-.032.299v.016c-.017 1.138-.049 2.3-.098 3.471-.177 4.658-.589 8.92-1.178 12.94 6.014-4.513 17.202-12.852 25.444-18.615 4.052-2.841 7.402-5.433 10.163-7.895-.702-1.913-2.074-4.213-4.593-6.854m-71.328-76.445c.872.282 1.857.508 2.939.629.024 0 .056.008.08.008 3.35.315 3.35-2.114 3.35-2.114h-.016c-1.033.064-2.203.04-3.471-.186-1.711-.29-3.592-.937-5.505-2.155-2.099-1.397-2.826.46-2.099 1.186.403.404 2.059 1.776 4.722 2.632m7.395-2.139h.008c4.367.306 3.947-2.438 3.947-2.438-1.098.169-2.454.25-3.955.072h-.009c-1.913-.217-4.076-.863-6.28-2.268-2.098-1.397-2.825.46-2.098 1.187.435.436 2.381 2.074 5.456 2.93.888.25 1.865.436 2.931.517m5.481-3.35a15.725 15.725 0 0 0 3.414-.557c3.641-.993 2.204-2.503 2.204-2.503s-.032.016-.097.04c-.492.21-2.784 1.09-5.901.921h-.032c-2.115-.114-4.601-.719-7.16-2.349-2.099-1.397-2.826.452-2.099 1.186.468.468 2.648 2.325 6.176 3.028 1.049.201 2.211.298 3.495.234m15.741-22.385c.008 0 .016 0 .024.008.694.121 1.308.242 1.841.355a29.08 29.08 0 0 0-.121-1.752c-.299-2.801-1.009-4.819-1.397-5.764-1.889-.717-8.613-2.817-23.717-3.22-15.571-.42-28.6 3.519-32.095 4.69a25.72 25.72 0 0 0-.945 6.183v.008c3.173-1.033 9.227-2.405 19.689-2.817.008 0 .024 0 .032-.008h.024c.008.008.008.008.016 0 .008.008.024.008.033 0a168.74 168.74 0 0 1 6.312-.113c14.539 0 24.879 1.437 30.304 2.43m-48.854 40.443c4.875.572 9.477 1.485 13.804 2.744v-10.389c-4.473-.517-6.596-3.778-8.186-6.216-.718-1.106-1.227-1.824-1.663-2.26a2.144 2.144 0 0 0-.549-.42c-.419-.218-.831-.169-1.404.024l.048.041-.185.016c-.17.097-.654.428-1.171 1.332a6.742 6.742 0 0 1-.694 1.025zm-18.785-39.935v-.008a25.435 25.435 0 0 0-.952-6.183c-3.488-1.171-16.524-5.126-32.088-4.69-15.128.403-21.852 2.51-23.717 3.22-.387.945-1.098 2.963-1.397 5.764a22.574 22.574 0 0 0-.128 1.752c.54-.113 1.162-.234 1.88-.363 5.425-1.001 15.766-2.43 30.296-2.43 2.261 0 4.367.04 6.313.113a.024.024 0 0 0 .032 0c10.502.411 16.581 1.792 19.761 2.825m-44.083 21.32c1.211.33 2.341.5 3.406.557a14.299 14.299 0 0 0 3.504-.234c3.527-.703 5.707-2.56 6.175-3.028.727-.734 0-2.583-2.098-1.186-2.56 1.63-5.062 2.235-7.177 2.349h-.016c-3.116.169-5.409-.711-5.901-.921-.065-.024-.097-.04-.097-.04s-1.437 1.51 2.204 2.503m8.887 3.907a13.877 13.877 0 0 0 2.931-.517c3.075-.856 5.029-2.494 5.465-2.93.727-.727 0-2.584-2.099-1.187-2.204 1.405-4.367 2.051-6.28 2.268h-.008a14.712 14.712 0 0 1-3.956-.072s-.428 2.744 3.947 2.438m4.384 2.776c.024 0 .056-.008.08-.008a14.963 14.963 0 0 0 2.939-.629c2.664-.856 4.31-2.228 4.714-2.632.735-.726 0-2.583-2.091-1.186-1.913 1.218-3.794 1.865-5.505 2.155-1.267.226-2.446.25-3.479.186h-.008s0 2.429 3.35 2.114m11.043 13.909c4.295-1.114 8.855-1.889 13.666-2.325v-12.544c-.823-.403-1.541-1.154-2.155-2.236-.549-.977-1.073-1.284-1.194-1.348l-.057-.024-.048-.017c-1.349-.46-1.825-.112-3.617 2.656-.081.122-.161.251-.242.38-.008 0-.008 0-.008.007-1.357 2.067-3.132 4.561-6.345 5.506zm-49.476 82.339a128.214 128.214 0 0 1-.137-3.883c-2.05-1.752-3.625-3.624-5.554-5.933-3.245-3.883-7.661-9.154-17.404-17.154-1.687 1.518-3.891 3.625-6.652 6.53-2.526 2.641-3.899 4.941-4.601 6.854 2.761 2.462 6.119 5.054 10.171 7.895 8.274 5.796 19.527 14.183 25.525 18.671-.637-3.891-1.106-8.129-1.348-12.98M3.657 11.205c-2.97 7.685-9.251 14.36-21.65 23.038-10.22 7.161-25.049 18.325-28.722 21.086-1.34 6.998-3.172 13.488-5.158 20.511-5.538 19.657-11.826 41.929-11.826 89.104 0 24.306-6.733 43.446-19.503 55.473h-.008a30.486 30.486 0 0 1-1.76 1.615 35.108 35.108 0 0 1-2.179 1.735c-.065.057-.13.106-.186.146-.452.347-.759.557-.808.597h-.007a45.236 45.236 0 0 1-2.705 1.817h-3.253a4.513 4.513 0 0 0-.081-.372 11.353 11.353 0 0 0-.202-.767 12.426 12.426 0 0 0-.427-1.187c.193-.105.379-.209.565-.322a37.837 37.837 0 0 0 2.413-1.502 7.53 7.53 0 0 0 .428-.282c.226-.154.452-.307.67-.469 0 0 .081-.056.218-.161.622-.476 2.47-1.905 3.608-2.898a.5.5 0 0 0 .105-.089c.162-.137.299-.266.42-.379 12.23-11.221 18.68-29.505 18.68-52.955 0-47.733 6.644-71.272 11.979-90.193 1.921-6.821 3.706-13.126 5.021-19.891v-.008a118.773 118.773 0 0 0 2.14-18.38c.048-1.211.08-2.398.096-3.569v-.032c.453-31.563-9.929-49.225-18.929-58.574-5.756-5.981-12.787-10.55-21.061-13.658a70.02 70.02 0 0 0-2.011-.726 72.668 72.668 0 0 0-2.009-.654c-4.303-1.316-8.904-2.285-13.804-2.882a51.212 51.212 0 0 0-2.01-.226 53.536 53.536 0 0 0-2.01-.186 110.368 110.368 0 0 0-8.928-.355h-.041a101.949 101.949 0 0 0-7.887.129 79.822 79.822 0 0 0-4.012.291c-4.835.46-9.396 1.275-13.666 2.462-.678.177-1.34.371-2.002.573-.678.21-1.348.428-2.01.67-8.775 3.003-16.234 7.653-22.329 13.925-17.008 17.525-19.381 43.801-19.26 58.057v.032c.016 1.76.072 3.342.137 4.698.339 6.829 1.154 12.44 2.252 17.557 1.179 5.514 2.697 10.478 4.327 15.814 5.263 17.235 11.818 38.683 11.818 95.126 0 23.676 6.91 42.154 19.979 53.447.009 0 .016.008.025.017.048.04.169.153.346.314.477.396 1.349 1.122 2.285 1.816l.008.008c.016.009.024.017.04.025.194.145.404.299.606.435.105.081.218.154.323.227.476.33.952.662 1.437.976.218.138.436.283.662.42h.008a37.45 37.45 0 0 0 1.719 1.026 8.615 8.615 0 0 0-.282.645c-.122.323-.234.646-.323.977v.008c-.032.097-.065.186-.089.283v.008c-.073.25-.129.492-.178.751h-2.494a45.641 45.641 0 0 1-2.922-1.922l-.259-.194c-.08-.056-.177-.129-.29-.21a9.716 9.716 0 0 0-.38-.282.281.281 0 0 0-.072-.056c-.574-.444-1.332-1.017-2.027-1.591-.169-.137-.338-.282-.5-.419a.253.253 0 0 1-.081-.073 14.15 14.15 0 0 1-.524-.452c-17.364-15.257-21.029-38.925-21.029-56.184 0-55.845-6.458-76.971-11.648-93.947-1.591-5.223-3.084-10.115-4.271-15.483-3.188-2.405-18.486-13.933-28.964-21.271-12.399-8.678-18.671-15.353-21.65-23.038-2.849-7.346 1.437-11.859 2.22-12.601.501-.533 2.164-1.978 5.514-1.978 3.858 0 9.961 1.913 19.099 9.34 10.558 8.573 15.257 14.183 18.687 18.292.88 1.049 1.68 2.002 2.479 2.882.678-31.103 12.778-48.418 20.391-56.273 6.853-7.064 15.289-12.198 25.21-15.386V-55.28c-4.739-.29-7.693-2.301-8.355-2.801a135.93 135.93 0 0 1-2.761-1.728c-4.819-3.051-12.1-7.66-18.09-9.629-8.307-2.745-10.195-12.053-9.283-15.976-.009-.008-.009-.008 0-.016-.009-.008-.009-.008 0-.016-.356-7.363 2.131-12.101 2.236-12.303l.29-.541.541-.29c.267-.137 6.644-3.399 26.05-3.923.839-.017 1.671-.033 2.486-.033 17.792 0 31.458 5.078 32.056 5.304l.904.347.299.921c1.921 6.013 1.388 10.679 1.275 11.486v.017c-.363 11.551-4.48 21.803-5.788 23.103-.057.056-.113.113-.17.161v12.9c1.801-.089 3.633-.137 5.498-.137.799 0 1.614.016 2.43.032h.048c3.043 0 6.006.113 8.88.339v-12.278a4.069 4.069 0 0 1-1.623-1.017c-1.299-1.3-5.401-11.536-5.78-23.071v-.009c-.097-.693-.678-5.408 1.275-11.526l.291-.921.913-.347c.597-.226 14.255-5.304 32.047-5.304.823 0 1.655.016 2.486.033 19.414.524 25.792 3.786 26.058 3.923l.541.29.29.541c.105.202 2.576 4.9 2.236 12.214.009.024 0 .04 0 .056.937 3.892-.936 13.288-9.283 16.041-5.997 1.969-13.279 6.578-18.098 9.629a137.52 137.52 0 0 1-2.753 1.728c-.589.444-2.954 2.059-6.756 2.632v11.81c9.436 3.317 17.444 8.379 23.959 15.152 8.96 9.315 19.244 26.364 20.011 55.796.848-.928 1.695-1.937 2.632-3.051 3.43-4.109 8.129-9.719 18.687-18.292 9.146-7.427 15.241-9.34 19.099-9.34 3.351 0 5.014 1.445 5.514 1.978.783.742 5.07 5.255 2.22 12.601" style="fill:#110f0d;fill-opacity:1;fill-rule:nonzero;stroke:none" transform="matrix(1.62047 0 0 -1.62047 503.417 420.976)"/><path d="M0 0a7.605 7.605 0 0 0-1.001-1.809A7.653 7.653 0 0 0-2.47-3.358a8.102 8.102 0 0 0-5.158-1.841c-1.97 0-3.77.695-5.183 1.841h-.008a8.356 8.356 0 0 0-1.574 1.711 8.199 8.199 0 0 0-1.453 4.666c0 .412.032.823.096 1.219v.008c0 .032.009.065.017.105a8.207 8.207 0 0 0 1.671 3.77c0 .008.008.008.008.016.024.024.033.032.049.056a8.108 8.108 0 0 0 4.883 2.89h.008a7.534 7.534 0 0 0 2.237.105 7.92 7.92 0 0 0 2.865-.807C-1.954 9.364-.371 7.507.258 5.263c.009-.008.009-.008.009-.016h-5.005V.783H.267A7.154 7.154 0 0 0 .016.056.148.148 0 0 0 0 0m-29.077-1.461a8.153 8.153 0 0 0-1.687-1.881h-.008a8.142 8.142 0 0 0-5.19-1.857 8.168 8.168 0 0 0-5.207 1.857 8.001 8.001 0 0 0-1.784 2.05c-.21.323-.388.654-.541 1.009a7.792 7.792 0 0 0-.581 1.938 8.369 8.369 0 0 0-.073 2.179 8.212 8.212 0 0 0 2.607 5.223c.501.46 1.05.856 1.655 1.179a8.184 8.184 0 0 0 6.038.71 8.049 8.049 0 0 0 1.97-.799 8.321 8.321 0 0 0 2.01-1.623l.008-.008c.13-.137.251-.282.363-.436a7.87 7.87 0 0 0 1.115-1.88 8.04 8.04 0 0 0 .54-1.954 8.162 8.162 0 0 0-1.235-5.707M13.513.783v4.464H3.818a11.669 11.669 0 0 1-10.252 9.38 10.88 10.88 0 0 1-2.22.017 10.804 10.804 0 0 1-2.042-.364c-.444-.121-.88-.266-1.3-.436a11.153 11.153 0 0 1-2.76-1.59 11.537 11.537 0 0 1-3.14-3.697 11.263 11.263 0 0 1-.848-1.97c-.016-.041-.025-.089-.041-.129a10.29 10.29 0 0 1-.298-1.211h-5.441c-.089.436-.194.872-.323 1.292a11.88 11.88 0 0 1-.823 1.953 11.661 11.661 0 0 1-4.028 4.375h-.009c-.597.38-1.227.711-1.897.985-.621.251-1.275.452-1.945.589a11.661 11.661 0 0 1-6.862-.629 10.753 10.753 0 0 1-1.816-.945h-.008a11.499 11.499 0 0 1-1.582-1.219 7.72 7.72 0 0 1-.468-.452 11.583 11.583 0 0 1-2.495-3.778v-.007a11.548 11.548 0 0 1-.637-2.164h-8.977V.783s-.121-1.954.533-4.254c.694.573 1.453 1.146 2.026 1.59a.29.29 0 0 1 .073.057c.04.04.08.072.121.105.057.04.105.08.161.112a10.83 10.83 0 0 0-.879 2.39h6.942c.048-.259.104-.5.177-.751V.024c.025-.097.057-.186.089-.282v-.009c.089-.331.202-.653.323-.976.089-.218.178-.436.283-.646.153-.355.331-.686.532-1.017.081-.145.17-.291.267-.428a11.38 11.38 0 0 1 1.759-2.131 11.639 11.639 0 0 1 8.025-3.188c3.091 0 5.908 1.202 7.991 3.172a11.896 11.896 0 0 1 1.784 2.131c.372.581.703 1.195.969 1.84.306.727.541 1.494.694 2.293h5.441a11.422 11.422 0 0 1 1.679-4.133 11.716 11.716 0 0 1 1.792-2.148 11.638 11.638 0 0 1 7.984-3.155c3.075 0 5.877 1.186 7.959 3.139a11.199 11.199 0 0 1 1.8 2.148c.226.339.436.694.622 1.065.08.146.153.299.218.445A11.979 11.979 0 0 1 3.818.783h7.661a10.948 10.948 0 0 0-.888-2.414c.056-.04.121-.088.186-.145a35.17 35.17 0 0 0 2.179-1.736c.678 2.317.557 4.295.557 4.295" style="fill:#ed2023;fill-opacity:1;fill-rule:nonzero;stroke:none" transform="matrix(1.62047 0 0 -1.62047 344.73 55.49)"/><path d="M0 0c-2.372-2.502-6.125-3.801-11.152-3.875h-.057c-.13-.007-.26-.007-.39-.007h-14.426c-.13-.009-.252 0-.439.007-5.004.074-8.748 1.365-11.128 3.843-1.681 1.754-2.34 3.793-2.599 5.157H2.575C2.323 3.777 1.682 1.771 0 0m-18.52 19.268c15.677 0 19.804-7.416 20.884-10.885h-42.263c1.259 3.517 5.751 10.885 21.379 10.885m20.9-4.395c-2.932 3.485-8.943 7.644-20.9 7.644-23.126 0-25.059-15.434-25.075-15.588-.008-.033-.008-.057-.008-.09v-.081c-.016-.609.033-5.206 3.623-8.992 2.997-3.16 7.529-4.808 13.402-4.89.187-.007.366-.007.553-.007h14.426c.179 0 .349 0 .519.007 5.93.09 10.446 1.739 13.444 4.89C5.784 1.381 5.97 5.735 5.97 6.653V6.864c-.008.162-.308 4.11-3.59 8.009" style="fill:#110f0d;fill-opacity:1;fill-rule:nonzero;stroke:none" transform="matrix(1.62047 0 0 -1.62047 340.683 199.398)"/><path d="M0 0s-2.18-.732-2.187-3.002c0 0 .02-1.772 5.069-.637L2.71-.904Z" style="fill:#36b665;fill-opacity:1;fill-rule:nonzero;stroke:none" transform="matrix(1.62047 0 0 -1.62047 338.057 549.932)"/><path d="M0 0s3.059-.633 2.876-3.23c0 0-.192-1.39-4.043-1.196l-1.319 3.035z" style="fill:#36b665;fill-opacity:1;fill-rule:nonzero;stroke:none" transform="matrix(1.62047 0 0 -1.62047 356.265 549.164)"/><path d="M0 0s-1.649 3.787 1.873 4.215C5.396 4.637 5.477 2.78 5.21.183c0 0 3.876 1.864 4.423-1.955.543-3.812-2.641-3.71-2.641-3.71s2.233-3.438-1.051-4.733c-3.28-1.308-3.606 1.164-3.606 1.164s-.726-2.393-2.442-1.779c-1.718.617-2.729 2.286-1.914 4.782 0 0-4.326 1.45-2.871 5.132 0 0 1.414 2.679 4.892.916" style="fill:#ef2e39;fill-opacity:1;fill-rule:nonzero;stroke:none" transform="matrix(1.62047 0 0 -1.62047 343.097 542.723)"/><path d="M0 0a.34.34 0 0 0-.263.099l-.975 1.007c-.14.146-.114.399.061.564.175.166.429.182.57.037L.368.698C.509.553.481.302.307.136A.486.486 0 0 0 0 0" style="fill:#f9dc05;fill-opacity:1;fill-rule:nonzero;stroke:none" transform="matrix(1.62047 0 0 -1.62047 345.48 550.58)"/><path d="M0 0h-.01a.326.326 0 0 0-.338.391c.106.667.164 1.338.173 1.997a.492.492 0 0 0 .411.455c.223.036.403-.114.4-.331A14.951 14.951 0 0 0 .453.405.5.5 0 0 0 0 0" style="fill:#f9dc05;fill-opacity:1;fill-rule:nonzero;stroke:none" transform="matrix(1.62047 0 0 -1.62047 346.972 550.998)"/><path d="M0 0a.342.342 0 0 0-.236.074C-.393.202-.39.451-.23.629c.325.363.558.808.654 1.255a.492.492 0 0 0 .482.38c.219-.009.358-.194.311-.413A3.77 3.77 0 0 0 .336.166.483.483 0 0 0 0 0" style="fill:#f9dc05;fill-opacity:1;fill-rule:nonzero;stroke:none" transform="matrix(1.62047 0 0 -1.62047 348.467 550.766)"/><path d="M0 0s2.18-.529 2.187-2.738c0 0-.02-1.726-5.069-1.11l.172 2.723z" style="fill:#36b665;fill-opacity:1;fill-rule:nonzero;stroke:none" transform="matrix(1.62047 0 0 -1.62047 281.168 548.418)"/><path d="M0 0s-3.059-.917-2.876-3.567c0 0 .192-1.409 4.043-.819L2.486-1.19z" style="fill:#36b665;fill-opacity:1;fill-rule:nonzero;stroke:none" transform="matrix(1.62047 0 0 -1.62047 262.96 549.21)"/><path d="M0 0s1.649 3.848-1.873 4.067c-3.523.222-3.604-1.656-3.337-4.256 0 0-3.876 1.623-4.423-2.319-.542-3.949 2.641-3.553 2.641-3.553s-2.233-3.715 1.051-4.685c3.28-.96 3.606 1.543 3.606 1.543s.726-2.309 2.442-1.514c1.718.79 2.729 2.532 1.914 4.908 0 0 4.326 1.795 2.871 5.262 0 0-1.414 2.52-4.892.547" style="fill:#ef2e39;fill-opacity:1;fill-rule:nonzero;stroke:none" transform="matrix(1.62047 0 0 -1.62047 276.128 541.706)"/><path d="M0 0c.1.004.194.044.263.121l.975 1.084c.14.156.114.404-.061.554-.174.15-.429.145-.57-.01L-.368.664C-.509.507-.481.258-.307.108A.442.442 0 0 1 0 0" style="fill:#f9dc05;fill-opacity:1;fill-rule:nonzero;stroke:none" transform="matrix(1.62047 0 0 -1.62047 273.746 549.696)"/><path d="M0 0h.01a.36.36 0 0 1 .338.42 13.628 13.628 0 0 0-.173 1.977.443.443 0 0 1-.411.422.36.36 0 0 1-.4-.363c.01-.693.072-1.397.183-2.091A.445.445 0 0 1 0 0" style="fill:#f9dc05;fill-opacity:1;fill-rule:nonzero;stroke:none" transform="matrix(1.62047 0 0 -1.62047 272.253 550.244)"/><path d="M0 0c.087.004.17.035.236.095C.393.237.39.485.23.65a2.535 2.535 0 0 0-.654 1.202.445.445 0 0 1-.482.342.358.358 0 0 1-.311-.44c.13-.592.443-1.167.881-1.618A.445.445 0 0 1 0 0" style="fill:#f9dc05;fill-opacity:1;fill-rule:nonzero;stroke:none" transform="matrix(1.62047 0 0 -1.62047 270.759 550.145)"/></svg>