<svg xmlns="http://www.w3.org/2000/svg" xml:space="preserve" width="500" height="361.73099" viewBox="0 0 500 361.73098"><defs><clipPath id="a" clipPathUnits="userSpaceOnUse"><path d="M0 841.89h595.276V0H0Z"/></clipPath></defs><g clip-path="url(#a)" transform="matrix(1.50124 0 0 -1.50124 -242.563 880.888)"><path d="M0 0c-2.192 13.178-3.379 72.815-3.918 75.792l-2.76.58 1.014.573-4.786-.286v-4.787l-12.779-8.505-11.703 1.178-8.028 1.096.015-.065-.475.065.556-1.043C-43.792 61.623-56.006 23.264-64.132 0c-4.281-12.262 18.6-8.832 21.328-2.313 2.749 6.584 9.221 25.735 10.155 26.604l1.604.01c.272.039 3.024-.408 4.633-.309 1.599-.099 5.525.348 5.793.309l.011-.01c.82-.869-1.368-20.02.506-26.604C-18.254-8.832 2.066-12.432 0 0" style="fill:#194f9a;fill-opacity:1;fill-rule:nonzero;stroke:none" transform="translate(286.228 354.089)"/><path d="M0 0c.953.463 9.59 4.23 9.383 6.593-.162 1.821-3.739 1.218-3.36 2.267.364 1.063 3.211 2.668 2.639 4.203-.56 1.542-4.232.53-5.041 1.838-.799 1.298 1.816 3.387.317 5.177-1.512 1.787-5.141-2.51-6.731-1.196-.701.576-1.744 4.358-3.719 3.581-1.967-.765-3.146-5.614-3.146-5.614-5.451-6.37-14.518-12.845-22.424-17.829 1.977-3.621 3.957-7.238 5.941-10.856C-11.471-6.406-1.203-.58 0 0" style="fill:#3b98da;fill-opacity:1;fill-rule:nonzero;stroke:none" transform="translate(325.629 435.25)"/><path d="M0 0c10.476 1.783 20.35 4.776 28.783 7.897a6397.944 6397.944 0 0 0-5.941 10.855C14.413 13.436 7.307 9.809 7.307 9.809Z" style="fill:#194f9a;fill-opacity:1;fill-rule:nonzero;stroke:none" transform="translate(270.706 415.517)"/><path d="M0 0c-.056 2.145 7.955 5.059 8.845 5.43 1.217.494 12.453 5.998 27.912 10.289 1.196-3.406 2.398-6.471 3.597-9.864-7.913-4.187-17.843-10.119-23.725-16.187 0 0-1.334-4.313-3.157-4.897-1.826-.586-2.547 2.883-3.158 3.444-1.358 1.277-4.882-2.406-6.14-.705-1.257 1.697 1.226 3.439.574 4.658C4.087-6.608.714-7.315.293-5.885-.136-4.469 2.527-3.174 2.91-2.238 3.312-1.312.052-1.656 0 0" style="fill:#3b98da;fill-opacity:1;fill-rule:nonzero;stroke:none" transform="translate(192.38 396.77)"/><path d="m0 0-7.146-8.455s-5.291-2.301-12.058-5.879c-1.198 3.393-2.401 6.457-3.596 9.863C-15.874-2.547-8.103-.873 0 0" style="fill:#194f9a;fill-opacity:1;fill-rule:nonzero;stroke:none" transform="translate(251.937 416.96)"/><path d="M0 0c-4.051 7.399 2.972 10.9 2.972 10.9 4.037-3.421 7.486-.055 14.255 2.072 6.761 2.131 22.102-3.153 22.102-3.153 2.112 13.004-11.805 17.018-11.805 17.018 2.281 14.831-9.249 18.308-18.012 18.161-8.763-.15-11.119 5.79-11.119 5.79-2.669-4.132.078-8.627.078-8.627-1.071.955-4.433 1.977-4.433 1.977C-4.39 35.322.691 33.711 9.765 34.222c9.089.499 11.311-4.296 11.311-4.296-19.64 6.125-40.206-8.582-33.498-7.871 6.705.711 10.61-2.781 10.61-2.781-4.502-2.748-13.731-9.063-8.337-21.248C-7.071-8.912.018-13.501 9.141-16.681a84.595 84.595 0 0 0 11.728 6.882C9.193-8.453 3.358-6.122 0 0" style="fill:#3b98da;fill-opacity:1;fill-rule:nonzero;stroke:none" transform="translate(199.276 527.972)"/><path d="M0 0a46.9 46.9 0 0 1 1.754 1.903c2.455 2.824 5.599 6.508 8.806 10.785-12.154 8.725-29.232 11.599-41.854 12.527-2.958.218-5.628.458-8.053.737a84.554 84.554 0 0 1-11.728-6.882c6.891-2.402 14.94-4 23.307-5.192C-14.544 12-5.236 5.878 0 0" style="fill:#194f9a;fill-opacity:1;fill-rule:nonzero;stroke:none" transform="translate(259.492 492.22)"/><path d="M0 0c.33.187.657.377.98.568A23.784 23.784 0 0 0 .677.537 54.517 54.517 0 0 0 0 0" style="fill:#194f9a;fill-opacity:1;fill-rule:nonzero;stroke:none" transform="translate(258.807 436.285)"/><path d="M0 0c8.316 13.962 7.252 25.901 7.252 25.901-2.994-3.937-5.68-6.931-7.772-9.068C.687 11.299.824 5.629 0 0" style="fill:#3b98da;fill-opacity:1;fill-rule:nonzero;stroke:none" transform="translate(313.76 470.916)"/><path d="M0 0c.459-7.271-1.574-14.642-4.751-21.549C2.581-24.226 9.11-28.167 14.42-33.234 19.178-10.68 0 0 0 0" style="fill:#3b98da;fill-opacity:1;fill-rule:nonzero;stroke:none" transform="translate(285.671 544.206)"/><path d="M0 0c9.963 21.622-5.172 37.453-5.172 37.453 1.24-5.789-3.385-13.679-6.258-17.878 4.303-4.374 7.742-9.52 10.03-15.387A45.206 45.206 0 0 0 0 0" style="fill:#3b98da;fill-opacity:1;fill-rule:nonzero;stroke:none" transform="translate(312.6 490.321)"/><path d="M0 0c-.235 1.01-.5 2.039-.809 3.096-.639 2.187-2.204 4.897-4.669 7.663C-10.003 6.094-16.542.94-22.367-3.313-14.783-2.205-8.491-.937-7.014-.598-6.029-.376-3.234.107 0 0" style="fill:#194f9a;fill-opacity:1;fill-rule:nonzero;stroke:none" transform="translate(264.97 481.461)"/><path d="M0 0c8.214-15.11 3.696-41.36-21.114-56.053 6.383.642 10.84 1.814 10.84 1.814 23.895 8.683 36.499 21.111 43.133 32.249.825 5.63.688 11.3-.519 16.833-2.752-2.818-4.471-4.147-4.471-4.147a46.638 46.638 0 0 1 3.83 6.719 45.107 45.107 0 0 1-1.4 4.188C28.012 7.47 24.572 12.617 20.27 16.991c-1.225-1.788-2.133-2.91-2.133-2.91a40.72 40.72 0 0 1 1.054 3.985C13.881 23.133 7.352 27.074.02 29.751c-2.983-6.483-6.973-12.555-10.868-17.748C-6.434 8.835-2.663 4.902 0 0" style="fill:#194f9a;fill-opacity:1;fill-rule:nonzero;stroke:none" transform="translate(280.9 492.906)"/><path d="M0 0c-2.663 4.902-6.434 8.835-10.848 12.003-3.208-4.277-6.351-7.962-8.806-10.785a47.644 47.644 0 0 0-1.754-1.904c2.465-2.766 4.029-5.476 4.668-7.663.309-1.057.574-2.086.809-3.096 6.832-.226 15.635-3.096 13.535-16.719-1.845-11.942-11.501-21.853-19.021-27.92l.303.031C3.696-41.36 8.214-15.11 0 0" style="fill:#194f9a;fill-opacity:1;fill-rule:nonzero;stroke:none" transform="translate(280.9 492.906)"/><path d="M0 0s-6.298-21.316 13.333-34.064c.072 7.416 1.881 14.879 5.197 21.984C11.407-9.372 4.774-5.526 0 0" style="fill:#3b98da;fill-opacity:1;fill-rule:nonzero;stroke:none" transform="translate(165.603 495.16)"/><path d="M0 0c-4.913.937-14.121 3.328-17.367 8.46 0 0 .286-22.699 23.752-30.809a45.05 45.05 0 0 0-3.314 6.724C1.092-10.552.1-5.296 0 0" style="fill:#3b98da;fill-opacity:1;fill-rule:nonzero;stroke:none" transform="translate(178.942 459.74)"/><path d="M0 0c-3.071.023-7.456.247-12.956 1.052 0 0 8.416-10.268 25.85-14.026C7.761-9.448 3.391-5.089 0 0" style="fill:#3b98da;fill-opacity:1;fill-rule:nonzero;stroke:none" transform="translate(186.504 435.532)"/><path d="M0 0s3.773 2.152 8.571 5.947C3.393 3.006-2.633.559-9.582-1.197l-9.979 5.928 5.234 3.601c-3.405 1.079-6.666 2.611-9.552 4.773-16.263 12.161.712 24.241 3.384 25.896 1.291.791 6.674 4.292 12.862 8.809-8.121-1.184-17.725-2.183-24.496-1.645-8.247.656-21.825 1.962-33.973 6.578-3.316-7.105-5.125-14.568-5.197-21.984a40.811 40.811 0 0 1 3.185-1.868s-1.264.144-3.18.511c.1-5.296 1.092-10.552 3.071-15.625a45.05 45.05 0 0 1 3.314-6.724 47.313 47.313 0 0 1 6.213-1.672s-1.776-.209-5.036-.187c3.391-5.089 7.761-9.448 12.894-12.973C-38.49-10.439-21.621-9.838 0 0" style="fill:#194f9a;fill-opacity:1;fill-rule:nonzero;stroke:none" transform="translate(250.236 430.338)"/><path d="m0 0-5.234-3.601 9.979-5.928c6.949 1.756 12.975 4.203 18.153 7.144.225.176.448.352.677.537C16.827-2.502 8.007-2.532 0 0" style="fill:#194f9a;fill-opacity:1;fill-rule:nonzero;stroke:none" transform="translate(235.909 438.67)"/><path d="M0 0s19.883 10.523 13.59 37.688c-3.234.107-6.029-.375-7.014-.598-1.477-.339-7.769-1.607-15.352-2.715-6.189-4.518-11.571-8.019-12.863-8.81-2.672-1.655-19.647-13.734-3.384-25.895 2.887-2.162 6.147-3.694 9.552-4.773l9.581 6.597z" style="fill:#194f9a;fill-opacity:1;fill-rule:nonzero;stroke:none" transform="translate(251.38 443.773)"/><path d="M0 0c7.52 6.067 17.176 15.978 19.021 27.92 2.1 13.623-6.704 16.493-13.535 16.719C11.779 17.474-8.104 6.951-8.104 6.951l-5.891 1.494-9.58-6.597C-15.568-.684-6.748-.654 0 0" style="fill:#194f9a;fill-opacity:1;fill-rule:nonzero;stroke:none" transform="translate(259.484 436.822)"/><path d="M0 0c12.411-30.377-4.73-46.723-29.901-57.004-25.162-10.278-48.833-10.602-61.241 19.776-12.416 30.394 2.361 52.498 27.522 62.775C-38.448 35.83-12.413 30.395 0 0" style="fill:#194f9a;fill-opacity:1;fill-rule:nonzero;stroke:none" transform="translate(297.116 475.447)"/><path d="M0 0c-5.927 11.174-16.691 24.652-19.952 23.863-2.414-.583-1.501-1.84-.958-5.509.308-2.07-.061-3.532-2.436-3.111-1.608.285-3.711 2.439-5.718 4.019-4.068 3.2-5.626 4.676-8.546 3.867-2.938-.815-2.92-5.989-2.477-10.375.529-5.283 1.733-10.911-.556-11.847-1.302-.53-4.798 4.315-8.557 8.541-3.088 3.471-6.354 6.53-8.722 5.846-3.095-.893-2.524-6.947-2.436-12.153.062-3.636-.109-6.86-1.935-7.606-1.738-.709-3.291.343-4.759 1.702-2.288 2.12-4.358 4.994-6.549 3.135-8.237-6.976-.593-31.363.983-35.221 8.378-20.512 27.317-19.086 47.952-10.655C9.166-31.686 7.705-14.534 0 0" style="fill:#fbc582;fill-opacity:1;fill-rule:nonzero;stroke:none" transform="translate(290.965 467.34)"/><path d="M0 0c3.979 1.626 7.689.81 10.85-.913 1.973 6.435.304 13.777.304 13.777-16.694-2.136-28.228-11.53-28.228-11.53s3.966-6.454 9.882-9.661C-6.132-4.862-4.031-1.646 0 0" style="fill:#0a2448;fill-opacity:1;fill-rule:nonzero;stroke:none" transform="translate(262.24 432.89)"/><path d="M0 0c4.04 1.649 6.145 4.868 7.213 8.325-3.16 1.723-6.871 2.539-10.85.913-4.031-1.645-6.132-4.862-7.192-8.327C-7.684-.806-3.969-1.622 0 0" style="fill:#ed1c24;fill-opacity:1;fill-rule:nonzero;stroke:none" transform="translate(265.877 423.651)"/><path d="M0 0c.704-1.728-1.744.74-3.27.114-1.522-.62-1.545-4.096-2.25-2.37-.706 1.729-.29 4.242 1.233 4.864C-2.763 3.231-.707 1.728 0 0" style="fill:#194f9a;fill-opacity:1;fill-rule:nonzero;stroke:none" transform="translate(272.997 479.33)"/><path d="M0 0c.705-1.728-1.745.737-3.269.115-1.523-.622-1.545-4.097-2.251-2.369-.706 1.727-.289 4.238 1.233 4.862C-2.764 3.229-.707 1.728 0 0" style="fill:#194f9a;fill-opacity:1;fill-rule:nonzero;stroke:none" transform="translate(226.255 460.239)"/><path d="M0 0c2.978-6.938.739-14.538-4.997-17-5.741-2.462-12.787 1.151-15.765 8.09-2.971 6.922-.74 14.531 4.999 16.993C-10.025 10.545-2.969 6.922 0 0" style="fill:#fff;fill-opacity:1;fill-rule:nonzero;stroke:none" transform="translate(241.95 446.226)"/><path d="M0 0c1.869-4.352.477-9.138-3.137-10.69-3.588-1.539-8.031.741-9.9 5.094-1.871 4.358-.454 9.133 3.134 10.671C-6.29 6.626-1.87 4.357 0 0" style="fill:#194f9a;fill-opacity:1;fill-rule:nonzero;stroke:none" transform="translate(237.818 444.453)"/><path d="M0 0c.384-.898.115-1.893-.658-2.223-.743-.318-1.677.157-2.062 1.055-.389.906-.092 1.917.649 2.236C-1.297 1.398-.388.906 0 0" style="fill:#fff;fill-opacity:1;fill-rule:nonzero;stroke:none" transform="translate(228.043 443.935)"/><path d="M0 0c2.978-6.938.739-14.537-4.997-17-5.74-2.462-12.786 1.15-15.764 8.09-2.972 6.922-.741 14.531 4.998 16.992C-10.025 10.544-2.969 6.922 0 0" style="fill:#fff;fill-opacity:1;fill-rule:nonzero;stroke:none" transform="translate(287.3 465.423)"/><path d="M0 0c1.869-4.352.476-9.136-3.137-10.689-3.588-1.54-8.031.74-9.901 5.096-1.869 4.355-.453 9.13 3.135 10.668C-6.29 6.626-1.869 4.357 0 0" style="fill:#194f9a;fill-opacity:1;fill-rule:nonzero;stroke:none" transform="translate(283.169 463.65)"/><path d="M0 0c.385-.899.115-1.892-.658-2.222-.743-.319-1.676.155-2.062 1.054-.388.905-.093 1.917.651 2.236C-1.297 1.398-.388.906 0 0" style="fill:#fff;fill-opacity:1;fill-rule:nonzero;stroke:none" transform="translate(273.394 463.133)"/><path d="M0 0c2.129 12.803 5.371 68.343 5.895 71.236l.593 4.185-.986.558 4.65-.278v-4.652l12.418-8.262 11.369 1.143 7.801 1.066-.013-.064.459.064-.538-1.012C42.551 61.092 54.416 22.605 62.311 0c4.16-11.914-18.073-8.58-20.723-2.244-2.67 6.394-8.209 26.797-9.117 27.642l-2.307-.57c-.264.041-2.937-.396-4.504-.303-1.553-.093-5.367.344-5.629.303l-.008-.008c-.798-.845 1.331-20.67-.492-27.064C17.734-8.58-2.01-12.078 0 0" style="fill:#f68712;fill-opacity:1;fill-rule:nonzero;stroke:none" transform="translate(385.223 354.95)"/><path d="M0 0s-4.391-31.21-19.801-49.723c0 0 12.055-4.998 37.491-5.34 25.435-.346 36.564 7.438 36.564 7.438S36.285-32.663 33.891-12.678C31.494 7.305 0 0 0 0" style="fill:#f1511b;fill-opacity:1;fill-rule:nonzero;stroke:none" transform="translate(392.824 433.99)"/><path d="M0 0c-.926.452-9.32 4.109-9.117 6.407.156 1.769 3.633 1.184 3.263 2.202-.351 1.032-3.119 2.594-2.562 4.084.545 1.498 4.113.516 4.898 1.786.776 1.262-1.765 3.289-.308 5.028 1.471 1.737 4.994-2.436 6.539-1.16.685.559 1.697 4.233 3.615 3.481 1.91-.746 3.057-5.457 3.057-5.457C14.682 10.18 23.49 3.891 31.172-.951 29.248-4.469 27.326-7.984 25.4-11.5 11.145-6.224 1.17-.565 0 0" style="fill:#f68712;fill-opacity:1;fill-rule:nonzero;stroke:none" transform="translate(346.94 435.025)"/><path d="M0 0c-10.178 1.732-19.77 4.639-27.963 7.672 1.926 3.516 3.848 7.032 5.772 10.549C-14.004 13.054-7.1 9.532-7.1 9.532Z" style="fill:#f1511b;fill-opacity:1;fill-rule:nonzero;stroke:none" transform="translate(400.303 415.853)"/><path d="M0 0c.055 2.084-7.729 4.918-8.594 5.277-1.181.481-12.099 5.83-27.121 9.998-1.162-3.31-2.328-6.287-3.492-9.584 7.687-4.068 17.334-9.832 23.049-15.728 0 0 1.297-4.19 3.068-4.758 1.776-.568 2.475 2.801 3.07 3.346 1.319 1.242 4.743-2.336 5.963-.684 1.223 1.649-1.189 3.342-.554 4.524.638 1.191 3.918.506 4.326 1.894.418 1.373-2.168 2.635-2.543 3.541C-3.217-1.271-.049-1.607 0 0" style="fill:#f68712;fill-opacity:1;fill-rule:nonzero;stroke:none" transform="translate(476.408 397.636)"/><path d="m0 0 6.941-8.217s5.143-2.232 11.719-5.711c1.164 3.297 2.33 6.274 3.492 9.584C15.422-2.477 7.873-.848 0 0" style="fill:#f1511b;fill-opacity:1;fill-rule:nonzero;stroke:none" transform="translate(418.541 417.255)"/><path d="M0 0s1.186 5.715 3.895 8.131c2.707 2.419 5.634 2.925 7.33 7.882 1.697 4.959-3.532 13.665-9.918 8.427-6.389-5.235-3.33-10.041-.082-10.317 3.252-.276 5.425 1.803 4.498 3.061-.93 1.257-3.651.934-3.455 2.119.197 1.188 3.298 2.322 4.504.34 1.205-1.977.734-6.415-3.989-6.47C-1.939 13.114-2.957 5.713 0 0" style="fill:#f1511b;fill-opacity:1;fill-rule:nonzero;stroke:none" transform="translate(437.867 472.103)"/><path d="M0 0s2.561 5.243 1.899 8.812c-.661 3.57-2.668 5.764-.973 10.723 1.695 4.959 11.156 8.642 13.002.592 1.847-8.051-3.514-9.979-6.252-8.208-2.74 1.771-3.186 4.746-1.682 5.172 1.504.425 3.459-1.498 4.031-.439.571 1.059-1.191 3.854-3.355 3.029-2.164-.827-4.506-4.626-.809-7.562C9.563 9.182 5.838 2.708 0 0" style="fill:#f1511b;fill-opacity:1;fill-rule:nonzero;stroke:none" transform="translate(410.353 481.507)"/><path d="M0 0s-2.152 13.718-15.215 20.414c0 0 .231-13.62 15.215-20.414" style="fill:#f68712;fill-opacity:1;fill-rule:nonzero;stroke:none" transform="translate(410.89 507.294)"/><path d="M0 0s-6.285 10.834-20.902 12.172c0 0 7.97-12.728 20.902-12.172" style="fill:#f68712;fill-opacity:1;fill-rule:nonzero;stroke:none" transform="translate(409.094 506.933)"/><path d="M0 0s-8.098 8.857-22.531 6.173c0 0 10.236-10.219 22.531-6.173" style="fill:#f68712;fill-opacity:1;fill-rule:nonzero;stroke:none" transform="translate(408.033 505.06)"/><path d="M0 0c-9.215-26.964-31.721-27.201-56.486-18.738-24.75 8.459-42.397 22.421-33.182 49.384 9.221 26.977 33.469 32.337 58.219 23.879C-6.684 46.06 9.219 26.977 0 0" style="fill:#f1511b;fill-opacity:1;fill-rule:nonzero;stroke:none" transform="translate(461.215 437.009)"/><path d="M0 0c7.926 8.351 16.617 20.035 19.387 23.849 4.25 5.852 6.984 13.102-3.282 1.804C2.688 10.884-9.115 4.092-16.559-2.522c-4.517-4.009-7.65-8.196-9.8-12.322 5.148 1.143 10.603 1.491 16.24 1.113C-7.412-8.343-3.44-3.627 0 0" style="fill:#f68712;fill-opacity:1;fill-rule:nonzero;stroke:none" transform="translate(421.246 518.968)"/><path d="m0 0 16.473 11.489c-3.291 7.529-1.869 14.764 1.299 21.077-5.637.379-11.092.031-16.241-1.112C-6.92 15.258 0 0 0 0" style="fill:#f1511b;fill-opacity:1;fill-rule:nonzero;stroke:none" transform="translate(393.356 472.671)"/><path d="M0 0c-1.836 9.785-7.018 22.379-8.584 42.269-1.205 15.218-3.479 7.812-3.703.584-.143-4.711-.424-19.271.736-30.728.531-5.249.791-11.82-.605-18.036C-7.443-9.466-3.434-13.53-.283-18.079.977-12.97 1.312-6.973 0 0" style="fill:#f68712;fill-opacity:1;fill-rule:nonzero;stroke:none" transform="translate(466.172 495.436)"/><path d="m0 0 5.994-19.168S19.52-12.017 23.541 4.311c-3.15 4.548-7.16 8.612-11.873 12.168C10.191 9.913 6.867 3.753 0 0" style="fill:#f1511b;fill-opacity:1;fill-rule:nonzero;stroke:none" transform="translate(442.348 473.046)"/><path d="M0 0c.557 4.164 1.719 8.482 3.711 12.167 3.588 6.637 9.852 22.751 10.492 29.15.543 5.46 1.775 12.938 8.981 26.279 3.673 6.806 4.171 13.072 3.873 17.342-.246 3.514-.528 3.667-1.153 0s-2.379-8.994-6.894-15.634C9.98 56.024 7.375 43.453 5.84 36.64 4.305 29.826-1.285 20.169-6.07 13.901c-1.815-2.378-3.514-6.298-4.926-10.244a93.575 93.575 0 0 0 6.31-1.904A90.859 90.859 0 0 0 0 0" style="fill:#f68712;fill-opacity:1;fill-rule:nonzero;stroke:none" transform="translate(436.67 499.14)"/><path d="M0 0s17.928-10.474 15.822-5.803c-1.269 2.817-1.836 8.793-.988 15.125a90.859 90.859 0 0 1-4.686 1.753 94.747 94.747 0 0 1-6.31 1.904C1.533 6.526 0 0 0 0" style="fill:#f1511b;fill-opacity:1;fill-rule:nonzero;stroke:none" transform="translate(421.836 489.819)"/><path d="M0 0c1.293 3.642 2.935 7.021 4.48 9.89 5.467 10.14 8.422 16.521 10.096 20.928 2.567 6.759 3.047 14.601-3.638.878C5.705 20.966-5.385 11.456-10.84 3.121c-3.965-6.064-5.959-11.845-6.717-17.137C-12.73-7.529-6.754-2.928 0 0" style="fill:#f68712;fill-opacity:1;fill-rule:nonzero;stroke:none" transform="translate(386.451 501.411)"/><path d="m0 0 10.322 12.342c-6.681 8.303-5.597 18.216-2.59 26.688-6.753-2.928-12.73-7.529-17.556-14.016-1.061-7.389.291-13.798 2.107-18.626C-5.936 3.862-3.453 1.641 0 0" style="fill:#f1511b;fill-opacity:1;fill-rule:nonzero;stroke:none" transform="translate(378.719 462.382)"/><path d="M0 0c.029 2.185.205 4.284.435 6.168 1.174 9.512 1.374 15.34 1.368 19.24-.008 4.908-.7 11.155-3.557-.529-2.35-9.632-7.148-20.774-8.967-28.909-1.814-8.125-.515-14.629 2.004-19.704.457 3.442 1.309 7.073 2.627 10.932C-4.44-7.972-2.385-3.726 0 0" style="fill:#f68712;fill-opacity:1;fill-rule:nonzero;stroke:none" transform="translate(366.922 484.514)"/><path d="m0 0 5.857 15.965c-.095.045-.177.099-.273.143l-2.563-3.061s-2.919 3.534-5.154 9.45c-3.301 4.699-4.154 10.478-4.08 15.744-2.385-3.725-4.439-7.971-6.09-12.801-1.318-3.86-2.17-7.491-2.627-10.933C-9.906 4.398 0 0 0 0" style="fill:#f1511b;fill-opacity:1;fill-rule:nonzero;stroke:none" transform="translate(373.135 446.273)"/><path d="m0 0 2.563 3.061C-.891 4.702-3.373 6.924-5.154 9.45-2.92 3.534 0 0 0 0" style="fill:#f1511b;fill-opacity:1;fill-rule:nonzero;stroke:none" transform="translate(376.156 459.32)"/><path d="M0 0c.793 9.933-2.16 24.24.268 35.928 3.109 14.946-1.307 8.45-3.414 1.53-1.375-4.51-2.942-11.364-4.823-22.729-.681-4.091-1.738-8.937-3.601-13.562 3-7.127 4.088-15.174 2.806-24.064C-4.404-17.61-.814-10.226 0 0" style="fill:#f68712;fill-opacity:1;fill-rule:nonzero;stroke:none" transform="translate(481.873 468.216)"/><path d="m0 0 .65-17.225c3.053-.474 5.836-.219 8.372.543 3.478 1.926 7.531 4.838 11.076 9.142 1.281 8.89.193 16.937-2.807 24.063C14.277 9.064 9.147 2.186 0 0" style="fill:#f1511b;fill-opacity:1;fill-rule:nonzero;stroke:none" transform="translate(453.012 452.859)"/><path d="M0 0c-2.537-2.968-6.168-7.528-11.447-15.525-1.494-2.26-3.34-4.777-5.545-7.095-.53-2.896-1.315-5.88-2.363-8.946-1.815-5.307-4.053-9.758-6.653-13.463 5.893 1.968 12.012 6.146 16.436 14.504 3.896 7.369 7.468 18.96 11.933 27.812C7.771 8.03 3.19 3.729 0 0" style="fill:#f68712;fill-opacity:1;fill-rule:nonzero;stroke:none" transform="translate(489.77 465.828)"/><path d="M0 0c-2.916-3.058-6.475-5.753-10.744-7.03-4.648-2.574-8.264-3.383-8.264-3.383l-.107 2.84c-.863.134-1.744.316-2.651.572l-5.902-15.941s9.022-2.684 18.652.533c2.6 3.705 4.838 8.156 6.653 13.463C-1.314-5.88-.529-2.896 0 0" style="fill:#f1511b;fill-opacity:1;fill-rule:nonzero;stroke:none" transform="translate(472.777 443.208)"/><path d="M0 0s3.615.809 8.264 3.383C5.728 2.62 2.945 2.365-.107 2.84Z" style="fill:#f1511b;fill-opacity:1;fill-rule:nonzero;stroke:none" transform="translate(453.77 432.795)"/><path d="M0 0c-7.811-22.854-27.094-22.977-48.342-15.713-21.232 7.258-36.396 19.151-28.584 42.004 7.809 22.855 25.371 17.973 46.602 10.718C-9.074 29.747 7.81 22.857 0 0" style="fill:#fbc582;fill-opacity:1;fill-rule:nonzero;stroke:none" transform="translate(454.025 437.334)"/><path d="M0 0c3.938-1.346 6.127-4.302 7.338-7.568 5.539 3.441 8.996 9.865 8.996 9.865-13.551 9.07-27.957 9.555-27.957 9.555s-1.213-7.239 1.064-13.346C-7.578.361-3.994 1.365 0 0" style="fill:#0a2448;fill-opacity:1;fill-rule:nonzero;stroke:none" transform="translate(409.672 432.865)"/><path d="M0 0c4.002-1.367 7.594-.363 10.568 1.486-1.211 3.267-3.4 6.223-7.338 7.569-3.994 1.365-7.578.361-10.558-1.494C-6.125 4.303-3.93 1.344 0 0" style="fill:#ed1c24;fill-opacity:1;fill-rule:nonzero;stroke:none" transform="translate(406.441 423.81)"/><path d="m0 0-5.703-18.293 13.226-4.521L13.23-4.522Z" style="fill:#f1511b;fill-opacity:1;fill-rule:nonzero;stroke:none" transform="translate(419.498 481.951)"/><path d="M0 0c-.582-1.711-1.662 1.94-4.228 2.817-2.567.877-5.653-1.348-5.069.358.584 1.707 3.344 2.979 5.91 2.102C-.822 4.399.584 1.704 0 0" style="fill:#194f9a;fill-opacity:1;fill-rule:nonzero;stroke:none" transform="translate(402.316 475.79)"/><path d="M0 0c-.584-1.706-1.66 1.943-4.23 2.822-2.565.875-5.651-1.349-5.067.356.582 1.706 3.342 2.981 5.908 2.104C-.818 4.403.584 1.706 0 0" style="fill:#194f9a;fill-opacity:1;fill-rule:nonzero;stroke:none" transform="translate(452.156 458.753)"/><path d="M0 0c-2.744-7.354-1.537-14.597 2.693-16.176 4.248-1.583 9.903 3.101 12.645 10.456 2.742 7.351 1.543 14.603-2.703 16.188C8.408 12.045 2.744 7.354 0 0" style="fill:#194f9a;fill-opacity:1;fill-rule:nonzero;stroke:none" transform="translate(431.658 443.532)"/><path d="M0 0s3.326-.609 6.822.317c0 0-3.847-3.407-7.572-4.014z" style="fill:#194f9a;fill-opacity:1;fill-rule:nonzero;stroke:none" transform="translate(447.746 441.51)"/><path d="M0 0s2.508-.459 5.146.242c0 0-2.9-2.573-5.712-3.03z" style="fill:#194f9a;fill-opacity:1;fill-rule:nonzero;stroke:none" transform="translate(448.285 444.156)"/><path d="M0 0c-2.734-7.328-1.611-14.52 2.51-16.057 4.135-1.543 9.693 3.156 12.424 10.483 2.734 7.329 1.617 14.524-2.518 16.068C8.299 12.032 2.734 7.324 0 0" style="fill:#fff;fill-opacity:1;fill-rule:nonzero;stroke:none" transform="translate(430.883 441.375)"/><path d="M0 0c-2.168-5.807-6.189-9.704-8.982-8.664-2.784 1.04-3.274 6.623-1.108 12.428 2.168 5.817 6.192 9.702 8.975 8.664C1.678 11.387 2.17 5.818 0 0" style="fill:#194f9a;fill-opacity:1;fill-rule:nonzero;stroke:none" transform="translate(443.42 436.57)"/><path d="M0 0c-.701-1.436-1.885-2.283-2.656-1.917-.758.377-.813 1.845-.114 3.274.7 1.432 1.883 2.288 2.653 1.913C.652 2.896.701 1.428 0 0" style="fill:#fff;fill-opacity:1;fill-rule:nonzero;stroke:none" transform="translate(437.225 441.94)"/><path d="M0 0c-2.332-7.494-7.717-12.485-12.031-11.145-4.326 1.348-5.932 8.512-3.6 16.009 2.33 7.49 7.719 12.493 12.045 11.148C.725 14.668 2.332 7.492 0 0" style="fill:#194f9a;fill-opacity:1;fill-rule:nonzero;stroke:none" transform="translate(398.248 454.952)"/><path d="M0 0s-3.004 1.559-5.201 4.429c0 0 .957-5.05 3.531-7.807z" style="fill:#194f9a;fill-opacity:1;fill-rule:nonzero;stroke:none" transform="translate(384.287 463.195)"/><path d="M0 0s-2.266 1.174-3.924 3.34c0 0 .721-3.808 2.662-5.889z" style="fill:#194f9a;fill-opacity:1;fill-rule:nonzero;stroke:none" transform="translate(385.482 465.618)"/><path d="M0 0c-2.734-7.327-1.611-14.521 2.508-16.054 4.133-1.545 9.691 3.154 12.424 10.483 2.732 7.328 1.617 14.521-2.518 16.065C8.299 12.03 2.732 7.327 0 0" style="fill:#fff;fill-opacity:1;fill-rule:nonzero;stroke:none" transform="translate(382.406 457.942)"/><path d="M0 0c-2.166-5.808-6.187-9.704-8.98-8.662-2.784 1.038-3.274 6.621-1.11 12.426 2.172 5.816 6.192 9.704 8.977 8.665C1.68 11.387 2.17 5.819 0 0" style="fill:#194f9a;fill-opacity:1;fill-rule:nonzero;stroke:none" transform="translate(394.94 453.138)"/><path d="M0 0c-.701-1.436-1.883-2.283-2.656-1.914-.756.374-.811 1.839-.114 3.268.7 1.434 1.885 2.291 2.655 1.917C.652 2.896.701 1.427 0 0" style="fill:#fff;fill-opacity:1;fill-rule:nonzero;stroke:none" transform="translate(388.744 458.507)"/><path d="M0 0s10.098 9.532 24.529 6.831C24.529 6.831 16.01-3.796 0 0" style="fill:#f68712;fill-opacity:1;fill-rule:nonzero;stroke:none" transform="translate(434.16 512.142)"/><path d="M0 0s11.602 4.726 23.982-3.165C23.982-3.165 9.889-8.352 0 0" style="fill:#f68712;fill-opacity:1;fill-rule:nonzero;stroke:none" transform="translate(435.361 510.755)"/><path d="M0 0s11.824 2.047 21.596-8.91c0 0-14.35-1.818-21.596 8.91" style="fill:#f68712;fill-opacity:1;fill-rule:nonzero;stroke:none" transform="translate(435.055 508.629)"/><path d="M0 0s10.1 9.531 24.529 6.83c0 0-8.517-10.626-24.529-6.83" style="fill:#f68712;fill-opacity:1;fill-rule:nonzero;stroke:none" transform="translate(456.156 491.824)"/><path d="M0 0s11.6 4.724 23.98-3.166C23.98-3.166 9.887-8.352 0 0" style="fill:#f68712;fill-opacity:1;fill-rule:nonzero;stroke:none" transform="translate(457.36 490.437)"/><path d="M0 0s11.824 2.049 21.598-8.908c0 0-14.352-1.818-21.598 8.908" style="fill:#f68712;fill-opacity:1;fill-rule:nonzero;stroke:none" transform="translate(457.05 488.308)"/><path d="M0 0s-2.154 13.719-15.217 20.415c0 0 .233-13.617 15.217-20.415" style="fill:#f68712;fill-opacity:1;fill-rule:nonzero;stroke:none" transform="translate(439.107 510.45)"/><path d="M0 0s-6.283 10.837-20.902 12.174c0 0 7.97-12.727 20.902-12.174" style="fill:#f68712;fill-opacity:1;fill-rule:nonzero;stroke:none" transform="translate(437.309 510.09)"/><path d="M0 0s-8.098 8.857-22.529 6.173c0 0 10.236-10.221 22.529-6.173" style="fill:#f68712;fill-opacity:1;fill-rule:nonzero;stroke:none" transform="translate(436.248 508.218)"/></g></svg>