<svg xmlns="http://www.w3.org/2000/svg" xml:space="preserve" width="600" height="423.94699" viewBox="0 0 600 423.94698"><defs><radialGradient id="b" cx="0" cy="0" r="1" fx="0" fy="0" gradientTransform="matrix(5.32465 0 0 -5.32465 417.019 487.79)" gradientUnits="userSpaceOnUse" spreadMethod="pad"><stop offset="0" style="stop-opacity:1;stop-color:#f7bb9e"/><stop offset="0.40690833" style="stop-opacity:1;stop-color:#f7bb9e"/><stop offset="1" style="stop-opacity:1;stop-color:#fde7d3"/></radialGradient><radialGradient id="c" cx="0" cy="0" r="1" fx="0" fy="0" gradientTransform="matrix(5.32465 0 0 -5.32465 362.992 479.436)" gradientUnits="userSpaceOnUse" spreadMethod="pad"><stop offset="0" style="stop-opacity:1;stop-color:#f7bb9e"/><stop offset="0.40690833" style="stop-opacity:1;stop-color:#f7bb9e"/><stop offset="1" style="stop-opacity:1;stop-color:#fde7d3"/></radialGradient><clipPath id="a" clipPathUnits="userSpaceOnUse"><path d="M0 841.89h595.276V0H0Z"/></clipPath><clipPath id="d" clipPathUnits="userSpaceOnUse"><path d="M0 841.89h595.276V0H0Z"/></clipPath></defs><g clip-path="url(#a)" transform="matrix(2.04496 0 0 -2.04496 -336.403 1218.55)"><path d="M0 0s-.068 4.574-.711 6.943l-14.905-.808-5.2-2.983S-14.426-12.07 0 0" style="fill:#231815;fill-opacity:1;fill-rule:nonzero;stroke:none" transform="translate(392.91 397.49)"/><path d="M0 0s-.062 4.164-.639 6.316l-12.773-.994-4.73-2.728S-13.114-10.975 0 0" style="fill:#eaeef1;fill-opacity:1;fill-rule:nonzero;stroke:none" transform="translate(391.7 397.592)"/><path d="M0 0c-.073 1.406-.233 3.424-.58 4.717l-12.774-.994-1.905-1.1c8.274-1.18 4.498-3.33 9.042-3.33z" style="fill:#bccfd8;fill-opacity:1;fill-rule:nonzero;stroke:none" transform="translate(391.642 399.192)"/><path d="M0 0a1.627 1.627 0 0 1-1.839.348l-.044-.02c-4.685-2.234-10.712-2.621-12.692-2.681-.366.695-1.011 1.759-1.867 2.466-2.061 2.159-5.198 2.537-8.425.983-2.845-1.356-5.642-4.363-5.222-7.25.183-1.215 1.112-3.334 5.356-4.002C-11.337-12.277-.924-8.748-.486-8.594l.481.178.182.455C1.071-5.703 1.398-1.371 0 0" style="fill:#231815;fill-opacity:1;fill-rule:nonzero;stroke:none" transform="translate(393.193 400.166)"/><path d="M0 0c1.423.584 1.568-3.492.549-6.065 0 0-9.996-3.464-22.705-1.46C-32.935-5.82-20.778 6.037-15.361.232c1.095-.88 2.104-2.929 2.104-2.929S-5.709-2.727 0 0" style="fill:#8e2f67;fill-opacity:1;fill-rule:nonzero;stroke:none" transform="translate(391.249 398.99)"/><path d="M0 0c1.216-1.711-4.806-2.479-4.916-1.613C-5.2.609-1.493 1.236-.425.42-.235.275-.095.135 0 0" style="fill:#b57d98;fill-opacity:1;fill-rule:nonzero;stroke:none" transform="translate(373.13 399.668)"/><path d="M0 0c-2.31-1.104-4.917-1.75-7.206-2.135v-3.133c-10.916-1.492-16.418-.662-19.19.467.301-1.25 1.563-2.301 4.24-2.724C-9.447-9.529.549-6.065.549-6.065 1.568-3.492 1.423.584 0 0" style="fill:#791359;fill-opacity:1;fill-rule:nonzero;stroke:none" transform="translate(391.249 398.99)"/><path d="M0 0s-.82 4.502-1.842 6.736l-14.566-3.271-4.631-3.805S-12.221-14.289 0 0" style="fill:#231815;fill-opacity:1;fill-rule:nonzero;stroke:none" transform="translate(415.42 399.463)"/><path d="M0 0s-.753 4.086-1.676 6.123l-12.731-2.976-4.213-3.471S-11.112-12.996 0 0" style="fill:#eaeef1;fill-opacity:1;fill-rule:nonzero;stroke:none" transform="translate(413.947 399.485)"/><path d="M0 0s-.753 4.086-1.676 6.123l-12.731-2.976L-17.511.59s7.425.254 9.421.254c1.997 0 5.037-1.871 5.037-1.871l2.096-.037C-.641-.728-.322-.377 0 0" style="fill:#bccfd8;fill-opacity:1;fill-rule:nonzero;stroke:none" transform="translate(413.947 399.485)"/><path d="M0 0a1.629 1.629 0 0 1-1.873.141l-.049-.026c-4.4-2.728-10.347-3.793-12.316-4.08-.44.656-1.192 1.647-2.115 2.266-2.3 1.914-5.464 1.931-8.486.033-2.682-1.672-5.127-4.967-4.386-7.789.307-1.172 1.467-3.184 5.76-3.385C-9.916-13.461.041-8.793.462-8.594l.462.217.126.492C1.689-5.545 1.531-1.203 0 0" style="fill:#231815;fill-opacity:1;fill-rule:nonzero;stroke:none" transform="translate(415.913 401.463)"/><path d="M0 0c1.344.734 2.006-3.295 1.269-5.965 0 0-9.554-4.545-22.4-3.959-10.912.502-.157 13.647 5.868 8.49 1.179-.752 2.382-2.718 2.382-2.718S-5.378-3.336 0 0" style="fill:#8e2f67;fill-opacity:1;fill-rule:nonzero;stroke:none" transform="translate(414.033 400.059)"/><path d="M0 0c-1.022-1.455-5.617-2.896-4.976-.504C-4.524 1.186.41 2.439.195.465A1.004 1.004 0 0 0 0 0" style="fill:#b57d98;fill-opacity:1;fill-rule:nonzero;stroke:none" transform="translate(396.112 397.69)"/><path d="M0 0c.949 1.005 2.371 1.112 3.562 1.112-.383.716-.578 1.472-.491 2.186.025.156.036.295.091.44A3.29 3.29 0 0 0 5.32 5.999c1.834.637 4.15-.131 5.136-.842.419-.294 2.431-.561 4.233-.576h1.043l3.004-11.774-.194-.44c-.141-.29-1.387-2.884-2.937-4.087-.152-.122-.304-.729-.388-1.13-.287-1.183-.82-3.377-3.545-3.288-.809.024-1.489.359-1.988.976-.285.351-.466.775-.61 1.22-.625-.54-1.323-.914-2.102-.887-.63.018-1.518.286-2.232 1.477-.308.535-.418 1.07-.436 1.612-.545-.196-1.082-.281-1.622-.161-.573.114-1.349.488-1.836 1.597-.323.751-.433 1.505-.342 2.243.05.386.153.767.305 1.135.232.517.555.951.918 1.364-.535.146-1.041.347-1.459.674-.644.495-1.034 1.17-1.094 1.945A4.91 4.91 0 0 0-.81-1.845C-.719-1.103-.451-.485 0 0" style="fill:#231815;fill-opacity:1;fill-rule:nonzero;stroke:none" transform="translate(332.472 444.028)"/><path d="M0 0c-2.78 0-3.174 2.213-3.174 2.213-2.237.409-3.423 2.309-3.066 3.551.672 2.33 4.099 1.511 5.212.695 1.123-.809 5.02-.822 5.02-.822L6.631-4.679S5.439-7.22 4.096-8.272c-1.343-1.048-.395-4.232-3.075-4.146-2.22.081-1.392 4.569-1.392 4.569-1.163-1.746-3.076-4.681-4.415-2.43C-6.122-8.023-2.561-4.82-2.561-4.82c-1.008-.484-4.844-5.337-6.048-2.555-1.52 3.493 3.908 5.454 3.908 5.454-2.678-.478-5.341-.117-5.471 1.488-.229 2.593 1.673 2.624 3.55 2.6 2.074-.033 3.326.125 3.326.125" style="fill:#fde7d3;fill-opacity:1;fill-rule:nonzero;stroke:none" transform="translate(343.16 441.636)"/><path d="M0 0c.141.057.269.115.384.184A12.058 12.058 0 0 1 0 0" style="fill:#f6d0b5;fill-opacity:1;fill-rule:nonzero;stroke:none" transform="translate(337.573 439.322)"/><path d="M0 0c.133-1.555 2.647-1.935 5.245-1.516.505.389 1.088.811 1.088.811C3.015-1.337.804-.55 0 0" style="fill:#f6d0b5;fill-opacity:1;fill-rule:nonzero;stroke:none" transform="translate(332.99 441.195)"/><path d="M0 0c.042-.15.081-.301.148-.458 1.184-2.731 4.894 1.885 5.985 2.514C7.789 4.2 1.518-1.506 0 0" style="fill:#f6d0b5;fill-opacity:1;fill-rule:nonzero;stroke:none" transform="translate(334.39 434.723)"/><path d="M0 0a11.494 11.494 0 0 1-.643-.687c.229.239.447.471.643.687" style="fill:#f6d0b5;fill-opacity:1;fill-rule:nonzero;stroke:none" transform="translate(340.39 436.63)"/><path d="M0 0s.492 1.138.758 2.171l-.68.617s-2.314-6.244-4.562-5.061c.024-.052.041-.107.071-.158C-3.075-4.682-1.162-1.747 0 0" style="fill:#f6d0b5;fill-opacity:1;fill-rule:nonzero;stroke:none" transform="translate(342.802 433.74)"/><path d="m0 0-2.376 6.472C-4.91 4.397-8.252 7.855-8.252 7.855l.115-2.267c.921-5.608 3.654-6.64 3.654-6.64-.286-4.544-.81-4.003-1.517-4.467.234-.454.601-.77 1.173-.791 2.68-.085 1.731 3.098 3.074 4.146C-1.088-1.644-.463-.761 0 0" style="fill:#f6d0b5;fill-opacity:1;fill-rule:nonzero;stroke:none" transform="translate(349.009 435.527)"/><path d="M0 0s.627-3.429 2.753-5.429C2.753-5.429-.911-4.348 0 0" style="fill:#231815;fill-opacity:1;fill-rule:nonzero;stroke:none" transform="translate(340.794 441.388)"/><path d="M0 0s-5.304-9.382-29.381-17.25c0 0 1.046-13.155 5.586-18.758 4.547-5.597 20.535-2.36 20.535-2.36L4.394.302z" style="fill:#231815;fill-opacity:1;fill-rule:nonzero;stroke:none" transform="translate(373.787 469.147)"/><path d="M0 0s-4.619-8.176-25.567-15.025c0 0 .905-11.461 4.861-16.328 3.953-4.875 17.869-2.054 17.869-2.054L3.824.254Z" style="fill:#ffeb00;fill-opacity:1;fill-rule:nonzero;stroke:none" transform="translate(371.815 465.929)"/><path d="M0 0s-1.507.675-2.176 2.201c0 0-1.33.012-2.983.938l-2.33-.972s2.352.168 4.835-.533c0 0 .151-1.258 2.654-1.634" style="fill:#231815;fill-opacity:1;fill-rule:nonzero;stroke:none" transform="translate(343.152 441.636)"/><path d="m0 0 7.816 32.941-4.2-.6c-.631-.725-1.595-1.705-2.987-2.852l-4.797-16.518c-3.928-3.516-10.911-3.829-15.062-3.66.733-2.611 1.758-5.206 3.177-6.952C-12.98-1.428-3.9-.571 0 0" style="fill:#efcb00;fill-opacity:1;fill-rule:nonzero;stroke:none" transform="translate(367.161 432.217)"/><path d="M0 0s-11.233-26.92-10.238-59.003c0 0 14.219-10.055 40.376-6.4 26.164 3.679 36.257 18.361 36.257 18.361S52.747-35.218 50.188-20.255C47.628-5.294 31.424 6.259 31.424 6.259S1.988 10.337 0 0" style="fill:#231815;fill-opacity:1;fill-rule:nonzero;stroke:none" transform="translate(373.615 467.226)"/><path d="M0 0s-10.414-26.097-9.495-57.205c0 0 13.183-9.748 37.433-6.191 24.248 3.55 33.604 17.789 33.604 17.789s-12.65 11.469-15.021 25.968C44.142-5.135 29.123 6.057 29.123 6.057S1.842 10.019 0 0" style="fill:#ed6d34;fill-opacity:1;fill-rule:nonzero;stroke:none" transform="translate(374.856 466.324)"/><path d="M0 0c-.1.613-.231 1.219-.373 1.819l-2.53-4.206.921-10.37S.429-24.279 4.809-29.348c0 0-19.506-21.509-57.312-10.23 5.404-2.641 16.945-6.668 33.921-4.18 24.248 3.551 33.603 17.79 33.603 17.79S2.372-14.499 0 0" style="fill:#d74d1c;fill-opacity:1;fill-rule:nonzero;stroke:none" transform="translate(421.376 446.686)"/><path d="M0 0c-2.656.354-5.091-1.115-6.603-2.33a4.92 4.92 0 0 1-2.67.78c-2.567 0-4.651-1.912-4.651-4.272l.002-.025c-3.53-2.566-9.03-9.086-6.556-24.094h9.525s-3.4 11.598.305 20.062a4.96 4.96 0 0 1 1.375-.211c1.505 0 2.832.665 3.683 1.683 1.288-.884 2.815-1.771 3.987-1.976 2.479-.444 2.773 1.611 3.064 4.52C1.752-2.928 4.387-.586 0 0" style="fill:#d74d1c;fill-opacity:1;fill-rule:nonzero;stroke:none" transform="translate(396.762 457.6)"/><path d="m0 0 .198 13.647c-2.522 2.441-4.351 3.828-4.351 3.828s-29.64 4.363-31.648-6.699c0 0-1.538-3.922-3.427-10.596C-35.982-2.625-24.5-9.858 0 0" style="fill:#231815;fill-opacity:1;fill-rule:nonzero;stroke:none" transform="translate(409.354 455.774)"/><path d="m0 0 .189 12.353c-2.325 2.206-4.015 3.462-4.015 3.462s-27.281 3.961-29.123-6.057c0 0-1.424-3.55-3.161-9.591C-33.12-2.378-22.556-8.933 0 0" style="fill:#ffeb00;fill-opacity:1;fill-rule:nonzero;stroke:none" transform="translate(407.805 456.567)"/><path d="m0 0 1.319-8.966 7.119 7.775z" style="fill:#fce3cd;fill-opacity:1;fill-rule:nonzero;stroke:none" transform="translate(384.733 466.719)"/><path d="m0 0-2.229-3.338s-14.89-6.444-7.55-13.107c0 0-.232-4.899 4.218-3.342 0 0 2.445-4.211 5.774-1.094 0 0 4.889-1.117 4.449 3.322-.441 4.438 5.559 5.554 4.001 9.562z" style="fill:#231815;fill-opacity:1;fill-rule:nonzero;stroke:none" transform="translate(394.933 436.936)"/><path d="m0 0-.686-1.832s-13.89-6.873-7.441-11.843c0 0-.188-4.052 3.508-2.766 0 0 2.029-3.504 4.802-.924 0 0 4.062-.924 3.69 2.776-.37 3.681 4.621 4.617 3.331 7.936z" style="fill:#fde7d3;fill-opacity:1;fill-rule:nonzero;stroke:none" transform="translate(394.525 434.902)"/><path d="M0 0s-1.531-18.356-14.99-35.971c0 0 11.805-11.785 13.222-12.494 1.428-.717 5.562-1.291 13.964 5.976 8.405 7.27 13.822 24.925-4.133 42.738z" style="fill:#231815;fill-opacity:1;fill-rule:nonzero;stroke:none" transform="translate(404.72 473.01)"/><path d="M0 0s1.038-18.588-12.267-34.142c0 0 9.889-9.885 11.202-10.552 1.315-.649 5.144-1.181 12.918 5.543C19.635-32.425 24.642-16.08 8.023.39z" style="fill:#ffeb00;fill-opacity:1;fill-rule:nonzero;stroke:none" transform="translate(403.858 471.204)"/><path d="M0 0s3.661-2.802 7.061-7.701c3.664-5.299 2.611-11.21.783-14.712 0 0 8.888-3.979 16.462 2.099 0 0 6.133 22.232-22.212 22.882z" style="fill:#231815;fill-opacity:1;fill-rule:nonzero;stroke:none" transform="translate(433.041 466.451)"/><path d="M0 0s2.874-2.462 5.545-6.775c2.88-4.648 2.059-9.854.625-12.945 0 0 6.979-3.49 12.937 1.855 0 0 3.902 17.664-17.465 20.125z" style="fill:#e1335a;fill-opacity:1;fill-rule:nonzero;stroke:none" transform="translate(436.556 465.18)"/><path d="M0 0a4.62 4.62 0 0 0-4.624-4.632A4.62 4.62 0 0 0-9.245 0 4.623 4.623 0 0 0 0 0" style="fill:#231815;fill-opacity:1;fill-rule:nonzero;stroke:none" transform="translate(428.962 472.894)"/><path d="M0 0a3.82 3.82 0 0 0-3.828-3.823 3.822 3.822 0 1 0 0 7.643A3.817 3.817 0 0 0 0 0" style="fill:#231815;fill-opacity:1;fill-rule:nonzero;stroke:none" transform="translate(433.71 469.808)"/><path d="M0 0a3.375 3.375 0 0 0-3.373-3.378 3.378 3.378 0 1 0 0 6.753A3.368 3.368 0 0 0 0 0" style="fill:#231815;fill-opacity:1;fill-rule:nonzero;stroke:none" transform="translate(438.812 467.133)"/><path d="m0 0 4.98-5.84s-.307-1.467-1.16-2.236c-.852-.763-7.051-4.418-4.192-8.16.014-.004.022-.004.037-.01.315.074.649.215.994.451.115.887-.464 2.715.756 4.057 0 0 .055-1.897.684-2.782.301-.423.64-.71.978-.861.981.199 1.948.848 1.822 2.651-.004.053-.005.101-.011.156-.116.934.138 1.67.552 2.315.703 1.168 1.877 2.048 2.526 3.087C6.07-5.496 2.862-2.395.276.142L0 0" style="fill:#f6d0b5;fill-opacity:1;fill-rule:nonzero;stroke:none" transform="translate(393.504 432.899)"/><path d="M0 0s-2.735.336-1.101 3.758c0 0-1.215-.923-1.464-1.865-.146-.584-.157-2.54 1.665-3.282z" style="fill:#231815;fill-opacity:1;fill-rule:nonzero;stroke:none" transform="translate(396.046 417.443)"/><path d="M0 0c-.625 2.399 2.19 4.444 2.19 4.444-3.808 0-4.136-3.225-4.104-4.59C-1.048-.439 0 0 0 0" style="fill:#f6d0b5;fill-opacity:1;fill-rule:nonzero;stroke:none" transform="translate(389.879 418.453)"/><path d="M0 0c-3.277 0-3.882-1.664-3.882-2.896.178-.286.401-.567.689-.844C-2.567-1.512 0 0 0 0" style="fill:#f6d0b5;fill-opacity:1;fill-rule:nonzero;stroke:none" transform="translate(389.075 425.415)"/><path d="M0 0s.078 2.102 2.701 4.187c0 0-3.76-1.464-3.76-5.056z" style="fill:#231815;fill-opacity:1;fill-rule:nonzero;stroke:none" transform="translate(386.374 421.227)"/><path d="M0 0s-2.243 2.201 1.147 5.721c0 0-1.139-.299-2.093-1.469-.884-1.095-1.096-3-.604-4.279z" style="fill:#231815;fill-opacity:1;fill-rule:nonzero;stroke:none" transform="translate(390.92 417.176)"/><path d="M0 0c.429.998.073 1.942-.632 2.7-.198.214-.992.665-1.06.906-.246.855 1.214.957 1.711.868.596-.11 1.008-.534 1.228-1.083C1.74 2.159 1.212.583 0 0" style="fill:#595757;fill-opacity:1;fill-rule:nonzero;stroke:none" transform="translate(431.01 467.947)"/><path d="M0 0c.127.925-.41 2.151-1.458 2.27-.442.048-.797-.095-.687-.588.054-.241.329-.413.444-.638.149-.292.292-.873.256-1.202-.042-.375-.436-.708-.375-1.094.072-.469.558-.368.904-.196.547.272.838.865.916 1.448" style="fill:#595757;fill-opacity:1;fill-rule:nonzero;stroke:none" transform="translate(437.874 467.33)"/><path d="M0 0c.12-.246 10.936-12.054 3.922-19.069l-6.067-1.266c2.503-.644 6.944-1.031 10.935 2.549 0 0 2.701 12.279-8.79 17.786" style="fill:#b6003d;fill-opacity:1;fill-rule:nonzero;stroke:none" transform="translate(446.867 465.112)"/><path d="m0 0-8.023-.39s.07-1.323-.071-3.546L.889-5.282s9.705-14.491 1.844-27.654c-3.954-6.62-10.667-9.547-14.036-10.3 1.068-.977 1.896-1.685 2.215-1.848 1.315-.648 5.144-1.181 12.918 5.543C11.611-32.814 16.618-16.47 0 0" style="fill:#efcb00;fill-opacity:1;fill-rule:nonzero;stroke:none" transform="translate(411.882 471.594)"/><path d="M0 0c8.295.922 11.753 7.145 11.753 7.145l4.41-.663.029 1.888c-2.324 2.205-4.014 3.462-4.014 3.462s-27.282 3.961-29.124-6.058c0 0-.319-.794-.832-2.256 1.018-.308 2.631-.659 4.412-.522C-10.37 3.227-8.296-.922 0 0" style="fill:#efcb00;fill-opacity:1;fill-rule:nonzero;stroke:none" transform="translate(391.799 460.547)"/><path d="m0 0-5.416-.15-.279-.613c-1.352-3.05-5.594-4.275-5.63-4.287l-.329-.089-.215-.265-3.439-4.153c-.268 2.019-.674 5.047-.674 5.047l-6.552 2.449 2.528-16.01 5.196-.179L2.619.079z" style="fill:#231815;fill-opacity:1;fill-rule:nonzero;stroke:none" transform="translate(402.758 471.22)"/><path d="m0 0 .92-6.853L5.928-.786s4.749 1.315 6.329 4.865l4.747.134L1.707-11.87l-3.814.135-2.106 13.322Z" style="fill:#fff;fill-opacity:1;fill-rule:nonzero;stroke:none" transform="translate(385.79 465.929)"/><path d="M0 0c-1.578-3.551-6.327-4.866-6.327-4.866l-3.838-4.649a19.027 19.027 0 0 1 3.921.056c.807.09 1.553.242 2.271.421L4.748.134z" style="fill:#dcdddd;fill-opacity:1;fill-rule:nonzero;stroke:none" transform="translate(398.043 470.006)"/><path d="m0 0-4.214 1.587.852-5.387C-2.28-4.346-.989-4.91.702-5.236z" style="fill:#dcdddd;fill-opacity:1;fill-rule:nonzero;stroke:none" transform="translate(385.788 465.926)"/><path d="M0 0s5.368 8.114 14.433 5.189c9.057-2.938 10.209-15.153 1.921-19.294C8.081-18.244-.461-15.674-.812-15.246Z" style="fill:#231815;fill-opacity:1;fill-rule:nonzero;stroke:none" transform="translate(427.35 506.06)"/><path d="M0 0s4.257 7.165 11.436 4.577c7.166-2.589 8.083-13.347 1.517-16.997C6.402-16.088-.366-13.813-.651-13.431Z" style="fill:#fde7d3;fill-opacity:1;fill-rule:nonzero;stroke:none" transform="translate(428.897 505.413)"/><path d="M0 0c.717-2.518 1.542-7.229-1.05-10.469-3.687-4.608-9.219-1.383-9.219-1.383l2.422-5.245c1.987.192 4.191.745 6.378 1.97C4.025-12.073 4.264-4.058 0 0" style="fill:#f6d0b5;fill-opacity:1;fill-rule:nonzero;stroke:none" transform="translate(443.318 508.12)"/><path d="M0 0c.898 1.955 7.53 4.719 7.321.922C7.121-2.733 1.767-.267-.207-.65.022.455.784 1.313 1.844 1.843" style="fill:#f6d0b5;fill-opacity:1;fill-rule:nonzero;stroke:none" transform="translate(433.741 500.878)"/><path d="M0 0s.871 4.314 5.162 4.981c3.865.603 3.958-1.812 3.958-1.812s-.348-2.044-3.709-.656C2.717 3.643 0 0 0 0" style="fill:#231815;fill-opacity:1;fill-rule:nonzero;stroke:none" transform="translate(433.26 500.227)"/><path d="M0 0c-2.225.802-4.167.666-5.791.099l-.107-1.837s3.861 1.78 7.743.777A8.441 8.441 0 0 1 0 0" style="fill:#fff;fill-opacity:1;fill-rule:nonzero;stroke:none" transform="translate(440.332 509.99)"/><path d="M0 0s-6.225 7.208-13.629 2.883c-7.4-4.335-6.141-16.624 1.914-19.447 8.037-2.809 15.059 1.084 15.284 1.571z" style="fill:#231815;fill-opacity:1;fill-rule:nonzero;stroke:none" transform="translate(345.64 498.57)"/><path d="M0 0s-5.533 6.306-12.105 2.524c-6.565-3.785-5.436-14.534 1.695-16.993 7.144-2.454 13.364.944 13.57 1.357z" style="fill:#fde7d3;fill-opacity:1;fill-rule:nonzero;stroke:none" transform="translate(345.702 497.725)"/><path d="M0 0c.054.216.078.347.078.347Z" style="fill:#eec9a9;fill-opacity:1;fill-rule:nonzero;stroke:none" transform="translate(344.465 490.513)"/><path d="M0 0c-.385-1.504-3.593-7.148-9.585-3.692-7.896 4.555-3.594 11.398-3.286 11.819C-17.049 3.52-15.428-5.062-9.15-7.228c2.669-.917 5.208-1.016 7.354-.76z" style="fill:#f6d0b5;fill-opacity:1;fill-rule:nonzero;stroke:none" transform="translate(344.465 490.513)"/><path d="M0 0c1.107-.222 2.139-.724 3.179-1.114C4.856 3.687-2.93 5.465-5.442 1.821-6.512.272-.077.016 0 0" style="fill:#f6d0b5;fill-opacity:1;fill-rule:nonzero;stroke:none" transform="translate(339.206 490.823)"/><path d="M0 0s-1.663 4.093-5.995 4.001c-3.904-.085-3.549-2.47-3.549-2.47s.717-1.951 3.757 0C-3.343 3.103 0 0 0 0" style="fill:#231815;fill-opacity:1;fill-rule:nonzero;stroke:none" transform="translate(342.368 491.868)"/><path d="M0 0a8.329 8.329 0 0 1-2.493-2.233c5.802 4.14 9.154.48 9.154.48L6.183.998C4.36 1.404 2.241 1.29 0 0" style="fill:#fff;fill-opacity:1;fill-rule:nonzero;stroke:none" transform="translate(333.597 500.25)"/><path d="M0 0c9.884-1.337 19.794.439 28.76-9.651 0 0 17.916-16.795 8.558-45.883-1.851-4.938-2.033-7.344-.588-10.279 1.475-3.004 6.807-10.684-1.028-18.981-6.293-6.664-19.481-9.447-28.606-9.813-4-.335-7.928-3.973-7.928-3.973s-4.303-4.198-10.682-.448c0 0-3.171 1.285-5.723.696-2.549-.596-41.106-8.179-37.406 17.802 2.09 9.134.202 9.004-2.407 16.355-4.395 8.507-10.213 32.049 7.775 53.154 0 0 18.328 15.233 49.275 11.021" style="fill:#231815;fill-opacity:1;fill-rule:nonzero;stroke:none" transform="translate(396.933 563.165)"/><path d="M0 0c9.403-1.271 19.799-5.275 28.354-14.782 0 0 17.037-15.825 8.133-43.219-1.364-5.296-.613-7.177.405-10.261 1.187-3.587 4.337-9.051-.704-15.977-5.114-7.027-19.787-10.227-28.48-10.569-3.799-.317-7.542-3.749-7.542-3.749s-4.094-3.959-10.165-.434c0 0-3.017 1.224-5.446.667-2.428-.563-39.22-7.577-35.783 16.779.931 8.005.364 8.471-2.114 15.406-4.184 7.997-9.722 30.183 7.392 50.066 0 0 16.485 20.037 45.95 16.073" style="fill:#fde7d3;fill-opacity:1;fill-rule:nonzero;stroke:none" transform="translate(395.48 564.607)"/><path d="M0 0s.107 20.786-11.824 22.375c-11.919 1.596-18.957-14.536-11.3-30.414 0 0 6.772 3.689 19.126 5.218C-1.556-2.592.05-2.138 0 0" style="fill:#fff;fill-opacity:1;fill-rule:nonzero;stroke:none" transform="translate(380.857 499.882)"/><path d="M0 0c.374-3.205 2.611-5.618 5.011-5.359 2.406.244 4.043 3.04 3.69 6.246-.379 3.222-2.616 5.621-5.015 5.385C1.292 6.02-.365 3.224 0 0" style="fill:#231815;fill-opacity:1;fill-rule:nonzero;stroke:none" transform="translate(369.371 503.872)"/><path d="M0 0c.159-1.398 1.005-2.467 1.885-2.379.875.093 1.477 1.303 1.309 2.709-.157 1.398-1.01 2.467-1.892 2.379C.429 2.621-.161 1.408 0 0" style="fill:#fff;fill-opacity:1;fill-rule:nonzero;stroke:none" transform="translate(373.316 503.293)"/><path d="M0 0s-18.943.555-12.329-27.9c0 0-6.519 11.494-.401 21.93C-8.478 1.468 0 0 0 0" style="fill:#231815;fill-opacity:1;fill-rule:nonzero;stroke:none" transform="translate(369.033 522.257)"/><path d="M0 0s-3.9 4.285-6.407-.686c0 0 4.832 1.275 6.407.686" style="fill:#f6d0b5;fill-opacity:1;fill-rule:nonzero;stroke:none" transform="translate(390.247 499.128)"/><path d="M0 0s-3.679 2.022-6.407-.686c0 0 4.832 1.275 6.407.686" style="fill:#231815;fill-opacity:1;fill-rule:nonzero;stroke:none" transform="translate(390.247 499.128)"/><path d="M0 0s-16.903-1.018-20.321-6.445c0 0 5.092 3.741 20.321 6.445" style="fill:#231815;fill-opacity:1;fill-rule:nonzero;stroke:none" transform="translate(376.896 496.924)"/><path d="M0 0s-6.472 20.492 4.447 25.478c10.92 4.972 22.604-8.93 20.149-26.781 0 0-7.607 1.684-19.894-.335C2.285-2.103.616-2.138 0 0" style="fill:#fff;fill-opacity:1;fill-rule:nonzero;stroke:none" transform="translate(393.357 501.195)"/><path d="M0 0c.504-3.295-1.023-6.25-3.417-6.602-2.38-.347-4.724 2.046-5.222 5.337-.507 3.292 1.018 6.258 3.412 6.606C-2.84 5.688-.489 3.294 0 0" style="fill:#231815;fill-opacity:1;fill-rule:nonzero;stroke:none" transform="translate(403.046 508.001)"/><path d="M0 0c.227-1.447-.309-2.717-1.189-2.839-.878-.134-1.772.927-1.99 2.373-.219 1.44.323 2.711 1.191 2.838C-1.102 2.502-.215 1.439 0 0" style="fill:#fff;fill-opacity:1;fill-rule:nonzero;stroke:none" transform="translate(399.392 506.446)"/><path d="M0 0s17.953 5.969 20.359-24.006c0 0 2.705 13.212-6.348 21.761C7.663 3.883 0 0 0 0" style="fill:#231815;fill-opacity:1;fill-rule:nonzero;stroke:none" transform="translate(397.805 526.672)"/><path d="M0 0s16.407 4.202 21.326.083c0 0-6.004 2.018-21.326-.083" style="fill:#231815;fill-opacity:1;fill-rule:nonzero;stroke:none" transform="translate(398.066 499.638)"/><path d="M0 0c.48-.06.827-.524.772-1.031a.856.856 0 0 0-.946-.801c-.051 0-1.204.121-2.213-.749-.894-.769-1.417-2.071-1.562-3.893a.874.874 0 0 0-.95-.83c-.485.055-.844.51-.808 1.013.188 2.347.942 4.091 2.224 5.167C-1.896.227-.072.013 0 0" style="fill:#eec9a9;fill-opacity:1;fill-rule:nonzero;stroke:none" transform="translate(357.334 537.912)"/><path d="M0 0c4.669.496 7.378-3.047 8.162-4.992.196-.474-.005-1.009-.448-1.203-.451-.201-.968.034-1.161.5-.068.18-1.842 4.342-6.347 3.864-.48-.051-.924.315-.979.817C-.827-.499-.481-.049 0 0" style="fill:#eec9a9;fill-opacity:1;fill-rule:nonzero;stroke:none" transform="translate(404.083 547.418)"/><path d="M0 0c.48-.06.827-.523.772-1.03a.857.857 0 0 0-.946-.802c-.051 0-1.204.122-2.213-.749-.894-.768-1.417-2.071-1.562-3.892a.873.873 0 0 0-.95-.83c-.485.055-.844.51-.808 1.012.188 2.347.942 4.091 2.224 5.167C-1.896.228-.072.013 0 0" style="fill:#231815;fill-opacity:1;fill-rule:nonzero;stroke:none" transform="translate(357.334 538.696)"/><path d="M0 0c4.669.496 7.378-3.048 8.162-4.992.196-.474-.005-1.01-.448-1.204-.451-.2-.968.034-1.161.501-.068.178-1.842 4.341-6.347 3.862-.48-.049-.924.316-.979.819C-.827-.499-.481-.05 0 0" style="fill:#231815;fill-opacity:1;fill-rule:nonzero;stroke:none" transform="translate(404.083 548.203)"/><path d="M0 0s3.196-1.677 5.088.839c0 0-.634-2.926-3.778-3.349z" style="fill:#231815;fill-opacity:1;fill-rule:nonzero;stroke:none" transform="translate(413.027 523.178)"/><path d="M0 0s-3.147-.834-3.983 1.684c0 0 2.927-1.061 4.181.815L-.214.627" style="fill:#231815;fill-opacity:1;fill-rule:nonzero;stroke:none" transform="translate(354.616 510.607)"/></g><path d="M411.318 488.172a5.329 5.329 0 0 1 5.325-5.326c2.93 0 5.317 2.394 5.317 5.326a5.326 5.326 0 0 1-5.317 5.328 5.323 5.323 0 0 1-5.325-5.328" style="fill:url(#b);stroke:none" transform="matrix(2.04496 0 0 -2.04496 -336.403 1218.55)"/><path d="M357.29 479.818a5.329 5.329 0 0 1 5.326-5.326c2.932 0 5.318 2.392 5.318 5.326a5.325 5.325 0 0 1-5.318 5.328 5.324 5.324 0 0 1-5.326-5.328" style="fill:url(#c);stroke:none" transform="matrix(2.04496 0 0 -2.04496 -336.403 1218.55)"/><g clip-path="url(#d)" transform="matrix(2.04496 0 0 -2.04496 -336.403 1218.55)"><path d="M0 0c-5.881 6.534-12.628 10.468-19.327 12.703-3.447-1.352-7.138-3.635-11.094-7.035v-.691s43.815-1.52 33.677-51.988c0 0-1.16-7.795.105-11.173 2.074-5.53 4.473-16.112-25.025-21.874 0 0 .172-.015.489-.037.176.028.352.055.529.07 8.694.341 23.367 3.542 28.48 10.568 5.042 6.927 1.892 12.391.705 15.978-1.019 3.084-1.77 4.964-.405 10.26C17.037-15.825 0 0 0 0" style="fill:#f6d0b5;fill-opacity:1;fill-rule:nonzero;stroke:none" transform="translate(423.834 549.825)"/><path d="M0 0s-7.203 28.986 9.864 45.604c15.407 14.998 22.186 4.313 29.991 8.831 7.81 4.522 56.131 8.074 50.048-45.876 0 0 10.758 23.069-3.218 43.001-14.259 20.363-41.493 22.803-49.707 16.03 0 0-25.046 4.828-39.128-26.523C-11.186 18.885 0 0 0 0" style="fill:#231815;fill-opacity:1;fill-rule:nonzero;stroke:none" transform="translate(342.065 498.048)"/><path d="M0 0c-4.17-3.721-4.218-7.309-4.218-7.464 0-.514.411-.917.924-.917.505-.012.918.403.935.904 0 .127.087 2.97 3.592 6.096a.933.933 0 0 1 .075 1.314A.916.916 0 0 1 0 0" style="fill:#231815;fill-opacity:1;fill-rule:nonzero;stroke:none" transform="translate(376.374 552.967)"/><path d="M0 0c-2.358-7.28-.26-9.876-.019-10.143a.911.911 0 0 1 1.278-.073c.383.319.43.915.116 1.287C1.354-8.907-.26-6.8 1.756-.57a.932.932 0 0 1-.6 1.165A.92.92 0 0 1 0 0" style="fill:#231815;fill-opacity:1;fill-rule:nonzero;stroke:none" transform="translate(377.347 553.795)"/><path d="M0 0a.916.916 0 0 1-.056-1.304c2.304-2.494 3.302-5.028 3.314-5.05a.92.92 0 0 1 1.192-.529.92.92 0 0 1 .529 1.193c-.044.118-1.122 2.87-3.672 5.635A.925.925 0 0 1 0 0" style="fill:#231815;fill-opacity:1;fill-rule:nonzero;stroke:none" transform="translate(378.831 553.782)"/><path d="M0 0s.574-3.747-.709-6.747c0 0-1.613 2.721.709 6.747" style="fill:#fff;fill-opacity:1;fill-rule:nonzero;stroke:none" transform="translate(378.64 561.218)"/><path d="M0 0c.679 2.035 1.517 3.558-1.898 4.015-2.655.353-5.091-1.116-6.604-2.33a4.911 4.911 0 0 1-2.67.779c-2.376 0-4.317-1.646-4.594-3.764C-11.708-1.818-6.511-1.639 0 0" style="fill:#efcb00;fill-opacity:1;fill-rule:nonzero;stroke:none" transform="translate(398.658 453.585)"/><path d="M0 0s3.8 4.39 8.186 3.805C12.57 3.22 9.938.877 9.646-2.058c-.292-2.909-.585-4.964-3.062-4.519C4.092-6.143 0-2.627 0-2.627Z" style="fill:#231815;fill-opacity:1;fill-rule:nonzero;stroke:none" transform="translate(387.008 455.363)"/><path d="M0 0s2.773 3.203 5.953 2.767c3.192-.42 1.283-2.119 1.069-4.252-.219-2.131-.424-3.613-2.237-3.29C2.975-4.469 0-1.907 0-1.907Z" style="fill:#4ca748;fill-opacity:1;fill-rule:nonzero;stroke:none" transform="translate(388.458 454.978)"/><path d="M0 0s-12.767-4.12-9.231-25.575H.296s-4.297 14.633 2.006 23.02z" style="fill:#231815;fill-opacity:1;fill-rule:nonzero;stroke:none" transform="translate(383.944 454.803)"/><path d="M0 0s-9.774-3.584-7.076-22.268H.236S-3.057-9.529 1.77-2.221z" style="fill:#4ca748;fill-opacity:1;fill-rule:nonzero;stroke:none" transform="translate(382.563 452.844)"/><path d="M0 0c0-2.363-2.084-4.268-4.657-4.268-2.567 0-4.65 1.905-4.65 4.268 0 2.361 2.083 4.273 4.65 4.273C-2.084 4.273 0 2.361 0 0" style="fill:#231815;fill-opacity:1;fill-rule:nonzero;stroke:none" transform="translate(390.575 453.346)"/><path d="M0 0c0-1.717-1.507-3.116-3.386-3.116-1.864 0-3.385 1.399-3.385 3.116 0 1.715 1.521 3.104 3.385 3.104C-1.507 3.104 0 1.715 0 0" style="fill:#4ca748;fill-opacity:1;fill-rule:nonzero;stroke:none" transform="translate(389.304 453.346)"/><path d="M0 0c-1.364-.846-2.866-1.529-4.346-2.078.28-1.154.231-3.274-3.216-4.567-12.716-3.07-16.827-1.835-18.137-.878.377-1.29 1.741-2.27 4.568-2.401 12.846-.586 22.4 3.959 22.4 3.959C2.006-3.295 1.344.734 0 0" style="fill:#791359;fill-opacity:1;fill-rule:nonzero;stroke:none" transform="translate(414.033 400.059)"/><path d="M0 0s.987-3.375 3.835-2.436C6.684-1.499 7.95 3.11 7.95 3.11S3.226-3.573 0 0" style="fill:#f6d0b5;fill-opacity:1;fill-rule:nonzero;stroke:none" transform="translate(387.883 467.58)"/><path d="M0 0s-.653-9.62-6.668-11.299c-4.108-1.147-8.952 7.184-8.952 7.184S-8.443-10.595 0 0" style="fill:#231815;fill-opacity:1;fill-rule:nonzero;stroke:none" transform="translate(397.923 477.606)"/><path d="M0 0s-1.627-8.47-5.976-9.545c-2.882-.706-6.718 4.461-6.718 4.461S-3.862-6.246 0 0" style="fill:#e1335a;fill-opacity:1;fill-rule:nonzero;stroke:none" transform="translate(397.164 476.924)"/><path d="M0 0s-8.313-10.219-16.74-2.511c0 0 6.175-11.244 17.405 1.49z" style="fill:#231815;fill-opacity:1;fill-rule:nonzero;stroke:none" transform="translate(397.367 477.93)"/><path d="M0 0c-.168-.307-.118-.975-.118-.975s.259-4.233 3.725-3.092c0 0-1.938.146-2.468 2.796C.778.515.213.403 0 0" style="fill:#231815;fill-opacity:1;fill-rule:nonzero;stroke:none" transform="translate(396.666 480.17)"/><path d="M0 0s.299 5.26 1.196 7.978l18.38-1.337 6.291-3.577S17.276-14.299 0 0" style="fill:#231815;fill-opacity:1;fill-rule:nonzero;stroke:none" transform="translate(253.667 398.006)"/><path d="M0 0s.262 4.76 1.074 7.221l16.668-1.213 5.695-3.242S15.655-12.963 0 0" style="fill:#f3f6f7;fill-opacity:1;fill-rule:nonzero;stroke:none" transform="translate(254.884 398.129)"/><path d="M0 0c1.964.326 3.693.092 5.722.264L3.418.725c-.073.783-.325 1.552-.705 2.283l-10.465.762c-.812-2.461-1.074-7.221-1.074-7.221 2.419-2.004 4.648-3.319 6.691-4.115C-1.459-5.092-.541-2.527 0 0" style="fill:#dcdddd;fill-opacity:1;fill-rule:nonzero;stroke:none" transform="translate(263.71 401.58)"/><path d="M0 0s-.299 5.248-1.193 7.957L-19.58 6.625l-6.284-3.582S-17.279-14.305 0 0" style="fill:#231815;fill-opacity:1;fill-rule:nonzero;stroke:none" transform="translate(247.552 398.715)"/><path d="M0 0s-.256 4.764-1.067 7.23l-16.662-1.212-5.704-3.243S-15.645-12.945 0 0" style="fill:#f3f6f7;fill-opacity:1;fill-rule:nonzero;stroke:none" transform="translate(246.327 398.82)"/><path d="m0 0-16.401-1.193c1.01-1.047 2.843-1.864 3.59-2.366 2.348-1.574 3.852-5.064 2.71-7.843a4.69 4.69 0 0 0-.518-.93c3.228-.002 7.12 1.324 11.686 5.102C1.067-7.23.811-2.467 0 0" style="fill:#dcdddd;fill-opacity:1;fill-rule:nonzero;stroke:none" transform="translate(245.26 406.05)"/><path d="M0 0c1.508-1.973 2.402-7.299.95-11.178 0 0-13.675-4.742-30.916-1.097C-48.401-8.377-26.079 5.272-19.515-1.08c1.464-1.379 2.29-2.359 2.29-2.359S-7.838-3.838 0 0" style="fill:#231815;fill-opacity:1;fill-rule:nonzero;stroke:none" transform="translate(247.13 402.96)"/><path d="M0 0c1.754.629 1.835-4.654.507-7.584 0 0-12.38-3.588-27.997-.82C-44.206-5.461-24.559 5.33-18.603.535c1.319-1.058 2.199-3.148 2.199-3.148S-7.101-2.908 0 0" style="fill:#1d50a2;fill-opacity:1;fill-rule:nonzero;stroke:none" transform="translate(245.82 400.547)"/><path d="M0 0c-1.502-1.979-2.413-7.312-.952-11.172 0 0 13.682-4.748 30.906-1.103C48.402-8.381 26.083 5.279 19.512-1.088c-1.46-1.375-2.292-2.355-2.292-2.355S7.835-3.852 0 0" style="fill:#231815;fill-opacity:1;fill-rule:nonzero;stroke:none" transform="translate(254.09 402.264)"/><path d="M0 0c-1.77.631-1.844-4.658-.52-7.572 0 0 12.388-3.6 28.005-.846C44.201-5.467 24.558 5.334 18.596.537c-1.32-1.049-2.204-3.144-2.204-3.144S7.102-2.912 0 0" style="fill:#1d50a2;fill-opacity:1;fill-rule:nonzero;stroke:none" transform="translate(255.403 399.85)"/><path d="M0 0c0 .023-.603 5.835-.603 5.835l-77.763.482-.279-1.539c-.029-.154-2.675-15.844 16.619-19.549l.054-.008.063-.016c14.642-1.916 21.986 3.317 22.291 3.539l.123.094s.052.045.091.096c.174.15.42.244.913-.129 5.906-5.598 20.23-6.803 29.644-2.461C-2.61-10.773.533-5.928 0 0" style="fill:#231815;fill-opacity:1;fill-rule:nonzero;stroke:none" transform="translate(289.55 418.022)"/><path d="M0 0s-2.537-14.016 14.926-17.403c13.866-1.861 20.645 3.19 20.645 3.19s1.438 1.535 3.393 0c8.14-8.094 36.319-6.166 34.943 9.593l-.435 4.161z" style="fill:#82c1ea;fill-opacity:1;fill-rule:nonzero;stroke:none" transform="translate(213.266 422.124)"/><path d="M0 0c-4.849-2.016-16.619-5.437-38.581-3.994-15.873 1.035-26.96 3.234-35.154 6.688-.088-.611-.414-3.532.766-6.85 7.527-2.869 21.506-5.592 36.942-3.287C-26.114-9.516-12.752-9.285.214-3.459c.024.535.024 1.084-.026 1.656z" style="fill:#00a3df;fill-opacity:1;fill-rule:nonzero;stroke:none" transform="translate(287.023 419.195)"/><path d="M0 0c1.04 1.267 2.714 1.51 4.123 1.608-.512.816-.803 1.696-.761 2.548.017.187.019.352.073.529a3.908 3.908 0 0 0 2.366 2.853c2.119.905 4.923.187 6.148-.574.52-.314 2.922-.466 5.056-.332l1.236.085L22.765-6.97l-.194-.536c-.142-.354-1.404-3.526-3.139-5.078-.168-.157-.3-.889-.365-1.37-.243-1.422-.694-4.063-3.925-4.183-.959-.039-1.791.302-2.433.992-.366.392-.616.878-.819 1.394-.698-.691-1.494-1.192-2.415-1.224-.75-.031-1.824.213-2.764 1.565-.41.606-.584 1.23-.651 1.869-.629-.274-1.256-.419-1.907-.321-.685.088-1.636.465-2.302 1.738-.445.863-.636 1.746-.59 2.624.027.464.119.922.265 1.37.234.631.58 1.17.975 1.69-.646.128-1.26.324-1.782.678C-.084-5.23-.6-4.463-.734-3.551c-.077.473-.1.902-.071 1.301C-.76-1.365-.493-.613 0 0" style="fill:#231815;fill-opacity:1;fill-rule:nonzero;stroke:none" transform="translate(172.827 450.493)"/><path d="M0 0c-3.291-.23-3.939 2.356-3.939 2.356-2.681.3-4.24 2.451-3.919 3.95.601 2.812 4.725 2.126 6.108 1.253 1.396-.866 6.01-.561 6.01-.561L8.232-4.991s-1.2-3.105-2.705-4.463c-1.501-1.35-.118-5.039-3.296-5.158C-.402-14.699.207-9.32.207-9.32c-1.232-2.163-3.255-5.793-5.023-3.239-1.769 2.558 2.183 6.644 2.183 6.644-1.154-.656-5.292-6.717-6.949-3.523-2.086 4.008 4.178 6.777 4.178 6.777-3.131-.787-6.313-.579-6.599 1.309-.484 3.051 1.764 3.244 3.988 3.37 2.457.131 3.925.421 3.925.421" style="fill:#fde7d3;fill-opacity:1;fill-rule:nonzero;stroke:none" transform="translate(185.673 448.543)"/><path d="M0 0c.162.079.309.158.44.249C.309.179.16.094 0 0" style="fill:#f6d0b5;fill-opacity:1;fill-rule:nonzero;stroke:none" transform="translate(179.251 445.344)"/><path d="M0 0c.286-1.828 3.295-2.07 6.333-1.36A60.993 60.993 0 0 0 7.556-.311C3.68-1.333.997-.584 0 0" style="fill:#f6d0b5;fill-opacity:1;fill-rule:nonzero;stroke:none" transform="translate(173.673 447.183)"/><path d="M0 0c.061-.175.118-.35.212-.529 1.627-3.135 5.636 2.634 6.876 3.467C8.871 5.613 1.92-1.657 0 0" style="fill:#f6d0b5;fill-opacity:1;fill-rule:nonzero;stroke:none" transform="translate(175.865 439.639)"/><path d="M0 0a13.76 13.76 0 0 1-.702-.866c.251.301.489.594.702.866" style="fill:#f6d0b5;fill-opacity:1;fill-rule:nonzero;stroke:none" transform="translate(182.807 442.39)"/><path d="M0 0s.486 1.389.718 2.634l-.857.674S-2.363-4.274-5.12-3.058c.033-.061.056-.123.097-.181C-3.255-5.793-1.231-2.162 0 0" style="fill:#f6d0b5;fill-opacity:1;fill-rule:nonzero;stroke:none" transform="translate(185.9 439.167)"/><path d="m0 0-3.346 7.464c-2.829-2.664-7.068 1.151-7.068 1.151l.323-2.672c1.553-6.56 4.87-7.554 4.87-7.554.038-5.404-.627-4.806-1.426-5.413.313-.517.774-.861 1.453-.839 3.177.119 1.795 3.808 3.296 5.158C-1.155-2.034-.486-.938 0 0" style="fill:#f6d0b5;fill-opacity:1;fill-rule:nonzero;stroke:none" transform="translate(193.099 441.794)"/><path d="M0 0s1.024-4.005 3.707-6.195c0 0-4.427.976-3.707 6.195" style="fill:#231815;fill-opacity:1;fill-rule:nonzero;stroke:none" transform="translate(182.893 448.053)"/><path d="M0 0s-1.84.676-2.757 2.425c0 0-1.575-.094-3.609.865l-2.677-1.341s2.772.392 5.766-.234c0 0 .282-1.477 3.277-1.715" style="fill:#231815;fill-opacity:1;fill-rule:nonzero;stroke:none" transform="translate(185.664 448.541)"/><path d="M0 0s-23.316-8.735-42.648-12.524c0 0-1.034-.35-.521-3.941 1.222-8.537 5.057-16.269 5.057-16.269s.703-1.952 2.923-2.842c.059-.012 10.767-3.327 21.781.724 1.054.401 2.055.974 3.008 1.678l.945 3.009c0-.028.009-.033.018-.033 0 0 11.791 13.934 9.437 30.198" style="fill:#231815;fill-opacity:1;fill-rule:nonzero;stroke:none" transform="translate(230.753 472.677)"/><path d="M0 0c.785-4.821 1.823-13.874 6.354-22.722 0 0 11.351 12.999 9.085 28.164 0 0-6.827-2.607-15.439-5.442" style="fill:#4ca748;fill-opacity:1;fill-rule:nonzero;stroke:none" transform="translate(214.685 465.822)"/><path d="M0 0c3.562.517 7.646 1.472 11.774 2.634.761-4.657 2.873-16.562 5.372-24.681-5.505 0-10.087.871-10.129.883-2.139.835-2.811 2.647-2.811 2.647S.685-11.629-.495-3.672C-.988-.328 0 0 0 0" style="fill:#1d50a2;fill-opacity:1;fill-rule:nonzero;stroke:none" transform="translate(189.593 459.263)"/><path d="M0 0c.756-4.636 2.908-16.55 5.393-24.659 3.413-.019 7.205.329 10.529 1.55 1.01.39 1.981.919 2.891 1.572l.917 2.815c-4.294 9.07-5.508 17.875-6.295 22.696C8.865 2.363 0 0 0 0" style="fill:#e1335a;fill-opacity:1;fill-rule:nonzero;stroke:none" transform="translate(201.3 461.875)"/><path d="M0 0s11.35 12.999 9.085 28.163c0 0-2.982-1.138-7.48-2.726 1.251-1.653 2.308-4.957-2.066-10.236-.964-1.162-2.327-2.177-3.94-3.069C-3.479 8.348-2.128 4.153 0 0" style="fill:#238e3a;fill-opacity:1;fill-rule:nonzero;stroke:none" transform="translate(221.04 443.1)"/><path d="M0 0c-3.642-2.046-8.636-3.439-13.433-4.376.948-4.594 2.113-9.634 3.363-13.713 3.412-.019 7.204.329 10.528 1.549 1.01.391 1.982.919 2.892 1.572l.917 2.817C2.262-7.915.932-3.742 0 0" style="fill:#c70044;fill-opacity:1;fill-rule:nonzero;stroke:none" transform="translate(216.765 455.305)"/><path d="M0 0s.672-1.814 2.811-2.648c.042-.012 4.624-.882 10.128-.882-1.256 4.085-2.416 9.127-3.353 13.722C4.406 9.18-.528 8.694-3.268 8.482-1.808 3.548 0 0 0 0" style="fill:#00388b;fill-opacity:1;fill-rule:nonzero;stroke:none" transform="translate(193.799 440.746)"/><path d="M0 0c-1.041 1.266-2.714 1.511-4.123 1.608.513.816.803 1.696.761 2.549-.016.187-.019.352-.072.528A3.912 3.912 0 0 1-5.8 7.538c-2.12.905-4.924.188-6.149-.573-.52-.314-2.923-.466-5.056-.334l-1.236.087-4.523-13.688.192-.536c.143-.353 1.404-3.526 3.14-5.078.168-.156.299-.888.367-1.37.243-1.421.692-4.062 3.921-4.183.962-.038 1.792.302 2.435.992.366.393.617.878.819 1.394.698-.691 1.494-1.192 2.415-1.223.749-.032 1.823.213 2.765 1.564.408.606.582 1.231.65 1.87.629-.275 1.256-.42 1.907-.322.685.088 1.636.466 2.303 1.739.444.863.635 1.744.589 2.623a5.41 5.41 0 0 1-.266 1.371c-.233.631-.58 1.169-.974 1.69.646.127 1.261.324 1.782.678C.085-5.23.6-4.463.733-3.551c.077.473.101.902.071 1.302C.76-1.364.493-.612 0 0" style="fill:#231815;fill-opacity:1;fill-rule:nonzero;stroke:none" transform="translate(329.526 447.572)"/><path d="M0 0c3.292-.23 3.938 2.356 3.938 2.356 2.682.301 4.241 2.451 3.92 3.951-.601 2.811-4.725 2.125-6.108 1.252-1.398-.865-6.01-.561-6.01-.561L-8.233-4.99s1.201-3.106 2.704-4.463c1.503-1.351.12-5.039 3.297-5.159C.401-14.699-.207-9.32-.207-9.32c1.23-2.163 3.254-5.792 5.023-3.24 1.767 2.559-2.183 6.644-2.183 6.644 1.154-.654 5.292-6.715 6.948-3.523 2.086 4.008-4.177 6.778-4.177 6.778 3.131-.787 6.313-.578 6.599 1.31.484 3.05-1.763 3.243-3.988 3.369-2.457.131-3.925.421-3.925.421" style="fill:#fde7d3;fill-opacity:1;fill-rule:nonzero;stroke:none" transform="translate(316.68 445.622)"/><path d="M0 0c-.161.079-.31.158-.439.25C-.31.18-.159.095 0 0" style="fill:#f6d0b5;fill-opacity:1;fill-rule:nonzero;stroke:none" transform="translate(323.103 442.423)"/><path d="M0 0c-.286-1.829-3.294-2.07-6.331-1.361-.565.502-1.224 1.049-1.224 1.049C-3.68-1.334-.995-.584 0 0" style="fill:#f6d0b5;fill-opacity:1;fill-rule:nonzero;stroke:none" transform="translate(328.68 444.263)"/><path d="M0 0c-.061-.175-.119-.351-.212-.53-1.628-3.135-5.637 2.634-6.876 3.466C-8.871 5.612-1.92-1.658 0 0" style="fill:#f6d0b5;fill-opacity:1;fill-rule:nonzero;stroke:none" transform="translate(326.488 436.719)"/><path d="M0 0c.168-.192.42-.489.701-.867C.449-.565.212-.273 0 0" style="fill:#f6d0b5;fill-opacity:1;fill-rule:nonzero;stroke:none" transform="translate(319.548 439.47)"/><path d="M0 0s-.488 1.388-.718 2.633l.856.674s2.224-7.581 4.981-6.366c-.034-.061-.056-.123-.097-.181C3.253-5.794 1.231-2.162 0 0" style="fill:#f6d0b5;fill-opacity:1;fill-rule:nonzero;stroke:none" transform="translate(316.454 436.247)"/><path d="m0 0 3.347 7.463c2.828-2.664 7.067 1.152 7.067 1.152l-.322-2.672C8.538-.618 5.221-1.612 5.221-1.612c-.039-5.404.627-4.806 1.426-5.412-.313-.519-.774-.862-1.453-.84-3.177.12-1.795 3.808-3.297 5.159C1.155-2.034.485-.938 0 0" style="fill:#f6d0b5;fill-opacity:1;fill-rule:nonzero;stroke:none" transform="translate(309.255 438.874)"/><path d="M0 0s-1.025-4.006-3.706-6.196c0 0 4.426.977 3.706 6.196" style="fill:#231815;fill-opacity:1;fill-rule:nonzero;stroke:none" transform="translate(319.46 445.133)"/><path d="M0 0s1.841.676 2.758 2.425c0 0 1.574-.094 3.608.865l2.678-1.341s-2.773.392-5.767-.234C3.277 1.715 2.996.239 0 0" style="fill:#231815;fill-opacity:1;fill-rule:nonzero;stroke:none" transform="translate(316.688 445.62)"/><path d="M0 0s21.806-10.329 40.106-15.459c0 0 .974-.421.244-3.959-1.735-8.437-5.921-15.887-5.921-15.887s-.805-1.906-3.005-2.636c-.041-.005-10.538-2.565-20.851 2.242-.989.466-1.901 1.117-2.764 1.888l-.716 3.059c-.005-.013-.017-.024-.022-.034 0 0-10.396 14.72-7.071 30.786" style="fill:#231815;fill-opacity:1;fill-rule:nonzero;stroke:none" transform="translate(274.647 472.334)"/><path d="M0 0c-1.075-4.761-2.655-13.722-7.6-22.219 0 0-10.041 13.753-6.851 28.726 0 0 6.374-3.088 14.451-6.507" style="fill:#4ca748;fill-opacity:1;fill-rule:nonzero;stroke:none" transform="translate(289.617 464.385)"/><path d="M0 0c-3.378.757-7.232 1.993-11.122 3.442-1.029-4.592-3.845-16.315-6.783-24.245 5.288-.373 9.748.16 9.785.172 2.109.692 2.882 2.443 2.882 2.443S-1.409-11.56.239-3.695C.939-.401 0 0 0 0" style="fill:#1d50a2;fill-opacity:1;fill-rule:nonzero;stroke:none" transform="translate(313.262 456.093)"/><path d="M0 0c-1.034-4.581-3.885-16.311-6.799-24.233-3.281.206-6.907.823-10.011 2.289a10.763 10.763 0 0 0-2.664 1.763l-.704 2.861c4.715 8.749 6.472 17.447 7.545 22.203C-8.35 2.964 0 0 0 0" style="fill:#e1335a;fill-opacity:1;fill-rule:nonzero;stroke:none" transform="translate(302.209 459.524)"/><path d="M0 0c-5.864 3.287-7.035 5.893-7.035 5.893l3.762-14.362C-1.873-5.566-.822-2.686 0 0" style="fill:#238e3a;fill-opacity:1;fill-rule:nonzero;stroke:none" transform="translate(286.875 454.023)"/><path d="m0 0 2.168-8.275c2.988-1.304 6.399-1.877 9.503-2.072 1.477 4.013 2.936 9 4.15 13.542C10.154 4.939 6.083 6.749 3.19 8.386A70.838 70.838 0 0 0 0 0" style="fill:#c70044;fill-opacity:1;fill-rule:nonzero;stroke:none" transform="translate(283.685 445.637)"/><path d="M0 0c-1.21-4.546-2.666-9.538-4.156-13.557 5.288-.373 9.748.161 9.785.172 2.109.692 2.882 2.443 2.882 2.443s1.877 3.257 3.569 7.909C7.404-2.08 3.412-1.053 0 0" style="fill:#00388b;fill-opacity:1;fill-rule:nonzero;stroke:none" transform="translate(299.513 448.847)"/><path d="m0 0 15.168-53.426S2.727-61.51-29.836-59.609c-28.547 1.642-40.879 8.008-48.503 16.621 0 0 3.261 3.174 5.583 3.376 2.422.216 4.274 2.073 5.719 3.432 7.757 7.339 15.595 18.669 19.739 35.706z" style="fill:#231815;fill-opacity:1;fill-rule:nonzero;stroke:none" transform="translate(276.828 472.963)"/><path d="m0 0 13.353-50.324S2.476-57.672-27.94-55.666c-25.055 1.645-38.199 6.165-46.836 13.969 0 0 1.332 1.851 3.495 2.046 2.264.205 4 1.977 5.348 3.291 7.239 7.026 16.105 20.434 19.976 36.735z" style="fill:#dff2fc;fill-opacity:1;fill-rule:nonzero;stroke:none" transform="translate(276.36 470.863)"/><path d="m0 0 15.168-53.443s-12.441-8.075-45.004-6.184c-28.547 1.647-40.879 8.01-48.503 16.631 0 0 3.261 3.16 5.583 3.37 2.422.219 4.274 2.079 5.719 3.434 7.757 7.351 15.595 18.657 19.739 35.697z" style="fill:#231815;fill-opacity:1;fill-rule:nonzero;stroke:none" transform="translate(276.828 473.026)"/><path d="m0 0 13.353-50.332S2.476-57.67-27.94-55.672c-25.055 1.637-38.199 6.163-46.836 13.966 0 0 1.332 1.853 3.495 2.054 2.264.201 4 1.979 5.348 3.282 7.239 7.034 16.105 20.424 19.976 36.738z" style="fill:#eaeef1;fill-opacity:1;fill-rule:nonzero;stroke:none" transform="translate(276.36 470.918)"/><path d="M0 0c-2.625.168-5.55-1.538-5.55-1.538-5.699-4.469-10.624-1.231-10.624-1.231S-20.643 0-24.652-.302c-3.792-.343-9.536-.205-15.197.542a80.656 80.656 0 0 0-1.541-5.311c6.141-.939 12.599-1.135 16.738-.761 4.009.302 8.478-2.467 8.478-2.467s4.925-3.239 10.624 1.23c0 0 2.925 1.706 5.55 1.539.645-.035 3.777.052 8.007.557L6.582.399C3.085.034.571-.03 0 0" style="fill:#b0ccd9;fill-opacity:1;fill-rule:nonzero;stroke:none" transform="translate(269.946 469.882)"/><path d="m0 0 7.363-17.234L16.856 0Z" style="fill:#f6d0b5;fill-opacity:1;fill-rule:nonzero;stroke:none" transform="translate(249.54 469.509)"/><path d="m0 0-5.429-9.882-5.988 9.864-7.917 2.641 1.252-2.194 12.7-22.408L8.233 2.223z" style="fill:#231815;fill-opacity:1;fill-rule:nonzero;stroke:none" transform="translate(262.856 470.463)"/><path d="m0 0 6.363-10.472L12.114 0l5.345 1.433L6.363-18.282-4.934 1.643Z" style="fill:#fff;fill-opacity:1;fill-rule:nonzero;stroke:none" transform="translate(251.1 469.22)"/><path d="M0 0c-1.285.576-3.036 1.207-4.832 1.392l3.648-6.436c1.87-.701 3.212-1.529 3.212-1.529S3-7.208 4.575-7.528z" style="fill:#dcdddd;fill-opacity:1;fill-rule:nonzero;stroke:none" transform="translate(251.743 468.153)"/><path d="M0 0a11.835 11.835 0 0 0-2.492-1.51l-3.501-6.374c1.617.057 3.541.583 5.579 2.06l4.055 7.205C1.684.979 0 0 0 0" style="fill:#dcdddd;fill-opacity:1;fill-rule:nonzero;stroke:none" transform="translate(264.394 468.34)"/><path d="M0 0s6.078 8.112 15.815 5.072c9.746-3.027 10.621-15.335 1.507-19.421C8.21-18.435-.977-15.767-1.35-15.346Z" style="fill:#231815;fill-opacity:1;fill-rule:nonzero;stroke:none" transform="translate(299.124 510.878)"/><path d="M0 0s4.666 7.135 12.137 4.459c7.47-2.655 8.145-13.441 1.153-17.029-6.983-3.589-14.033-1.254-14.324-.871Z" style="fill:#fde7d3;fill-opacity:1;fill-rule:nonzero;stroke:none" transform="translate(301.46 510.198)"/><path d="M0 0c-3.672.97-10.73-5.217-5.992-7.668C-1.686-9.896 5.471-3.235-.461-.23" style="fill:#f6d0b5;fill-opacity:1;fill-rule:nonzero;stroke:none" transform="translate(313.91 509)"/><path d="M0 0s.932 4.318 5.035 4.936c3.706.547 3.732-1.855 3.732-1.855s-.373-2.053-3.537-.614C2.683 3.617 0 0 0 0" style="fill:#231815;fill-opacity:1;fill-rule:nonzero;stroke:none" transform="translate(307.334 504.962)"/><path d="m0 0 1.198-2.019c1.655.278 3.416.805 5.174 1.709C8.435.747 9.811 2.438 10.563 4.356 7.031-.282 0 0 0 0" style="fill:#f6d0b5;fill-opacity:1;fill-rule:nonzero;stroke:none" transform="translate(308.379 497.939)"/><path d="M0 0s-7.162 7.171-16.038 2.985c-8.885-4.189-7.743-16.325 1.686-19.174 9.423-2.847 17.83.905 18.122 1.371z" style="fill:#231815;fill-opacity:1;fill-rule:nonzero;stroke:none" transform="translate(213.305 502.566)"/><path d="M0 0s-5.65 6.365-12.657 2.642c-7-3.712-6.106-14.494 1.337-17.024 7.434-2.529 14.063.809 14.299 1.227z" style="fill:#fde7d3;fill-opacity:1;fill-rule:nonzero;stroke:none" transform="translate(211.654 501.845)"/><path d="M0 0c4.606-.825 3.447 3.2.525 4.659-2.09 1.044-6.163 2.117-5.554-1.661C-4.695.923-1.536.275 0 0" style="fill:#f6d0b5;fill-opacity:1;fill-rule:nonzero;stroke:none" transform="translate(205.592 492.867)"/><path d="M0 0s-1.636 4.117-6.203 4.072c-4.11-.04-3.796-2.42-3.796-2.42s.705-1.982 3.949-.049C-3.43 3.157 0 0 0 0" style="fill:#231815;fill-opacity:1;fill-rule:nonzero;stroke:none" transform="translate(207.998 496.008)"/><path d="M0 0s-14.666-2.803-14.368 7.867c-.948-4.359 1.118-9.35 5.877-10.969 3.059-1.04 5.973-1.081 8.371-.747z" style="fill:#f6d0b5;fill-opacity:1;fill-rule:nonzero;stroke:none" transform="translate(208.811 490.553)"/><path d="M0 0c-9.385-3.605-17.36-8.426-24.905-19.575 0 0-14.627-18.449-3.218-45.984 2.731-5.417 1.878-8.147 1.396-9.647-.481-1.499-4.301-11.982 4.102-16.922 8.11-4.767 22.625-6.625 32.103-5.515 4.178.311 8.834-2.543 8.834-2.543s5.146-3.337 11.088 1.285c0 0 3.053 1.737 5.788 1.569 2.726-.145 48.769 2.03 40.573 26.356-3.695 8.446-4.582 6.371-3.136 13.853 2.415 10.02.64 34.693-19.12 49.012 0 0-23.296 19.737-53.505 8.111" style="fill:#231815;fill-opacity:1;fill-rule:nonzero;stroke:none" transform="translate(235.014 566)"/><path d="M0 0c-8.992-3.498-16.638-8.162-23.875-18.949 0 0-14.018-17.882-3.081-44.536 2.255-4.575 1.874-6.585 1.609-8.933-.265-2.349-4.258-11.413 4.191-16.905 6.735-4.378 22.528-5.666 30.247-4.968 4.01.302 8.478-2.467 8.478-2.467s4.925-3.238 10.624 1.231c0 0 2.925 1.706 5.55 1.538 2.615-.139 45.937 1.705 38.068 25.276-3.541 8.158-3.56 6.153-2.174 13.402 2.321 9.708.619 33.591-18.338 47.443 0 0-22.336 19.109-51.299 7.868" style="fill:#fde7d3;fill-opacity:1;fill-rule:nonzero;stroke:none" transform="translate(236.203 563.871)"/><path d="M0 0s-3.61 23.408 8.919 27.108c12.532 3.69 22.805-13.355 17.258-32.46 0 0-7.896 3.063-21.398 2.809C2.105-2.657.309-2.414 0 0" style="fill:#fff;fill-opacity:1;fill-rule:nonzero;stroke:none" transform="translate(268.059 504.153)"/><path d="M0 0c0-3.669-2.122-6.66-4.741-6.66-2.62 0-4.744 2.991-4.744 6.66 0 3.691 2.124 6.667 4.744 6.667C-2.122 6.667 0 3.691 0 0" style="fill:#231815;fill-opacity:1;fill-rule:nonzero;stroke:none" transform="translate(279.315 510.624)"/><path d="M0 0c0-1.605-.784-2.917-1.748-2.917-.969 0-1.746 1.312-1.746 2.917 0 1.604.777 2.908 1.746 2.908C-.784 2.908 0 1.604 0 0" style="fill:#fff;fill-opacity:1;fill-rule:nonzero;stroke:none" transform="translate(275.144 509.515)"/><path d="M0 0s20.233 3.634 17.938-29.472c0 0 5.055 13.983-3.259 24.777C8.858 3.01 0 0 0 0" style="fill:#231815;fill-opacity:1;fill-rule:nonzero;stroke:none" transform="translate(276.978 531.262)"/><path d="M0 0s3.26 5.556 6.774.316C6.774.316 1.543.83 0 0" style="fill:#f6d0b5;fill-opacity:1;fill-rule:nonzero;stroke:none" transform="translate(258.798 502.292)"/><path d="M0 0s3.497 2.569 6.774.316C6.774.316 1.543.83 0 0" style="fill:#231815;fill-opacity:1;fill-rule:nonzero;stroke:none" transform="translate(258.798 502.292)"/><path d="M0 0s18.306 1.651 22.885-3.33c0 0-6.091 3.002-22.885 3.33" style="fill:#231815;fill-opacity:1;fill-rule:nonzero;stroke:none" transform="translate(272.838 501.61)"/><path d="M0 0s3.605 23.403-8.923 27.108C-21.461 30.793-31.729 13.751-26.184-5.35c0 0 7.89 3.058 21.402 2.807C-2.112-2.668-.316-2.414 0 0" style="fill:#fff;fill-opacity:1;fill-rule:nonzero;stroke:none" transform="translate(254.44 503.536)"/><path d="M0 0c0-3.685 2.113-6.66 4.74-6.66 2.619 0 4.733 2.975 4.733 6.66 0 3.677-2.114 6.659-4.733 6.659C2.113 6.659 0 3.677 0 0" style="fill:#231815;fill-opacity:1;fill-rule:nonzero;stroke:none" transform="translate(242.834 510.01)"/><path d="M0 0c0-1.596.771-2.908 1.738-2.908.969 0 1.744 1.312 1.744 2.908 0 1.627-.775 2.924-1.744 2.924C.771 2.924 0 1.627 0 0" style="fill:#fff;fill-opacity:1;fill-rule:nonzero;stroke:none" transform="translate(247.01 508.885)"/><path d="M0 0s-20.241 3.643-17.937-29.468c0 0-5.058 13.993 3.265 24.782C-8.86 3.01 0 0 0 0" style="fill:#231815;fill-opacity:1;fill-rule:nonzero;stroke:none" transform="translate(245.517 530.645)"/><path d="M0 0s-18.312 1.66-22.889-3.32c0 0 6.1 2.997 22.889 3.32" style="fill:#231815;fill-opacity:1;fill-rule:nonzero;stroke:none" transform="translate(249.657 500.993)"/><path d="M0 0a.927.927 0 0 1-.643-1.129.937.937 0 0 1 1.14-.651c.046.017 1.224.308 2.424-.373 1.054-.615 1.823-1.825 2.285-3.588a.92.92 0 0 1 1.129-.658A.92.92 0 0 1 7-5.268c-.599 2.28-1.677 3.871-3.182 4.732C1.921.533.072.033 0 0" style="fill:#f6d0b5;fill-opacity:1;fill-rule:nonzero;stroke:none" transform="translate(288.028 544.45)"/><path d="M0 0a.927.927 0 0 1-.643-1.129.937.937 0 0 1 1.14-.651c.046.016 1.224.309 2.424-.373 1.054-.615 1.823-1.825 2.285-3.589a.921.921 0 0 1 1.129-.657A.92.92 0 0 1 7-5.268C6.401-2.987 5.323-1.397 3.818-.536 1.921.533.072.033 0 0" style="fill:#231815;fill-opacity:1;fill-rule:nonzero;stroke:none" transform="translate(288.028 545.496)"/><path d="m0 0 .006.007c.007.058.012.116.017.175C.018.12.007.062 0 0" style="fill:#f6d0b5;fill-opacity:1;fill-rule:nonzero;stroke:none" transform="translate(205.336 525.461)"/><path d="M0 0c-.736-6.922-.059-15.422 3.905-25.082 2.255-4.575 1.874-6.585 1.61-8.933-.266-2.348-4.259-11.413 4.19-16.905 2.065-1.342 4.983-2.393 8.258-3.186-12.076 6.981-8.524 17.29-5.953 22.428 2.764 5.531.922 9.449.922 9.449S5.601-4.195 12.47 11.9C6.094 7.03 1.895 2.327 0 0" style="fill:#f6d0b5;fill-opacity:1;fill-rule:nonzero;stroke:none" transform="translate(205.342 525.468)"/><path d="m0 0-.73 2.369c-1.812.323-3.896.157-6.117-1.022-1.973-1.046-3.298-2.661-4.046-4.488C-10.393-2.494-5.884 3.021 0 0" style="fill:#fff;fill-opacity:1;fill-rule:nonzero;stroke:none" transform="translate(205.844 503.14)"/><path d="M0 0c-1.87.67-3.563.725-5.053.432l-.262-2.186S.132.634 4.622-3.791C3.613-2.121 2.081-.739 0 0" style="fill:#fff;fill-opacity:1;fill-rule:nonzero;stroke:none" transform="translate(313.598 514.657)"/><path d="M0 0c-1.948 2.213-3.12 4.246-5.611 6.177 0 0-23.355 21.634-53.995 9.066-9.521-3.906-17.604-9.122-25.263-21.165 0 0-5.494-8.116-6.87-21.719 4.476 5.786 20.537 24.849 47.946 29.638C-21.045 5.976-7.108 2.381 0 0" style="fill:#f6d0b5;fill-opacity:1;fill-rule:nonzero;stroke:none" transform="translate(296.834 546.786)"/><path d="M0 0a48.37 48.37 0 0 1-6.649 6.244s-23.648 21.341-54.287 8.774c-9.521-3.907-17.605-9.122-25.265-21.165 0 0-6.026-8.117-7.401-21.718 4.475 5.785 21.068 24.848 48.478 29.637C-22.376 5.751-7.108 2.38 0 0" style="fill:#231815;fill-opacity:1;fill-rule:nonzero;stroke:none" transform="translate(296.857 548.58)"/><path d="M0 0a44.338 44.338 0 0 1-6.293 5.576s-22.336 19.109-51.299 7.868c-8.992-3.498-16.637-8.162-23.875-18.949 0 0-5.702-7.274-6.992-19.461 4.223 5.19 19.908 22.241 45.812 26.547C-21.155 5.141-6.721 2.124 0 0" style="fill:#9fa0a0;fill-opacity:1;fill-rule:nonzero;stroke:none" transform="translate(293.795 550.427)"/><path d="M0 0c-9.271 3.626-22.554 6.011-37.642.154-8.993-3.498-16.638-8.163-23.875-18.949 0 0-5.704-7.274-6.993-19.461 1.891 2.325 6.092 7.032 12.476 11.907 2.64 6.188 7.377 12.089 15.44 16.569C-21.532.81-7.436 1.07 0 0" style="fill:#727171;fill-opacity:1;fill-rule:nonzero;stroke:none" transform="translate(273.85 563.717)"/><path d="m0 0-6.356 28.547s-1.725 3.731 2.423 6.195C.99 37.661 18.078 47.003 23.418 48.228c0 0 5.096 1.848 5.86-2.926.152-2.167 3.379-4.474 3.379-4.474s4.009-1.851 5.857-7.393c1.58-4.721 10.484-11.242 10.484-11.242z" style="fill:#231815;fill-opacity:1;fill-rule:nonzero;stroke:none" transform="translate(210.983 547.299)"/><path d="M0 0s42.982 22.486 71.022 35.44c28.038 12.945 74.883 32.658 74.883 32.658 2.454 2.16-.626 1.691-.626 1.691-28.484-11.101-58.511-24.005-82.119-35.126C24.198 16.288-1.076 1.845-1.076 1.845S-2.922-.617 0 0" style="fill:#231815;fill-opacity:1;fill-rule:nonzero;stroke:none" transform="translate(166.154 522.037)"/><path d="M0 0s.199-8.012 4.104-6.174c2.257 1.445.413 5.25-.2 6.786C3.283 2.15.307 2.774 0 0" style="fill:#fff;fill-opacity:1;fill-rule:nonzero;stroke:none" transform="translate(212.454 575.767)"/><path d="M0 0s1.43 1.548 2.763.517c1.337-1.024.719-4.829-.098-5.135C1.844-4.925-1.234-2.251 0 0" style="fill:#fff;fill-opacity:1;fill-rule:nonzero;stroke:none" transform="translate(215.541 565.692)"/><path d="M0 0c-4.93-.28-7.144-4.212-7.626-6.266-.115-.479.196-.98.689-1.101a.941.941 0 0 1 1.115.682c.046.186 1.168 4.578 5.932 4.841a.909.909 0 0 1 .857.973C.952-.354.514.026 0 0" style="fill:#f6d0b5;fill-opacity:1;fill-rule:nonzero;stroke:none" transform="translate(231.22 540.17)"/><path d="M0 0c-4.93-.28-7.144-4.213-7.626-6.266-.115-.481.196-.98.689-1.102a.941.941 0 0 1 1.115.682C-5.776-6.5-4.654-2.107.11-1.845a.909.909 0 0 1 .857.974C.952-.354.514.026 0 0" style="fill:#231815;fill-opacity:1;fill-rule:nonzero;stroke:none" transform="translate(231.22 541.217)"/><path d="M0 0c-5.619.343-11.619 11.759-11.619 11.759 1.084-.829 2.47-1.51 4.01-2.073l-2.966 2.086-3.688 2.535-1.383-1.614 3.227-2.535S-5.348-4.184 2.553.232C1.84.042 1.004-.055 0 0" style="fill:#f6d0b5;fill-opacity:1;fill-rule:nonzero;stroke:none" transform="translate(257.654 468.422)"/><path d="M0 0s20.03-15.399 29.683-2.046c0 0-4.72-17.156-29.989.709z" style="fill:#231815;fill-opacity:1;fill-rule:nonzero;stroke:none" transform="translate(243.361 483.34)"/><path d="M0 0s1.135-4.406-2.668-4.406c0 0 1.645.399 1.54 3.375C-1.228 1.952 0 0 0 0" style="fill:#231815;fill-opacity:1;fill-rule:nonzero;stroke:none" transform="translate(243.977 485.597)"/><path d="M0 0s6-11.416 11.619-11.759c4.158-.226 5.503 2.096 6.6 3.317 1.105 1.22 4.092 3.722 4.092 3.722S6.236-4.77 0 0" style="fill:#231815;fill-opacity:1;fill-rule:nonzero;stroke:none" transform="translate(246.035 480.18)"/><path d="M0 0s5.038-9.584 9.762-9.873c3.492-.191 4.619 1.761 5.549 2.774.918 1.037 2.97 2.685 2.97 2.685S5.245-4.013 0 0" style="fill:#e1335a;fill-opacity:1;fill-rule:nonzero;stroke:none" transform="translate(247.775 479.238)"/><path d="M0 0c-3.168.936-7.066.467-6.996.486 2.113-2.541 4.77-4.949 7.35-5.092 2.925-.164 4.437.894 5.457 1.949C5.757-2.568 3.533-1.03 0 0" style="fill:#231815;fill-opacity:1;fill-rule:nonzero;stroke:none" transform="translate(257.347 473.922)"/><path d="M0 0c-2.688.841-6.01.426-5.95.44C-4.153-1.816-1.888-3.955.311-4.089c2.483-.145 3.774.819 4.64 1.733C4.908-2.273 3.02-.919 0 0" style="fill:#ed6d34;fill-opacity:1;fill-rule:nonzero;stroke:none" transform="translate(257.236 473.454)"/><path d="M0 0c-1.349-1.303-3.084-3.081-5.349-3.282-2.163-.2-3.495-2.054-3.495-2.054 5.931-5.358 13.987-9.17 26.564-11.563C12.853-14.44-5.167-5.124.164-4.591c20.523-8.451 10.141-.614 7.683.921-2.458 1.537-1.536 2.458-1.536 2.458 4.609 15.671 11.983 19.973 11.983 19.973-3.995 5.223 4.301 11.675 4.301 11.675l-3.975 1.383C14.289 17.75 6.495 6.312 0 0" style="fill:#b0ccd9;fill-opacity:1;fill-rule:nonzero;stroke:none" transform="translate(210.427 434.548)"/><path d="M0 0c-26.882 1.994-32.802 4.937-34.027 5.851-.183-.353-.365-.709-.551-1.056l.342-.34C-33.589 3.826-28.937.577 0-1.568c14.552-1.258 24.424 3.922 24.52 3.977l.194.104-.366 1.378C22.99 3.216 13.516-1.168 0 0" style="fill:#b0ccd9;fill-opacity:1;fill-rule:nonzero;stroke:none" transform="translate(257.39 446.706)"/><path d="M0 0c3.159 4.742-6.277.518-5.422.09C-4.14-.555-1.037-1.553 0 0" style="fill:#8aa3d4;fill-opacity:1;fill-rule:nonzero;stroke:none" transform="translate(221.679 398.893)"/><path d="M0 0c.042-.098.077-.197.103-.299.249-.947-5.482.803-5.626.842-.866.238-2.376-.389-2.055 1.158C-7.118 3.902-.638 1.488 0 0" style="fill:#8aa3d4;fill-opacity:1;fill-rule:nonzero;stroke:none" transform="translate(286.033 397.62)"/><path d="M0 0c1.328 2.93 1.247 8.213-.507 7.584-3.402-1.395-7.31-2.051-10.46-2.357.284-1.182.26-2.42-.201-3.541-1.007-2.456-3.439-3.131-5.999-3.543C-7.026-2.035 0 0 0 0" style="fill:#00388b;fill-opacity:1;fill-rule:nonzero;stroke:none" transform="translate(246.327 392.963)"/><path d="M0 0c.348 1.277.76 2.578 1.152 3.885-2.405.386-4.982.996-7.323 1.955-1.77.631-1.845-4.656-.519-7.572 0 0 6.008-1.743 14.928-1.873C5.165-2.963 1.93-2.371 0 0" style="fill:#00388b;fill-opacity:1;fill-rule:nonzero;stroke:none" transform="translate(261.575 394.012)"/><path d="M0 0c-.442 7.542-2.861 13.653-3.899 15.959 3.283 1.736 7.187 4.496 6.311 7.499-.423 1.455-1.622 2.359-3.138 2.359-1.762.003-4.002-1.337-5.728-3.886-1.509 2.765-3.618 4.297-5.415 4.426-1.486.117-2.739-.693-3.261-2.111-1.081-2.871 2.378-5.846 5.408-7.809-1.619-1.451-3.338-4.218-3.874-9.504-.346-3.441-.827-5.333-1.203-6.36-.065.005-.128.021-.194.021a2.757 2.757 0 0 1-2.755-2.761c0-.178.019-.352.053-.519-.51-.237-1.387-.709-2.485-1.56-1.49-1.16-3.007-1.679-3.019-1.679l-.775-.26.254-.771c.043-.106.383-1.057 1.313-1.383.167-.049.369-.1.613-.1 0-.529.131-1.062.581-1.439.67-.541 1.568-.327 2.376.035.285-.576.779-1.147 1.507-1.117 1.055.031 1.975 1.115 3.024 6.134a2.75 2.75 0 0 1 2.026 2.257c1.12 1.615 1.906 4.608 2.364 9.134.474 4.694 1.93 6.566 2.888 7.303C-6.011 11.456-4.08 6.133-3.691-.169a2.734 2.734 0 0 1-.21-3.65c-.739-1.28-1.942-2.932-2.755-3.204l-.326-.1-.15-.308c-.218-.416-.31-1.084.091-1.619.434-.541 1.128-.602 1.802-.553.154-.502.446-1.064 1.061-1.252.731-.226 1.385.221 1.845.668.522-.346 1.245-.652 1.966-.285 1.174.603 1.387 2.58.682 6.533.43.487.701 1.12.701 1.819A2.75 2.75 0 0 1 0 0" style="fill:#b0ccd9;fill-opacity:1;fill-rule:nonzero;stroke:none" transform="translate(262.313 431.33)"/><path d="m0 0-1.041-.541c-.093-.038-9.672-4.914-22.898-3.77-27.533 2.044-32.15 5.509-32.334 5.655l-.905.723-.511-1.036-1.256-2.529.475-.474c.649-.629 5.3-3.877 34.237-6.023C-9.682-9.253.191-4.072.286-4.018l.64.341z" style="fill:#231815;fill-opacity:1;fill-rule:nonzero;stroke:none" transform="translate(281.635 454.708)"/><path d="M0 0c.416-.401 4.745-3.612 33.646-5.766 14.108-1.217 23.617 3.659 24.029 3.867l-.474 1.851c-.089-.041-9.86-5.041-23.401-3.88C5.696-1.832 1.129 1.799.949 1.944Z" style="fill:#e1335a;fill-opacity:1;fill-rule:nonzero;stroke:none" transform="translate(223.816 453.4)"/><path d="M0 0c.94.517 1.906 1.111 2.785 1.768a47.53 47.53 0 0 0-4.033.171 305.9 305.9 0 0 0-8.183.715c.827-.774 1.774-1.492 2.707-2.12C-5.049.386-3.278.241-1.4.102-.929.061-.462.028 0 0" style="fill:#be0037;fill-opacity:1;fill-rule:nonzero;stroke:none" transform="translate(258.866 447.53)"/><path d="M0 0c-28.103 2.096-32.671 5.727-33.373 6.108l-.473-.968c2.189-1.198 8.89-3.823 33.693-5.67 12.927-1.117 21.987 2.883 24.028 3.863l-.176.69C23.312 3.839 13.541-1.161 0 0" style="fill:#be0037;fill-opacity:1;fill-rule:nonzero;stroke:none" transform="translate(257.616 448.164)"/><path d="M0 0c-.365 9.861-4.251 17.496-4.418 17.819l-.414.821-.823-.418-2.468-1.273.418-.816c.038-.079 3.672-7.301 4.015-16.284l.036-.921 3.69.14z" style="fill:#231815;fill-opacity:1;fill-rule:nonzero;stroke:none" transform="translate(263.934 431.501)"/><path d="m0 0-.198 2.771-.908-.063c-.25-.019-6.069-.515-7.139-11.093-.638-6.332-1.736-7.446-1.781-7.497l.137.089s.246-.823.4-1.309l-.623.62-.286-2.77.92-.085c.286-.032 1.022-.032 1.803.597 1.529 1.248 2.556 4.513 3.109 9.987C-3.842-1.583-.82-.98-.794-.98l.835.145z" style="fill:#231815;fill-opacity:1;fill-rule:nonzero;stroke:none" transform="translate(258.532 447.693)"/><path d="M0 0c.038-.074 3.765-7.439 4.104-16.667l1.85.076C5.597-6.95 1.808.533 1.643.854Z" style="fill:#e1335a;fill-opacity:1;fill-rule:nonzero;stroke:none" transform="translate(257.055 448.05)"/><path d="M0 0c-.737-7.304-2.113-8.134-2.128-8.139l.272.027-.202-1.832c.174-.018.613-.018 1.129.406C.392-8.474 1.316-5.325 1.835-.183c.824 8.12 4.542 8.601 4.578 8.601l-.142 1.838C6.057 10.243.992 9.815 0 0" style="fill:#e1335a;fill-opacity:1;fill-rule:nonzero;stroke:none" transform="translate(251.203 439.216)"/><path d="m0 0-.277-.091c-.051-.014-1.24-.422-2.965-1.759-1.489-1.16-3.006-1.678-3.019-1.678l-.775-.261.254-.77c.043-.105.383-1.059 1.314-1.383.167-.049.368-.101.612-.101 0-.53.131-1.063.581-1.438.671-.543 1.569-.328 2.375.033.288-.576.781-1.144 1.507-1.117 1.104.033 2.058 1.203 3.166 6.821l.128.684z" style="fill:#231815;fill-opacity:1;fill-rule:nonzero;stroke:none" transform="translate(246.944 429.98)"/><path d="m0 0-.153.764-.771-.117L-3.676.22l-.197-.359c-.696-1.303-2.079-3.3-2.979-3.601l-.324-.097-.152-.309c-.218-.416-.312-1.084.091-1.619.433-.541 1.13-.604 1.802-.553.155-.502.447-1.064 1.062-1.254.728-.224 1.385.223 1.844.67.521-.348 1.247-.652 1.967-.287C.675-6.552.847-4.396 0 0" style="fill:#231815;fill-opacity:1;fill-rule:nonzero;stroke:none" transform="translate(264.078 429.092)"/><path d="M0 0s-.954-.317-2.393-1.437C-3.835-2.56-5.267-3.032-5.267-3.032s.475-1.431 1.909-.484c0 0-1.121-3.19 2.083-1.276 0 0 1.275-4.803 3.041 4.151z" style="fill:#e1335a;fill-opacity:1;fill-rule:nonzero;stroke:none" transform="translate(246.684 428.708)"/><path d="M0 0s-1.591-3.047-3.037-3.516c0 0-.634-1.297 1.608-.801 0 0 .156-2.562 1.911-.324 0 0 3.2-3.354 1.603 4.954z" style="fill:#e1335a;fill-opacity:1;fill-rule:nonzero;stroke:none" transform="translate(260.88 428.228)"/><path d="m0 0-.51-.077c-.216-.316-.398-.504-.398-.504.747-2.772-1.184-4.192-2.44-4.803.213-.526.688-.918 1.745.429 0 0 3.2-3.353 1.603 4.955" style="fill:#be0037;fill-opacity:1;fill-rule:nonzero;stroke:none" transform="translate(262.964 428.541)"/><path d="M0 0a2.763 2.763 0 0 1 0-5.524 2.767 2.767 0 0 1 2.761 2.763A2.768 2.768 0 0 1 0 0" style="fill:#231815;fill-opacity:1;fill-rule:nonzero;stroke:none" transform="translate(262.138 433.018)"/><path d="M0 0c0-.945-.769-1.728-1.718-1.728-.941 0-1.721.783-1.721 1.728 0 .934.78 1.71 1.721 1.71A1.72 1.72 0 0 0 0 0" style="fill:#e1335a;fill-opacity:1;fill-rule:nonzero;stroke:none" transform="translate(263.856 430.257)"/><path d="m0 0 .11-.321C.51-1.49.043-2.56-.366-3.201A1.73 1.73 0 0 1 .957-1.524 1.71 1.71 0 0 1 0 0" style="fill:#be0037;fill-opacity:1;fill-rule:nonzero;stroke:none" transform="translate(262.898 431.781)"/><path d="M0 0s-.288-1.682 2.247-.203c0 0 1.276-4.803 3.041 4.151l-1.308.475C4.524.828 0 0 0 0" style="fill:#be0037;fill-opacity:1;fill-rule:nonzero;stroke:none" transform="translate(243.161 424.12)"/><path d="M0 0a2.759 2.759 0 0 1 0-5.517A2.758 2.758 0 0 1 0 0" style="fill:#231815;fill-opacity:1;fill-rule:nonzero;stroke:none" transform="translate(248.89 432.969)"/><path d="M0 0c0-.942-.771-1.718-1.71-1.718-.947 0-1.722.776-1.722 1.718 0 .949.775 1.71 1.722 1.71A1.71 1.71 0 0 0 0 0" style="fill:#e1335a;fill-opacity:1;fill-rule:nonzero;stroke:none" transform="translate(250.6 430.21)"/><path d="M0 0c-.797-.707-1.484-.899-1.929-.94a1.711 1.711 0 0 1 1.358-.678c.939 0 1.71.775 1.71 1.718a1.7 1.7 0 0 1-.323.995C.707.792.478.426 0 0" style="fill:#be0037;fill-opacity:1;fill-rule:nonzero;stroke:none" transform="translate(249.46 430.11)"/><path d="M0 0c.414.091 1.614.345 1.614.345l-.203.909C.233 6.67-2.974 9.7-5.538 9.888c-1.485.114-2.739-.695-3.261-2.114-1.289-3.422 3.88-6.999 7.076-8.827l.802-.468s.676 1.191.854 1.5c.008.004.023.004.031.021l.048-.043z" style="fill:#231815;fill-opacity:1;fill-rule:nonzero;stroke:none" transform="translate(257.552 448.847)"/><path d="M0 0c0 .066.007.116.03.179.108.289.249.34.462.323.913-.067 2.893-1.627 4.014-4.916C2.109-2.843 0-.919 0 0m-2.226 1.521C-3.339-1.452 2.595-5.132 4.443-6.18c0 0 .328.575.601 1.048.537.129 1.178.256 1.178.256C5.152.06 2.268 2.887.109 3.047c-1.079.075-1.953-.495-2.335-1.526" style="fill:#e1335a;fill-opacity:1;fill-rule:nonzero;stroke:none" transform="translate(251.845 454.77)"/><path d="M0 0c-.425 1.454-1.622 2.358-3.139 2.358-2.559.005-6.123-2.822-7.666-8.064l-.265-.883s1.213-.361 1.503-.455c.173-.355.787-1.659.787-1.659l.835.389C-4.536-6.724 1.025-3.527 0 0" style="fill:#231815;fill-opacity:1;fill-rule:nonzero;stroke:none" transform="translate(266.296 455.835)"/><path d="M0 0c.279 0 .407-.101.492-.373C.496-.414.5-.454.5-.495c0-.842-2.163-2.614-4.973-4.139C-3.19-1.639-1.134 0 0 0m-6.417-5.208s.518-.153 1.018-.309c.228-.48.561-1.21.561-1.21C-2.864-5.807 3.5-2.545 2.606.49 2.304 1.551 1.458 2.196.358 2.196c-2.248.005-5.401-2.762-6.775-7.404" style="fill:#e1335a;fill-opacity:1;fill-rule:nonzero;stroke:none" transform="translate(262.796 455.076)"/><path d="M0 0c-1.428-1.24-4.194-3.347-6.276-3.162-.218-.125-.435-.252-.661-.377.059.141-2.045.125-1.975-.086-.338.223-.67.452-.992.685-1.346.199-2.88.59-4.195 1.339 1.648-1.71 4.06-3.186 5.125-3.79 0 0 .328.575.6 1.048l.143.033.365-.112c.229-.48.562-1.21.562-1.21C-5.673-4.871-1.054-2.51 0 0" style="fill:#be0037;fill-opacity:1;fill-rule:nonzero;stroke:none" transform="translate(265.273 453.99)"/><path d="M0 0a2.319 2.319 0 0 1-2.321-2.314 2.318 2.318 0 0 1 4.635 0A2.316 2.316 0 0 1 0 0" style="fill:#231815;fill-opacity:1;fill-rule:nonzero;stroke:none" transform="translate(257.537 450.871)"/><path d="M0 0a1.389 1.389 0 1 0-2.777 0c0 .764.619 1.393 1.391 1.393C-.621 1.393 0 .764 0 0" style="fill:#e1335a;fill-opacity:1;fill-rule:nonzero;stroke:none" transform="translate(258.923 448.557)"/></g></svg>