<svg xmlns="http://www.w3.org/2000/svg" xml:space="preserve" width="600" height="907.565" viewBox="0 0 599.99999 907.56497"><defs><clipPath id="a" clipPathUnits="userSpaceOnUse"><path d="M0 841.89h595.276V0H0Z"/></clipPath><clipPath id="b" clipPathUnits="userSpaceOnUse"><path d="M161.575 245.186h272.126v389.775H161.575Z"/></clipPath><clipPath id="c" clipPathUnits="userSpaceOnUse"><path d="M169.804 246.157h255.668v386.726H169.804Z"/></clipPath><clipPath id="d" clipPathUnits="userSpaceOnUse"><path d="M161.575 245.186h272.126v389.775H161.575Z"/></clipPath><clipPath id="e" clipPathUnits="userSpaceOnUse"><path d="M169.804 246.157h255.668v386.726H169.804Z"/></clipPath><clipPath id="f" clipPathUnits="userSpaceOnUse"><path d="M161.575 245.186h272.126v389.775H161.575Z"/></clipPath></defs><g clip-path="url(#b)" transform="matrix(2.3468 0 0 -2.3468 -398.495 1485.245)"><path d="M0 0c0-11.555-41.382-20.922-92.43-20.922-51.046 0-92.428 9.367-92.428 20.922 0 11.557 41.382 20.924 92.428 20.924C-41.382 20.924 0 11.557 0 0" style="fill:#cecbca;fill-opacity:1;fill-rule:nonzero;stroke:none" transform="translate(376.87 267.08)"/><path d="M0 0c1.98 16.229 11.025 34.32 11.025 34.32 9.229 15.014 23.758 24.29 27.847 26.097 2.054.906 1.654-1.241 1.593-1.532-8.541-3.504-19.949-9.099-29.08-28.069C1.965 11.248.369-7.211-.284-18.518c-.653-11.306 3.94-30.97 7.526-36.064 3.584-5.098 9.617-7.473 11.857-6.969 2.239.5 1.372 4.389.823 5.395-.548 1.006-5.75 12.148-4.375 13.054 1.371.907 4.488-2.595 5.473-2.994.986-.394 4.619-2.703 4.862 4.164.241 6.869-4.148 13.186-5.063 14.286-.913 1.099-1.659 1.513.213 5.589 1.111 2.414 3.372 3.883 5.035 4.684-2.161-1.773-6.704-7.248-5.251-9.082 2.625-3.305 5.098-5.229 6.049-13.94.567-5.183-1.994-7.054-2.808-7.197-2.24-.381-4.696 2.147-5.412 2.754-.715.608-2.233 2.121-2.68.783-.45-1.338 4.977-11.156 6.135-14.218 1.157-3.061-2.838-5.512-6.24-4.141-2.398.967-10.441 3.637-14.191 18.824C-2.08-28.404-1.979-16.23 0 0" style="fill:#231f20;fill-opacity:1;fill-rule:nonzero;stroke:none" transform="translate(197.366 374.403)"/><path d="M0 0c-1.872-4.076-1.125-4.49-.211-5.588.914-1.099 5.302-7.418 5.061-14.287-.244-6.867-3.875-4.559-4.861-4.164-.985.398-4.102 3.9-5.474 2.994-1.373-.904 3.827-12.049 4.377-13.055.546-1.005 1.416-4.894-.826-5.394-2.238-.504-8.271 1.871-11.856 6.969-3.585 5.093-8.178 24.758-7.526 36.064.654 11.309 2.25 29.766 11.67 49.334 9.129 18.969 20.539 24.565 29.08 28.069-.004-.021-.008-.033-.008-.033s-24.681-9.91-33.696-41.305c-9.558-33.289-4.177-59.331-1.742-66.153 2.435-6.822 9.143-12.39 12.565-11.431 3.424.953 2.234 2.455-1.615 10.732-2.447 5.258-1.608 6.678-.126 7.127 1.381.422 4.795-2.639 5.069-2.934.273-.293 2.504-1.515 3.687.252 1.188 1.768.797 12.434-4.683 17.274C-2.734-4.1-1.578-1.18.386 1.209l-.026-.08c1.71 2.029 3.488 3.074 4.572 3.574.071.022.145.057.216.074-.036-.027-.077-.064-.113-.093C3.373 3.883 1.111 2.414 0 0" style="fill:#231f20;fill-opacity:1;fill-rule:nonzero;stroke:none" transform="translate(218.398 352.347)"/><path d="M0 0c.639.293 1.037.395 1.037.395C-1.133 9.738-.666 20.016-.49 22.756c.016.242.037.465.053.711 0 0-.022-.256-.053-.711-1.121-16.633-3.8-25.44-4.056-26.25-1.964-2.389-3.122-5.309-1.501-6.739 5.482-4.839 5.871-15.505 4.684-17.273-1.184-1.767-3.415-.545-3.688-.252-.272.295-3.687 3.356-5.068 2.934-1.483-.449-2.321-1.869.126-7.127 3.847-8.278 5.037-9.779 1.614-10.735-3.422-.957-10.13 4.612-12.564 11.434-2.436 6.822-7.817 32.863 1.742 66.152 9.015 31.395 33.695 41.305 33.695 41.305l.008.034.803.328 9.882.525C19.696 59.027 6.578 15.767 2.191.465L2.113.77S1.249.533.104-.02C.14.01.182.047.216.074.145.057.071.021 0 0" style="fill:#c49731;fill-opacity:1;fill-rule:nonzero;stroke:none" transform="translate(223.33 357.05)"/></g><g clip-path="url(#c)" transform="matrix(2.3468 0 0 -2.3468 -398.495 1485.245)"><path d="M0 0s-.446-.115-1.165-.443c-1.658-.537-3.59-2.082-5.104-3.922.29.908 3.295 10.795 4.553 29.469C-1.914 22.023-2.438 10.49 0 0" style="fill:#8b6020;fill-opacity:1;fill-rule:nonzero;stroke:none" transform="translate(223.356 355.179)"/><path d="M0 0s44.476-46.996 72.124-48.904c24.744-1.709 8.04-14.711-10.578-16.938-19.955-2.387-37.265-2.863-50.486.477-13.224 3.34-29.572 17.652-29.572 17.652l-.24 16.701S-11.059 3.578 0 0" style="fill:#c49731;fill-opacity:1;fill-rule:nonzero;stroke:none" transform="translate(337.766 358.991)"/><path d="M0 0c17.618-1.748 24.836-18.18 35.828-18.785 10.993-.606 34.607-2.424 44.785.605 10.178 3.03 19.136 8.485 19.136 8.485l-1.222-5.252s-6.311-4.848-10.586-6.465c-4.274-1.615-24.631-3.434-24.631-3.434l-28.499-.404-15.268 1.617-15.471 5.252-5.903 7.877S-2.035.203 0 0" style="fill:#8b6020;fill-opacity:1;fill-rule:nonzero;stroke:none" transform="translate(322.1 315.976)"/><path d="M0 0c2.771-2.342 17.001-14.027 28.495-16.932 11.762-2.97 27.641-3.113 49.957-.441 12.121 1.447 21.838 7.289 21.761 10.332-.036 1.379-2.966 3.193-11.11 3.754C62.05-1.418 20.449 41.439 16.304 45.777c-.97.225-1.939.057-2.947-.515C6.791 41.539 1.364 22.955-.227 15.887Zm52.185-23.104c-9.058 0-17.99 1.78-24.402 3.399C14.376-16.318-1.708-2.332-2.387-1.738l-.478.42-.254 17.498.037.164c.238 1.068 5.931 26.256 15.007 31.402 1.845 1.047 3.725 1.268 5.6.662l.352-.113 1.184 1.514c.441-.465 45.164-48.188 71.929-50.036 9.059-.627 13.701-2.826 13.795-6.541.15-5.902-13.019-13.033-24.614-14.419-10.68-1.276-19.926-1.917-27.986-1.917" style="fill:#231f20;fill-opacity:1;fill-rule:nonzero;stroke:none" transform="translate(320.687 311.944)"/></g><g clip-path="url(#d)" transform="matrix(2.3468 0 0 -2.3468 -398.495 1485.245)"><path d="M0 0s4.885-44.162 10.993-54.316c-13.131 1.777-39.392-19.036-21.681-27.918 17.711-8.885 59.979-5.217 63.83.009 4.827 6.877-1.7 12.397.229 21.397 2.604 12.14 9.535 22.504 9.535 22.504S-1.832 29.697 0 0" style="fill:#c49731;fill-opacity:1;fill-rule:nonzero;stroke:none" transform="translate(220.157 349.772)"/><path d="M0 0c2.902-5.041 6.529-9.721 18.32-10.98 11.789-1.26 37.184-2.34 42.807.361 5.622 2.699 10.339 7.92 10.157 4.859-.18-3.06-.18-5.22-2.902-6.84-2.72-1.621-15.417-4.5-23.399-4.5-7.981 0-29.021.18-33.919 1.981-4.897 1.799-9.976 4.318-11.246 6.84C-1.451-5.76-1.27-3.24-1.27-3.24z" style="fill:#8b6020;fill-opacity:1;fill-rule:nonzero;stroke:none" transform="translate(204.175 279.026)"/><path d="M0 0c0-.539 5.26-12.059 5.26-12.059l5.262 11.7z" style="fill:#8b6020;fill-opacity:1;fill-rule:nonzero;stroke:none" transform="translate(269.292 306.743)"/><path d="M0 0c-8.657 0-21.9-8.758-24.328-16.498-1.219-3.885.421-6.988 4.875-9.223 18.142-9.099 59.256-4.466 62.284-.359 2.355 3.355 1.634 6.31.722 10.053-.758 3.101-1.615 6.617-.7 10.879 2.23 10.406 7.488 19.388 9.184 22.101C32.845 37.018 1.962 64.961-6.164 61.44c-1.48-.635-2.596.046-2.399-3.239.15-1.343 5.717-45.39 11.555-55.096l13.469-6.986L1.51-.098A11.03 11.03 0 0 1 0 0m12.703-33.447c-12.391 0-27.857.873-35.715 4.816-5.525 2.772-7.699 7.076-6.115 12.125C-26.379-7.744-10.191 2.209-.373 2.436-6.06 15.27-12.467 43.051-12.195 50.715l1.65 4.637c-.273 4.435.871 7.238 3.404 8.326C5.318 69.041 49.488 23.186 54.48 17.937l.671-.703 1.415-.88c-.068-.102-7.878-10.077-10.398-21.838-.799-3.719.801-7.33 1.531-10.319.973-3.992.991-7.863-2.011-12.142-2.592-3.518-17.745-5.502-32.985-5.502" style="fill:#231f20;fill-opacity:1;fill-rule:nonzero;stroke:none" transform="translate(229.614 294.347)"/><path d="M0 0s-4.887-44.162-10.994-54.316c13.132 1.777 39.393-19.036 21.682-27.918-17.711-8.885-59.978-5.217-63.831.009-4.826 6.877 1.702 12.397-.228 21.397-2.604 12.14-9.536 22.504-9.536 22.504S1.832 29.697 0 0" style="fill:#c49731;fill-opacity:1;fill-rule:nonzero;stroke:none" transform="translate(345.46 349.772)"/><path d="M0 0c-2.9-5.041-6.529-9.721-18.319-10.98-11.789-1.26-37.185-2.34-42.807.361-5.624 2.699-10.34 7.92-10.158 4.859.182-3.06.182-5.22 2.902-6.84 2.721-1.621 15.418-4.5 23.4-4.5 7.98 0 29.021.18 33.919 1.981 4.897 1.799 9.975 4.318 11.246 6.84C1.451-5.76 1.271-3.24 1.271-3.24z" style="fill:#8b6020;fill-opacity:1;fill-rule:nonzero;stroke:none" transform="translate(361.441 279.026)"/><path d="M0 0c0-.539-5.261-12.059-5.261-12.059l-5.261 11.7z" style="fill:#8b6020;fill-opacity:1;fill-rule:nonzero;stroke:none" transform="translate(296.325 306.743)"/><path d="m0 0-14.951-3.783 13.468 6.986c5.837 9.705 11.405 53.754 11.555 55.096.198 3.285-.92 2.603-2.399 3.238-8.126 3.522-39.009-24.422-58.2-44.486 1.696-2.713 6.954-11.696 9.185-22.102.912-4.262.055-7.777-.701-10.879-.912-3.74-1.633-6.695.721-10.052 3.029-4.108 44.142-8.741 62.285.359 4.454 2.234 6.094 5.338 4.875 9.223C23.41-8.66 10.166.098 1.509.098.988.098.482.066 0 0m-44.178-27.848c-3.004 4.28-2.984 8.151-2.012 12.143.729 2.988 2.329 6.602 1.532 10.318-2.522 11.762-10.33 21.737-10.399 21.838l1.415.881.67.703c4.993 5.248 49.162 51.104 61.622 45.74 2.533-1.087 3.678-3.89 3.405-8.326l-.209-4.154c.271-7.666-4.278-35.928-9.963-48.762 9.818-.226 26.005-10.179 28.753-18.941 1.584-5.049-.588-9.354-6.115-12.125-7.858-3.944-23.325-4.817-35.715-4.817-15.24 0-30.392 1.985-32.984 5.502" style="fill:#231f20;fill-opacity:1;fill-rule:nonzero;stroke:none" transform="translate(334.493 294.249)"/><path d="M0 0s-45.482-62.044-35.594-100.257c9.887-38.215 40.043-39.035 64.268-39.858 24.223-.822 52.897 1.643 59.324 30.817 6.426 29.174-15.82 74.373-19.28 81.767-3.46 7.397-4.944 28.764-4.944 28.764z" style="fill:#c49731;fill-opacity:1;fill-rule:nonzero;stroke:none" transform="translate(256.753 446.766)"/><path d="M0 0c-.274-1.635-4.277-8.843-14.003-21.253-7.687-9.806-25.261-22.339-26.633-53.398-.686-15.537 9.335-35.418 39.812-38.687 30.475-3.272 53.936 10.103 56.835 27.244 6.864 40.595-28.555 50.676-26.634 70.838.675 7.072 1.1 15.528 1.1 15.528z" style="fill:#fff;fill-opacity:1;fill-rule:nonzero;stroke:none" transform="translate(269.61 432.378)"/><path d="M0 0c-2.194 0-4.51.043-6.988.127l-.38.012c-4.783.484-13.668.65-21.436 4.494 9.072-.455 17.741-1.037 23.231-1.223l.379-.013c7.008-.241 19.72-.573 24.929-.122 0 0-7.956-3.982-19.735-3.275" style="fill:#231f20;fill-opacity:1;fill-rule:nonzero;stroke:none" transform="translate(290.256 304.472)"/><path d="M0 0c-2.533-3.055-5.048-3.869-7.986-8.805-.094-.127-.186-.258-.28-.384-8.785-15.561-16.129-36.354-13.332-67.508l5.21-.59C-21.924-52.463-9-19.092 0 0" style="fill:#231f20;fill-opacity:1;fill-rule:nonzero;stroke:none" transform="translate(239.202 417.825)"/><path d="M0 0c-.658.25-1.062.326-1.062.326 1.52 9.469.344 19.688-.021 22.412-.034.239-.069.461-.102.705 0 0 .039-.254.102-.705C1.184 6.219 4.465-2.385 4.776-3.176 6.9-5.424 8.257-8.258 6.74-9.795c-5.133-5.203-4.786-15.869-3.48-17.551 1.302-1.681 3.444-.312 3.697 0 .251.311 3.445 3.596 4.854 3.272 1.509-.35 2.445-1.709.367-7.121-3.268-8.518-4.352-10.098-.87-10.817 3.48-.722 9.787 5.287 11.745 12.26 1.959 6.973 5.528 33.318-6.308 65.877-11.162 30.71-36.47 38.917-36.47 38.917l-.01.033-.824.272-9.895-.147C-23.728 57.551-7.651 15.285-2.219.316l.058.311s.878-.178 2.058-.65c-.038.025-.081.06-.119.085C-.149.049-.072.02 0 0" style="fill:#c49731;fill-opacity:1;fill-rule:nonzero;stroke:none" transform="translate(344.56 356.177)"/><path d="M0 0c-3.097 16.055-13.372 33.492-13.372 33.492-10.243 14.35-25.378 22.614-29.584 24.139-2.111.763-1.565-1.349-1.483-1.636 8.764-2.914 20.532-7.722 30.951-26.024C-2.738 11.088.13-7.217 1.562-18.453 2.994-29.69-.23-49.619-3.454-54.945c-3.224-5.328-9.079-8.11-11.348-7.76-2.269.348-1.671 4.285-1.194 5.326.476 1.041 4.896 12.512 3.463 13.322-1.43.811-4.299-2.894-5.253-3.359-.957-.461-4.421-3.012-5.139 3.822-.714 6.838 3.228 13.438 4.064 14.598.836 1.156 1.551 1.623-.598 5.562-1.274 2.332-3.633 3.643-5.348 4.33 2.279-1.623 7.19-6.775 5.866-8.705-2.39-3.474-4.724-5.562-5.07-14.318-.208-5.209 2.477-6.902 3.299-6.986 2.261-.231 4.534 2.459 5.209 3.113.671.654 2.081 2.268 2.619.963.541-1.303-4.196-11.467-5.139-14.602-.942-3.133 3.211-5.304 6.512-3.707 2.325 1.127 10.165 4.34 12.857 19.744C4.037-28.195 3.096-16.057 0 0" style="fill:#231f20;fill-opacity:1;fill-rule:nonzero;stroke:none" transform="translate(369.264 375.257)"/><path d="M0 0c2.149-3.939 1.434-4.404.598-5.562-.836-1.161-4.778-7.76-4.064-14.598.718-6.834 4.182-4.283 5.139-3.822.954.464 3.823 4.17 5.253 3.359 1.433-.811-2.987-12.281-3.463-13.322-.477-1.041-1.075-4.979 1.194-5.326 2.269-.35 8.124 2.431 11.348 7.759 3.224 5.326 6.448 25.256 5.017 36.492-1.433 11.237-4.301 29.542-15.051 48.424-10.419 18.303-22.187 23.11-30.95 26.024l.009-.033S.339 71.188 11.501 40.479c11.836-32.559 8.267-58.905 6.308-65.877-1.958-6.973-8.265-12.983-11.745-12.26-3.482.719-2.398 2.299.87 10.816 2.078 5.412 1.142 6.772-.368 7.121-1.408.326-4.602-2.961-4.853-3.271-.253-.313-2.395-1.682-3.697 0-1.306 1.681-1.654 12.347 3.48 17.551 1.517 1.537.16 4.371-1.964 6.619l.032-.078c-1.847 1.91-3.692 2.832-4.808 3.254-.072.019-.15.048-.222.062.037-.025.081-.061.118-.086C-3.633 3.643-1.274 2.332 0 0" style="fill:#231f20;fill-opacity:1;fill-rule:nonzero;stroke:none" transform="translate(349.805 351.823)"/><path d="M0 0s.453-.084 1.191-.365c1.693-.42 3.727-1.83 5.364-3.565-.351.887-4.033 10.545-6.578 29.088C.387 22.102 1.707 10.631 0 0" style="fill:#8b6020;fill-opacity:1;fill-rule:nonzero;stroke:none" transform="translate(343.268 356.39)"/><path d="M0 0c-.091-1.541.171-4.627.677-7.385.006-.029 16.175-25.58 13.029-85.734l4.354 4.973C20.715-75.211 23.359-42.674 0 0" style="fill:#231f20;fill-opacity:1;fill-rule:nonzero;stroke:none" transform="translate(326.732 418.583)"/><path d="M0 0c2.435-6.822 9.143-12.391 12.564-11.434 3.423.954 2.233 2.457-1.614 10.733-2.447 5.258-1.608 6.678-.126 7.129 1.381.422 4.795-2.641 5.069-2.934.272-.293 2.503-1.515 3.687.252 1.188 1.766.798 12.432-4.685 17.274-1.176 1.039-.883 2.869.12 4.707L-3.03 15.072C-2.23 7.783-.91 2.549 0 0" style="fill:#c49731;fill-opacity:1;fill-rule:nonzero;stroke:none" transform="translate(202.503 325.683)"/><path d="M0 0s-.18-3.287-.297-3.693c-.117-.409 1.464.289 1.464.289l1.64 2.412z" style="fill:#231f20;fill-opacity:1;fill-rule:nonzero;stroke:none" transform="translate(216.991 352.755)"/><path d="M0 0s3.191-19.174 3.62-22.117c.43-2.944.078-9.373.078-9.373l-1.365 9.179-.196 3.952L-.595-.504z" style="fill:#231f20;fill-opacity:1;fill-rule:nonzero;stroke:none" transform="translate(221.803 346.636)"/><path d="M0 0c.87.288 20.638 14.132 30.229 6.345 9.592-7.787-6.975-39.803-6.975-39.803z" style="fill:#c39631;fill-opacity:1;fill-rule:nonzero;stroke:none" transform="translate(342.568 594.456)"/><path d="m0 0 20.979-30.184C25.757-20.305 33.838.335 27.244 5.687 23.765 8.513 16.22 9.804 0 0m21.366-35.793L-4.351 1.21l1.745.575c.153.082.431.257.829.498 14.331 8.718 26.161 13.175 32.299 8.194 10.206-8.284-6.3-40.754-8.052-44.137z" style="fill:#231f20;fill-opacity:1;fill-rule:nonzero;stroke:none" transform="translate(343.018 594.003)"/><path d="M0 0c-.872.288-20.635 14.134-30.229 6.345-9.592-7.788 6.975-39.802 6.975-39.802z" style="fill:#c39631;fill-opacity:1;fill-rule:nonzero;stroke:none" transform="translate(215.749 595.233)"/></g><g clip-path="url(#e)" transform="matrix(2.3468 0 0 -2.3468 -398.495 1485.245)"><path d="M0 0c-6.592-5.352 1.49-25.992 6.265-35.871L27.246-5.687C11.024 4.117 3.479 2.826 0 0m4.775-39.347C3.025-35.964-13.75-3.611-3.551 4.673c6.139 4.981 18.244.641 32.576-8.077.391-.24.676-.415.826-.498l1.744-.575L5.879-41.48Z" style="fill:#231f20;fill-opacity:1;fill-rule:nonzero;stroke:none" transform="translate(186.33 599.69)"/><path d="m0 0 .035.01c-10.889 3.426-8.323 6.244 5.754 11.252C-47.329 22.068-96.063-30.331-96.063-30.331s.05.017.086.032c-17.155-17.649-27.639-41.208-27.639-67.096 0-54.714 46.803-99.07 104.531-99.07 57.728 0 104.529 44.356 104.529 99.07C85.444-48.86 48.611-8.504 0 0" style="fill:#c39631;fill-opacity:1;fill-rule:nonzero;stroke:none" transform="translate(298.77 618.723)"/><path d="M0 0c-2.649 9.877-17.64 8.213-27.377 1.309-16.861-11.949-84.05-15.795-84.05-15.795-2.41.479-46.315 6.485-69.433 18.911-13.809 7.422-27.083-5.065-27.423-20.283 2.731-52.408 48.424-94.103 104.397-94.103 57.727 0 104.53 44.356 104.53 99.07A94.41 94.41 0 0 1 0 0" style="fill:#fff;fill-opacity:1;fill-rule:nonzero;stroke:none" transform="translate(383.57 532.22)"/><path d="m0 0-.006.002c-1.874.319-3.29 1.234-3.368 2.176-.117 1.38 2.274 3.864 9.387 6.319l4.965 1.711-5.148 1.047C-47.473 22.103-97.542-29.646-98.035-30.177l-1.588-1.729c-.267-.289-.529-.577-.796-.868 0 0-28.516-30.914-28.257-65.145.377-49.897 27.839-75.824 54.589-88.971 28.377-13.94 49.557-11.008 49.557-11.008-53.987 3.024-97.891 47.216-97.891 99.093 0 24.556 9.672 48.03 27.233 66.098l2.325 2.393C-82.869-20.606-42.976 14.911.31 9.268c-5.577-2.726-6.723-5.407-6.563-7.326C-6.062-.391-3.8-2.26-.501-2.823c48.82-8.541 84.252-48.908 84.252-95.982 0-46.054-34.166-86.384-79.538-96.611 49.212 5.725 84.757 50.659 84.757 97.912C88.97-49.036 50.204-8.782 0 0" style="fill:#231f20;fill-opacity:1;fill-rule:nonzero;stroke:none" transform="translate(298.48 620.133)"/></g><g clip-path="url(#f)" transform="matrix(2.3468 0 0 -2.3468 -398.495 1485.245)"><path d="m0 0-.814.164C-1.34.289-2.148.415-3.14.715c-2.008.529-4.868 1.53-8.17 3.279-3.299 1.738-6.986 4.327-10.426 7.862-3.431 3.523-6.545 8.053-8.6 13.246 0 0 .549-.679 1.535-2.054 1.061-1.332 2.569-3.362 4.795-5.837 2.231-2.473 5.179-5.387 9.053-8.465C-11.039 5.738-6.184 2.535 0 0" style="fill:#231f20;fill-opacity:1;fill-rule:nonzero;stroke:none" transform="translate(255.597 513.792)"/><path d="m0 0-1.204-.065c-.785-.048-1.947-.069-3.449-.038-2.993.06-7.356.438-12.617 1.523-5.268 1.068-11.378 2.79-18.07 4.951-3.345 1.109-6.845 2.441-10.257 4.292-3.392 1.858-6.697 4.309-9.234 7.517 0 0 .243-.199.725-.598.467-.408 1.205-.977 2.205-1.694 2.003-1.419 5.164-3.278 9.691-4.993 4.5-1.754 10.389-3.34 17.396-5.487C-17.815 3.351-9.669.818 0 0" style="fill:#231f20;fill-opacity:1;fill-rule:nonzero;stroke:none" transform="translate(252.32 507.77)"/><path d="M0 0s-1.076-.581-3.102-1.483c-2.021-.906-5.007-2.074-8.816-3.156-7.563-2.184-18.686-3.723-30.473-1.677 0 0 .914.098 2.727.191 1.814.138 4.518.272 8.093.574C-24.436-4.897-13.789-3.873 0 0" style="fill:#231f20;fill-opacity:1;fill-rule:nonzero;stroke:none" transform="translate(250.67 502.762)"/><path d="m0 0 9.797 7.67c5.985 4.715 13.948 11.309 22.602 18.824 0 0-.487-.735-1.553-2.136a70.902 70.902 0 0 0-5.211-5.951C20.732 13.417 12.634 6.32 0 0" style="fill:#231f20;fill-opacity:1;fill-rule:nonzero;stroke:none" transform="translate(306.216 515.91)"/><path d="M0 0s1.069.425 2.991 1.129c1.924.695 4.694 1.696 8.096 2.922 6.819 2.418 16.063 5.736 26.384 9.208 0 0-.69-.482-2.122-1.347a74.898 74.898 0 0 0-6.646-3.483C22.674 5.647 13.206 2.028 0 0" style="fill:#231f20;fill-opacity:1;fill-rule:nonzero;stroke:none" transform="translate(311.15 511.542)"/><path d="M0 0s1.706-.035 4.768-.095c3.056-.07 7.464-.088 12.86.042 10.805.237 25.526 1.385 41.551 4.229 0 0-1.166-.434-3.537-1.209C53.256 2.251 49.66 1.198 44.753.25c-4.9-.947-11.114-1.789-18.615-2.069C18.643-2.04 9.843-1.699 0 0" style="fill:#231f20;fill-opacity:1;fill-rule:nonzero;stroke:none" transform="translate(312.531 502.935)"/><path d="M0 0c0-7.719-11.547-13.975-25.795-13.975-14.246 0-25.794 6.256-25.794 13.975 0 7.719 11.548 13.978 25.794 13.978C-11.547 13.978 0 7.719 0 0" style="fill:#231f20;fill-opacity:1;fill-rule:nonzero;stroke:none" transform="translate(303.925 528.007)"/><path d="M0 0c-.541-2.264-3.639-3.473-6.921-2.701-3.283.771-5.507 3.23-4.968 5.493.542 2.261 3.636 3.472 6.921 2.701C-1.686 4.721.537 2.263 0 0" style="fill:#bec3c9;fill-opacity:1;fill-rule:nonzero;stroke:none" transform="translate(297.99 530.316)"/><path d="M0 0c0-6.475-4.758-11.725-10.62-11.725-5.87 0-10.624 5.25-10.624 11.725 0 6.476 4.754 11.725 10.624 11.725C-4.758 11.725 0 6.476 0 0" style="fill:#231f20;fill-opacity:1;fill-rule:nonzero;stroke:none" transform="translate(316.532 545.558)"/><path d="M0 0c0-2.487-1.444-4.5-3.223-4.5-1.783 0-3.223 2.013-3.223 4.5 0 2.485 1.44 4.5 3.223 4.5C-1.444 4.5 0 2.485 0 0" style="fill:#f6f5f6;fill-opacity:1;fill-rule:nonzero;stroke:none" transform="translate(303.88 546.388)"/><path d="M0 0c0-6.475 4.756-11.725 10.619-11.725 5.869 0 10.623 5.25 10.623 11.725 0 6.476-4.754 11.725-10.623 11.725C4.756 11.725 0 6.476 0 0" style="fill:#231f20;fill-opacity:1;fill-rule:nonzero;stroke:none" transform="translate(239.673 545.558)"/><path d="M0 0c0-2.487 1.444-4.5 3.225-4.5 1.778 0 3.219 2.013 3.219 4.5 0 2.485-1.441 4.5-3.219 4.5C1.444 4.5 0 2.485 0 0" style="fill:#f6f5f6;fill-opacity:1;fill-rule:nonzero;stroke:none" transform="translate(252.32 546.388)"/><path d="M0 0c-3.409.146-5.414 5.164-5.414 5.164.044-.047 7.662-5.602 19.35 2.816l.523.378.602-.237C27.15 3.311 34.702 2.387 38.92 2.864c2.218.25 5.598 2.037 6.15 2.699 0 0-1.591-4.683-5.233-5.53-4.843-1.13-13.456 1.166-25.052 5.71C8.604 1.406 3.012-.128 0 0" style="fill:#231f20;fill-opacity:1;fill-rule:nonzero;stroke:none" transform="translate(262.446 489.942)"/><path d="M0 0s2.074-18.964 15.441-20.499C28.814-22.033 33.323-3.926 32.116-.411c-9.841 2.153-9.89.999-22.138 5.951C2.154.293 0 0 0 0" style="fill:#ed1c24;fill-opacity:1;fill-rule:nonzero;stroke:none" transform="translate(266.563 491.474)"/><path d="M0 0c.236-.169 5.709-5.653 4.198-10.837 3.241 4.236 4.525 9.668 4.525 9.668z" style="fill:#231f20;fill-opacity:1;fill-rule:nonzero;stroke:none" transform="translate(291.071 492.28)"/><path d="M0 0s.043.094.13.261c.621 1.251 3.421 6.616 6.099 7.902C.92 6.403-.967 5.528-.978 5.29c-.01-.237-.179-2.298-.179-2.298Z" style="fill:#231f20;fill-opacity:1;fill-rule:nonzero;stroke:none" transform="translate(269.413 486.447)"/><path d="M0 0c1.018-3.313 1.732-17.912 12.233-18.5C24.194-19.171 29.997-2.724 29.721-.634c-2.442.521-4.234.827-5.832 1.1-4.239.724-6.832 1.167-15.196 4.522C3.992 1.865 1.367.552 0 0m13.635-22.144c-.428.019-.868.055-1.326.107C-1.729-20.427-2.525.338-2.561.5l-.273 1.221 1.226.166c.194.043 2.448.621 9.506 5.356l.521.347.576-.234c8.593-3.472 11.112-3.904 15.289-4.616 1.776-.304 3.793-.648 6.662-1.276l.641-.14.212-.614c.865-2.518-5.121-24.159-18.164-22.854" style="fill:#231f20;fill-opacity:1;fill-rule:nonzero;stroke:none" transform="translate(268.71 490.694)"/><path d="M0 0c-.373.445 9.398-5.91 16.437 1.949 0 0-6.128-14.186-16.437-1.949" style="fill:#231f20;fill-opacity:1;fill-rule:nonzero;stroke:none" transform="translate(275.122 465.516)"/></g></svg>