<svg xmlns="http://www.w3.org/2000/svg" xml:space="preserve" id="Layer_1" width="105.898" height="122.9" x="0px" y="0px" version="1.1" viewBox="0 0 105.898 122.9"><style>.st0{fill:#009fb9}.st1{fill:#d3d3d4}.st2{fill:#fce3cd}.st12{fill:#8fc31f}.st13{fill:#a3d6ca}.st15{fill:#fff}.st16{fill:#f8c6bd}.st17{fill:#e60012}.st24{fill:#fdd000}</style><g id="g1731" transform="translate(-19.102 -14.2)"><path id="path1516" d="M78.7 118.2c-.9-3-3.5-8.8-10.3-18.9l-6-1.4-4.3 6.1 6.2 14.5 4 1.8s3.9-2.2 8.7-.4c2.1.7 2.1-.3 1.7-1.7z"/><g id="g1657"><path id="polyline1518" d="M77.4 66.9 66.6 15.7 81 66.8" class="st0"/><path id="path1520" d="M68.1 15.7c0 .9-.7 1.6-1.5 1.6-.9 0-1.6-.6-1.6-1.5s.7-1.6 1.5-1.6c.9 0 1.6.6 1.6 1.5z" class="st0"/><path id="path1522" d="M58.1 136.1c-19 0-34.3-2.2-34.3-4.9s15.4-4.9 34.3-4.9c19 0 34.3 2.2 34.3 4.9s-15.4 4.9-34.3 4.9z" class="st1"/><path id="path1524" d="M102.3 137.1c-12.5 0-22.7-2.1-22.7-4.8 0-2.6 10.2-4.8 22.7-4.8s22.7 2.1 22.7 4.8c0 2.7-10.1 4.8-22.7 4.8z" class="st1"/><path id="path1526" d="m51.5 94.8 2.3 2.4s4.2.2 6.7-2.5z" class="st2"/><path id="path1528" d="M42.6 121.5c2.1.7 3.9 1 4.9 1.1l-.1 1.7c-2.7.4-7.8 3-6.5 6.3 1.3 3.3 11.7 3.4 15.5.8 0 0 1 2.3 10.1 2.5 7.8.2 10.3-2.4 10.5-4 .2-2.1-1.3-5.2-6.8-5.7l-.5-1.2-1.2-3.2c1.2-1.7-1.8-3.5-1.8-3.5s-.4-2.8 3.2-1.7c3.6 1.1 5.7-1.9 5.7-1.9s2.1-.7 2.3-2c.2-1.3-.9-7.8-6.3-11.2 0 0-.9-.3-1.9.1l-2.4-1.8.8-1.2S62 94 61 94.2c-.9.1-1.9 2.6-6.4 3 0 0-2.3-1.4-3.3-3 0 0-2.9-.2-5.9 1.3 0 0 .1.3.4.9l-.1.2s-.6 1.5-.9 5l-5.7 1.3s-3.8 4.6-11.8 7.4c-2.7.9-1.7 1.8.3 2.5 2.4.9 5.3 2.4 8 4.8 2.3 2 4.8 3.2 7 4"/><linearGradient id="SVGID_1_" x1="-414.68469" x2="-433.78381" y1="295.83301" y2="300.94919" gradientTransform="translate(334.201 -96.524) scale(.6567)" gradientUnits="userSpaceOnUse"><stop id="stop1530" offset="0" style="stop-color:#00afec"/><stop id="stop1532" offset="1" style="stop-color:#004098"/></linearGradient><path id="path1535" d="M66.2 97.1s-3-1.4-4.3-1.8c0 0-1.3-.2-2.2.8 0 0-3.8 3-10.1 1.4l-2.2 4.3c5.4 1.6 13.8 2 18.8-4.7z" style="fill:url(#SVGID_1_)"/><linearGradient id="SVGID_2_" x1="-4470.7979" x2="-4440.686" y1="-3335.9358" y2="-3335.1609" gradientTransform="matrix(-.3765 0 0 .2804 -1622.517 1032)" gradientUnits="userSpaceOnUse"><stop id="stop1537" offset="0" style="stop-color:#00afec"/><stop id="stop1539" offset="1" style="stop-color:#004098"/></linearGradient><path id="path1542" d="M53.2 97.3C51.7 96 50.8 95 50.8 95c-1-.1-3 .3-4.3.9 0 0 .4 1.8 1.5 2.9l1-1.9c0-.1 1.2.4 4.2.4z" style="fill:url(#SVGID_2_)"/><linearGradient id="SVGID_3_" x1="-416.1691" x2="-434.57501" y1="303.45911" y2="303.45911" gradientTransform="translate(334.201 -96.524) scale(.6567)" gradientUnits="userSpaceOnUse"><stop id="stop1544" offset="0" style="stop-color:#ffe100"/><stop id="stop1546" offset="1" style="stop-color:#40a631"/></linearGradient><path id="path1549" d="M63.5 100.8c-1.1 1.3-1.6 3-1.6 4-2.7-.9-9.5-1.1-13.1-.3v-1.6c3.7.6 10.1 1 14.7-2.1z" style="fill:url(#SVGID_3_)"/><linearGradient id="SVGID_4_" x1="-414.04709" x2="-430.07639" y1="309.2673" y2="308.69891" gradientTransform="translate(334.201 -96.524) scale(.6567)" gradientUnits="userSpaceOnUse"><stop id="stop1551" offset="0" style="stop-color:#00afec"/><stop id="stop1553" offset="1" style="stop-color:#004098"/></linearGradient><path id="path1556" d="m62.6 105.5.6 2.6c-3.4-.7-7.7-1.6-15.4-.2v-2.6c2.4-1 10.8-1.3 14.8.2z" style="fill:url(#SVGID_4_)"/><linearGradient id="SVGID_5_" x1="-416.16891" x2="-434.57501" y1="318.2265" y2="318.2265" gradientTransform="translate(334.201 -96.524) scale(.6567)" gradientUnits="userSpaceOnUse"><stop id="stop1558" offset="0" style="stop-color:#ffe100"/><stop id="stop1560" offset="1" style="stop-color:#40a631"/></linearGradient><path id="path1563" d="M62.4 108.5c.2 1.6 1.9 6.2 2.8 7.7-2.3-.8-6.5.1-8 .9l-1.8-4.2c-1.3-.4-2.2-.7-3.1-1.5 1 1.8 2.6 2 2.6 2l1.1 3.2c-1.7 1-4.8.9-6.6 0 0 0-.1-3.5-.5-5.3-.4-2-.3-3.1-.3-3.1 5.4-.9 9.9-.7 13.8.3z" style="fill:url(#SVGID_5_)"/><linearGradient id="SVGID_6_" x1="-405.08661" x2="-420.77509" y1="336.37701" y2="338.3096" gradientTransform="translate(334.201 -96.524) scale(.6567)" gradientUnits="userSpaceOnUse"><stop id="stop1565" offset="0" style="stop-color:#00afec"/><stop id="stop1567" offset="1" style="stop-color:#004098"/></linearGradient><path id="path1570" d="M69.1 124.1c-3.4-.5-7.4 1.4-7.7 3.3 1-1.3 7.6-4.3 12.5-.9 3.7 2.5 2.1 5.6-4.5 6.3-6.6.6-11.3-1.2-11.3-1.2s-.6-.3-.5-1.3c.8-6.5-.4-10.1-.4-10.1-.5-.4-.9-1.4.1-2 2.4-1.5 6.7-1.9 8.9-1 1.2.6 1.5 1.5 1 2.2z" style="fill:url(#SVGID_6_)"/><linearGradient id="SVGID_7_" x1="-422.33389" x2="-439.50101" y1="336.63129" y2="335.72211" gradientTransform="translate(334.201 -96.524) scale(.6567)" gradientUnits="userSpaceOnUse"><stop id="stop1572" offset="0" style="stop-color:#00afec"/><stop id="stop1574" offset="1" style="stop-color:#004098"/></linearGradient><path id="path1577" d="M56.7 130.1c-4 3.2-13.8 1.9-14.7.2-.9-1.8 2.4-4.1 5.1-5 2.6-.9 6.4.2 8 .8-1-1-4.1-2.1-6.8-1.9.3-3.1-.2-5.7-.2-5.7-1.1-.6-1-2.1.5-2.3v.7c2.1 1.8 5.8 1.2 7.6.4l.1.3s-1.3 1.3.2 2.9c0 0 .3 1.9.4 4.8.2 2.7-.2 4.8-.2 4.8z" style="fill:url(#SVGID_7_)"/><path id="path1579" d="M66.2 98.2s3.4 2.4 4.7 3.6c0 0-.8 1.7-3.1 1.6 0 0-1.4-1.6-3.7-2.5-.1 0 .9-1 2.1-2.7z" style="fill:#feecd2"/><linearGradient id="SVGID_8_" x1="-395.35999" x2="-405.0231" y1="305.77499" y2="314.18759" gradientTransform="translate(334.201 -96.524) scale(.6567)" gradientUnits="userSpaceOnUse"><stop id="stop1581" offset="0" style="stop-color:#00afec"/><stop id="stop1583" offset="1" style="stop-color:#004098"/></linearGradient><path id="path1586" d="m70.6 100.6.9 1.1c-.1 2.7-4.1 2.4-4.1 2.4l-.9-.8c-.9.4 0 1.3 0 1.3 2 1.3 2.5 3.2 2.5 3.2-1.8 1.5-1.8 3.2-.3 3.8l.3-.8c.8.1 1 1.7-.4 1.3 0 0-.3 1.3 1.9 1.6 3.2.4 3.4-1.8 5-2.3 1.6-.5 1.5-1.1.6-4.1-.6-2.2-2.2-4.9-4.2-6.6 0 0-.5-.4-1.2-.3" style="fill:url(#SVGID_8_)"/><path id="path1588" d="M48.4 100.4c-.7-.3-.4-1.1-.1-1.5.4-.5 1.1-.8 1.5-.6.1-.3.5-.9 1.5-.8 1 .1 1.1.7 1 1 .6 0 1.2.5 1.2 1.2s-.5 1.1-1.2 1.2c.4.6 0 1.4-.7 1.6-.8.3-1.4-.1-1.5-.4-.6.5-1.5.3-1.9-.3-.5-.8.2-1.4.2-1.4z"/><g id="g1604"><g id="g1602"><g id="g1600"><path id="path1590" d="m50.8 99.9.8-2s.7.2.3 1.1c0 0 .8-.4 1.2.3z" class="st12"/><path id="path1592" d="m50.8 100.1 2.2-.3s-.1.7-1.1.8c0 0 .6.5-.1 1.2z" class="st12"/><path id="path1594" d="m50.6 100.2.6 1.9s-.8.2-1-.7c0 0-.5.7-1.3.5z" class="st12"/><path id="path1596" d="m50.5 100.1-1.8 1.4s-.3-.6.5-1.2c0 0-.8-.1-.7-.9z" class="st12"/><path id="path1598" d="m50.6 99.9-1.8-1s.6-.6 1.3-.1c0 0 0-.8.8-1z" class="st12"/></g></g></g><path id="path1606" d="M79.4 56.5c2.5 1.1 5.9 8.4 4.9 13.7l-1.5 1.7-.9.8-1.4.7-2.1 1-5-17.3z"/><path id="path1608" d="M82 71.4c-1.3.9-4.9-5.1-5.6-8.1-.7-3 0-5.8 1.5-6.2 1.5-.4 3 1.8 4 4.6 1.3 3.9 2.5 8 .1 9.7z" class="st13"/><path id="path1610" d="M72.4 57.2c1.4-1 5.8-.3 5.8-.3S82.8 65 82 71.4l-2.4 1.2s-2.6-11-7.2-15.4z" class="st0"/><path id="path1612" d="m40 85.2-8-16.1-4.8 3.8c-1 2.6 1.5 10.2 5.9 13.3 0-.1 3.7.7 6.9-1z"/><path id="path1614" d="M35.8 85.4c1.6-.2-.1-7-1.7-9.7-1.6-2.6-4-4.2-5.4-3.4-1.4.7-.9 3.3.3 6.1 1.7 3.7 3.9 7.4 6.8 7z" class="st13"/><path id="path1616" d="M78.2 71c0-3.5-1.6-7.3-2.3-8.3-1.7-2.4-2.5-6.3-8.8-8-2.2 4.7-10 15.1-15.3 17.3l-.9-9.9s-8.1 8.9-10.6 10c0 0-1.7-4.5-1.5-5.7 0 0-3.9 6.7-4.6 12.1l2.4 4.2c2.7 8 11.1 11.6 17.6 12 14 .8 20-8.4 20-8.4s3.5-2.7 4-15.3z" class="st2"/><path id="path1618" d="M33.1 69.8c-1.7.2-4.5 2.2-4.5 2.2s2.3 9.3 7.2 13.4l1.8-.1c.1 0-3.3-2.7-4.5-15.5z" class="st0"/><radialGradient id="SVGID_9_" cx="-430.78989" cy="223.6705" r="41.984299" gradientTransform="translate(359.126 -109.07) scale(.6993)" gradientUnits="userSpaceOnUse"><stop id="stop1620" offset="0" style="stop-color:#00afec"/><stop id="stop1622" offset="1" style="stop-color:#004098"/></radialGradient><path id="path1625" d="M76.6 62.8c-3.4-6.4-9.5-8.2-9.5-8.2s5.8-13.1 0 0C61.4 67.6 51.8 72 51.8 72l-.6-9.3c-1.3 1.9-11 9.4-11 9.4l-1.5-5.7s3.2-3.7 0 0-4.4 13.3-4.4 13.3c-1.5-1.7-3.1-10.1-3.1-10.1l-5.5 4.8c-1-6.5 1.9-11 1.9-11l-8.2.8C21.4 52 35.8 49 35.8 49c-2.2-4.1-15.1-7.3-15.1-7.3 13.1-18.5 39.3-3.2 37.2-4.2L58 29c9.5 5.3 15 20.6 15 20.6l4.1-3.5c0 .2.6 7.1-.5 16.7z" style="fill:url(#SVGID_9_)"/><path id="path1627" d="M54.2 71.3c3.2-2 8.6-6.5 13.8-16.5 4.7 2.9 7.1 5.7 8.9 10.4 1.9-9.3 1.7-15.2 1.2-18.4-.4-2.2-1-1.7-2.4-.6L73.1 48s-1.2-4.6-6.1-11.3c-2.2-2.9-5.2-5.6-7.3-7.3-1.9-1.4-2.7-1.3-2.6 1.2l.3 5.6s-8-6.7-22.6-4c-7.4 1.4-11.7 4.8-14 7.5-2 2.6-2 3.6 1.4 3.9 3.6.4 9 1.6 11.6 5.4 0 0-10.8 2.3-14.2 13-1 2.9-.8 3.5 3.5 2.4 2.1-.5 3.4-.3 3.4-.3s-1.6 3.4-1.4 7.7c.2 3.1.7 3.9 3 1.1.9-1 1.9-1.9 2.9-2.2 0 0-.2 2 .8 5.4 1 3.4 3.2 5.2 3.2 5.2s.2-8.8 3.7-12.5c.1.9.3 1.8.5 2.6.5 1.3 1 1.7 2.9.5 1.8-1.3 4.7-3.7 8.3-7.9-.3 2.8 0 5 .4 6.5.4 1.8.6 2.6 3.4.8zM76.4 61s-1.1-5.1-8.3-6.4c.3-.8.5-1.7.6-2.6 0-3-.3-2.4-2.2 2.2-1.9 4.8-11.2 16.2-14.3 16.9-.7-2.6-.7-10.7-.7-10.7-3.3 3.8-9 10.4-10.9 10.4 0 0-1.3-2.7-.8-6.9-3.6 4.6-6.4 11.2-5.9 13.8-1.3-4.4-2.2-7.7-1.4-10.1-3.2 1.9-5.8 4.1-6.2 5.1 0-3 .4-7.5 2.7-9.6-3.2-1.3-8.4.6-8.4.6s1.6-11.8 16.9-13.6c-4-6.5-10.7-8.2-16.4-8.3 3.1-5.5 14.1-8 18.6-8.2 4.5-.3 12 .5 18.9 5.8-.3-5.5-.1-8.9-.1-8.9 6.6 6.4 8.8 6.9 14 20.3l3.8-3.3c1.3 3.8.1 13.5.1 13.5z"/><path id="path1629" d="M49.7 81.8c1.8-.3 3-2.7 2.6-5.4-.4-2.7-2.2-4.7-4.1-4.4-1.8.3-3 2.7-2.6 5.4.5 2.7 2.3 4.7 4.1 4.4z" class="st15"/><path id="path1631" d="M50.6 81.4c1.3-.2 2-2.4 1.7-5-.4-2.6-1.7-4.5-3-4.3-1.3.2-2 2.4-1.7 5 .4 2.6 1.7 4.5 3 4.3z"/><path id="path1633" d="M51.1 78.2c.5.1 1-.2 1.1-.7.1-.5-.2-1-.7-1.1-.5-.1-1 .2-1.1.7-.2.5.2 1 .7 1.1z" class="st15"/><path id="path1635" d="M67.1 77.3c1.8-.2 3-2.5 2.8-5.2-.2-2.7-1.9-4.8-3.7-4.6-1.8.2-3 2.5-2.8 5.2.3 2.7 1.9 4.8 3.7 4.6z" class="st15"/><path id="path1637" d="M67.9 77c1.2-.1 2.1-2.3 1.9-4.9-.2-2.6-1.4-4.6-2.6-4.5-1.2.1-2.1 2.3-1.9 4.9.2 2.6 1.4 4.6 2.6 4.5z"/><path id="path1639" d="M68.5 73.8c.5.1 1-.2 1.1-.7.1-.5-.2-1-.7-1.1-.5-.1-1 .2-1.1.7-.1.5.2 1 .7 1.1z" class="st15"/><path id="path1641" d="M50.1 70.8c-2.1-1.6-4.5-2.1-5.9 1.4 0 0 2.1-2.3 5.9-1.4z"/><path id="path1643" d="M63.8 67.9c.8-2.5 2.5-4.2 5.4-2.1.1 0-2.8-.7-5.4 2.1z"/><path id="path1645" d="M43.5 86.6c1.5.2 2.8-.8 3-2.3.2-1.5-.8-2.8-2.3-3-1.5-.2-2.8.8-3 2.3-.2 1.5.8 2.8 2.3 3z" class="st16"/><path id="path1647" d="M73.4 79.5c1.5.2 2.8-.8 3-2.3.2-1.5-.8-2.8-2.3-3-1.5-.2-2.8.8-3 2.3-.2 1.5.8 2.8 2.3 3z" class="st16"/><path id="path1649" d="M50 85.5c6.1 1.3 12 1.7 17.7-2 0 0-3.3 8.8-9.3 8.8-4.9 0-7.6-5-8.4-6.8z"/><path id="path1651" d="M54.1 89.8c1.9-1.4 6.6-1.6 8.3-.2-1.3 1.6-4.1 3.1-8.3.2z" class="st17"/><path id="path1653" d="M76.9 64c-.5-.5-.1.1-.6-.2 2.4 7.9 2.6 16.7-3.9 23.8-8 8.8-20.3 8.6-29.3 2.6-3.1-2-6.9-6.5-8.4-12.9-.8.2-1 2.6 0 4.5 0 0 3.5 7.1 9.1 10.2 8.8 4.9 16.9 3.8 22.2 1.6 5.3-2.2 11-7.8 12.6-15.6 2.1-9.9-1.7-14-1.7-14Z"/><path id="path1655" d="M60.5 81.8c.9.2 1.9-.4 2.3-1.3.3-.9-.1-1.9-1-2.1-.7-.2-1.5.2-2 .8.5-1.1 1.7-1.7 2.8-1.4 1.1.3 1.7 1.5 1.3 2.6-.4 1.2-1.7 1.9-2.8 1.6-.4-.1-.6-.2-.6-.2-.1-.1-.1 0 0 0z"/></g><path id="path1659" d="M31.1 91.7s-1.3-2.3-.3-4.3 3.2-2.5 5.1-2c1.9.4 2.7 3.2 1.7 4.4-1 1.2-1.1 1.8-1 2.3-.1.6-5.5-.4-5.5-.4z"/><linearGradient id="SVGID_10_" x1="-4009.5063" x2="-4025.5063" y1="-3785.8171" y2="-3788.4836" gradientTransform="matrix(.5039 -.0314 .026 .4199 2156.272 1552.97)" gradientUnits="userSpaceOnUse"><stop id="stop1661" offset="0" style="stop-color:#00afec"/><stop id="stop1663" offset="1" style="stop-color:#004098"/></linearGradient><path id="path1666" d="M32 91.6c-1.2-.8-1.3-4.3 1.3-5.2 3-1 4.7 1 3 3.9-.7 1.1-.6 1.6-.6 1.6s-1.5-.8-3.7-.3z" style="fill:url(#SVGID_10_)"/><path id="path1668" d="M45.7 96.2c-.9.5-3.3.5-3.3.5-.1-.2-.8-1.3-2.1-1.1-1.3.2-2.1-.5-2.1-.5s.2-1.2-.5-2.3c-1.5-2.3-5.6-2-7.1-1.8 0 0-1.8.5-2.7 1.4-2 1.8-2.8 6.3-1.2 9.7 1.4 2.9 5.2 3.7 8.7 2.5 1.7-.6 4-1.1 6.2-.6.8.2 1.4-1 1.4-1 2.4-.4 3.8-1.4 3.8-1.4"/><path id="path1670" d="M46.1 97c.5 1.6 1.6 2.9 1.6 2.9-1.5 1.4-5.3 2.3-5.3 2.3 1.5-2.8.2-4.6.2-4.6s2.4-.1 3.5-.6z" class="st2"/><linearGradient id="SVGID_11_" x1="-254.40109" x2="-259.23761" y1="275.82239" y2="294.58969" gradientTransform="translate(176.906 -52.206) scale(.5352)" gradientUnits="userSpaceOnUse"><stop id="stop1672" offset="0" style="stop-color:#00afec"/><stop id="stop1674" offset="1" style="stop-color:#004098"/></linearGradient><path id="path1677" d="M38 95.6s-.1.7-.4.9c0 0 2.2 2 .1 4.4 0 0 .8 1.6-1.7 2.6 0 0 1.7-.7 3-.7 1.5.1 2 .5 2.8-.7.8-1.2.8-4-.1-5s-.8-.4-1.9-.7c-1.2-.2-1.8-.8-1.8-.8Z" style="fill:url(#SVGID_11_)"/><g id="g1690"><linearGradient id="SVGID_12_" x1="-3990.5918" x2="-4006.5918" y1="-3747.3022" y2="-3749.969" gradientTransform="matrix(.4484 -.0567 .0508 .4014 2015.278 1375.78)" gradientUnits="userSpaceOnUse"><stop id="stop1679" offset="0" style="stop-color:#00afec"/><stop id="stop1681" offset="1" style="stop-color:#004098"/></linearGradient><path id="path1684" d="M27.1 96.4c.6-4.6 4.7-5.1 7.7-4.3 3 .8 2.2 2.8 1.3 4.1 0 0 1.3.5 1.5 1.9.3 1.7-.7 2-.7 2 .8 1.4-.7 3.5-3.3 3.7-2.7.3-7.3.7-6.5-7.4z" style="fill:url(#SVGID_12_)"/><path id="path1686" d="M36.9 96.7s-1.5-1.7-5.6-.9c0 0 3-2.1 5.6.2z"/><path id="path1688" d="M37.4 100.1c-1.4-2.1-5.6-.2-5.6-.2 5.5-.7 5.3 1 5.3 1z"/></g><linearGradient id="SVGID_13_" x1="36.5382" x2="36.5382" y1="96.163498" y2="96.163498" gradientUnits="userSpaceOnUse"><stop id="stop1692" offset="0" style="stop-color:#00afec"/><stop id="stop1694" offset="1" style="stop-color:#004098"/></linearGradient><linearGradient id="SVGID_14_" x1="-192.4353" x2="-72.097" y1="387.05869" y2="384.67581" gradientTransform="translate(87.674 -4.475) scale(.3003)" gradientUnits="userSpaceOnUse"><stop id="stop1699" offset="0" style="stop-color:#fabe00"/><stop id="stop1701" offset="1" style="stop-color:#e60012"/></linearGradient><path id="path1704" d="M29.3 112.3c1.8.7 3.5 1.4 5.8 3.8 4.5 4.8 12.5 5.9 12.5 5.9.2-1.2 0-3 0-3-.5-.3-1.2-.9-.8-2.1.3-1.2 1.8-1.5 1.8-1.5s.1-2.5-.3-3.8c-.3-1.3-.3-2.9-.3-2.9-.5-.2-.8-.4-.8-.4v-2.9c.2-.3 1.1-.8 1.1-.8v-1.8c-1-.3-1.6-.8-1.6-.8l.5-1.1c-2.3 1.5-5.1 2-5.1 2-1.3 1.5-2.6.6-2.6.6-2.9 3.3-7.1 5.6-10 6.8-2.9 1.1-2.1 1.2-.2 2z" style="fill:url(#SVGID_14_)"/><linearGradient id="SVGID_15_" x1="-33.694099" x2="-105.1827" y1="385.05801" y2="381.48361" gradientTransform="translate(87.674 -4.475) scale(.3003)" gradientUnits="userSpaceOnUse"><stop id="stop1706" offset="0" style="stop-color:#fabe00"/><stop id="stop1708" offset="1" style="stop-color:#e60012"/></linearGradient><path id="path1711" d="M75.7 118.9c-.7-.2-2.1-.4-3-.5-2.8-.2-4.6 1.2-4.6 1.2l-.1-.3c.7-2.3-2-2.9-2-2.9-1.9-3-2.9-7.4-2.9-7.4l.8-.4-.9-3.4-.6-.3c.1-2.2 1.2-3.3 1.2-3.3 1 .1 2.3 1.1 2.3 1.1-.3.4-1 1.5.5 2.6s1.7 2.4 1.7 2.4c-2.7 2.2-.4 4.1-.4 4.1-.2 1.5 1.2 2.5 3.2 2.5 2 .1 3.5-1.3 3.8-1.7.3-.4.7-.3.7-.3.6.9 1.2 2.1 1.7 3.4 1.4 3.5 1.5 4.1-1.4 3.2z" style="fill:url(#SVGID_15_)"/><path id="path1713" d="M75.1 48.5s1.5-1.6 1.8.9c.2 2.5.7-.6.7-.6l-.2-1.9-.4-.3-1.1.4Z"/><path id="path1715" d="M60.3 31.9c-.8-.8-1.7-1.4-1.7 1.1s-.7-2.5-.7-2.5l.5-1.2 1.4 1.3z"/><path id="path1717" d="M23.4 39.2c-2 1.7-1.4 2.3 1.5 2.8 3 .5-2.5 1.1-2.5 1.1l-1.4-.9v-1.6z"/><path id="path1719" d="M21.5 61c-.6 1.5-.8 2.5 1.9 2 2.6-.5-2.8 1-2.8 1l-.1-1 .4-1.5z"/><path id="path1721" d="M26.6 69.6c-.2 2.1.3 2.3 1.8 1 1.4-1.3-1.6 2.6-1.6 2.6l-.6-.1-.1-2z"/><path id="path1723" d="M33 74.4c.4 1.6.9 1.4 1.5-.5.6-2 .5 1 .5 1l-.5 2-.1 1.8-1.2-.9z"/><path id="path1725" d="M40 69.1c.3 1.2 1.1 1.9 2.8.5 1.7-1.4 0 .8 0 .8l-1.5.8-.9-.1-.4-.8Z"/><path id="path1727" d="M51.9 69.2c.2 1.4 1.4 1.9 3.5-.3 2.1-2.1-.9 1.8-.9 1.8l-2.5.8-.4-1.3Z"/><path id="path1729" d="M75.3 58.8c.8 1.1 1 1.2 1.3-.7.3-2 .3 2.1.3 2.1l-.7 1.7-.9-2z"/></g><g id="g1809" transform="translate(-19.102 -14.2)"><g id="g1807"><path id="path1733" d="M93.5 94.8s1.1 1.1 1.1 1.6l-1.5 2s-.6-2.7.4-3.6z" class="st24"/><path id="path1735" d="M112.7 95.5s-2.8-6.5-8-6.3c0 0-5.2-.6-7.8 3.2 0 0-3.5 5.2-3.7 5.6 0 0-4.5 3.5-4.2 5.5 0 0-1.1 6.2 7.3 6.3 0 0 .3-1.2.6-1.2 0 0 2.2.7 3.1 1.8 0 0 3.3-2.5 4.4-1.6 0 0 .8 2.8-.4 5.3 0 0-1.8-.4-4.1-2.3 0 0-2.9 2-3.3 2l-.1-1.2s-5.2.8-5.5 1.1c0 0-2-3.8-2.2-2.8 0 0-.7-.8-1 2.6 0 0-2.2.2-2.6 1.1 0 0 .1 1.2 2.9 1.4 0 0-.4 2.3.5 2.6 0 0 1 .8 2.4-3.8 0 0 3.8-.6 4.7.2 0 0-4.2 5.5 1.6 9.1 0 0-.6.7-1.1 2.2 0 0-2.4 0-4.3 1.8 0 0-6.3 2.7-7.2 3.3 0 0 6.6 1.7 16.6-2.4 0 0 6.8 4.9 13.9 6.1 0 0 2.1.5 2.4-.1 0 0-1.1-1.6-1.8-1.7l-4.6-4.6s-2.5-2.3-4.6-2.1c0 0-1-2.8-1.3-3.1 0 0 1.1-1.1 1.3-3.1 0 0 .9-.3.2-2.4 0 0-.7-.4-.8 1.1 0 0-1.7-2.2-1.4-4.2 0 0 3.9-.4 9.4 1.7 0 0 .6 3.8 1.9 4 0 0 .7.4 1-2.6 0 0 2.4.6 3.3-.2 0 0 1.1-.5-2.4-2.4 0 0 1.1-2.5.8-3.1 0 0-1.4-1.1-4.1 2.7 0 0-6-3.1-9.6-2.5l.9-2.1s6.9 2.2 9.5-.8c0 0 3-2.9-.7-11.3 0 0 .9-3.2.3-3.6-.3-.1-2 .4-2.2.8z" class="st24"/><path id="path1737" d="M96.7 92.2c-.4.5-3.4 4.9-3.7 5.5-.6.5-4.3 3.5-4.3 5.5v.2c0 .1-.1.4-.1.8 0 .9.2 2.3 1.2 3.5 1.3 1.5 3.4 2.3 6.4 2.4.1 0 .2-.1.3-.2.1-.4.3-.9.4-1 .5.2 2.1.8 2.8 1.7 0 .1.1.1.2.1s.1 0 .2-.1c1.2-.9 3.2-2.1 4-1.7.1.2.2 1 .2 2 0 .8-.1 1.8-.5 2.8-.5-.2-2-.7-3.8-2.2-.1-.1-.2-.1-.3 0-1.1.8-2.4 1.6-3 1.9 0-.4-.1-.9-.1-.9 0-.1 0-.1-.1-.2-.1 0-.1-.1-.2-.1-2 .3-4.4.7-5.3 1.1-1.6-3-2.1-2.9-2.2-2.9-.1 0-.1 0-.2.1h-.2c-.3.1-.7.5-.9 2.7-.6.1-2.2.3-2.6 1.2v.1c0 .1.2 1.4 2.8 1.6 0 .2-.1.5-.1.8 0 .7.1 1.6.8 1.8h-.1s.2.2.6.1c.7-.2 1.5-1.5 2.2-3.9 1.3-.2 3.3-.3 4.1 0-.4.6-1.4 2.2-1.4 4.1 0 .3 0 .6.1 1 .3 1.6 1.3 2.9 2.9 4-.2.3-.5.9-.9 1.9-.6 0-2.6.3-4.3 1.8-.5.2-6.3 2.7-7.2 3.3-.1.1-.1.1-.1.2s.1.2.2.2 6.7 1.7 16.6-2.4c.9.6 7.3 4.9 13.9 6.1.7.2 2.3.4 2.7-.2V134.6c-.2-.3-1.1-1.6-1.9-1.8l-4.6-4.6c-.1-.1-2.5-2.2-4.6-2.2-.3-.8-.8-2.2-1.2-2.8.3-.4 1-1.3 1.2-2.9.2-.1.5-.4.5-1.2 0-.4-.1-.8-.3-1.5 0-.1-.1-.1-.1-.2 0 0-.3-.2-.6 0-.2.1-.3.3-.4.6-.4-.7-1.1-1.9-1.1-3.1v-.2c.9 0 4.4-.1 8.9 1.7.1.8.7 3.8 2.1 4.1.1 0 .2.1.4 0 .4-.2.7-1.1.9-2.5.7.1 2.3.4 3.1-.3.1-.1.3-.2.3-.5 0-.4-.3-1-2.5-2.2.3-.6.8-1.8.8-2.6 0-.2 0-.4-.1-.5l-.1-.1s-.4-.3-1-.2c-1 .1-2.1 1.1-3.3 2.8-1-.5-5.8-2.7-9.1-2.5.2-.5.5-1.2.6-1.5 1.2.4 7.1 1.9 9.5-.9.1-.1 1.2-1.2 1.2-4.1 0-1.8-.4-4.2-1.8-7.4.2-.7.5-1.9.5-2.8 0-.5-.1-.9-.3-1-.1-.1-.2-.1-.3 0-.4.1-1.3.4-1.7.8-.7-1.4-3.4-6.3-8.1-6.1-.1 0-5.3-.5-7.9 3.3zm-8 11.2zm1.5 3.9c-.9-1.1-1.1-2.4-1.1-3.2V103.3c0-1.5 2.9-4.1 4.1-5.1l.1-.1c.1-.3 2.3-3.5 3.7-5.5 2.5-3.6 7.5-3.1 7.5-3 5.1-.2 7.8 6.1 7.8 6.2 0 .1.1.1.2.2.1 0 .2 0 .3-.1.1-.1.8-.5 1.6-.8 0 .1.1.2.1.4 0 .6-.2 1.7-.5 2.8v.2c1.4 3.2 1.8 5.5 1.8 7.2 0 2.7-1 3.8-1.1 3.8-2.5 2.8-9.1.7-9.2.7-.1 0-.3 0-.3.2 0 0-.3.6-.5 1.2v-.6c0-1.2-.2-2.2-.3-2.2 0-.1 0-.1-.1-.1-1.1-.9-3.7.9-4.5 1.5-1-1.1-2.9-1.7-3-1.7h-.1c-.1 0-.5 0-.8 1.2-2.6-.4-4.5-1.1-5.7-2.4zm6.5 1.4s.1 0 0 0c.1 0 .1 0 0 0zm-8.2 2.2zm.2.1c.1 0 .1-.1.1-.1.3.3 1.2 1.6 1.8 2.8 0 .1.1.1.2.1s.2 0 .2-.1c.3-.2 2.7-.7 5-1 0 .3.1 1 .1 1 0 .1.1.2.3.2.5 0 2.4-1.3 3.3-1.9 2.2 1.8 4 2.2 4.1 2.2.1 0 .2 0 .3-.1.2-.5.4-.9.5-1.4h.1c3.4-.6 9.4 2.4 9.4 2.5.1.1.3 0 .3-.1 1.4-2.1 2.5-2.6 3.1-2.7.3-.1.5 0 .6.1v.2c0 .5-.4 1.6-.8 2.6v.1c0 .1 0 .2.1.2 2.3 1.3 2.4 1.8 2.4 1.9h-.1c-.6.6-2.4.3-3 .1h-.2c-.1 0-.1.1-.1.2-.2 2.1-.6 2.3-.6 2.4-.8-.1-1.5-2.4-1.7-3.8 0-.1-.1-.2-.2-.2-5.5-2.1-9.3-1.8-9.5-1.7-.1 0-.2.1-.2.2-.3 2.1 1.4 4.3 1.5 4.4.1.1.2.1.3.1.1 0 .2-.1.2-.2 0-.5.2-.8.3-.8.1.5.2.9.2 1.1 0 .6-.3.8-.3.8-.1 0-.2.1-.2.2-.3 1.9-1.3 2.9-1.3 2.9s-.1.1-.1.2 0 .1.1.2c.2.2.8 1.7 1.3 2.9 0 .1.2.2.3.2 2-.2 4.4 2 4.4 2l4.6 4.6s.1.1.2.1c.3 0 1 .8 1.5 1.4-.3.1-1.1.1-2-.1-7-1.2-13.7-6-13.8-6.1-.1-.1-.2-.1-.3 0-7.9 3.3-13.7 2.8-15.7 2.5 1.4-.7 4.7-2.1 6.5-2.9 0 0 .1 0 .1-.1 1.8-1.7 4.1-1.7 4.1-1.7.1 0 .2-.1.3-.2.5-1.4 1-2.1 1-2.1s.1-.1.1-.2-.1-.1-.1-.2c-1.7-1-2.6-2.3-2.9-3.8-.1-.3-.1-.6-.1-.9 0-2.2 1.4-4 1.4-4.1 0 0 .1-.1.1-.2s0-.1-.1-.2c-.9-.8-4.5-.3-4.9-.3-.1 0-.2.1-.2.2-.9 3-1.6 3.5-1.9 3.7h-.2c-.3-.1-.4-.7-.4-1.3 0-.3 0-.7.1-1 0-.1 0-.1-.1-.2 0-.1-.1-.1-.2-.1-2.1-.1-2.5-.9-2.6-1.1.3-.5 1.6-.8 2.3-.8.1 0 .2-.1.2-.2.2-2.1.5-2.4.5-2.4h.3zm17.8 15.1zm13.6-8.2s0-.1 0 0c0-.1 0 0 0 0zm-4.4 2.8c0-.1-.1-.1 0 0z" class="st24"/><path id="path1739" d="M102.9 102.8s-3.6 1-.9 3.8c0 .1 1.2-1.2.9-3.8z" class="st17"/><path id="path1741" d="M93.3 94.2c-.1 0-.1.1-.2.1-1 1.4-.6 3.5-.6 3.6 0 .1.2.2.3.2.1 0 .2-.1.2-.3 0 0-.1-.4-.1-1s.1-1.3.4-1.9c.3.3.7.7.7.9 0 .1.1.3.3.3.1 0 .3-.1.3-.3 0-.7-1-1.5-1.1-1.5 0-.1-.1-.1-.2-.1z"/><path id="path1743" d="M100.4 88.9c-1.4.4-4.1 2.9-5 4.6-2.1 3.9-3.3 4.7-3.3 4.7-.1.1-.1.3-.1.4.1.1.2.2.4.1.1 0 1.3-.8 3.5-4.9.8-1.5 3.4-3.7 4.6-4h.1c2.4-.8 8.3-1.8 11.9 5.6.1.1.2.2.4.1.1-.1.2-.2.1-.4-3.9-7.9-10.6-6.8-12.6-6.2z"/><path id="path1745" d="M114.5 93.7c-1.5.6-2.9 2.1-3 2.2-.1.1-.1.3 0 .4.1.1.3.1.4 0 0 0 1.2-1.2 2.7-1.7.1.3.2.7.2 1.4 0 1-.3 2.3-1.4 3.6 0 0-.1.1-.1.2s0 .2.1.2c.1.1.3.1.4 0 2.5-2.5 1.7-5.7 1.7-5.8-.1-.1-.5-.7-1-.5z"/><path id="path1747" d="M114.4 98c-.1.1-.2.2-.1.4 0 0 1.8 3.2 1.8 7.6 0 0 .1 2.4-1.6 3.8-1.4 1.2-3.5 1.5-6.3.9 0 0-1.7-.4-3.7-.7-.1 0-.3.1-.3.2s.1.3.2.3c2.1.3 3.7.7 3.7.7 3 .6 5.5.5 7-.8 1.9-1.6 1.9-4.1 1.9-4.2.1-4.5-2.1-7.9-2.1-8.1-.2-.1-.4-.1-.5-.1Z"/><path id="path1749" d="M92.1 98.3c-2.9 1.9-4 4.1-3.9 6.2.1 2.7 2.4 4.4 2.4 4.4 1.6 1.1 4 1.3 5.7 1.3.1 0 .3-.1.3-.3 0-.1-.1-.3-.3-.3-1.3-.1-3.6-.3-5.2-1.4-.4-.3-2-1.8-2.1-4-.1-1.9 1.1-3.8 3.4-5.6.1-.1.1-.3 0-.4-.1 0-.2 0-.3.1z"/><g id="g1753"><path id="path1751" d="M97.5 96.1c.2.1.2.5.2.6 0 .7-.4 1.3-.6 1.9v.3c-.1.2-.3.6-.5.4-.1-.1-.2-.2-.2-.4 0-.3.1-.5.1-.8 0 0 .2-.4.2-.6 0 0 .1-.4.2-.6 0-.3.1-1 .6-.8z"/></g><g id="g1757"><path id="path1755" d="M99.7 96.1c.2 0 .4.2.3.4 0 .2-.1.3-.1.5s-.1.3-.1.5c0 0 0 .1-.1.1 0 .1 0 .2-.1.3-.1.2-.1.4-.2.6 0 .2-.1.3-.2.5 0 .1 0 .1-.1.2 0 0 0-.1.1-.1-.1.2-.3.3-.5.1-.1-.1-.1-.2-.1-.3-.2-.4.1-.8.2-1.2.1-.3.1-.6.3-.8 0-.1 0-.2.1-.3.1-.1.2-.5.5-.5z"/></g><g id="g1767"><g id="g1761"><path id="path1759" d="M103.9 98.6c-6 5.3-9.8 2.4-9.9 2.2-.1-.1-.3-.1-.4 0 0 .1-.1.1-.1.2s0 .1.1.2 1 .9 2.8 1c2.8.8 3.3 4.1 3.4 4.2.2.7.6 1.1 1.1 1.2.5.1 1.1-.3 1.7-1 .9-1.2.9-3.1.9-3.2-.2-2.9.6-4.6.6-4.6l-.2-.2c-.1-.1.1-.1 0 0zm-.7 1c-.2.7-.4 1.7-.4 3v1s0 1.8-.8 2.8c-.4.5-.8.8-1.2.8-.3-.1-.5-.5-.7-.8 0-.2-.5-2.8-2.6-4.1 1.6-.3 3.5-1 5.7-2.7z"/></g><g id="g1765"><path id="path1763" d="M101.1 104.2c-.4 1.3.5 2.2 1.2 2.5.1.1.3 0 .3-.2.1-.1 0-.3-.2-.3 0 0-1.3-.5-.8-1.8.3-1 1.4-1 1.5-1 .1 0 .3-.1.3-.3 0-.1-.1-.3-.3-.3-.5 0-1.6.3-2 1.4z"/></g></g><g id="g1771"><path id="path1769" d="M96.7 102c.5.1 4-.2 7-3.1 0 0-.8 2-.6 4.1 0 0-1.3 0-1.7 1.1-.4 1.1.2 2 .9 2.4 0 0-1.7 2.3-2.4-.6-.6-2.9-3.2-3.9-3.2-3.9Z"/></g><path id="path1773" d="M96.3 113.2c-1.5 1.6-2.7 3.5-2.9 5.1-.5 3.9 2.5 6.4 7.3 7.2.1 0 .3-.1.3-.2s-.1-.3-.2-.3c-1.7-.3-7.1-1.5-6.5-6.8.2-1.5 1-3 2.4-4.5.1-.1.1-.3 0-.4-.2-.2-.3-.2-.4-.1z"/><path id="path1775" d="M105.2 110.4s-.4.6-.6 1.6c0 .1 0 .3.2.3.1 0 .3 0 .3-.2.3-.9.6-1.4.6-1.4.1-.1 0-.3-.1-.4-.2 0-.3 0-.4.1z"/><path id="path1777" d="M104.5 114.7c-.1 0-.3.1-.2.3.1 1 .4 1.9.9 2.8l.1.2c.5.7 2 3-.1 5.1-.1.1-.7.6-.6.7.1.1 1.1-.1 1.2-.2 1.6-1.6 1.9-3.5.4-5.8-.5-.8-1.3-2.1-1.4-3 0 0-.2-.1-.3-.1z"/><g id="g1783"><path id="path1779" d="M116.8 111.8c-1.4.6-2.6 1.8-3 2.3-5.4-2.8-9.2-2.1-9.3-2.1-.1 0-.3.2-.2.3 0 .1.1.3.3.2 0 0 4-.4 9.3 2.5.1.1.3 0 .4-.1 0 0 1.2-2 2.8-2.6.6-.2 1-.3 1.2-.1.2.2.1.7-.1 1.3l-.2.4c-.5 1.1-.6 1.5-.1 1.8l.3.1c.5.2 1.3.7 1.6 1.2.1.1.3.5.2.7-.1.2-.7.6-3.1.1-.1 0-.2 0-.2.1-.1.1-.1.1-.1.2 0 .9-.2 2.4-.7 2.4h-.1s-.1 0-.2-.1c-.4-.2-1-1-1.6-4 0-.1-.2-.2-.3-.2-.1 0-.3.5-.2.6.5 2.5 1.2 3.7 1.9 4.1.3.2.5.1.6.1 1-.2 1.4-1.7 1.4-2.4 1.9.3 2.7-.1 3.1-.6.1-.1.1-.3.1-.5 0-.3-.1-.5-.3-.8-.4-.6-1.2-1-1.7-1.3 0-.1-.3-.8 0-1.3l.2-.4c.2-.5.3-.8.3-1.1 0-.4-.1-.6-.3-.7-.5-.5-1.1-.5-2-.1zm.2 6.2zm-1.1 3s.1 0 0 0c.1 0 0 0 0 0z"/><path id="path1781" d="M104 114.8c-.1.1-.2.2-.1.3.1.1.2.2.3.1 0 0 2.5-.9 9.2 1.5.1 0 .5-.2.5-.3 0-.1 0-.3-.2-.3-6.9-2.4-9.6-1.3-9.7-1.3z"/></g><path id="path1785" d="M96.6 123.7c0 .1-.6 1.3-.8 2.1 0 .1.1.3.2.3s.3-.1.3-.2c.2-.8.8-2 .8-2 .1-.1 0-.3-.1-.4-.1 0-.3.1-.4.2z"/><path id="path1787" d="M90.5 127.8s-2.7 1.3-4.4 1.8c-.3.1-2 .8-1.9 1.7.1.5.9.6 1.6.6 0 0 9.1 1 15.6-2.6.1-.1.2-.2.2-.3-.1-.1-.2-.2-.3-.1-8.8 3.5-15.2 2.6-15.3 2.6-.8 0-1-.1-1.1-.2.1-.2 1-.7 2.2-1.1 1.7-.5 4.5-1.9 4.6-2 2.9-1.9 4.4-2.1 5.2-2 .5.1.8.3.8.3.1.1.1.1.2 0s.1-.1.1-.2c0 0-.7-.5-1.4-.7-1.2-.2-3.1.2-6.1 2.2z"/><path id="path1789" d="M100.3 124c-.1.1-.1.3 0 .4 0 0 .2.9.3 5 0 .1-.1 0 0 0s6.6 4.1 12.2 5.4c3.8.9 5 .7 5.2.3.3-.6-.7-1.5-2-2.4l-.4-.3c-.7-.6-2.6-2.7-2.8-2.9 0 0-2.7-4-7.6-3.4-.1 0-.2-.1-.2.1 0 .1.1.3.3.3 3.8-.2 6.6 2.8 6.9 3.2.2.3 2.5 2.6 3.1 3.2l.5.4c1.5 1.1 1.8 1.6 1.8 1.7 0 0-.4.4-4.2-.5-5.2-1.2-11-4.9-11.9-5.5-.1-4.1-.6-4.9-.8-5-.2-.2-.4-.1-.4 0z"/><path id="path1791" d="M105.3 123c-.1.1-.1.3 0 .4 0 0 .6.8 1.2 2.8 0 .1.2.2.3.2.1 0 .2-.2.2-.3-.6-2.1-1.2-2.9-1.3-3-.1-.1-.3-.1-.4-.1z"/><path id="path1793" d="M106.4 116.9c-.7.2-.7 1.5-.7 1.5 0 .1.1.3.2.3s.3-.1.3-.2c0 0 .1-.6.4-.8.1.1.2.3.3.7v.5c0 .6-.2 1.3-.6 1.7-.1.1-.1.1-.1.2s0 .1.1.2.3.1.4 0c1-1 1-2.7.7-3.4-.3-.7-.9-.7-1-.7z"/><path id="path1795" d="M110.2 83c-.3-.2-.7-.3-1-.2-2.2.4-4.6 5.9-4.7 6.1-.1.1 0 .3.1.4.1.1.3 0 .4-.1.7-1.5 2.8-5.5 4.3-5.8.3-.1.5 0 .8.3.1 0 .1.1.2.1s.1 0 .2-.1c0 0 2.5-2.6 4.9-1.6.1.1.3 0 .3-.1.1-.1 0-.3-.1-.3-2.5-1.3-4.8.7-5.4 1.3z"/><path id="path1797" d="M88.5 110.2c-.3.1-.5.3-.7.7v-.1c0 .1-.5.4-.6 1.9-.5.1-1.7.5-2 .8h.1c-.1 0-.6.3-.7.8v.1c0 .3.2.5.5.8 0 0 .9 1 2.3 1.2 0 .2.1.3.1.6 0 .4 0 .8.2 1v-.1c0 .1.2.8.8 1 .3.1.7-.1 1.1-.5 0 0 1.3-.9 1.9-3.2.5-.1 2.4-.7 4-.4.1 0 .3-.1.3-.2s-.1-.3-.2-.3c-1.9-.4-4.4.2-4.5.2-.1 0-.2.1-.2.2-.6 2.2-1.7 3.3-1.7 3.3-.2.2-.4.4-.6.3-.2 0-.3-.4-.4-.6v-.1c-.1-.3-.1-1.2 0-1.7 0-.1-.1-.3-.2-.3-1.4-.2-2.4-1-2.4-1-.2-.1-.3-.3-.3-.4 0-.2.3-.3.4-.4h.1c.2-.2 1.2-.4 2.1-.6.1 0 .2-.1.2-.3.1-1.5.4-2 .4-2v-.1c.1-.1.2-.4.3-.4.2 0 .4.2.5.2l.1.1c.4.2 1.1 1.5 1.5 2.4.1.1.2.2.3.1 1.4-.6 5.3-1.1 5.4-1.1.1 0 .2-.2.2-.3 0-.1-.2-.2-.3-.2-.2 0-3.4.2-5 .8-.3-.6-1.2-1.7-1.8-2.1-.3.2-.7-.2-1.2-.1z"/><g id="g1801"><path id="path1799" d="M115.7 80.1s-.4-.5.2-.4l1.6.6s.1.1.4 0c0 0 1.1-1.1 1.3-1.2 0 0 .3-.2.3.1l.1 1.8s0 .2.2.3l1.5.5s.3.1 0 .4l-1.5.9s-.2.1-.2.3l-.2 1.6s-.1.5-.4.1l-1-1.2s-.3-.3-.5-.2l-1.6.4s-.5.1-.4-.3l.9-1.5s.2-.3 0-.5z" style="fill:#3d62ad"/></g><path id="path1803" d="M104.4 110.4c0 1.3 0 2.1-.6 3.4 0 0-3-1.1-4-2.5 0 0-3.1 2.3-3.3 1.9 0 0-.5-4.5.3-4.6 0 0 2.2.7 3 1.9 0 0 2.4-2 4.3-1.8 0 0 .2.9.3 1.7" class="st17"/><path id="path1805" d="M96.8 108.4c-.9.1-.8 2.7-.6 4.9v.1l.2.1c.5.1 2.2-1.1 3.3-1.9 1.1 1.4 3.8 2.3 3.9 2.4.1 0 .3 0 .3-.1.6-1.3.6-2.1.6-3.2v-.3l-.2-1.7c0-.1-.1-.2-.2-.2-1.7-.1-3.6 1.3-4.3 1.7-.9-1.1-2.9-1.7-3-1.8.1 0 .1 0 0 0zm-.1 2.4c0-1 .1-1.7.2-1.9.4.2 2.1.8 2.8 1.7 0 .1.1.1.2.1s.1 0 .2-.1c0 0 2.2-1.8 3.9-1.8 0 .3.2 1.5.2 1.5v.3c0 1 0 1.7-.5 2.8-.7-.3-2.8-1.2-3.6-2.3 0-.1-.1-.1-.2-.1h-.2c-1.1.8-2.4 1.7-2.9 1.9-.1-.7-.1-1.4-.1-2.1z"/></g></g></svg>