<svg xmlns="http://www.w3.org/2000/svg" width="327.72867pt" height="262.97928pt" viewBox="0 0 327.72865 262.97927"><path fill="#231f20" d="M326.599 223.01a2.747 2.747 0 0 0-2.115-.995h-10.632c-1.318 0-2.45.937-2.698 2.232l-.378 1.99a8.926 8.926 0 0 0-.63-.878c-2.691-3.252-7.104-3.628-10.19-3.628-5.781 0-9.873 1.584-12.778 5.254l.325-1.71a2.743 2.743 0 0 0-2.696-3.26h-10.632a2.75 2.75 0 0 0-.99.184 2.76 2.76 0 0 0-.99-.184h-10.631c-.461 0-.9.114-1.283.319a2.744 2.744 0 0 0-1.284-.32h-10.632c-.977 0-1.85.517-2.337 1.31-.067-.108-.13-.22-.211-.32a2.743 2.743 0 0 0-2.111-.99h-34.608a2.745 2.745 0 0 0-2.7 2.248l-.843 4.562a2.867 2.867 0 0 0-.045.44 2.711 2.711 0 0 0-.171.562l-1.793 9.375a2.742 2.742 0 0 0-1.031 1.669l-.953 5.01a2.756 2.756 0 0 0 .352 1.943l-1.045 5.38a2.738 2.738 0 0 0 .576 2.27 2.74 2.74 0 0 0 2.117.999h20.672l-.42 2.252a2.746 2.746 0 0 0 2.697 3.249h10.633c.977 0 1.85-.517 2.337-1.31.066.106.125.216.206.314.52.63 1.297.996 2.115.996h36.809c1.324 0 2.46-.944 2.699-2.247l.563-3.05a8.823 8.823 0 0 0 1.223 1.96c2.685 3.247 7.079 3.622 10.152 3.622 4.904 0 8.592-1.136 11.376-3.71l-.031.165a2.75 2.75 0 0 0 .58 2.265 2.752 2.752 0 0 0 2.116.995h10.632c1.319 0 2.45-.938 2.698-2.233l1.015-5.341c0-.001 0-.003.002-.004l5.545-29.12a2.754 2.754 0 0 0-.582-2.265"/><path fill="none" stroke="#231f20" stroke-linecap="round" stroke-linejoin="round" d="M326.599 223.01a2.747 2.747 0 0 0-2.115-.995h-10.632c-1.318 0-2.45.937-2.698 2.232l-.378 1.99a8.926 8.926 0 0 0-.63-.878c-2.691-3.252-7.104-3.628-10.19-3.628-5.781 0-9.873 1.584-12.778 5.254l.325-1.71a2.743 2.743 0 0 0-2.696-3.26h-10.632a2.75 2.75 0 0 0-.99.184 2.76 2.76 0 0 0-.99-.184h-10.631c-.461 0-.9.114-1.283.319a2.744 2.744 0 0 0-1.284-.32h-10.632c-.977 0-1.85.517-2.337 1.31-.067-.108-.13-.22-.211-.32a2.743 2.743 0 0 0-2.111-.99h-34.608a2.745 2.745 0 0 0-2.7 2.248l-.843 4.562a2.867 2.867 0 0 0-.045.44 2.711 2.711 0 0 0-.171.562l-1.793 9.375a2.742 2.742 0 0 0-1.031 1.669l-.953 5.01a2.756 2.756 0 0 0 .352 1.943l-1.045 5.38a2.738 2.738 0 0 0 .576 2.27 2.74 2.74 0 0 0 2.117.999h20.672l-.42 2.252a2.746 2.746 0 0 0 2.697 3.249h10.633c.977 0 1.85-.517 2.337-1.31.066.106.125.216.206.314.52.63 1.297.996 2.115.996h36.809c1.324 0 2.46-.944 2.699-2.247l.563-3.05a8.823 8.823 0 0 0 1.223 1.96c2.685 3.247 7.079 3.622 10.152 3.622 4.904 0 8.592-1.136 11.376-3.71l-.031.165a2.75 2.75 0 0 0 .58 2.265 2.752 2.752 0 0 0 2.116.995h10.632c1.319 0 2.45-.938 2.698-2.233l1.015-5.341c0-.001 0-.003.002-.004l5.545-29.12a2.754 2.754 0 0 0-.582-2.265z"/><path fill="#74953d" d="M242.863 229.323h-34.608l.842-4.563h34.61zm-34.829 1.02h34.608l-.733 3.951h-22.144l-.256 1.263h22.144l-.88 4.562h-34.609zm32.3 16.05h-36.075l.953-5.01h36.075zm-12.796 7.334h-23.976l1.172-6.03h34.61l-2.2 11.53H226.51zM270.472 233.927h1.98l.293-1.671h-1.98zm-13.492 1.467h2.567l.477-2.566h-2.567zm-8.615-10.634h10.632l-.404 2.282h2.566l.404-2.282h10.633l-.404 2.2h1.98l.403-2.2h10.633l-3.154 16.54h-10.631l.402-2.076h-1.98l-.403 2.077h-23.83zm-3.447 18.17h36.443l-1.98 10.309H254.67l-.256 1.22h25.078l-.881 4.769H241.8l2.018-10.553h24.71l.22-1.14h-24.71zM298.416 239.957c1.403-7.415 1.295-7.741-.216-7.741-1.473 0-1.725.326-3.128 7.74l-.755 4.075c-1.402 7.414-1.257 7.74.217 7.74 1.51 0 1.726-.326 3.128-7.74zm-13.41 0c2.228-11.896 6.364-15.481 14.633-15.481 8.305 0 11.074 3.585 8.844 15.48l-.754 4.075c-2.23 11.897-6.365 15.48-14.669 15.48-8.27 0-11.039-3.583-8.809-15.48zM324.483 224.76H313.85l-5.544 29.12h10.633z"/><path fill="none" stroke="#231f20" stroke-miterlimit="10" d="M242.863 229.323h-34.608l.842-4.563h34.61zm-34.829 1.02h34.608l-.733 3.951h-22.144l-.256 1.263h22.144l-.88 4.562h-34.609zm32.3 16.05h-36.075l.953-5.01h36.075zm-12.796 7.334h-23.976l1.172-6.03h34.61l-2.2 11.53H226.51zM270.472 233.927h1.98l.293-1.671h-1.98zm-13.492 1.467h2.567l.477-2.566h-2.567zm-8.615-10.634h10.632l-.404 2.282h2.566l.404-2.282h10.633l-.404 2.2h1.98l.403-2.2h10.633l-3.154 16.54h-10.631l.402-2.076h-1.98l-.403 2.077h-23.83zm-3.447 18.17h36.443l-1.98 10.309H254.67l-.256 1.22h25.078l-.881 4.769H241.8l2.018-10.553h24.71l.22-1.14h-24.71zM298.416 239.957c1.403-7.415 1.295-7.741-.216-7.741-1.473 0-1.725.326-3.128 7.74l-.755 4.075c-1.402 7.414-1.257 7.74.217 7.74 1.51 0 1.726-.326 3.128-7.74zm-13.41 0c2.228-11.896 6.364-15.481 14.633-15.481 8.305 0 11.074 3.585 8.844 15.48l-.754 4.075c-2.23 11.897-6.365 15.48-14.669 15.48-8.27 0-11.039-3.583-8.809-15.48z"/><path fill="#74953d" d="m313.852 224.76-5.545 29.12-1.017 5.348h10.63l1.019-5.347 5.545-29.121z"/><path fill="none" stroke="#231f20" stroke-miterlimit="10" d="m313.852 224.76-5.545 29.12-1.017 5.348h10.63l1.019-5.347 5.545-29.121z"/><path fill="#e6e7e8" d="M48.723 190.289c0 6.167 29.886 11.165 66.753 11.165 36.867 0 66.754-4.998 66.754-11.165 0-6.165-29.887-11.164-66.754-11.164-36.867 0-66.753 4.999-66.753 11.164"/><path fill="#f37121" d="M74.054 143.21s.048-.032.146-.085c-.844.462-8.565 4.26-19.523-4.773-7.102-5.851-7.186-10.535-7.317-17.623-.096-5.195-.205-11.083-3.255-17.428C36.16 86.788 17.902 84.87 7.473 88.78a7.591 7.591 0 0 0 5.332 14.215c2.404-.902 13.098-2.513 17.618 6.885 1.615 3.358 1.682 6.958 1.759 11.127.153 8.36.346 18.762 12.84 29.059 3.24 2.67 6.395 4.642 9.404 6.067 15.355 7.273 26.98.376 27.559.02z"/><path fill="none" stroke="#231f20" stroke-linecap="round" stroke-linejoin="round" stroke-width="5.109" d="M74.054 143.21s.048-.032.146-.085c-.844.462-8.565 4.26-19.523-4.773-7.102-5.851-7.186-10.535-7.317-17.623-.096-5.195-.205-11.083-3.255-17.428C36.16 86.788 17.902 84.87 7.473 88.78a7.591 7.591 0 0 0 5.332 14.215c2.404-.902 13.098-2.513 17.618 6.885 1.615 3.358 1.682 6.958 1.759 11.127.153 8.36.346 18.762 12.84 29.059 3.24 2.67 6.395 4.642 9.404 6.067 15.355 7.273 26.98.376 27.559.02z"/><path fill="#231f20" d="M49.31 153.224c1.838-4.905 3.688-9.766 6.368-14.103 2.449 1.878 4.715 3.102 6.774 3.896-.884 4.902-1.908 9.945-2.471 15.216a35.805 35.805 0 0 1-5.555-2.1c-1.663-.787-3.374-1.761-5.116-2.91"/><path fill="none" stroke="#231f20" stroke-linecap="round" stroke-linejoin="round" stroke-width="5.109" d="M49.31 153.224c1.838-4.905 3.688-9.766 6.368-14.103 2.449 1.878 4.715 3.102 6.774 3.896-.884 4.902-1.908 9.945-2.471 15.216a35.805 35.805 0 0 1-5.555-2.1c-1.663-.787-3.374-1.761-5.116-2.91z"/><path fill="#231f20" d="M48.503 130.284c-3.874 3.563-8.128 6.733-11.868 10.32-1.911-3.188-2.978-6.319-3.589-9.33 4.338-3.746 8.992-6.869 14.354-8.68.079 2.846.263 5.321 1.103 7.69"/><path fill="none" stroke="#231f20" stroke-linecap="round" stroke-linejoin="round" stroke-width="3.179" d="M48.503 130.284c-3.874 3.563-8.128 6.733-11.868 10.32-1.911-3.188-2.978-6.319-3.589-9.33 4.338-3.746 8.992-6.869 14.354-8.68.079 2.846.263 5.321 1.103 7.69z"/><path fill="#231f20" d="M7.474 88.782c5.61-2.105 13.488-2.516 20.808.122-3.023 4.191-5.292 8.866-7.054 13.758-3.693-.791-7.174-.135-8.423.333a7.59 7.59 0 0 1-5.331-14.213"/><path fill="none" stroke="#231f20" stroke-linecap="round" stroke-linejoin="round" stroke-width="3.179" d="M7.474 88.782c5.61-2.105 13.488-2.516 20.808.122-3.023 4.191-5.292 8.866-7.054 13.758-3.693-.791-7.174-.135-8.423.333a7.59 7.59 0 0 1-5.331-14.213z"/><path fill="#231f20" d="M40.73 97.847a29.746 29.746 0 0 1 3.374 5.454 30.094 30.094 0 0 1 2.127 5.977c-4.88 1.185-10.06 1.939-14.772 3.57a14.791 14.791 0 0 0-1.036-2.967c-.785-1.634-1.761-2.93-2.844-3.96 3.834-3.587 8.095-6.511 13.152-8.074"/><path fill="none" stroke="#231f20" stroke-linecap="round" stroke-linejoin="round" stroke-width="3.179" d="M40.73 97.847a29.746 29.746 0 0 1 3.374 5.454 30.094 30.094 0 0 1 2.127 5.977c-4.88 1.185-10.06 1.939-14.772 3.57a14.791 14.791 0 0 0-1.036-2.967c-.785-1.634-1.761-2.93-2.844-3.96 3.834-3.587 8.095-6.511 13.152-8.074z"/><path fill="#f37121" d="M74.629 101.222s-20.655 30.083-17.335 51.543c3.318 21.46 30.179 12.909 30.648.533.471-12.376 1.552-20.336 2.073-26.898"/><path fill="none" stroke="#231f20" stroke-linecap="round" stroke-linejoin="round" stroke-width="5.109" d="M74.629 101.222s-20.655 30.083-17.335 51.543c3.318 21.46 30.179 12.909 30.648.533.471-12.376 1.552-20.336 2.073-26.898"/><path fill="#231f20" d="M58.81 139.013s7.502-2.84 9.414-2.891c1.912-.049-2.452-5.01-7.912-5.18"/><path fill="none" stroke="#231f20" stroke-linecap="round" stroke-linejoin="round" stroke-width="1.976" d="M58.81 139.013s7.502-2.84 9.414-2.891c1.912-.049-2.452-5.01-7.912-5.18"/><path fill="#f37121" d="m72.238 153.721 67.451 4.071 9.544-42.856-26.057-35.121-54.836-.048zM121.47 33.348s1.566-18.09 16.829-24.525c16.905-7.126 37.458 19.347 6.646 41.44"/><path fill="none" stroke="#231f20" stroke-linecap="round" stroke-linejoin="round" stroke-width="5.109" d="M121.47 33.348s1.566-18.09 16.829-24.525c16.905-7.126 37.458 19.347 6.646 41.44"/><path fill="#231f20" d="M129.714 28.325s2.067-11.314 10.301-13.405c9.137-2.32 17.678 10.901 1.773 21.333z"/><path fill="#f37121" d="M84.396 36.933s8.088-19.244.555-30.26C76.765-5.3 51.584 9.743 61.117 39.813"/><path fill="none" stroke="#231f20" stroke-linecap="round" stroke-linejoin="round" stroke-width="5.109" d="M84.396 36.933s8.088-19.244.555-30.26C76.765-5.3 51.584 9.743 61.117 39.813"/><path fill="#231f20" d="M75.6 30.212S81.427 19 76.956 13.43c-5.223-6.511-15.673.719-12.318 17.695z"/><path fill="#f37121" d="M84.843 96.475C62.662 91.143 49.725 76.64 50.67 54.503c1.415-33.11 31.177-38.952 62.973-36.669 25.97 1.864 41.483 18.782 42.79 41.523 1.513 26.308-11.285 51.765-9.955 82.047"/><path fill="none" stroke="#231f20" stroke-linecap="round" stroke-linejoin="round" stroke-width="5.109" d="M84.843 96.475C62.662 91.143 49.725 76.64 50.67 54.503c1.415-33.11 31.177-38.952 62.973-36.669 25.97 1.864 41.483 18.782 42.79 41.523 1.513 26.308-11.285 51.765-9.955 82.047"/><path fill="#231f20" d="M153.924 73.44s-7.168-1.597-10.494-.814c-3.326.78 4.078 3.167 9.455 10.565"/><path fill="none" stroke="#231f20" stroke-linecap="round" stroke-linejoin="round" stroke-width="2.147" d="M153.924 73.44s-7.168-1.597-10.494-.814c-3.326.78 4.078 3.167 9.455 10.565"/><path fill="#231f20" d="M152.165 42.57s-5.83.834-8.04 2.448c-2.21 1.612 4.051 1.343 10.442 5.707"/><path fill="none" stroke="#231f20" stroke-linecap="round" stroke-linejoin="round" stroke-width="1.787" d="M152.165 42.57s-5.83.834-8.04 2.448c-2.21 1.612 4.051 1.343 10.442 5.707"/><path fill="#231f20" d="M52.151 45.318s6.586.802 5.742 2.782c-.844 1.979-6.112 4.287-6.112 4.287"/><path fill="none" stroke="#231f20" stroke-linecap="round" stroke-linejoin="round" stroke-width="1.728" d="M52.151 45.318s6.586.802 5.742 2.782c-.844 1.979-6.112 4.287-6.112 4.287"/><path fill="#231f20" d="M54.085 70.75s6.251-2.037 6.71.063c.458 2.099-3.052 9.022-3.052 9.022"/><path fill="none" stroke="#231f20" stroke-linecap="round" stroke-linejoin="round" stroke-width="1.793" d="M54.085 70.75s6.251-2.037 6.71.063c.458 2.099-3.052 9.022-3.052 9.022"/><path fill="#231f20" d="M107.898 18.39s-5.431 8.578-9.314 9.412c-3.882.834-2.207-8.975-2.207-8.975"/><path fill="none" stroke="#231f20" stroke-linecap="round" stroke-linejoin="round" stroke-width="1.456" d="M107.898 18.39s-5.431 8.578-9.314 9.412c-3.882.834-2.207-8.975-2.207-8.975"/><path fill="#fff" d="M99.679 29.953c7.42.634 29.754 1.225 33.877 18.347 4.805 19.952-11.985 41.83-45.523 36.004-30.568-5.31-27.707-33.247-22.074-43.546 5.635-10.3 23.109-11.711 33.72-10.805"/><path fill="#231f20" d="M85.728 43.777c-.115 2.656 3.058 6.373 7.2 6.47 4.142.098 7.687-3.461 7.8-6.117.117-2.656-2.276-5.46-7.301-5.537-5.025-.076-7.584 2.528-7.7 5.184M114.302 45.67c.035 2.189 1.6 3.916 3.498 3.86 1.898-.057 3.407-1.876 3.373-4.063-.034-2.187-1.6-3.915-3.498-3.858-1.896.056-3.407 1.874-3.373 4.062M71.56 44.1c.035 2.188 1.602 3.915 3.499 3.86 1.897-.057 3.407-1.876 3.372-4.064-.033-2.186-1.6-3.914-3.497-3.858-1.897.056-3.407 1.874-3.374 4.062"/><path fill="#f47729" d="M103.714 59.719c-.41 3.117-1.933 6.16-6.392 5.829-2.303-.171-4.124-1.09-5.561-2.35 3.334-2.538 7.64-4.011 11.953-3.48"/><path fill="none" stroke="#231f20" stroke-linecap="round" stroke-linejoin="round" stroke-width="2.257" d="M103.714 59.719c-.41 3.117-1.933 6.16-6.392 5.829-2.303-.171-4.124-1.09-5.561-2.35 3.334-2.538 7.64-4.011 11.953-3.48z"/><path fill="#231f20" d="M103.435 53.456s.688 3.167.279 6.263c-4.313-.532-8.618.94-11.953 3.477-4.108-3.606-5.066-10.042-5.066-10.042z"/><path fill="none" stroke="#231f20" stroke-linecap="round" stroke-linejoin="round" stroke-width="2.257" d="M103.435 53.456s.688 3.167.279 6.263c-4.313-.532-8.618.94-11.953 3.477-4.108-3.606-5.066-10.042-5.066-10.042z"/><path fill="#fff" d="M104.919 51.77s-.177 3.762-4.938 4.07c-4.762.308-6.404-2.616-6.404-2.616s-1.4 1.931-4.751 1.868c-3.548-.068-4.687-3.636-4.687-3.636"/><path fill="none" stroke="#231f20" stroke-linecap="round" stroke-linejoin="round" stroke-width="1.898" d="M104.919 51.77s-.177 3.762-4.938 4.07c-4.762.308-6.404-2.616-6.404-2.616s-1.4 1.931-4.751 1.868c-3.548-.068-4.687-3.636-4.687-3.636"/><path fill="#f37121" d="M66.985 88.705c4.313 9.818 6.55 47.567 4.67 63.213-1.033 8.595-2.294 28.203-1.944 34.366.348 6.163 22.561 8.256 27.794 3.49 5.232-4.77 5.35-17.214 13.84-28.029"/><path fill="none" stroke="#231f20" stroke-linecap="round" stroke-linejoin="round" stroke-width="5.109" d="M66.985 88.705c4.313 9.818 6.55 47.567 4.67 63.213-1.033 8.595-2.294 28.203-1.944 34.366.348 6.163 22.561 8.256 27.794 3.49 5.232-4.77 5.35-17.214 13.84-28.029"/><path fill="#f37121" d="M91.33 164.13s11.49 3.788 21.152 5.058 12.157 3.14 15.297 7.675c3.14 4.536 2.718 14.558 8.533 16.884 5.815 2.326 18.935 4.004 24.58-1.627 3.522-3.516 1.55-29.989-3.552-54.865-2.796-13.628-6.254-34.6-3.41-50.446"/><path fill="none" stroke="#231f20" stroke-linecap="round" stroke-linejoin="round" stroke-width="5.109" d="M91.33 164.13s11.49 3.788 21.152 5.058 12.157 3.14 15.297 7.675c3.14 4.536 2.718 14.558 8.533 16.884 5.815 2.326 18.935 4.004 24.58-1.627 3.522-3.516 1.55-29.989-3.552-54.865-2.796-13.628-6.254-34.6-3.41-50.446"/><path fill="#231f20" d="M71.782 161.943s4.908 2.943 6.455 4.242c1.548 1.3-7.06 4.31-7.06 4.31"/><path fill="none" stroke="#231f20" stroke-linecap="round" stroke-linejoin="round" stroke-width="1.551" d="M71.782 161.943s4.908 2.943 6.455 4.242c1.548 1.3-7.06 4.31-7.06 4.31"/><path fill="#231f20" d="M70.477 177.771s3.227 1.934 4.243 2.788c1.017.855-4.641 2.833-4.641 2.833"/><path fill="none" stroke="#231f20" stroke-linecap="round" stroke-linejoin="round" stroke-width="1.019" d="M70.477 177.771s3.227 1.934 4.243 2.788c1.017.855-4.641 2.833-4.641 2.833"/><path fill="#231f20" d="M160.777 188.128s-4.144-1.957-5.47-2.824c-1.329-.868 5.461-2.943 5.461-2.943"/><path fill="none" stroke="#231f20" stroke-linecap="round" stroke-linejoin="round" stroke-width="1.551" d="M160.777 188.128s-4.144-1.957-5.47-2.824c-1.329-.868 5.461-2.943 5.461-2.943"/><path fill="#231f20" d="M160.924 167.668s-8.114 3.869-10.07 5.432c-1.955 1.562 11.923 3.426 11.923 3.426"/><path fill="none" stroke="#231f20" stroke-linecap="round" stroke-linejoin="round" stroke-width="1.672" d="M160.924 167.668s-8.114 3.869-10.07 5.432c-1.955 1.562 11.923 3.426 11.923 3.426"/><path fill="#f37121" d="M151.742 99.623s23.796 26.71 21.675 55.485c-1.596 21.657-29.82 13.718-30.624 1.36-.804-12.36-2.099-20.287-2.796-26.832"/><path fill="none" stroke="#231f20" stroke-linecap="round" stroke-linejoin="round" stroke-width="5.109" d="M151.742 99.623s23.796 26.71 21.675 55.485c-1.596 21.657-29.82 13.718-30.624 1.36-.804-12.36-2.099-20.287-2.796-26.832"/><path fill="none" stroke="#231f20" stroke-linecap="round" stroke-linejoin="round" stroke-width="4.273" d="m155.058 166.864.632-5.02M162.723 167.427l.632-5.02"/><path fill="#231f20" d="M171.929 143.506s-10.787-.603-13.776-.221c-2.988.38 3.639-6.835 12.16-8.318"/><path fill="none" stroke="#231f20" stroke-linecap="round" stroke-linejoin="round" stroke-width="2.768" d="M171.929 143.506s-10.787-.603-13.776-.221c-2.988.38 3.639-6.835 12.16-8.318"/><path fill="#231f20" d="M166.979 121.31s-9.99-.024-12.376.542c-2.39.566 1.879-5.038 8.625-6.92"/><path fill="none" stroke="#231f20" stroke-linecap="round" stroke-linejoin="round" stroke-width="2.101" d="M166.979 121.31s-9.99-.024-12.376.542c-2.39.566 1.879-5.038 8.625-6.92"/><path fill="#231f20" d="M73.491 123.02s5.025 2.739 6.625 3.973c1.6 1.236-6.877 4.6-6.877 4.6"/><path fill="none" stroke="#231f20" stroke-linecap="round" stroke-linejoin="round" stroke-width="1.551" d="M73.491 123.02s5.025 2.739 6.625 3.973c1.6 1.236-6.877 4.6-6.877 4.6"/><path fill="#231f20" d="M73.696 143.081s4.891 2.971 6.431 4.28c1.54 1.308-7.086 4.27-7.086 4.27"/><path fill="none" stroke="#231f20" stroke-linecap="round" stroke-linejoin="round" stroke-width="1.551" d="M73.696 143.081s4.891 2.971 6.431 4.28c1.54 1.308-7.086 4.27-7.086 4.27"/><path fill="#74953d" d="M239.769 29.561s2.318-9.316-5.538-16.595c-9.201-8.527-30.954-1.037-27.657 16.076 3.297 17.113 21.574 12.965 21.574 12.965"/><path fill="none" stroke="#231f20" stroke-linecap="round" stroke-linejoin="round" stroke-width="5.109" d="M239.769 29.561s2.318-9.316-5.538-16.595c-9.201-8.527-30.954-1.037-27.657 16.076 3.297 17.113 21.574 12.965 21.574 12.965"/><path fill="#231f20" d="M230.151 27.464s.977-3.92-2.33-6.984c-3.873-3.589-13.029-.437-11.642 6.766 1.388 7.202 9.081 5.457 9.081 5.457"/><path fill="#74953d" d="M280.972 31.174s-2.176-9.316 4.42-16.595c7.728-8.527 26.55-1.037 24.063 16.076-2.486 17.113-18.258 12.965-18.258 12.965"/><path fill="none" stroke="#231f20" stroke-linecap="round" stroke-linejoin="round" stroke-width="5.109" d="M280.972 31.174s-2.176-9.316 4.42-16.595c7.728-8.527 26.55-1.037 24.063 16.076-2.486 17.113-18.258 12.965-18.258 12.965"/><path fill="#231f20" d="M290.642 29.077s-.916-3.921 1.86-6.984c3.253-3.589 11.175-.437 10.129 6.766-1.047 7.202-7.684 5.456-7.684 5.456"/><path fill="#e6e7e8" d="M191.774 190.289c0 6.167 29.886 11.165 66.753 11.165 36.867 0 66.754-4.998 66.754-11.165 0-6.165-29.887-11.164-66.754-11.164-36.867 0-66.753 4.999-66.753 11.164"/><path fill="#74953d" d="M303.733 106.038c-2.171 13.506 15.586 27.218 14.099 45.635-1.491 18.416-21.618 16.052-26.17 10.434-6.838-8.432-3.33-19.347-4.504-30.302"/><path fill="none" stroke="#231f20" stroke-linecap="round" stroke-linejoin="round" stroke-width="5.109" d="M303.733 106.038c-2.171 13.506 15.586 27.218 14.099 45.635-1.491 18.416-21.618 16.052-26.17 10.434-6.838-8.432-3.33-19.347-4.504-30.302"/><path fill="#fff" d="M317.697 146.023c.223 1.836.288 3.715.132 5.65-1.487 18.416-21.614 16.051-26.169 10.435-3.15-3.886-4.103-8.299-4.33-13 12.303 1.34 22.942-.743 30.367-3.085"/><path fill="none" stroke="#231f20" stroke-linecap="round" stroke-linejoin="round" stroke-width="5.109" d="M303.733 106.038c-2.171 13.506 15.586 27.218 14.099 45.635-1.491 18.416-21.618 16.052-26.17 10.434-6.838-8.432-3.33-19.347-4.504-30.302"/><path fill="#74953d" d="M266.596 168.973c4.019 13.855 1.675 16.351 6.59 20.846 4.917 4.492 23.51 3.868 26.565-2.123 3.056-5.991.928-18.098 4.817-27.96 3.886-9.861 5.425-20.405.952-38.944-4.051-16.789 1.09-26.214 1.09-26.214l-51.253 4.495"/><path fill="none" stroke="#231f20" stroke-linecap="round" stroke-linejoin="round" stroke-width="5.109" d="M266.596 168.973c4.019 13.855 1.675 16.351 6.59 20.846 4.917 4.492 23.51 3.868 26.565-2.123 3.056-5.991.928-18.098 4.817-27.96 3.886-9.861 5.425-20.405.952-38.944-4.051-16.789 1.09-26.214 1.09-26.214l-51.253 4.495"/><path fill="#fff" d="M301.533 179.482c-.28 3.248-.71 6.112-1.782 8.215-3.057 5.992-21.649 6.615-26.565 2.122-2.99-2.734-3.296-4.733-3.979-8.995 11.345 2.419 23.852.602 32.326-1.342"/><path fill="none" stroke="#231f20" stroke-linecap="round" stroke-linejoin="round" stroke-width="5.109" d="M266.596 168.973c4.019 13.855 1.675 16.351 6.59 20.846 4.917 4.492 23.51 3.868 26.565-2.123 3.056-5.991.928-18.098 4.817-27.96 3.886-9.861 5.425-20.405.952-38.944-4.051-16.789 1.09-26.214 1.09-26.214l-51.253 4.495"/><path fill="#74953d" d="M272.702 110.182c11.234.124 29.665-3.893 38.271-14.854 5.762-7.34 8.5-16.004 8.293-26.456-.6-30.238-22.229-46.956-59.316-45.733-37.085 1.222-58.078 16.586-57.477 46.824.206 10.452 3.615 19.594 9.362 27.069.407.529.81 1.018 1.207 1.475 3.658 4.206 5.482 9.587 5.543 15.13.112 10.4-4.434 19.315-.447 41.356 3.32 18.35-4.014 32.954 3.526 37.572 7.54 4.619 21.87 2.372 25.443-1.872 3.574-4.243 4.564-16.601 11.022-19.722 6.457-3.12 17.117 1.498 34.237-8.238"/><path fill="none" stroke="#231f20" stroke-linecap="round" stroke-linejoin="round" stroke-width="5.109" d="M272.702 110.182c11.234.124 29.665-3.893 38.271-14.854 5.762-7.34 8.5-16.004 8.293-26.456-.6-30.238-22.229-46.956-59.316-45.733-37.085 1.222-58.078 16.586-57.477 46.824.206 10.452 3.615 19.594 9.362 27.069.407.529.81 1.018 1.207 1.475 3.658 4.206 5.482 9.587 5.543 15.13.112 10.4-4.434 19.315-.447 41.356 3.32 18.35-4.014 32.954 3.526 37.572 7.54 4.619 21.87 2.372 25.443-1.872 3.574-4.243 4.564-16.601 11.022-19.722 6.457-3.12 17.117 1.498 34.237-8.238"/><path fill="#fff" d="M250.8 182.449c-1.17 3.318-2.207 6.481-3.692 8.244-3.574 4.243-17.906 6.49-25.444 1.871-3.445-2.11-3.782-6.311-3.452-11.998 11.776 3.426 24.869 2.764 32.589 1.883"/><path fill="none" stroke="#231f20" stroke-linecap="round" stroke-linejoin="round" stroke-width="5.109" d="M272.702 110.182c11.234.124 29.665-3.893 38.271-14.854 5.762-7.34 8.5-16.004 8.293-26.456-.6-30.238-22.229-46.956-59.316-45.733-37.085 1.222-58.078 16.586-57.477 46.824.206 10.452 3.615 19.594 9.362 27.069.407.529.81 1.018 1.207 1.475 3.658 4.206 5.482 9.587 5.543 15.13.112 10.4-4.434 19.315-.447 41.356 3.32 18.35-4.014 32.954 3.526 37.572 7.54 4.619 21.87 2.372 25.443-1.872 3.574-4.243 4.564-16.601 11.022-19.722 6.457-3.12 17.117 1.498 34.237-8.238"/><path fill="#fff" d="M241.31 52.884c.272-16.478 13.9-20 30.378-19.422 16.088.565 28.997 4.848 29.883 20.651 5.53 4.59 7.277 11.773 7.42 18.228.326 14.604-14.695 22.43-36.024 22.643-22.02.22-40.515-5.134-40.887-23.147-.164-7.96 3.338-14.356 9.23-18.953"/><path fill="#231f20" d="M288.204 53.964c.037 2.04 1.586 3.681 3.46 3.665 1.874-.016 3.364-1.683 3.327-3.723-.036-2.039-1.586-3.68-3.46-3.665-1.873.016-3.364 1.682-3.327 3.723M250.02 54.305a3.743 3.743 0 0 0 3.763 3.666 3.647 3.647 0 0 0 3.625-3.723 3.743 3.743 0 0 0-3.762-3.665 3.644 3.644 0 0 0-3.625 3.722M268.835 54.52c.051 2.712 3.66 6.916 8.015 6.883 4.354-.032 7.805-4.29 7.754-7.001-.05-2.712-3.61-4.223-7.964-4.191-4.355.033-7.856 1.597-7.805 4.309"/><path fill="none" stroke="#231f20" stroke-linecap="round" stroke-linejoin="round" stroke-width="1.78" d="m276.776 57.311.214 10.751M285.338 66.496s-8.124 3.975-16.753.323M269.055 65.287s-.808 1.84-1.69 2.778"/><path fill="#fff200" d="M296.97 119.054c.25-1.563-1.662-2.997-2.817-2.092-3.092 2.429-9.386 5.2-22.387 5.648-13.31.458-21.11-1.766-25.503-4.064-1.818-.95-3.547.45-2.643 2.185 3.774 7.235 12.936 17.468 31.524 15.8 16.82-1.508 20.793-11.043 21.826-17.477"/><path fill="#74953d" d="M218.2 109.408c2.463 13.506-14.998 27.218-13.113 45.635 1.887 18.417 21.962 16.052 26.395 10.434 6.656-8.432 2.912-19.347 3.85-30.302"/><path fill="none" stroke="#231f20" stroke-linecap="round" stroke-linejoin="round" stroke-width="5.109" d="M218.2 109.408c2.463 13.506-14.998 27.218-13.113 45.635 1.887 18.417 21.962 16.052 26.395 10.434 6.656-8.432 2.912-19.347 3.85-30.302"/><path fill="#fff" d="M205.088 155.043a27.774 27.774 0 0 1-.071-4.694c10.714 4.986 24.119 4.336 30.447 3.645-.27 4.134-1.246 8.02-3.98 11.484-4.434 5.617-24.509 7.982-26.396-10.435"/><path fill="none" stroke="#231f20" stroke-linecap="round" stroke-linejoin="round" stroke-width="5.109" d="M218.2 109.408c2.463 13.506-14.998 27.218-13.113 45.635 1.887 18.417 21.962 16.052 26.395 10.434 6.656-8.432 2.912-19.347 3.85-30.302"/><path fill="#231f20" d="M77.73 256.645s-2.154 5.76 4.273 5.76l6.502-19.655-9.102-4.792z"/><path fill="#231f20" d="M167.208 223.231a2.74 2.74 0 0 0-2.114-.995h-10.632a2.743 2.743 0 0 0-2.696 2.232l-.378 1.981a8.69 8.69 0 0 0-.632-.869c-2.69-3.253-7.104-3.629-10.19-3.629-6.638 0-11.047 2.091-13.993 7.03l.7-3.69a2.738 2.738 0 0 0-.58-2.264 2.748 2.748 0 0 0-2.116-.994h-10.63a2.746 2.746 0 0 0-2.632 1.956c-2.383-1.632-6.329-2.038-11.3-2.038-8.928 0-13.042 1.356-14.952 5.481-.09-.029-.179-.062-.273-.083l.4-2.153a2.744 2.744 0 0 0-2.699-3.245H71.858a2.76 2.76 0 0 0-.995.186 2.728 2.728 0 0 0-.993-.186H46.04c-1.32 0-2.455.94-2.699 2.238l-1.686 8.963c-.15.802.064 1.632.584 2.26a2.75 2.75 0 0 0 2.114.992h9.226l-1.289 3.7c-8.864.635-11.626 2.912-13.117 10.518-.6 3.14-.982 6.147.903 8.425 2.384 2.885 7.27 3.351 18.034 3.351 16.301 0 20.301-.992 22.162-10.733.555-2.83.933-5.556-.377-7.74a2.745 2.745 0 0 0 2.138-2.167l.083-.424h.061l-.824 3.64a2.745 2.745 0 0 0 1.452 3.064l-3.67 10.283a2.747 2.747 0 0 0 2.585 3.67h10.925c.544 0 1.06-.168 1.497-.45.435.28.94.45 1.472.45h23.133a2.745 2.745 0 0 0 2.695-2.224l.715-3.675a9.14 9.14 0 0 0 1.548 2.765c2.685 3.246 7.081 3.622 10.153 3.622 4.902 0 8.592-1.132 11.373-3.7l-.029.156a2.746 2.746 0 0 0 2.697 3.26h10.632c1.318 0 2.45-.939 2.697-2.233l6.562-34.467a2.748 2.748 0 0 0-.582-2.264"/><path fill="none" stroke="#231f20" stroke-miterlimit="10" d="M167.208 223.231a2.74 2.74 0 0 0-2.114-.995h-10.632a2.743 2.743 0 0 0-2.696 2.232l-.378 1.981a8.69 8.69 0 0 0-.632-.869c-2.69-3.253-7.104-3.629-10.19-3.629-6.638 0-11.047 2.091-13.993 7.03l.7-3.69a2.738 2.738 0 0 0-.58-2.264 2.748 2.748 0 0 0-2.116-.994h-10.63a2.746 2.746 0 0 0-2.632 1.956c-2.383-1.632-6.329-2.038-11.3-2.038-8.928 0-13.042 1.356-14.952 5.481-.09-.029-.179-.062-.273-.083l.4-2.153a2.744 2.744 0 0 0-2.699-3.245H71.858a2.76 2.76 0 0 0-.995.186 2.728 2.728 0 0 0-.993-.186H46.04c-1.32 0-2.455.94-2.699 2.238l-1.686 8.963c-.15.802.064 1.632.584 2.26a2.75 2.75 0 0 0 2.114.992h9.226l-1.289 3.7c-8.864.635-11.626 2.912-13.117 10.518-.6 3.14-.982 6.147.903 8.425 2.384 2.885 7.27 3.351 18.034 3.351 16.301 0 20.301-.992 22.162-10.733.555-2.83.933-5.556-.377-7.74a2.745 2.745 0 0 0 2.138-2.167l.083-.424h.061l-.824 3.64a2.745 2.745 0 0 0 1.452 3.064l-3.67 10.283a2.747 2.747 0 0 0 2.585 3.67h10.925c.544 0 1.06-.168 1.497-.45.435.28.94.45 1.472.45h23.133a2.745 2.745 0 0 0 2.695-2.224l.715-3.675a9.14 9.14 0 0 0 1.548 2.765c2.685 3.246 7.081 3.622 10.153 3.622 4.902 0 8.592-1.132 11.373-3.7l-.029.156a2.746 2.746 0 0 0 2.697 3.26h10.632c1.318 0 2.45-.939 2.697-2.233l6.562-34.467a2.748 2.748 0 0 0-.582-2.264z"/><path fill="#f37121" d="M158.531 259.448H147.9l6.563-34.467h10.631zM138.902 240.178l-.749 4.073c-1.39 7.415-1.604 7.741-3.102 7.741-1.462 0-1.603-.326-.214-7.74l.75-4.074c1.39-7.415 1.64-7.74 3.101-7.74 1.497 0 1.605.325.214 7.74m1.212-15.482c-8.2 0-12.3 3.586-14.51 15.482l-.75 4.073c-2.21 11.897.535 15.482 8.735 15.482 8.236 0 12.337-3.585 14.546-15.482l.75-4.073c2.21-11.896-.535-15.482-8.77-15.482M86.596 245.36H84.03l1.466-6.245h24.267l-1.467 6.244H97.52l-4.875 13.886H81.72z"/><path fill="#f37121" d="M107.01 251.89h13.169l-1.431 7.354H95.614l2.904-11.774h9.298z"/><path fill="#f37121" d="M99.16 228.933c-1.83 0-1.988.871-2.25 2.325-.262 1.395-.47 2.266 1.36 2.266 1.883 0 2.092-.87 2.353-2.266.262-1.454.42-2.325-1.464-2.325m20.615 21.104h-10.632l2.934-15.44h-2.456c-1.43 2.077-4.4 3.177-12.1 3.177-11.217 0-11.547-2.404-10.742-6.64.807-4.156 2.018-6.438 13.236-6.438 7.588 0 10.192 1.06 10.851 2.974h2.53l.551-2.892h10.631zM84.214 230.033l-1.65 8.556h-2.713l-.512 1.981H68.706l3.154-15.874h10.631l-.99 5.337zm-24.233 19.923c-7.076 0-7.26.204-7.479 1.181-.184.978-.074 1.182 7.002 1.182 7.075 0 7.26-.204 7.442-1.182.219-.977.11-1.181-6.965-1.181m-2.538-16.297h-13.09l1.686-8.963H69.87l-1.504 7.904-2.749 7.97H54.802zm.667 25.994c-16.68 0-17.633-1.223-16.241-8.516 1.431-7.292 2.824-8.515 19.505-8.515 16.68 0 17.635 1.223 16.204 8.515-1.393 7.293-2.786 8.516-19.468 8.516"/><path fill="none" stroke="#231f20" stroke-miterlimit="10" d="M158.531 259.448H147.9l6.563-34.467h10.631zM138.902 240.178l-.749 4.073c-1.39 7.415-1.604 7.741-3.102 7.741-1.462 0-1.603-.326-.214-7.74l.75-4.074c1.39-7.415 1.64-7.74 3.101-7.74 1.497 0 1.605.325.214 7.74zm1.212-15.482c-8.2 0-12.3 3.586-14.51 15.482l-.75 4.073c-2.21 11.897.535 15.482 8.735 15.482 8.236 0 12.337-3.585 14.546-15.482l.75-4.073c2.21-11.896-.535-15.482-8.77-15.482zM86.596 245.36H84.03l1.466-6.245h24.267l-1.467 6.244H97.52l-4.875 13.886H81.72z"/><path fill="none" stroke="#231f20" stroke-miterlimit="10" d="M107.01 251.89h13.169l-1.431 7.354H95.614l2.904-11.774h9.298z"/><path fill="none" stroke="#231f20" stroke-miterlimit="10" d="M99.16 228.933c-1.83 0-1.988.871-2.25 2.325-.262 1.395-.47 2.266 1.36 2.266 1.883 0 2.092-.87 2.353-2.266.262-1.454.42-2.325-1.464-2.325zm20.614 21.104h-10.632l2.934-15.44h-2.456c-1.43 2.077-4.4 3.177-12.1 3.177-11.217 0-11.547-2.404-10.742-6.64.807-4.156 2.018-6.438 13.236-6.438 7.588 0 10.192 1.06 10.851 2.974h2.53l.551-2.892h10.631zM84.214 230.033l-1.65 8.556h-2.713l-.512 1.981H68.706l3.154-15.874h10.631l-.99 5.337zm-24.233 19.923c-7.076 0-7.26.204-7.479 1.181-.184.978-.074 1.182 7.002 1.182 7.075 0 7.26-.204 7.442-1.182.219-.977.11-1.181-6.965-1.181zm-2.538-16.297h-13.09l1.686-8.963H69.87l-1.504 7.904-2.749 7.97H54.802zm.667 25.994c-16.68 0-17.633-1.223-16.241-8.516 1.431-7.292 2.824-8.515 19.505-8.515 16.68 0 17.635 1.223 16.204 8.515-1.393 7.293-2.786 8.516-19.468 8.516z"/></svg>