<svg xmlns="http://www.w3.org/2000/svg" xml:space="preserve" width="500" height="399.23199" viewBox="0 0 500 399.23199"><defs><clipPath id="a" clipPathUnits="userSpaceOnUse"><path d="M270.65 430.716c-1.821-1.631 4.794-8.853 14.802-16.158-12.746 3.622-23.768 4.889-24.677 2.815-.888-2.009 8.054-6.42 20.194-10.029-12.928-.474-23.112-2.483-23.02-4.607.091-2.216 11.218-3.727 24.858-3.353.332.013.657.019.994.026-.305-.112-.604-.228-.905-.337-12.308-4.745-21.321-10.204-20.132-12.204 1.144-1.934 11.498.106 23.369 4.574-8.8-7.826-14.263-15.195-12.321-16.65 2.022-1.502 11.165 3.824 20.415 11.904 9.245 8.077 15.104 15.845 13.09 17.347 1.844 1.645-4.876 8.954-15.009 16.307-8.74 6.366-17.172 10.695-20.49 10.696-.523 0-.918-.108-1.168-.331"/></clipPath><clipPath id="b" clipPathUnits="userSpaceOnUse"><path d="M164.33 351.519h340.16v134.99H164.33Z"/></clipPath><clipPath id="c" clipPathUnits="userSpaceOnUse"><path d="M357.921 420.286c-10.132-7.354-16.853-14.663-15.007-16.308-2.015-1.502 3.842-9.27 13.088-17.346 9.251-8.079 18.394-13.41 20.416-11.905 1.942 1.455-3.523 8.821-12.321 16.651 11.871-4.469 22.225-6.51 23.37-4.576 1.188 2-7.824 7.461-20.134 12.205-.3.109-.599.226-.905.337.337-.007.664-.011.995-.026 13.641-.372 24.766 1.137 24.857 3.355.091 2.123-10.09 4.133-23.018 4.605 12.137 3.61 21.082 8.022 20.193 10.029-.909 2.073-11.932.806-24.678-2.816 10.009 7.307 16.622 14.528 14.805 16.159-.25.224-.646.331-1.169.331-3.319 0-11.752-4.329-20.492-10.695"/></clipPath><clipPath id="d" clipPathUnits="userSpaceOnUse"><path d="M164.33 351.519h340.16v134.99H164.33Z"/></clipPath><clipPath id="e" clipPathUnits="userSpaceOnUse"><path d="M308.38 412.108s-3.302-1.22-6.968-1.319h-.098c-.287 1.298-1.708 2.308-2.892 2.351-.523.015-1.498-.588-1.771-.989-.474-.699-.735-1.688.029-2.363-1.223.587-3.086-.75-3.078-2.06.035-2.219 1.89-3.135 3.393-2.082-.315-.469-.408-1.031-.401-1.574.014-.934 1.248-1.823 2.202-1.829 1.389 0 2.688.881 2.604 2.618h.098c7.611-.019 10.147 1.214 11.014 2.065l.044-.028c-2.017-3.53-2.397-8.436-2.397-8.436s-1.179-6.367 4.056-12.733c1.76-2.13.678-6.817.678-6.817-11.504 1.881-10.959-4.85-10.959-5.699 0-.831.91-.611.91-.611l22.654-.113.156.061c2.709 0 20.446-.125 21.35.081.902.212 1.157.801 1.157.801.232 3.56-1.58 4.187-3.441 4.977-2.402 1.017-7.583.72-7.583.72-.085 1.591-.255 2.578-.255 2.578-.9 4.83 1.357 5.814 1.357 5.814 2.571 2.933 3.676 5.699 4.116 8.233l.025.109c8.115 2.096 6.647 6.924 6.647 6.924-2.201 7.699-8.905 10.246-8.905 10.246l-4.098 1.737-17.26 1.313c-.434.032-.86.047-1.275.047-6.864 0-11.109-4.022-11.109-4.022"/></clipPath><clipPath id="f" clipPathUnits="userSpaceOnUse"><path d="M164.33 351.519h340.16v134.99H164.33Z"/></clipPath><clipPath id="g" clipPathUnits="userSpaceOnUse"><path d="M325.529 434.909c0-.302-.014-.589-.014-.876-.108.273-.238.541-.368.815-5.119 11.017-11.233 19.181-13.662 18.247-2.358-.92-.369-10.093 4.446-20.715-8.947 8.093-17.481 13.253-19.312 11.608-1.868-1.69 4.083-9.961 13.312-18.466 9.215-8.501 18.215-14.032 20.089-12.327 1.878-1.695 10.864 3.838 20.069 12.35 9.217 8.515 15.162 16.783 13.285 18.479-1.861 1.683-10.745-3.759-19.889-12.183 4.864 10.989 6.843 20.593 4.419 21.493-2.357.869-7.993-6.75-12.814-17.209 0 11.349-1.955 20.372-4.493 20.4h-.012c-2.643 0-4.906-9.664-5.056-21.616"/></clipPath><clipPath id="h" clipPathUnits="userSpaceOnUse"><path d="M164.33 351.519h340.16v134.99H164.33Z"/></clipPath></defs><g clip-path="url(#a)" transform="matrix(3.72212 0 0 -3.72212 -960.114 1784.424)"><path d="m0 0-2.016.013.398 60.845 2.016-.013z" style="fill:#fffffe;fill-opacity:1;fill-rule:nonzero;stroke:none" transform="translate(310.912 372.162)"/><path d="m0 0-2.015.014.398 60.845 2.014-.013z" style="fill:#fffefd;fill-opacity:1;fill-rule:nonzero;stroke:none" transform="translate(308.897 372.175)"/><path d="m0 0-2.016.013.398 60.845 2.016-.013z" style="fill:#fffdfa;fill-opacity:1;fill-rule:nonzero;stroke:none" transform="translate(306.881 372.188)"/><path d="m0 0-2.015.014.397 60.845 2.016-.013z" style="fill:#fffcf7;fill-opacity:1;fill-rule:nonzero;stroke:none" transform="translate(304.866 372.201)"/><path d="m0 0-2.016.013.398 60.845 2.015-.013z" style="fill:#fffaf3;fill-opacity:1;fill-rule:nonzero;stroke:none" transform="translate(302.85 372.215)"/><path d="m0 0-2.016.014.398 60.845 2.015-.013z" style="fill:#fff8ef;fill-opacity:1;fill-rule:nonzero;stroke:none" transform="translate(300.835 372.228)"/><path d="m0 0-2.015.013.397 60.845 2.016-.013z" style="fill:#fef7e9;fill-opacity:1;fill-rule:nonzero;stroke:none" transform="translate(298.82 372.241)"/><path d="m0 0-2.016.014.398 60.845 2.015-.013z" style="fill:#fef4e3;fill-opacity:1;fill-rule:nonzero;stroke:none" transform="translate(296.804 372.254)"/><path d="m0 0-2.015.013.397 60.845 2.016-.013z" style="fill:#fef2dc;fill-opacity:1;fill-rule:nonzero;stroke:none" transform="translate(294.789 372.268)"/><path d="m0 0-2.016.014.398 60.845 2.015-.013z" style="fill:#feeed4;fill-opacity:1;fill-rule:nonzero;stroke:none" transform="translate(292.773 372.28)"/><path d="M-.066 0-2.42.013l.464 60.845 2.353-.013Z" style="fill:#feebcc;fill-opacity:1;fill-rule:nonzero;stroke:none;stroke-width:1" transform="translate(290.758 372.294)"/><g style="stroke-width:.932345"><path d="m0 0-2.015.014.397 60.845 2.016-.013z" style="fill:#fde8c3;fill-opacity:1;fill-rule:nonzero;stroke:none;stroke-width:.932345" transform="matrix(1.1504 0 0 1 288.682 372.307)"/></g><g style="stroke-width:.91909"><path d="m0 0-2.016.013.398 60.845 2.015-.013z" style="fill:#fde4b8;fill-opacity:1;fill-rule:nonzero;stroke:none;stroke-width:.91909" transform="matrix(1.18382 0 0 1 286.654 372.32)"/></g><g style="stroke-width:.925646"><path d="m0 0-2.015.014.397 60.845 2.016-.013z" style="fill:#fde0ae;fill-opacity:1;fill-rule:nonzero;stroke:none;stroke-width:.925646" transform="matrix(1.1671 0 0 1 284.645 372.333)"/></g><g style="stroke-width:.925646"><path d="m0 0-2.016.013.398 60.845 2.015-.013z" style="fill:#fddca3;fill-opacity:1;fill-rule:nonzero;stroke:none;stroke-width:.925646" transform="matrix(1.1671 0 0 1 282.63 372.347)"/></g><g style="stroke-width:.939191"><path d="m0 0-2.015.014.397 60.845 2.016-.013z" style="fill:#fcd697;fill-opacity:1;fill-rule:nonzero;stroke:none;stroke-width:.939191" transform="matrix(1.13368 0 0 1 280.627 372.36)"/></g><g style="stroke-width:.954008"><path d="m0 0-2.016.013.398 60.845 2.015-.013z" style="fill:#fcd18b;fill-opacity:1;fill-rule:nonzero;stroke:none;stroke-width:.954008" transform="matrix(1.09874 0 0 1 278.626 372.373)"/></g><g style="stroke-width:.895307"><path d="m0 0-2.037.014.397 60.845 2.037-.014Z" style="fill:#fcd18b;fill-opacity:1;fill-rule:nonzero;stroke:none;stroke-width:.895307" transform="matrix(1.24754 0 0 1 276.552 372.386)"/></g><g style="stroke-width:.919978"><path d="m0 0-2.037.013.397 60.845 2.037-.013Z" style="fill:#fbc975;fill-opacity:1;fill-rule:nonzero;stroke:none;stroke-width:.919978" transform="matrix(1.18153 0 0 1 274.54 372.4)"/></g><g style="stroke-width:.93988"><path d="m0 0-2.037.014.397 60.845 2.037-.013Z" style="fill:#fac063;fill-opacity:1;fill-rule:nonzero;stroke:none;stroke-width:.93988" transform="matrix(1.13202 0 0 1 272.523 372.412)"/></g><g style="stroke-width:.970745"><path d="m0 0-2.037.014.397 60.844 2.037-.013Z" style="fill:#f9ba53;fill-opacity:1;fill-rule:nonzero;stroke:none;stroke-width:.970745" transform="matrix(1.06118 0 0 1 270.514 372.426)"/></g><g style="stroke-width:.959741"><path d="m0 0-2.037.013.397 60.845 2.037-.013Z" style="fill:#f9b545;fill-opacity:1;fill-rule:nonzero;stroke:none;stroke-width:.959741" transform="matrix(1.08565 0 0 1 268.467 372.44)"/></g><g style="stroke-width:.93988"><path d="m0 0-2.037.014.397 60.845 2.037-.013Z" style="fill:#f8af39;fill-opacity:1;fill-rule:nonzero;stroke:none;stroke-width:.93988" transform="matrix(1.13202 0 0 1 266.412 372.452)"/></g><g style="stroke-width:.954395"><path d="m0 0-2.037.013.397 60.845 2.038-.013Z" style="fill:#f8ab2f;fill-opacity:1;fill-rule:nonzero;stroke:none;stroke-width:.954395" transform="matrix(1.09785 0 0 1 264.388 372.466)"/></g><g style="stroke-width:.949103"><path d="m0 0-2.037.014.397 60.845 2.037-.013Z" style="fill:#f8a727;fill-opacity:1;fill-rule:nonzero;stroke:none;stroke-width:.949103" transform="matrix(1.11013 0 0 1 262.346 372.478)"/></g><g style="stroke-width:.970756"><path d="m0 0-2.038.014.398 60.845 2.037-.014Z" style="fill:#f8a320;fill-opacity:1;fill-rule:nonzero;stroke:none;stroke-width:.970756" transform="matrix(1.06116 0 0 1 260.329 372.492)"/></g><path d="m0 0-2.037.013.398 60.845 2.037-.013z" style="fill:#f7a11a;fill-opacity:1;fill-rule:nonzero;stroke:none" transform="translate(258.315 372.506)"/></g><g clip-path="url(#b)" transform="matrix(3.72212 0 0 -3.72212 -960.114 1784.424)"><path d="M0 0c-.603-1.392 5.571-4.441 13.987-6.943C5.031-7.266-2.02-8.665-1.955-10.139c.053-1.533 7.767-2.569 17.197-2.32.239.006.473.018.706.023-.206-.076-.427-.161-.628-.237C6.793-15.964.546-19.741 1.373-21.121c.799-1.342 7.967.077 16.183 3.163-6.083-5.413-9.879-10.517-8.528-11.537 1.396-1.026 7.721 2.659 14.137 8.255 6.401 5.595 10.461 10.969 9.059 12.012 1.28 1.135-3.373 6.19-10.378 11.295-7.02 5.101-13.735 8.31-15 7.173-1.275-1.131 3.313-6.12 10.242-11.191" style="fill:#fff;fill-opacity:1;fill-rule:nonzero;stroke:none" transform="translate(275.982 413.423)"/></g><g clip-path="url(#c)" transform="matrix(3.72212 0 0 -3.72212 -960.114 1784.424)"><path d="m0 0 2210.441 244.176 6.603-59.784L6.604-59.784Z" style="fill:#fff;fill-opacity:1;fill-rule:nonzero;stroke:none" transform="translate(-1875.595 184.285)"/><path d="m0 0 1.946.215L8.55-59.569l-1.947-.215Z" style="fill:#fff;fill-opacity:1;fill-rule:nonzero;stroke:none" transform="translate(334.846 428.46)"/><path d="m0 0 1.946.215L8.55-59.569l-1.947-.215Z" style="fill:#fffefb;fill-opacity:1;fill-rule:nonzero;stroke:none" transform="translate(336.792 428.676)"/><path d="m0 0 1.946.215L8.55-59.569l-1.946-.215Z" style="fill:#fffdf8;fill-opacity:1;fill-rule:nonzero;stroke:none" transform="translate(338.738 428.89)"/><path d="m0 0 1.946.215L8.551-59.57l-1.948-.215Z" style="fill:#fffaf3;fill-opacity:1;fill-rule:nonzero;stroke:none" transform="translate(340.685 429.106)"/><path d="m0 0 1.946.215 6.605-59.784-1.947-.216Z" style="fill:#fff8ef;fill-opacity:1;fill-rule:nonzero;stroke:none" transform="translate(342.63 429.32)"/><path d="m0 0 1.946.215 6.605-59.784-1.947-.215Z" style="fill:#fef6e9;fill-opacity:1;fill-rule:nonzero;stroke:none" transform="translate(344.577 429.536)"/><path d="m0 0 1.946.215 6.605-59.784-1.946-.215Z" style="fill:#fef4e2;fill-opacity:1;fill-rule:nonzero;stroke:none" transform="translate(346.523 429.751)"/><path d="m0 0 1.946.215 6.605-59.784-1.947-.215Z" style="fill:#fef2dd;fill-opacity:1;fill-rule:nonzero;stroke:none" transform="translate(348.47 429.966)"/><path d="m0 0 1.947.215 6.604-59.784-1.947-.215Z" style="fill:#fef0d7;fill-opacity:1;fill-rule:nonzero;stroke:none" transform="translate(350.416 430.18)"/><path d="m0 0 1.946.215L8.55-59.57l-1.946-.215Z" style="fill:#feedd1;fill-opacity:1;fill-rule:nonzero;stroke:none" transform="translate(352.363 430.396)"/><path d="m0 0 1.946.215L8.55-59.569l-1.947-.216Z" style="fill:#feebcb;fill-opacity:1;fill-rule:nonzero;stroke:none" transform="translate(354.31 430.61)"/><path d="m0 0 1.946.215L8.55-59.569l-1.946-.215Z" style="fill:#fde8c4;fill-opacity:1;fill-rule:nonzero;stroke:none" transform="translate(356.256 430.826)"/><path d="m0 0 1.946.215 6.605-59.784-1.947-.215Z" style="fill:#fde6bf;fill-opacity:1;fill-rule:nonzero;stroke:none" transform="translate(358.202 431.041)"/><path d="m0 0 1.946.215 6.605-59.784-1.946-.215Z" style="fill:#fde4b8;fill-opacity:1;fill-rule:nonzero;stroke:none" transform="translate(360.148 431.256)"/><path d="m0 0 1.946.215 6.605-59.784-1.947-.215Z" style="fill:#fde1b2;fill-opacity:1;fill-rule:nonzero;stroke:none" transform="translate(362.095 431.47)"/><path d="m0 0 1.946.215L8.551-59.57l-1.947-.215Z" style="fill:#fddfac;fill-opacity:1;fill-rule:nonzero;stroke:none" transform="translate(364.041 431.686)"/><path d="m0 0 1.946.215 6.605-59.784-1.947-.216Z" style="fill:#fddca4;fill-opacity:1;fill-rule:nonzero;stroke:none" transform="translate(365.987 431.9)"/><path d="m0 0 1.947.215 6.604-59.784-1.947-.215Z" style="fill:#fcda9e;fill-opacity:1;fill-rule:nonzero;stroke:none" transform="translate(367.934 432.116)"/><path d="m0 0 1.946.215L8.55-59.569l-1.946-.215Z" style="fill:#fcd697;fill-opacity:1;fill-rule:nonzero;stroke:none" transform="translate(369.88 432.331)"/><path d="m0 0 1.946.215L8.55-59.569l-1.946-.215Z" style="fill:#fcd492;fill-opacity:1;fill-rule:nonzero;stroke:none" transform="translate(371.827 432.546)"/><path d="m0 0 1.946.215L8.55-59.57l-1.946-.215Z" style="fill:#fcd18b;fill-opacity:1;fill-rule:nonzero;stroke:none" transform="translate(373.773 432.761)"/><path d="m0 0 2.029.224L8.633-59.56l-2.029-.224Z" style="fill:#fcd18b;fill-opacity:1;fill-rule:nonzero;stroke:none" transform="translate(375.72 432.976)"/><path d="m0 0 2.029.224L8.633-59.56l-2.03-.224Z" style="fill:#fbcb79;fill-opacity:1;fill-rule:nonzero;stroke:none" transform="translate(377.749 433.2)"/><path d="m0 0 2.029.225L8.633-59.56l-2.029-.224Z" style="fill:#fac36a;fill-opacity:1;fill-rule:nonzero;stroke:none" transform="translate(379.778 433.424)"/><path d="m0 0 2.029.224L8.633-59.56l-2.029-.224Z" style="fill:#fabe5b;fill-opacity:1;fill-rule:nonzero;stroke:none" transform="translate(381.808 433.648)"/><path d="m0 0 2.029.224L8.633-59.56l-2.029-.225Z" style="fill:#f9b84f;fill-opacity:1;fill-rule:nonzero;stroke:none" transform="translate(383.837 433.873)"/><path d="m0 0 2.029.224 6.604-59.785-2.029-.223Z" style="fill:#f9b443;fill-opacity:1;fill-rule:nonzero;stroke:none" transform="translate(385.866 434.097)"/><path d="m0 0 2.028.224L8.633-59.56l-2.029-.225Z" style="fill:#f8af3a;fill-opacity:1;fill-rule:nonzero;stroke:none" transform="translate(387.896 434.32)"/><path d="m0 0 2.029.224 6.605-59.785-2.03-.223z" style="fill:#f8ac31;fill-opacity:1;fill-rule:nonzero;stroke:none" transform="translate(389.924 434.545)"/><path d="m0 0 2.029.224L8.634-59.56l-2.03-.225Z" style="fill:#f8a82a;fill-opacity:1;fill-rule:nonzero;stroke:none" transform="translate(391.953 434.769)"/></g><g clip-path="url(#d)" transform="matrix(3.72212 0 0 -3.72212 -960.114 1784.424)"><path d="M0 0c.603-1.391-5.571-4.441-13.985-6.942 8.955-.326 16.006-1.723 15.941-3.197-.053-1.533-7.766-2.569-17.197-2.321-.239.007-.473.019-.706.025.206-.078.427-.162.628-.24 8.526-3.289 14.774-7.065 13.947-8.447-.799-1.34-7.968.078-16.184 3.164 6.084-5.414 9.879-10.517 8.529-11.534-1.397-1.03-7.722 2.654-14.136 8.252-6.403 5.595-10.463 10.97-9.06 12.011-1.28 1.136 3.373 6.191 10.378 11.296 7.02 5.101 13.735 8.309 14.999 7.175 1.275-1.133-3.312-6.122-10.242-11.194" style="fill:#fff;fill-opacity:1;fill-rule:nonzero;stroke:none" transform="translate(374.247 413.357)"/></g><g clip-path="url(#e)" transform="matrix(3.72212 0 0 -3.72212 -960.114 1784.424)"><path d="M353.395 382.07h-60.702v2243.339h60.702z" style="fill:#fff;fill-opacity:1;fill-rule:nonzero;stroke:none"/><path d="M353.395 379.505h-60.702v2.565h60.702z" style="fill:#fff;fill-opacity:1;fill-rule:nonzero;stroke:none;stroke-width:1"/><path d="M353.395 377.439h-60.702v2.597h60.702z" style="fill:#f9a87b;fill-opacity:1;fill-rule:nonzero;stroke:none;stroke-width:1"/><path d="M353.395 375.592h-60.702v2.409h60.702z" style="fill:#f2521b;fill-opacity:1;fill-rule:nonzero;stroke:none;stroke-width:1"/><path d="M353.395 373.973h-60.702v1.994h60.702z" style="fill:#f2521b;fill-opacity:1;fill-rule:nonzero;stroke:none;stroke-width:1"/><path d="M353.395 372.442h-60.702v1.763h60.702z" style="fill:#ef2f29;fill-opacity:1;fill-rule:nonzero;stroke:none"/><path d="M353.395-1870.896h-60.702v2243.34h60.702z" style="fill:#ef3029;fill-opacity:1;fill-rule:nonzero;stroke:none"/></g><g clip-path="url(#f)" transform="matrix(3.72212 0 0 -3.72212 -960.114 1784.424)"><path d="m0 0-17.259 1.313c-7.608.548-12.383-3.975-12.383-3.975s-3.303-1.221-6.969-1.319h-.099c-.286 1.298-1.707 2.308-2.891 2.35-.523.016-1.498-.587-1.771-.988-.474-.7-.735-1.689.029-2.363-1.223.586-3.087-.75-3.078-2.06.034-2.219 1.89-3.136 3.393-2.082-.315-.469-.408-1.032-.402-1.575.015-.933 1.249-1.822 2.203-1.828 1.389 0 2.688.881 2.604 2.617h.098c7.611-.018 10.146 1.214 11.013 2.066l.045-.028c-2.017-3.53-2.397-8.436-2.397-8.436s-1.18-6.368 4.055-12.733c1.76-2.131.678-6.817.678-6.817-11.503 1.881-10.958-4.851-10.958-5.7 0-.831.909-.611.909-.611l22.655-.112.156.06c2.709 0 20.446-.124 21.35.081.902.212 1.157.802 1.157.802.232 3.56-1.58 4.187-3.441 4.977-2.403 1.016-7.584.719-7.584.719-.085 1.591-.255 2.579-.255 2.579-.9 4.83 1.357 5.814 1.357 5.814 2.571 2.933 3.677 5.698 4.117 8.232l.026.11c8.114 2.096 6.646 6.923 6.646 6.923-2.202 7.7-8.905 10.247-8.905 10.247z" style="fill:none;stroke:#231f20;stroke-width:.675;stroke-linecap:butt;stroke-linejoin:miter;stroke-miterlimit:4;stroke-dasharray:none;stroke-opacity:1" transform="translate(338.023 414.77)"/><path d="M0 0c.662.453.042 9.505.042 9.505" style="fill:#fff;fill-opacity:1;fill-rule:nonzero;stroke:#231f20;stroke-width:.675;stroke-linecap:round;stroke-linejoin:round;stroke-miterlimit:4;stroke-dasharray:none;stroke-opacity:1" transform="translate(327.78 372.519)"/><path d="M0 0s3.767-4.741 2.297-11.227" style="fill:none;stroke:#231f20;stroke-width:.675;stroke-linecap:round;stroke-linejoin:round;stroke-miterlimit:4;stroke-dasharray:none;stroke-opacity:1" transform="translate(342.025 406.852)"/><path d="M0 0c-1.709-.801-2.908-2.533-3.742-4.408" style="fill:none;stroke:#231f20;stroke-width:.675;stroke-linecap:round;stroke-linejoin:round;stroke-miterlimit:4;stroke-dasharray:none;stroke-opacity:1" transform="translate(315.836 410.418)"/><path d="M0 0s3.921-2.197 7.103.337" style="fill:none;stroke:#231f20;stroke-width:.675;stroke-linecap:round;stroke-linejoin:round;stroke-miterlimit:4;stroke-dasharray:none;stroke-opacity:1" transform="translate(324.063 382.687)"/><path d="M0 0Z" style="fill:none;stroke:#f2541b;stroke-width:.054;stroke-linecap:butt;stroke-linejoin:miter;stroke-miterlimit:4;stroke-dasharray:none;stroke-opacity:1" transform="translate(361.935 432.48)"/><path d="M0 0c13.915 13.082 22.88 25.806 20.054 28.402C17.235 30.996 3.822 22.623-9.97 9.683-2.623 26.576.359 41.331-3.308 42.727c-3.542 1.337-12.053-10.38-19.336-26.468 0 17.454-2.961 31.325-6.785 31.363-3.988.049-7.409-14.83-7.653-33.223v-1.351c-.188.408-.375.834-.57 1.251-7.72 16.935-16.956 29.5-20.615 28.048-3.572-1.404-.575-15.512 6.699-31.838C-65.073 22.945-77.949 30.88-80.7 28.35c-2.841-2.603 6.154-15.31 20.069-28.384 13.922-13.077 27.502-21.564 30.334-18.962C-27.465-21.598-13.903-13.087 0 0" style="fill:#f1511b;fill-opacity:1;fill-rule:nonzero;stroke:none" transform="translate(360.326 431.79)"/></g><g clip-path="url(#g)" transform="matrix(3.72212 0 0 -3.72212 -960.114 1784.535)"><path d="M292.507 412.865h74.988v-1.988h-74.988z" style="fill:#fff;fill-opacity:1;fill-rule:nonzero;stroke:none"/><path d="M292.507 415.33h74.988v-2.465h-74.988z" style="fill:#fff;fill-opacity:1;fill-rule:nonzero;stroke:none;stroke-width:1"/><path d="M292.507 417.377h74.988v-2.524h-74.988z" style="fill:#fffefe;fill-opacity:1;fill-rule:nonzero;stroke:none;stroke-width:1"/><path d="M292.507 419.395h74.988v-2.852h-74.988z" style="fill:#fffdfb;fill-opacity:1;fill-rule:nonzero;stroke:none;stroke-width:.999999"/><path d="M292.507 421.175h74.988v-2.347h-74.988z" style="fill:#fffcfa;fill-opacity:1;fill-rule:nonzero;stroke:none;stroke-width:1"/><path d="M292.507 423.282h74.988v-2.465h-74.988z" style="fill:#fffaf6;fill-opacity:1;fill-rule:nonzero;stroke:none;stroke-width:1"/><path d="M292.507 425.061h74.988v-2.257h-74.988z" style="fill:#fef8f2;fill-opacity:1;fill-rule:nonzero;stroke:none;stroke-width:1"/><path d="M292.507 426.988h74.988v-2.196h-74.988z" style="fill:#fef3ec;fill-opacity:1;fill-rule:nonzero;stroke:none;stroke-width:1"/><path d="M292.507 428.947h74.988v-2.167h-74.988z" style="fill:#fef0e6;fill-opacity:1;fill-rule:nonzero;stroke:none;stroke-width:1"/><path d="M292.507 431.16h74.988v-2.392h-74.988z" style="fill:#feece0;fill-opacity:1;fill-rule:nonzero;stroke:none;stroke-width:1"/><path d="M292.507 433.058h74.988v-2.302h-74.988z" style="fill:#fde7d8;fill-opacity:1;fill-rule:nonzero;stroke:none;stroke-width:1"/><path d="M292.507 435.09h74.988v-2.346h-74.988z" style="fill:#fde2cf;fill-opacity:1;fill-rule:nonzero;stroke:none;stroke-width:1"/><path d="M292.507 437.079h74.988v-2.347h-74.988z" style="fill:#fcdbc5;fill-opacity:1;fill-rule:nonzero;stroke:none;stroke-width:1"/><path d="M292.507 439.38h74.988v-2.661h-74.988z" style="fill:#fcd5bb;fill-opacity:1;fill-rule:nonzero;stroke:none;stroke-width:1"/><path d="M292.507 441.233h74.988v-2.526h-74.988z" style="fill:#fbcdaf;fill-opacity:1;fill-rule:nonzero;stroke:none;stroke-width:1"/><path d="M292.507 443.408h74.988v-2.713h-74.988z" style="fill:#fbcdaf;fill-opacity:1;fill-rule:nonzero;stroke:none;stroke-width:1"/><path d="M292.507 445.115h74.988v-2.484h-74.988z" style="fill:#fbc9aa;fill-opacity:1;fill-rule:nonzero;stroke:none;stroke-width:1"/><path d="M292.507 447.325h74.988v-2.758h-74.988z" style="fill:#fbc5a4;fill-opacity:1;fill-rule:nonzero;stroke:none;stroke-width:.999999"/><path d="M292.507 449.17h74.988v-2.667h-74.988z" style="fill:#fbc29f;fill-opacity:1;fill-rule:nonzero;stroke:none;stroke-width:1"/><path d="M292.507 450.832h74.988v-2.393h-74.988z" style="fill:#fabe9a;fill-opacity:1;fill-rule:nonzero;stroke:none;stroke-width:1"/><path d="M292.507 452.905h74.988v-2.53h-74.988z" style="fill:#fabb96;fill-opacity:1;fill-rule:nonzero;stroke:none;stroke-width:1"/><path d="M292.507 454.796h74.988v-2.484h-74.988z" style="fill:#fab890;fill-opacity:1;fill-rule:nonzero;stroke:none;stroke-width:1"/><path d="M292.507 456.184h74.988v-1.936h-74.988z" style="fill:#fab48b;fill-opacity:1;fill-rule:nonzero;stroke:none"/><path d="M292.507 458.12h74.988v-1.936h-74.988z" style="fill:#f9b086;fill-opacity:1;fill-rule:nonzero;stroke:none"/></g><g clip-path="url(#h)" transform="matrix(3.72212 0 0 -3.72212 -960.114 1784.424)"><path d="M0 0v-.012a.645.645 0 0 1-.188.034c-.368 0-.665-.28-.665-.629l-.026-5.908.038.006a.645.645 0 0 1 .653-.581.65.65 0 0 1 .295.073l5.512 1.192v4.753z" style="fill:#f1511b;fill-opacity:1;fill-rule:nonzero;stroke:none" transform="translate(324.455 411.173)"/><path d="M0 0v-.012a.645.645 0 0 1-.188.034c-.368 0-.665-.28-.665-.629l-.026-5.908.038.006a.645.645 0 0 1 .653-.581.65.65 0 0 1 .295.073l5.512 1.192v4.753z" style="fill:none;stroke:#231f20;stroke-width:.239;stroke-linecap:butt;stroke-linejoin:miter;stroke-miterlimit:4;stroke-dasharray:none;stroke-opacity:1" transform="translate(324.455 411.173)"/><path d="m0 0-.002-.012C.059.006.12.025.186.025a.642.642 0 0 0 .656-.627l.027-5.881-.036.005a.641.641 0 0 0-.647-.577.701.701 0 0 0-.291.071l-5.453 1.19v4.728z" style="fill:#f1511b;fill-opacity:1;fill-rule:nonzero;stroke:none" transform="translate(338.4 411.173)"/><path d="m0 0-.002-.012C.059.006.12.025.186.025a.642.642 0 0 0 .656-.627l.027-5.881-.036.005a.641.641 0 0 0-.647-.577.701.701 0 0 0-.291.071l-5.453 1.19v4.728z" style="fill:none;stroke:#231f20;stroke-width:.237;stroke-linecap:butt;stroke-linejoin:miter;stroke-miterlimit:4;stroke-dasharray:none;stroke-opacity:1" transform="translate(338.4 411.173)"/><path d="M0 0a.485.485 0 0 0-.466.448" style="fill:#f1511b;fill-opacity:1;fill-rule:nonzero;stroke:#231f20;stroke-width:.294;stroke-linecap:butt;stroke-linejoin:miter;stroke-miterlimit:4;stroke-dasharray:none;stroke-opacity:1" transform="translate(329.667 405.243)"/><path d="M0 0a.486.486 0 0 0-.466-.448" style="fill:#f1511b;fill-opacity:1;fill-rule:nonzero;stroke:#231f20;stroke-width:.294;stroke-linecap:butt;stroke-linejoin:miter;stroke-miterlimit:4;stroke-dasharray:none;stroke-opacity:1" transform="translate(333.52 405.691)"/><path d="M0 0H-3.387a.484.484 0 0 1-.465-.45V-4.512a.483.483 0 0 1 .465-.448H0c.25.012.447.204.466.448V-.45A.488.488 0 0 1 0 0" style="fill:#f1511b;fill-opacity:1;fill-rule:nonzero;stroke:none" transform="translate(333.054 410.203)"/><path d="M0 0H-3.387a.484.484 0 0 1-.465-.45V-4.512a.483.483 0 0 1 .465-.448H0c.25.012.447.204.466.448V-.45A.488.488 0 0 1 0 0Z" style="fill:none;stroke:#231f20;stroke-width:.294;stroke-linecap:butt;stroke-linejoin:miter;stroke-miterlimit:4;stroke-dasharray:none;stroke-opacity:1" transform="translate(333.054 410.203)"/><path d="M0 0a.486.486 0 0 0 .466.45" style="fill:#f1511b;fill-opacity:1;fill-rule:nonzero;stroke:#231f20;stroke-width:.294;stroke-linecap:butt;stroke-linejoin:miter;stroke-miterlimit:4;stroke-dasharray:none;stroke-opacity:1" transform="translate(329.201 409.753)"/><path d="M0 0a.488.488 0 0 0 .466-.45" style="fill:#f1511b;fill-opacity:1;fill-rule:nonzero;stroke:#231f20;stroke-width:.294;stroke-linecap:butt;stroke-linejoin:miter;stroke-miterlimit:4;stroke-dasharray:none;stroke-opacity:1" transform="translate(333.054 410.203)"/><path d="M0 0c0-.012.005-.021.007-.033v.066C.005.021 0 .012 0 0" style="fill:#f1511b;fill-opacity:1;fill-rule:nonzero;stroke:none" transform="translate(329.194 409.72)"/><path d="M0 0c0-.012.005-.021.007-.033v.066C.005.021 0 .012 0 0Z" style="fill:none;stroke:#231f20;stroke-width:.294;stroke-linecap:butt;stroke-linejoin:miter;stroke-miterlimit:4;stroke-dasharray:none;stroke-opacity:1" transform="translate(329.194 409.72)"/><path d="M0 0c.007 0 .014.004.022.004h-.046C-.017.004-.009 0 0 0" style="fill:#f1511b;fill-opacity:1;fill-rule:nonzero;stroke:none" transform="translate(333.031 405.239)"/><path d="M0 0c.007 0 .014.004.022.004h-.046C-.017.004-.009 0 0 0Z" style="fill:none;stroke:#231f20;stroke-width:.294;stroke-linecap:butt;stroke-linejoin:miter;stroke-miterlimit:4;stroke-dasharray:none;stroke-opacity:1" transform="translate(333.031 405.239)"/><path d="M0 0c0 .011-.008.021-.008.034v-.067C-.008-.021 0-.011 0 0" style="fill:#f1511b;fill-opacity:1;fill-rule:nonzero;stroke:none" transform="translate(333.527 405.725)"/><path d="M0 0c0 .011-.008.021-.008.034v-.067C-.008-.021 0-.011 0 0Z" style="fill:none;stroke:#231f20;stroke-width:.294;stroke-linecap:butt;stroke-linejoin:miter;stroke-miterlimit:4;stroke-dasharray:none;stroke-opacity:1" transform="translate(333.527 405.725)"/><path d="M0 0c-.009 0-.016-.004-.024-.004h.046C.016-.004.007 0 0 0" style="fill:#f1511b;fill-opacity:1;fill-rule:nonzero;stroke:none" transform="translate(329.691 410.207)"/><path d="M0 0c-.009 0-.016-.004-.024-.004h.046C.016-.004.007 0 0 0Z" style="fill:none;stroke:#231f20;stroke-width:.294;stroke-linecap:butt;stroke-linejoin:miter;stroke-miterlimit:4;stroke-dasharray:none;stroke-opacity:1" transform="translate(329.691 410.207)"/><path d="M0 0c.007 0 .016.004.022.004h-.046C-.016.004-.009 0 0 0" style="fill:#f1511b;fill-opacity:1;fill-rule:nonzero;stroke:none" transform="translate(329.691 405.239)"/><path d="M0 0c.007 0 .016.004.022.004h-.046C-.016.004-.009 0 0 0Z" style="fill:none;stroke:#231f20;stroke-width:.294;stroke-linecap:butt;stroke-linejoin:miter;stroke-miterlimit:4;stroke-dasharray:none;stroke-opacity:1" transform="translate(329.691 405.239)"/><path d="M0 0c0-.011.005-.021.007-.033v.067C.005.021 0 .011 0 0" style="fill:#f1511b;fill-opacity:1;fill-rule:nonzero;stroke:none" transform="translate(329.194 405.725)"/><path d="M0 0c0-.011.005-.021.007-.033v.067C.005.021 0 .011 0 0Z" style="fill:none;stroke:#231f20;stroke-width:.294;stroke-linecap:butt;stroke-linejoin:miter;stroke-miterlimit:4;stroke-dasharray:none;stroke-opacity:1" transform="translate(329.194 405.725)"/><path d="M0 0c-.009 0-.017-.004-.024-.004h.046C.014-.004.007 0 0 0" style="fill:#f1511b;fill-opacity:1;fill-rule:nonzero;stroke:none" transform="translate(333.031 410.207)"/><path d="M0 0c-.009 0-.017-.004-.024-.004h.046C.014-.004.007 0 0 0Z" style="fill:none;stroke:#231f20;stroke-width:.294;stroke-linecap:butt;stroke-linejoin:miter;stroke-miterlimit:4;stroke-dasharray:none;stroke-opacity:1" transform="translate(333.031 410.207)"/><path d="M0 0c0-1.286-1.127-2.328-2.51-2.328-1.391 0-2.504 1.042-2.504 2.328 0 1.301 1.113 2.337 2.504 2.337C-1.127 2.337 0 1.301 0 0" style="fill:#f1511b;fill-opacity:1;fill-rule:nonzero;stroke:none" transform="translate(321.162 425.17)"/><path d="M0 0c0-1.286-1.143-2.328-2.519-2.328-1.389 0-2.517 1.042-2.517 2.328 0 1.301 1.128 2.337 2.517 2.337C-1.143 2.337 0 1.301 0 0" style="fill:#f1511b;fill-opacity:1;fill-rule:nonzero;stroke:none" transform="translate(344.353 425.17)"/><path d="M0 0s2.11 6.83 6.648 2.337c0 0 1.143.459 1.609.887 0 0-1.028-2-1.509-2.095 0 0-3.466 4.71-6.748-1.129" style="fill:#231f20;fill-opacity:1;fill-rule:nonzero;stroke:none" transform="translate(333.592 427.755)"/><path d="M0 0s2.11 6.83 6.648 2.337c0 0 1.143.459 1.609.887 0 0-1.028-2-1.509-2.095 0 0-3.466 4.71-6.748-1.129z" style="fill:none;stroke:#231f20;stroke-width:.675;stroke-linecap:butt;stroke-linejoin:miter;stroke-miterlimit:4;stroke-dasharray:none;stroke-opacity:1" transform="translate(333.592 427.755)"/><path d="M0 0s-2.722 7.83-8.16 2.335c0 0-2.11-.345-2.736.491 0 0 1.878-2.28 2.744-2.459 0 0 3.418 6.636 8.152-.367" style="fill:#231f20;fill-opacity:1;fill-rule:nonzero;stroke:none" transform="translate(328.577 427.741)"/><path d="M0 0s-2.722 7.83-8.16 2.335c0 0-2.11-.345-2.736.491 0 0 1.878-2.28 2.744-2.459 0 0 3.418 6.636 8.152-.367z" style="fill:none;stroke:#231f20;stroke-width:.675;stroke-linecap:butt;stroke-linejoin:miter;stroke-miterlimit:4;stroke-dasharray:none;stroke-opacity:1" transform="translate(328.577 427.741)"/><path d="M0 0s4.875-4.153 8.37.214" style="fill:#fef8f2;fill-opacity:1;fill-rule:nonzero;stroke:#231f20;stroke-width:.675;stroke-linecap:butt;stroke-linejoin:miter;stroke-miterlimit:1;stroke-dasharray:none;stroke-opacity:1" transform="translate(326.1 423.41)"/></g></svg>