<svg xmlns="http://www.w3.org/2000/svg" viewBox="0 0 169.185 181.949"><path d="M169.185 61.656c0-15.703-8.858-30.396-22.596-37.539-1.801-2.756-3.948-5.348-6.917-8.347C129.602 5.597 116.205 0 101.957 0c-6.194 0-12.034.931-17.364 2.768C79.257.931 73.417 0 67.223 0 52.98 0 39.583 5.597 29.508 15.77c-2.969 2.999-5.111 5.585-6.918 8.347C8.852 31.26 0 45.953 0 61.656c0 36.267 33.158 43.093 47.31 44.341-9.424 5.652-22.097 19.061-23.296 28.778-.687 5.561 1.375 8.773 3.225 10.489 2.616 2.427 6.127 3.267 9.144 3.267 1.065 0 2.069-.11 2.951-.28 4.648-.986 8.804-6.06 11.724-9.887-1.491 11.499-1.661 23.381.444 30.292 2.61 8.572 8.816 13.294 17.467 13.294 12.716 0 14.17-13.184 14.255-26.009h2.105c.085 12.825 1.545 26.009 14.261 26.009 8.652 0 14.851-4.721 17.461-13.294 2.105-6.918 1.941-18.818.444-30.335 2.92 3.827 7.076 8.901 11.742 9.887.87.176 1.868.28 2.932.28 3.012 0 6.528-.84 9.15-3.267 1.85-1.716 3.906-4.928 3.218-10.489-1.192-9.662-13.744-22.992-23.156-28.698 13.975-1.15 47.802-7.757 47.802-44.377ZM141.88 135.06c.444 3.559-.359 6.321-2.385 8.195-2.616 2.427-6.771 2.92-9.722 2.33-4.058-.858-8.311-6.461-10.854-9.814-.468-.614-.894-1.174-1.265-1.643a1.334 1.334 0 0 0-.84-.487c-1.065-6.571-2.531-12.758-4.216-17.522a1.332 1.332 0 0 0-1.71-.815 1.337 1.337 0 0 0-.815 1.71c4.812 13.622 7.794 39.765 4.417 50.856-2.872 9.424-9.686 11.401-14.9 11.401-9.649 0-11.584-9.442-11.584-24.671 0-.742-.602-1.345-1.338-1.345h-4.776a1.34 1.34 0 0 0-1.338 1.345c0 15.228-1.941 24.671-11.584 24.671-5.22 0-12.034-1.977-14.9-11.401-3.383-11.091-.402-37.234 4.411-50.856a1.334 1.334 0 0 0-.815-1.71c-.7-.249-1.46.115-1.71.815-1.685 4.776-3.158 10.982-4.222 17.565-.322.049-.62.213-.833.481-.371.468-.797 1.028-1.265 1.643-2.543 3.352-6.796 8.962-10.842 9.814-2.957.596-7.118.103-9.734-2.324-2.02-1.88-2.823-4.636-2.385-8.195 1.259-10.203 17.175-25.523 25.699-28.638.03-.012.061-.024.091-.043 4.861.468 17.212 1.497 31.881 1.497 14.821 0 26.831-.967 31.941-1.454 8.548 3.194 24.342 18.441 25.596 28.595Zm-23.162-31.534c-.03 0-.061.006-.091.006-.012 0-.152.018-.401.043h-.012c-.846.097-2.945.316-6.035.566a355.786 355.786 0 0 1-27.834 1.101c-11.249 0-21.124-.608-27.263-1.107a254.097 254.097 0 0 1-6.169-.56h-.006c-.268-.03-.414-.049-.438-.049C7.331 101.452 2.677 73.55 2.677 61.656c0-14.827 8.42-28.692 21.452-35.318a.318.318 0 0 0 .079-.049 1.36 1.36 0 0 0 .402-.365s.006-.006 0-.012c.018-.012.024-.03.036-.042.012-.018.024-.043.037-.061 1.734-2.689 3.815-5.208 6.729-8.153a51.165 51.165 0 0 1 7.544-6.291c8.293-5.652 18.045-8.688 28.266-8.688a56.229 56.229 0 0 1 5.567.274c3.997.395 7.8 1.235 11.347 2.501a1.5 1.5 0 0 0 .274.067c.104.012.213.012.316 0a1.1 1.1 0 0 0 .316-.067c3.511-1.253 7.258-2.081 11.207-2.488a56.507 56.507 0 0 1 5.707-.286c10.732 0 20.953 3.346 29.495 9.552.213.158.426.31.639.475a51.059 51.059 0 0 1 5.676 4.952c1.764 1.783 3.225 3.407 4.478 5.007.511.645.986 1.284 1.43 1.929.298.426.584.852.858 1.278.043.067.097.134.158.195.103.11.225.201.365.274 13.032 6.626 21.452 20.491 21.452 35.318 0 11.894-4.66 39.796-47.79 41.87Z" style="fill:#2f2725;stroke-width:0"/><path d="M50.905 103.575c-.268-.03-.414-.049-.438-.049-43.136-2.074-47.79-29.976-47.79-41.87 0-14.827 8.42-28.692 21.452-35.318a.318.318 0 0 0 .079-.049 50.678 50.678 0 0 0-8.146 27.597c0 22.334 14.808 42.278 34.843 49.688Z" style="fill:#a7d28b;stroke-width:0"/><path d="M166.508 61.656c0 11.894-4.66 39.796-47.79 41.87-.03 0-.061.006-.091.006-.012 0-.152.018-.401.043 20.491-7.423 34.624-27.086 34.624-49.688a51.067 51.067 0 0 0-9.192-29.301c.006 0 .012 0 .018.006.298.426.584.852.858 1.278.043.067.097.134.158.195.103.11.225.201.365.274 13.032 6.626 21.452 20.491 21.452 35.318Z" style="fill:#3365a9;stroke-width:0"/><path d="M152.85 53.886c0 22.602-14.133 42.266-34.624 49.688h-.012c-.846.097-2.945.316-6.035.566a355.786 355.786 0 0 1-27.834 1.101c-11.249 0-21.124-.608-27.263-1.107a254.097 254.097 0 0 1-6.169-.56h-.006c-20.035-7.41-34.843-27.354-34.843-49.688a50.678 50.678 0 0 1 8.146-27.597 1.36 1.36 0 0 0 .402-.365c-.018.055-.024.079-.024.079 4.691-2.056 11.84-2.939 19.256-4.101 6.474-1.016 13.154-2.245 18.581-4.654 11.547-5.111 11.213-6.571 22.152-11.657 11.067 5.135 10.69 6.583 22.28 11.724 5.512 2.44 12.308 3.669 18.879 4.697 7.283 1.132 14.273 2.014 18.903 4.028a51.059 51.059 0 0 1 8.213 27.847Z" style="fill:#3eb8c4;stroke-width:0"/><path d="M84.574 5.591c-10.939 5.086-10.604 6.547-22.152 11.657-5.427 2.409-12.107 3.638-18.581 4.654-7.416 1.162-14.565 2.044-19.256 4.101 0 0 .006-.024.024-.079 0 0 .006-.006 0-.012.018-.012.024-.03.036-.042.012-.018.024-.043.037-.061 1.734-2.689 3.815-5.208 6.729-8.153a51.165 51.165 0 0 1 7.544-6.291C47.248 5.713 57 2.677 67.221 2.677a56.229 56.229 0 0 1 5.567.274c3.997.395 7.8 1.235 11.347 2.501a1.5 1.5 0 0 0 .274.067l.164.073Z" style="fill:#3365a9;stroke-width:0"/><path d="M144.636 26.04c-4.63-2.014-11.62-2.896-18.903-4.028-6.571-1.028-13.367-2.257-18.879-4.697-11.59-5.141-11.213-6.589-22.28-11.724l-.164-.073c.104.012.213.012.316 0a1.1 1.1 0 0 0 .316-.067C88.553 4.198 92.3 3.37 96.249 2.963a56.507 56.507 0 0 1 5.707-.286c10.732 0 20.953 3.346 29.495 9.552.213.158.426.31.639.475a51.059 51.059 0 0 1 5.676 4.952c1.764 1.783 3.225 3.407 4.478 5.007.493.627.961 1.272 1.412 1.923.341.481.663.961.979 1.454Z" style="fill:#a7d28b;stroke-width:0"/><path d="M144.691 26.064c-.018-.006-.037-.018-.055-.024a38.494 38.494 0 0 0-.979-1.454 38.835 38.835 0 0 0-1.412-1.923c.511.645.986 1.284 1.43 1.929.298.426.584.852.858 1.278.043.067.097.134.158.195Z" style="fill:#a7d28b;stroke-width:0"/><path d="M139.495 143.255c-2.616 2.427-6.771 2.92-9.722 2.33-4.058-.858-8.311-6.461-10.854-9.814-.468-.614-.894-1.174-1.265-1.643a1.334 1.334 0 0 0-.84-.487c-1.065-6.571-2.531-12.758-4.216-17.522a1.332 1.332 0 0 0-1.71-.815 1.337 1.337 0 0 0-.815 1.71c4.812 13.622 7.794 39.765 4.417 50.856-2.872 9.424-9.686 11.401-14.9 11.401-9.649 0-11.584-9.442-11.584-24.671 0-.742-.602-1.345-1.338-1.345h-4.776a1.34 1.34 0 0 0-1.338 1.345c0 15.228-1.941 24.671-11.584 24.671-5.22 0-12.034-1.977-14.9-11.401-3.383-11.091-.402-37.234 4.411-50.856a1.334 1.334 0 0 0-.815-1.71c-.7-.249-1.46.115-1.71.815-1.685 4.776-3.158 10.982-4.222 17.565-.322.049-.62.213-.833.481-.371.468-.797 1.028-1.265 1.643-2.543 3.352-6.796 8.962-10.842 9.814-2.957.596-7.118.103-9.734-2.324-2.02-1.88-2.823-4.636-2.385-8.195 1.259-10.203 17.175-25.523 25.699-28.638.03-.012.061-.024.091-.043 4.861.468 17.212 1.497 31.881 1.497 14.821 0 26.831-.967 31.941-1.454 8.548 3.194 24.342 18.441 25.596 28.595.444 3.559-.359 6.321-2.385 8.195Z" style="fill:#3eb8c4;stroke-width:0"/><ellipse cx="65.679" cy="54.024" rx="8.847" ry="15.187" style="fill:#fff;stroke-width:0"/><path d="M71.871 54.024c0 9.047-2.772 12.201-6.192 12.201s-6.192-3.154-6.192-12.201 2.772-12.201 6.192-12.201 6.192 3.154 6.192 12.201Z" style="fill:#2f2725;stroke-width:0"/><ellipse cx="103.011" cy="54.024" rx="8.847" ry="15.187" style="fill:#fff;stroke-width:0"/><ellipse cx="103.011" cy="54.024" rx="6.192" ry="12.201" style="fill:#2f2725;stroke-width:0"/><circle cx="37.861" cy="66.82" r="12.46" style="fill:#f7c0ba;stroke-width:0"/><circle cx="130.76" cy="66.82" r="12.46" style="fill:#f7c0ba;stroke-width:0"/><path d="M90.578 75.077c-.82 0-2.423-.09-3.952-.695-1.386-.549-3.178-.549-4.564 0-1.528.605-3.132.695-3.952.695-2.023 0-3.973-.668-5.217-1.788a1.107 1.107 0 1 1 1.48-1.645c.836.752 2.268 1.22 3.737 1.22.662 0 1.95-.07 3.137-.54 1.91-.755 4.283-.755 6.193 0 1.187.47 2.475.54 3.137.54 1.469 0 2.9-.467 3.737-1.22a1.107 1.107 0 1 1 1.48 1.645c-1.244 1.119-3.195 1.788-5.217 1.788Z" style="fill:#2f2725;stroke-width:0"/></svg>