<svg xmlns="http://www.w3.org/2000/svg" xml:space="preserve" width="500" height="654.35999" viewBox="0 0 500 654.36"><defs><clipPath id="a" clipPathUnits="userSpaceOnUse"><path d="M0 858.898h612.283V0H0Z"/></clipPath><clipPath id="b" clipPathUnits="userSpaceOnUse"><path d="M349.039 331.507c3.232-2.598 1.74-6.912 1.751-7.176-.002.043-1.663-.425-1.813-.488a4.707 4.707 0 0 1-1.641-1.104c-1.057-1.121-1.42-2.784-1.009-4.26a1.685 1.685 0 0 1 1.642-1.232c1.366.015 2.739.007 4.115-.002 2.719-.017 5.447-.034 8.145.133 2.159.134 3.144 1.806 3.251 3.848.088 1.662-.06 9.597.898 11.268z"/></clipPath><clipPath id="c" clipPathUnits="userSpaceOnUse"><path d="M0 858.898h612.283V0H0Z"/></clipPath></defs><g clip-path="url(#a)" transform="matrix(1.33333 0 0 -1.33333 0 1145.197)"><path d="M0 0c-.124 1.216-.592 4.116-2.277 4.795-1.386.559-2.406-1.814-2.448-1.916-1.879-4.451-5.213-7.012-9.642-7.404l6.345-8.553A11.47 11.47 0 0 1-1.897-8.61C-.34-6.343.333-3.286 0 0" style="fill:#f9b2c8;fill-opacity:1;fill-rule:nonzero;stroke:none" transform="matrix(2.18389 0 0 2.18389 124.744 487.861)"/><path d="M0 0a21.643 21.643 0 0 0 2.232 7.878c2.955 5.823 8.687 9.785 14.996 11.228 6.027 1.38 12.497.25 17.959-2.546 4.711-2.412 8.605-6.306 11.287-10.847 2.875-4.864 4.372-10.455 5.03-16.034.579-4.914.558-9.929-.353-14.801-.832-4.453-2.956-8.5-5.013-12.488-2.124-4.116-4.349-8.182-6.39-12.342-.113-.229-.292-.496-.299-.738.001.04 1.533-.373 1.672-.43a4.354 4.354 0 0 0 1.519-.998c.983-1.02 1.334-2.545.971-3.905a1.548 1.548 0 0 0-1.497-1.15c-3.741 0-7.536-.194-11.271-.005-.54.028-1.085.123-1.556.403-.623.37-1.046 1.028-1.224 1.731-.336 1.332.111 2.922.315 4.258.094.613.204 1.228.239 1.848.021.376.085.461-.2.598-.237.113-2.635-.116-3.389-.187-.174-.016-.357-.038-.502-.137-.167-.114-.255-.31-.339-.493-.664-1.446-1.467-2.637-2.441-4.08-.763-1.13-1.369-2.491-2.506-3.308-1.072-.77-2.236-.628-3.474-.628H7.607a2.878 2.878 0 0 0-2.863 2.587 5.871 5.871 0 0 0 1.178 4.142c1.041 1.358 2.568 1.919 4.08 2.594.141 1.22.286 2.438.498 3.648.94 5.357 1.072 10.287-.717 15.486-1.686 4.899-4.32 9.392-6.616 14.016l-.341.691C.688-9.626-.448-4.89 0 0" style="fill:#f9b2c8;fill-opacity:1;fill-rule:nonzero;stroke:none" transform="matrix(2.18389 0 0 2.18389 .211 493.823)"/><path d="M0 0a1.27 1.27 0 1 1 2.538-.002A1.27 1.27 0 0 1 0 0" style="fill:#f1457e;fill-opacity:1;fill-rule:nonzero;stroke:none" transform="matrix(2.18389 0 0 2.18389 28.243 480.679)"/><path d="M0 0c0-.864.576-1.584 1.421-1.656 1.041-.088 2.177.809 2.302 2.099.133 1.384-.966 2.166-2.152 1.762C.631 1.885 0 .904 0 0" style="fill:#f1457e;fill-opacity:1;fill-rule:nonzero;stroke:none" transform="matrix(2.18389 0 0 2.18389 29.09 424.305)"/><path d="M0 0c0-1.167 1.154-2.113 2.579-2.113 1.424 0 2.578.946 2.578 2.113S4.003 2.113 2.579 2.113C1.154 2.113 0 1.167 0 0" style="fill:#f1457e;fill-opacity:1;fill-rule:nonzero;stroke:none" transform="matrix(2.18389 0 0 2.18389 35.173 411.278)"/><path d="M0 0c.198-.344.699-.426 1.119-.184.419.242.598.717.399 1.06-.198.345-.699.426-1.119.185C-.02.819-.199.344 0 0" style="fill:#f1457e;fill-opacity:1;fill-rule:nonzero;stroke:none" transform="matrix(2.18389 0 0 2.18389 30.82 434.367)"/><path d="M0 0c.471 2.785.715 5.46.575 8.119 1.818-.263 3.222-1.971 3.222-4.042 0-2.254-1.662-4.081-3.712-4.081C.057-.004.029 0 0 0" style="fill:#f1457e;fill-opacity:1;fill-rule:nonzero;stroke:none" transform="matrix(2.18389 0 0 2.18389 23.272 398.073)"/><path d="M0 0c-1.419-.308-2.916-1.915-3.283-3.777-.423-2.142.818-3.5 2.664-2.787C.557-6.11 1.523-4.971 2-3.738c.092.783.167 1.568.218 2.355C1.939-.334 1.081.235 0 0" style="fill:#f1457e;fill-opacity:1;fill-rule:nonzero;stroke:none" transform="matrix(2.18389 0 0 2.18389 108.473 453.352)"/><path d="M0 0c-.498.207-.945-.043-1.055-.571-.119-.567.174-1.34.724-1.729.382-.27.763-.273 1.017-.064a51.986 51.986 0 0 1-.04 1.809C.47-.304.245-.102 0 0" style="fill:#f1457e;fill-opacity:1;fill-rule:nonzero;stroke:none" transform="matrix(2.18389 0 0 2.18389 112.028 462.851)"/><path d="M0 0c2.82-.612 5.816.035 8.049 1.759.571.412 1.078.904 1.58 1.396.465.498.977 1.107 1.662 1.482.336.19.752.35 1.22.276.233-.031.445-.151.625-.29.154-.144.297-.296.407-.471.443-.7.534-1.495.54-2.237-.027-1.501-.404-2.933-.934-4.299-.545-1.359-1.295-2.659-2.328-3.715-2.043-2.143-5.054-3.227-7.924-2.985 2.868.024 5.702 1.221 7.564 3.318 1.84 2.097 2.906 4.922 2.986 7.683.008.681-.084 1.378-.413 1.904-.17.266-.387.481-.627.509-.248.046-.554-.04-.837-.199-.591-.317-1.033-.819-1.549-1.362-.524-.511-1.074-1.002-1.688-1.407C7.128.527 5.745-.062 4.303-.304A9.914 9.914 0 0 0 0 0" style="fill:#e96991;fill-opacity:1;fill-rule:nonzero;stroke:none" transform="matrix(2.18389 0 0 2.18389 47.87 447.223)"/><path d="M0 0c-.579.552-1.669.29-2.36-.098-.598-.336-1.539-1.055-1.293-1.875.191-.635 1.09-.639 1.618-.581.792.088 1.635.448 2.085 1.134C.325-1.002.391-.373 0 0" style="fill:#231f20;fill-opacity:1;fill-rule:nonzero;stroke:none" transform="matrix(2.18389 0 0 2.18389 63.691 507.836)"/><path d="M0 0a4.106 4.106 0 1 1 8.211 0A4.106 4.106 0 0 1 0 0" style="fill:#fff;fill-opacity:1;fill-rule:nonzero;stroke:none" transform="matrix(2.18389 0 0 2.18389 25.258 498.559)"/><path d="M0 0a3.929 3.929 0 0 1-3.925-3.924A3.93 3.93 0 0 1 0-7.849a3.929 3.929 0 0 1 3.924 3.925A3.928 3.928 0 0 1 0 0m0-8.212a4.293 4.293 0 0 0-4.288 4.288A4.293 4.293 0 0 0 0 .363a4.292 4.292 0 0 0 4.287-4.287A4.292 4.292 0 0 0 0-8.212" style="fill:#231f20;fill-opacity:1;fill-rule:nonzero;stroke:none" transform="matrix(2.18389 0 0 2.18389 34.226 507.129)"/><path d="M0 0a3.263 3.263 0 1 1 6.527 0A3.263 3.263 0 0 1 0 0" style="fill:#fff;fill-opacity:1;fill-rule:nonzero;stroke:none" transform="matrix(2.18389 0 0 2.18389 57.835 520.333)"/><path d="M0 0a3.086 3.086 0 0 1-3.083-3.083A3.085 3.085 0 0 1 0-6.164a3.085 3.085 0 0 1 3.082 3.081C3.082-1.383 1.699 0 0 0m0-6.528a3.45 3.45 0 0 0-3.446 3.445A3.45 3.45 0 0 0 0 .363a3.45 3.45 0 0 0 3.445-3.446A3.45 3.45 0 0 0 0-6.528" style="fill:#231f20;fill-opacity:1;fill-rule:nonzero;stroke:none" transform="matrix(2.18389 0 0 2.18389 64.963 527.066)"/><path d="M0 0a.153.153 0 0 0-.07.29l2.971 1.537a.153.153 0 1 0 .141-.272L.07.017A.145.145 0 0 0 0 0" style="fill:#231f20;fill-opacity:1;fill-rule:nonzero;stroke:none" transform="matrix(2.18389 0 0 2.18389 42.175 485.898)"/><path d="M0 0a.153.153 0 0 0-.12.249L1.958 2.87a.153.153 0 1 0 .24-.19L.12.058A.153.153 0 0 0 0 0" style="fill:#231f20;fill-opacity:1;fill-rule:nonzero;stroke:none" transform="matrix(2.18389 0 0 2.18389 46.059 481.389)"/><path d="M0 0a.152.152 0 0 0-.107.043A.154.154 0 0 0-.11.26l2.331 2.4a.153.153 0 0 0 .217.004.153.153 0 0 0 .002-.217L.11.047A.153.153 0 0 0 0 0" style="fill:#231f20;fill-opacity:1;fill-rule:nonzero;stroke:none" transform="matrix(2.18389 0 0 2.18389 69.652 506.806)"/><path d="M0 0a.154.154 0 0 0-.057.296l3.111 1.232a.153.153 0 0 0 .113-.285L.057.011A.144.144 0 0 0 0 0" style="fill:#231f20;fill-opacity:1;fill-rule:nonzero;stroke:none" transform="matrix(2.18389 0 0 2.18389 71.145 504.335)"/><path d="M0 0a.35.35 0 0 0 .495.026C1.34-.733 2.94-1.325 4.156-.999c.664.178 1.112.608 1.33 1.279.222.681.12 1.484-.259 2.044A37.793 37.793 0 0 1 3.616 4.53a.348.348 0 0 0 .059.486c.15.12.371.097.492-.053.187-.236.837-1.067 1.627-2.229l.042-.06c.323-.438.995-.799 1.454-.657.103.033.241.093.308.251.133.333-.026.963-.423 1.692l-.11.198a.351.351 0 0 0 .612.342l.114-.207c.41-.752.941-2.026.148-2.726-.265-.235-.574-.288-.915-.277-.094.003-.19.014-.295.035l-.424.085-.007-.433a3.105 3.105 0 0 0-.147-.912C5.85-.859 5.114-1.543 4.154-1.72c-1.42-.262-3.061.266-4.127 1.225A.352.352 0 0 0 0 0" style="fill:#231f20;fill-opacity:1;fill-rule:nonzero;stroke:none" transform="matrix(2.18389 0 0 2.18389 52.126 493.396)"/><path d="M0 0c.117-.008.228-.034.339-.057a.612.612 0 0 1-.312-.486.623.623 0 0 1 1.243-.081c.003.062-.011.119-.024.176a2.436 2.436 0 0 0 1.037-2.153A2.447 2.447 0 1 0 0 0" style="fill:#231f20;fill-opacity:1;fill-rule:nonzero;stroke:none" transform="matrix(2.18389 0 0 2.18389 65.907 526.917)"/><path d="M0 0a.623.623 0 0 0-.581.661.61.61 0 0 0 .311.486C.064 1.078.371.945.638.756.65.699.665.642.661.58A.622.622 0 0 0 0 0" style="fill:#fff;fill-opacity:1;fill-rule:nonzero;stroke:none" transform="matrix(2.18389 0 0 2.18389 67.236 524.288)"/><path d="M0 0c.147-.01.286-.042.427-.071a.768.768 0 0 1-.392-.612.783.783 0 0 1 1.563-.102c.005.078-.015.15-.031.222a3.066 3.066 0 0 0 1.305-2.709A3.078 3.078 0 1 0 0 0" style="fill:#231f20;fill-opacity:1;fill-rule:nonzero;stroke:none" transform="matrix(2.18389 0 0 2.18389 35.888 506.417)"/><path d="M0 0a.781.781 0 0 0-.73.831.766.766 0 0 0 .391.612A3.04 3.04 0 0 0 .802.952C.818.879.837.807.832.73A.783.783 0 0 0 0 0" style="fill:#fff;fill-opacity:1;fill-rule:nonzero;stroke:none" transform="matrix(2.18389 0 0 2.18389 37.56 503.109)"/><path d="M0 0s.219 9.93 10.547 9.095c10.387-.839 8.896-10.598 8.896-10.598S9.758-3.297 0 0" style="fill:#f1457e;fill-opacity:1;fill-rule:nonzero;stroke:none" transform="matrix(2.18389 0 0 2.18389 32.592 534.21)"/><path d="M0 0c1.472.595 3.08.58 4.64.529l.497-.022c-.85-2.011-.89-3.822-.89-3.822L.242-2.114c-.482.171-.814.304-1.002.718C-1.062-.728-.537-.217 0 0" style="fill:#ed114e;fill-opacity:1;fill-rule:nonzero;stroke:none" transform="matrix(2.18389 0 0 2.18389 23.317 541.449)"/><path d="M0 0s-4.724-.406-8.38.125l-.073-1.916s3.307-.465 8.453-.05z" style="fill:#fff;fill-opacity:1;fill-rule:nonzero;stroke:none" transform="matrix(2.18389 0 0 2.18389 69.446 534.255)"/><path d="M0 0a12.034 12.034 0 0 0-.313 2.512C-.375 6.037.583 9.6 2.558 12.534a13.716 13.716 0 0 0 2.947 3.172c.052.04.392.242.393.292l.106 16.881s-2.929-1.704-3.322-1.923c-6.291-3.52-11.359-10.126-13.749-16.988C-16.031-.28-9.78-14.237 1.419-23.685c.565-.477 1.139-.953 1.745-1.377L4.766-7.723s-.721.694-.835.812C2.045-4.966.606-2.607 0 0" style="fill:#127bca;fill-opacity:1;fill-rule:nonzero;stroke:none" transform="matrix(2.18389 0 0 2.18389 136.549 626.789)"/><path d="M0 0c.189.815.298 1.654.313 2.512C.375 6.037-.583 9.6-2.558 12.534a13.716 13.716 0 0 1-2.947 3.172c-.052.04-.392.242-.393.292l-.106 16.881s2.929-1.704 3.322-1.923c6.291-3.52 11.359-10.126 13.749-16.988C16.031-.28 9.78-14.237-1.419-23.685c-.565-.477-1.139-.953-1.745-1.377L-4.766-7.723s.721.694.835.812C-2.045-4.966-.606-2.607 0 0" style="fill:#127bca;fill-opacity:1;fill-rule:nonzero;stroke:none" transform="matrix(2.18389 0 0 2.18389 265.237 626.789)"/><path d="m0 0-38.524-5.756c0-.26 9.711-8.43 9.711-8.43l-9.711-137.736c0-3.152 22.611-7.297 38.524-7.297 15.914 0 38.68 4.145 38.68 7.297L28.814-14.186s9.712 7.865 9.712 8.125z" style="fill:#e5ebf8;fill-opacity:1;fill-rule:nonzero;stroke:none" transform="matrix(2.18389 0 0 2.18389 200.888 722.59)"/><path d="M0 0c.187.343.068.827.068.827l-4.592 37.58h-33.06l-4.1-37.58s-.168-.84.248-1.037c1.482-1.32 10.139-3.582 20.628-3.582 4.668 0 9.364.41 13.94 1.346 1.215.248 2.424.535 3.611.895.618.187 1.238.375 1.831.631C-.975-.724-.249-.455 0 0" style="fill:#e5ebf8;fill-opacity:1;fill-rule:nonzero;stroke:none" transform="matrix(2.18389 0 0 2.18389 246.947 731.794)"/><path d="M0 0c0-1.816-1.546-3.289-3.452-3.289-1.908 0-3.453 1.473-3.453 3.289 0 1.815 1.545 3.289 3.453 3.289C-1.546 3.289 0 1.815 0 0" style="fill:#5cb9eb;fill-opacity:1;fill-rule:nonzero;stroke:none" transform="matrix(2.18389 0 0 2.18389 188.512 851.715)"/><path d="M0 0c0-1.816-1.546-3.289-3.453-3.289-1.907 0-3.453 1.473-3.453 3.289 0 1.815 1.546 3.289 3.453 3.289C-1.546 3.289 0 1.815 0 0" style="fill:#5cb9eb;fill-opacity:1;fill-rule:nonzero;stroke:none" transform="matrix(2.18389 0 0 2.18389 225.713 851.715)"/><path d="M0 0h-10.128a.673.673 0 0 0 0 1.347H0A.673.673 0 0 0 0 0" style="fill:#127bca;fill-opacity:1;fill-rule:nonzero;stroke:none" transform="matrix(2.18389 0 0 2.18389 210.63 850.244)"/><path d="M0 0a.673.673 0 0 0-.673.674v8.387a.673.673 0 1 0 1.346 0V.674A.673.673 0 0 0 0 0" style="fill:#127bca;fill-opacity:1;fill-rule:nonzero;stroke:none" transform="matrix(2.18389 0 0 2.18389 199.572 831.926)"/><path d="M0 0c-.076 0-.8 2.145-.862 2.289a27.72 27.72 0 0 1-2.855 5.089c-1.425 1.998-3.16 3.801-5.223 5.146-2.983 1.944-7.684 2.699-11.206 2.701-3.772.002-6.883-.1-10.335-1.843a16.329 16.329 0 0 1-3.072-2.023c-1.657-1.375-3.059-3.041-4.235-4.84a28.256 28.256 0 0 1-2.361-4.452A20.383 20.383 0 0 1-40.917 0h-2.975v-2.599H2.975V0Z" style="fill:#5cb9eb;fill-opacity:1;fill-rule:nonzero;stroke:none" transform="matrix(2.18389 0 0 2.18389 245.507 803.721)"/><path d="M149.654 798.046h102.352v5.676H149.654Z" style="fill:#127bca;fill-opacity:1;fill-rule:nonzero;stroke:none;stroke-width:2.18389"/><path d="M191.764 637.4h-7.148v7.147h7.148z" style="fill:#38a7e4;fill-opacity:1;fill-rule:nonzero;stroke:none;stroke-width:2.18389"/><path d="M185.612 638.397h5.154v5.154h-5.154zm7.15-1.994h-9.142v9.14h9.142z" style="fill:#e5ebf8;fill-opacity:1;fill-rule:nonzero;stroke:none;stroke-width:2.18389"/><path d="M198.914 637.4h-7.148v7.147h7.148z" style="fill:#38a7e4;fill-opacity:1;fill-rule:nonzero;stroke:none;stroke-width:2.18389"/><path d="M192.76 638.397h5.156v5.154h-5.156zm7.15-1.994h-9.144v9.14h9.144z" style="fill:#e5ebf8;fill-opacity:1;fill-rule:nonzero;stroke:none;stroke-width:2.18389"/><path d="M177.468 637.4h-7.148v7.147h7.148z" style="fill:#38a7e4;fill-opacity:1;fill-rule:nonzero;stroke:none;stroke-width:2.18389"/><path d="M171.316 638.397h5.154v5.154h-5.154zm7.15-1.994h-9.142v9.14h9.142z" style="fill:#e5ebf8;fill-opacity:1;fill-rule:nonzero;stroke:none;stroke-width:2.18389"/><path d="M184.616 637.4h-7.148v7.147h7.148z" style="fill:#38a7e4;fill-opacity:1;fill-rule:nonzero;stroke:none;stroke-width:2.18389"/><path d="M178.466 638.397h5.154v5.154h-5.154Zm7.148-1.994h-9.142v9.14h9.142z" style="fill:#e5ebf8;fill-opacity:1;fill-rule:nonzero;stroke:none;stroke-width:2.18389"/><path d="M191.764 630.254h-7.148v7.147h7.148z" style="fill:#38a7e4;fill-opacity:1;fill-rule:nonzero;stroke:none;stroke-width:2.18389"/><path d="M185.612 631.25h5.154v5.153h-5.154zm7.15-1.995h-9.142v9.14h9.142z" style="fill:#e5ebf8;fill-opacity:1;fill-rule:nonzero;stroke:none;stroke-width:2.18389"/><path d="M184.616 630.254h-7.148v7.147h7.148z" style="fill:#38a7e4;fill-opacity:1;fill-rule:nonzero;stroke:none;stroke-width:2.18389"/><path d="M178.466 631.25h5.154v5.153h-5.154Zm7.148-1.995h-9.142v9.14h9.142z" style="fill:#e5ebf8;fill-opacity:1;fill-rule:nonzero;stroke:none;stroke-width:2.18389"/><path d="M191.764 644.547h-7.148v7.148h7.148z" style="fill:#38a7e4;fill-opacity:1;fill-rule:nonzero;stroke:none;stroke-width:2.18389"/><path d="M185.612 645.543h5.154v5.154h-5.154zm7.15-1.992h-9.142v9.14h9.142z" style="fill:#e5ebf8;fill-opacity:1;fill-rule:nonzero;stroke:none;stroke-width:2.18389"/><path d="M191.764 651.695h-7.148v7.15h7.148z" style="fill:#38a7e4;fill-opacity:1;fill-rule:nonzero;stroke:none;stroke-width:2.18389"/><path d="M185.612 652.69h5.154v5.157h-5.154zm7.15-1.99h-9.142v9.143h9.142z" style="fill:#e5ebf8;fill-opacity:1;fill-rule:nonzero;stroke:none;stroke-width:2.18389"/><path d="M184.616 644.547h-7.148v7.148h7.148z" style="fill:#38a7e4;fill-opacity:1;fill-rule:nonzero;stroke:none;stroke-width:2.18389"/><path d="M178.466 645.543h5.154v5.154h-5.154Zm7.148-1.992h-9.142v9.14h9.142z" style="fill:#e5ebf8;fill-opacity:1;fill-rule:nonzero;stroke:none;stroke-width:2.18389"/><path d="M206.06 637.4h-7.146v7.147h7.145z" style="fill:#38a7e4;fill-opacity:1;fill-rule:nonzero;stroke:none;stroke-width:2.18389"/><path d="M199.91 638.397h5.151v5.154h-5.151zm7.147-1.994h-9.141v9.14h9.141z" style="fill:#e5ebf8;fill-opacity:1;fill-rule:nonzero;stroke:none;stroke-width:2.18389"/><path d="M213.207 637.4h-7.148v7.147h7.148z" style="fill:#38a7e4;fill-opacity:1;fill-rule:nonzero;stroke:none;stroke-width:2.18389"/><path d="M207.057 638.397h5.154v5.154h-5.154zm7.148-1.994h-9.141v9.14h9.141z" style="fill:#e5ebf8;fill-opacity:1;fill-rule:nonzero;stroke:none;stroke-width:2.18389"/><path d="M198.914 630.254h-7.148v7.147h7.148z" style="fill:#38a7e4;fill-opacity:1;fill-rule:nonzero;stroke:none;stroke-width:2.18389"/><path d="M192.76 631.25h5.156v5.153h-5.156zm7.15-1.995h-9.144v9.14h9.144z" style="fill:#e5ebf8;fill-opacity:1;fill-rule:nonzero;stroke:none;stroke-width:2.18389"/><path d="M191.764 623.106h-7.148v7.148h7.148z" style="fill:#38a7e4;fill-opacity:1;fill-rule:nonzero;stroke:none;stroke-width:2.18389"/><path d="M185.612 624.102h5.154v5.153h-5.154zm7.15-1.994h-9.142v9.141h9.142z" style="fill:#e5ebf8;fill-opacity:1;fill-rule:nonzero;stroke:none;stroke-width:2.18389"/><path d="M198.914 623.106h-7.148v7.148h7.148z" style="fill:#38a7e4;fill-opacity:1;fill-rule:nonzero;stroke:none;stroke-width:2.18389"/><path d="M192.76 624.102h5.156v5.153h-5.156zm7.15-1.994h-9.144v9.141h9.144z" style="fill:#e5ebf8;fill-opacity:1;fill-rule:nonzero;stroke:none;stroke-width:2.18389"/><path d="M206.06 630.254h-7.146v7.147h7.145z" style="fill:#38a7e4;fill-opacity:1;fill-rule:nonzero;stroke:none;stroke-width:2.18389"/><path d="M199.91 631.25h5.151v5.153h-5.151zm7.147-1.995h-9.141v9.14h9.141z" style="fill:#e5ebf8;fill-opacity:1;fill-rule:nonzero;stroke:none;stroke-width:2.18389"/><path d="M206.06 623.106h-7.146v7.148h7.145z" style="fill:#38a7e4;fill-opacity:1;fill-rule:nonzero;stroke:none;stroke-width:2.18389"/><path d="M199.91 624.102h5.151v5.153h-5.151zm7.147-1.994h-9.141v9.141h9.141z" style="fill:#e5ebf8;fill-opacity:1;fill-rule:nonzero;stroke:none;stroke-width:2.18389"/><path d="M213.207 630.254h-7.148v7.147h7.148z" style="fill:#38a7e4;fill-opacity:1;fill-rule:nonzero;stroke:none;stroke-width:2.18389"/><path d="M207.057 631.25h5.154v5.153h-5.154zm7.148-1.995h-9.141v9.14h9.141z" style="fill:#e5ebf8;fill-opacity:1;fill-rule:nonzero;stroke:none;stroke-width:2.18389"/><path d="M213.207 623.106h-7.148v7.148h7.148z" style="fill:#38a7e4;fill-opacity:1;fill-rule:nonzero;stroke:none;stroke-width:2.18389"/><path d="M207.057 624.102h5.154v5.153h-5.154zm7.148-1.994h-9.141v9.141h9.141z" style="fill:#e5ebf8;fill-opacity:1;fill-rule:nonzero;stroke:none;stroke-width:2.18389"/><path d="M198.914 615.958h-7.148v7.148h7.148z" style="fill:#38a7e4;fill-opacity:1;fill-rule:nonzero;stroke:none;stroke-width:2.18389"/><path d="M192.76 616.954h5.156v5.154h-5.156zm7.15-1.992h-9.144v9.14h9.144z" style="fill:#e5ebf8;fill-opacity:1;fill-rule:nonzero;stroke:none;stroke-width:2.18389"/><path d="M206.06 615.958h-7.146v7.148h7.145z" style="fill:#38a7e4;fill-opacity:1;fill-rule:nonzero;stroke:none;stroke-width:2.18389"/><path d="M199.91 616.954h5.151v5.154h-5.151zm7.147-1.992h-9.141v9.14h9.141z" style="fill:#e5ebf8;fill-opacity:1;fill-rule:nonzero;stroke:none;stroke-width:2.18389"/><path d="M206.06 608.808h-7.146v7.15h7.145z" style="fill:#38a7e4;fill-opacity:1;fill-rule:nonzero;stroke:none;stroke-width:2.18389"/><path d="M199.91 609.804h5.151v5.158h-5.151zm7.147-1.994h-9.141v9.144h9.141z" style="fill:#e5ebf8;fill-opacity:1;fill-rule:nonzero;stroke:none;stroke-width:2.18389"/><path d="M213.207 615.958h-7.148v7.148h7.148z" style="fill:#38a7e4;fill-opacity:1;fill-rule:nonzero;stroke:none;stroke-width:2.18389"/><path d="M207.057 616.954h5.154v5.154h-5.154zm7.148-1.992h-9.141v9.14h9.141z" style="fill:#e5ebf8;fill-opacity:1;fill-rule:nonzero;stroke:none;stroke-width:2.18389"/><path d="M220.357 630.254h-7.148v7.147h7.148z" style="fill:#38a7e4;fill-opacity:1;fill-rule:nonzero;stroke:none;stroke-width:2.18389"/><path d="M214.203 631.25h5.156v5.153h-5.156zm7.15-1.995h-9.144v9.14h9.144z" style="fill:#e5ebf8;fill-opacity:1;fill-rule:nonzero;stroke:none;stroke-width:2.18389"/><path d="M220.357 623.106h-7.148v7.148h7.148z" style="fill:#38a7e4;fill-opacity:1;fill-rule:nonzero;stroke:none;stroke-width:2.18389"/><path d="M214.203 624.102h5.156v5.153h-5.156zm7.15-1.994h-9.144v9.141h9.144z" style="fill:#e5ebf8;fill-opacity:1;fill-rule:nonzero;stroke:none;stroke-width:2.18389"/><path d="M227.505 630.254h-7.148v7.147h7.148z" style="fill:#38a7e4;fill-opacity:1;fill-rule:nonzero;stroke:none;stroke-width:2.18389"/><path d="M221.353 631.25h5.154v5.153h-5.154zm7.148-1.995h-9.142v9.14h9.142z" style="fill:#e5ebf8;fill-opacity:1;fill-rule:nonzero;stroke:none;stroke-width:2.18389"/><path d="M220.357 637.4h-7.148v7.147h7.148z" style="fill:#38a7e4;fill-opacity:1;fill-rule:nonzero;stroke:none;stroke-width:2.18389"/><path d="M214.203 638.397h5.156v5.154h-5.156zm7.15-1.994h-9.144v9.14h9.144z" style="fill:#e5ebf8;fill-opacity:1;fill-rule:nonzero;stroke:none;stroke-width:2.18389"/><path d="M227.505 637.4h-7.148v7.147h7.148z" style="fill:#38a7e4;fill-opacity:1;fill-rule:nonzero;stroke:none;stroke-width:2.18389"/><path d="M221.353 638.397h5.154v5.154h-5.154zm7.148-1.994h-9.142v9.14h9.142z" style="fill:#e5ebf8;fill-opacity:1;fill-rule:nonzero;stroke:none;stroke-width:2.18389"/><path d="M220.357 644.547h-7.148v7.148h7.148z" style="fill:#38a7e4;fill-opacity:1;fill-rule:nonzero;stroke:none;stroke-width:2.18389"/><path d="M214.203 645.543h5.156v5.154h-5.156zm7.15-1.992h-9.144v9.14h9.144z" style="fill:#e5ebf8;fill-opacity:1;fill-rule:nonzero;stroke:none;stroke-width:2.18389"/><path d="M220.357 651.695h-7.148v7.15h7.148z" style="fill:#38a7e4;fill-opacity:1;fill-rule:nonzero;stroke:none;stroke-width:2.18389"/><path d="M214.203 652.69h5.156v5.157h-5.156zm7.15-1.99h-9.144v9.143h9.144z" style="fill:#e5ebf8;fill-opacity:1;fill-rule:nonzero;stroke:none;stroke-width:2.18389"/><path d="M227.505 644.547h-7.148v7.148h7.148z" style="fill:#38a7e4;fill-opacity:1;fill-rule:nonzero;stroke:none;stroke-width:2.18389"/><path d="M221.353 645.543h5.154v5.154h-5.154zm7.148-1.992h-9.142v9.14h9.142z" style="fill:#e5ebf8;fill-opacity:1;fill-rule:nonzero;stroke:none;stroke-width:2.18389"/><path d="M234.65 637.4h-7.147v7.147h7.148z" style="fill:#38a7e4;fill-opacity:1;fill-rule:nonzero;stroke:none;stroke-width:2.18389"/><path d="M228.501 638.397h5.154v5.154h-5.154zm7.148-1.994h-9.142v9.14h9.142z" style="fill:#e5ebf8;fill-opacity:1;fill-rule:nonzero;stroke:none;stroke-width:2.18389"/><path d="M198.914 644.547h-7.148v7.148h7.148z" style="fill:#38a7e4;fill-opacity:1;fill-rule:nonzero;stroke:none;stroke-width:2.18389"/><path d="M192.76 645.543h5.156v5.154h-5.156zm7.15-1.992h-9.144v9.14h9.144z" style="fill:#e5ebf8;fill-opacity:1;fill-rule:nonzero;stroke:none;stroke-width:2.18389"/><path d="M213.207 644.547h-7.148v7.148h7.148z" style="fill:#38a7e4;fill-opacity:1;fill-rule:nonzero;stroke:none;stroke-width:2.18389"/><path d="M207.057 645.543h5.154v5.154h-5.154zm7.148-1.992h-9.141v9.14h9.141z" style="fill:#e5ebf8;fill-opacity:1;fill-rule:nonzero;stroke:none;stroke-width:2.18389"/><path d="M0 0h77.357v-10.715l-9.865-8.019H9.864L0-10.715Z" style="fill:#5cb9eb;fill-opacity:1;fill-rule:nonzero;stroke:none" transform="matrix(2.18389 0 0 2.18389 116.42 732.522)"/><path d="M0 0c-4.49 0-5.954 2.629-6.014 2.741a.436.436 0 0 0 .765.413C-5.193 3.053-3.934.869 0 .869c3.951 0 4.985 2.231 4.995 2.254a.435.435 0 0 0 .795-.352C5.74 2.657 4.511 0 0 0" style="fill:#231f20;fill-opacity:1;fill-rule:nonzero;stroke:none" transform="matrix(2.18389 0 0 2.18389 201.14 746.44)"/><path d="M0 0a4.982 4.982 0 1 0-9.964 0A4.982 4.982 0 0 0 0 0" style="fill:#8e9294;fill-opacity:1;fill-rule:nonzero;stroke:none" transform="matrix(2.18389 0 0 2.18389 229.699 770.208)"/><path d="M0 0a3.787 3.787 0 1 0-7.574 0A3.787 3.787 0 0 0 0 0" style="fill:#fff;fill-opacity:1;fill-rule:nonzero;stroke:none" transform="matrix(2.18389 0 0 2.18389 227.088 770.208)"/><path d="M0 0a3.21 3.21 0 1 0-6.418 0A3.21 3.21 0 0 0 0 0" style="fill:#412c91;fill-opacity:1;fill-rule:nonzero;stroke:none" transform="matrix(2.18389 0 0 2.18389 225.826 770.208)"/><path d="M0 0a2.133 2.133 0 1 0-4.267-.001A2.133 2.133 0 0 0 0 0" style="fill:#231f20;fill-opacity:1;fill-rule:nonzero;stroke:none" transform="matrix(2.18389 0 0 2.18389 223.479 770.208)"/><path d="M0 0a1.22 1.22 0 1 0-2.44 0A1.22 1.22 0 0 0 0 0" style="fill:#fff;fill-opacity:1;fill-rule:nonzero;stroke:none" transform="matrix(2.18389 0 0 2.18389 225.594 774.013)"/><path d="M0 0a4.982 4.982 0 1 0-9.964 0A4.982 4.982 0 0 0 0 0" style="fill:#8e9294;fill-opacity:1;fill-rule:nonzero;stroke:none" transform="matrix(2.18389 0 0 2.18389 195.08 770.208)"/><path d="M0 0a3.787 3.787 0 1 0-7.574 0A3.787 3.787 0 0 0 0 0" style="fill:#fff;fill-opacity:1;fill-rule:nonzero;stroke:none" transform="matrix(2.18389 0 0 2.18389 192.47 770.208)"/><path d="M0 0a3.21 3.21 0 1 0-6.419 0A3.21 3.21 0 0 0 0 0" style="fill:#412c91;fill-opacity:1;fill-rule:nonzero;stroke:none" transform="matrix(2.18389 0 0 2.18389 191.208 770.208)"/><path d="M0 0a2.134 2.134 0 1 0-4.268 0A2.134 2.134 0 0 0 0 0" style="fill:#231f20;fill-opacity:1;fill-rule:nonzero;stroke:none" transform="matrix(2.18389 0 0 2.18389 188.86 770.208)"/><path d="M0 0a1.22 1.22 0 1 0-2.44 0A1.22 1.22 0 0 0 0 0" style="fill:#fff;fill-opacity:1;fill-rule:nonzero;stroke:none" transform="matrix(2.18389 0 0 2.18389 190.976 774.013)"/><path d="M285.36 709.122H116.423v23.4H285.36z" style="fill:#b3dbea;fill-opacity:1;fill-rule:nonzero;stroke:none;stroke-width:2.18389"/><path d="M0 0c3.231-2.597 1.741-6.912 1.751-7.175C1.75-7.132.088-7.6-.062-7.663c-.615-.256-1.183-.617-1.641-1.104-1.057-1.122-1.42-2.784-1.009-4.26A1.687 1.687 0 0 1-1.07-14.26c4.07.046 8.2-.119 12.26.131 2.159.135 3.144 1.807 3.251 3.848.087 1.663-.06 9.597.897 11.269z" style="fill:#68bbd9;fill-opacity:1;fill-rule:nonzero;stroke:none" transform="matrix(2.18389 0 0 2.18389 281.183 399.94)"/></g><g clip-path="url(#b)" transform="matrix(2.91185 0 0 -2.91185 -641.44 1577.243)"><path d="M0 0c.038.723.271 6.656.271 6.656s-5.111.246-7.665 1.276c2.096-.846 4.45-2.559 5.271-4.772.74-1.992.808-5.599-1.126-7.005C-1.092-3.711-.107-2.04 0 0" style="fill:#42718a;fill-opacity:1;fill-rule:nonzero;stroke:none" transform="translate(363.503 321.297)"/></g><g clip-path="url(#c)" transform="matrix(2.91185 0 0 -2.91185 -641.44 1577.243)"><path d="M0 0a29.28 29.28 0 0 1-.178.496c-.979 2.638-2.406 5.105-4.249 7.233-4.649 5.368-11.74 8.044-18.779 7.909-6.725-.128-13.257-3.021-18.287-7.408-4.338-3.784-7.425-8.918-9.063-14.416-1.755-5.89-1.865-12.184-1.093-18.247.679-5.338 2.02-10.626 4.262-15.529 3.59-7.853 9.049-15.989 17.913-18.249 2.136-.544 4.419-.758 6.722-.658.774-2.877.789-6.784 1.049-7.816.194-.765.653-1.48 1.331-1.883.513-.305 1.105-.408 1.692-.438 4.063-.206 8.191.005 12.261.005.764 0 1.431.513 1.628 1.251.395 1.48.013 3.138-1.056 4.248A4.732 4.732 0 0 1-7.5-62.417c-.15.062-1.817.512-1.818.468.007.264.119 1.017.189 1.286 1.084 4.183 3.022 7.975 4.795 11.899.446.99.917 1.981 1.25 3.016 1.19 3.71-.025 9.09.306 12.866.493 5.614 2.091 11.049 3.299 16.533.061.273.12.546.178.819C1.804-10.342 1.758-5.044 0 0" style="fill:#68bbd9;fill-opacity:1;fill-rule:nonzero;stroke:none" transform="translate(385.522 386.331)"/><path d="M0 0c.466.735 1.686.745 2.517.517.719-.197 1.901-.709 1.858-1.639-.035-.721-.982-.961-1.556-1.039-.86-.115-1.843.043-2.499.649C-.08-1.143-.314-.496 0 0" style="fill:#231f20;fill-opacity:1;fill-rule:nonzero;stroke:none" transform="translate(353.155 385.463)"/><path d="M0 0a4.467 4.467 0 1 1 8.669 2.159A4.467 4.467 0 0 1 0 0" style="fill:#fff;fill-opacity:1;fill-rule:nonzero;stroke:none" transform="translate(364.179 383.447)"/><path d="M0 0a4.272 4.272 0 0 1 5.174-3.111 4.244 4.244 0 0 1 2.627 1.943c.588.977.759 2.125.483 3.231a4.274 4.274 0 0 1-5.173 3.111A4.274 4.274 0 0 1 0 0m4.143-3.633A4.674 4.674 0 0 0-.384-.095a4.67 4.67 0 0 0 3.4 5.652A4.666 4.666 0 0 0 8.14-1.372a4.635 4.635 0 0 0-2.87-2.122 4.654 4.654 0 0 0-1.127-.139" style="fill:#231f20;fill-opacity:1;fill-rule:nonzero;stroke:none" transform="translate(364.37 383.494)"/><path d="M0 0a3.385 3.385 0 0 1-2.268 2.41.869.869 0 0 0 .097-.227.863.863 0 1 0-1.481.366 3.494 3.494 0 0 1-.459-.078A3.39 3.39 0 1 1 0 0" style="fill:#231f20;fill-opacity:1;fill-rule:nonzero;stroke:none" transform="translate(371.414 386.095)"/><path d="M0 0a.863.863 0 0 1 1.674.417.834.834 0 0 1-.096.227C1.14.783.67.834.193.783A.861.861 0 0 1 0 0" style="fill:#fff;fill-opacity:1;fill-rule:nonzero;stroke:none" transform="translate(367.568 387.861)"/><path d="M0 0a3.55 3.55 0 1 1 6.889 1.717A3.55 3.55 0 0 1 0 0" style="fill:#fff;fill-opacity:1;fill-rule:nonzero;stroke:none" transform="translate(347.59 390.492)"/><path d="M0 0a3.357 3.357 0 0 1 4.063-2.442A3.355 3.355 0 0 1 6.506 1.62a3.357 3.357 0 0 1-4.063 2.444A3.356 3.356 0 0 1 0 0m3.253-2.937A3.756 3.756 0 0 0-.384-.095a3.753 3.753 0 0 0 2.732 4.543A3.752 3.752 0 0 0 6.89 1.716a3.753 3.753 0 0 0-3.637-4.653" style="fill:#231f20;fill-opacity:1;fill-rule:nonzero;stroke:none" transform="translate(347.783 390.54)"/><path d="M0 0a2.694 2.694 0 0 1-1.803 1.917.731.731 0 0 0 .077-.181.686.686 0 1 0-1.177.291 2.757 2.757 0 0 1-.365-.062 2.695 2.695 0 1 1 1.303-5.232A2.697 2.697 0 0 1 0 0" style="fill:#231f20;fill-opacity:1;fill-rule:nonzero;stroke:none" transform="translate(353.652 392.577)"/><path d="M0 0a.685.685 0 1 1 1.254.512 2.668 2.668 0 0 1-1.1.11A.683.683 0 0 1 0 0" style="fill:#fff;fill-opacity:1;fill-rule:nonzero;stroke:none" transform="translate(350.595 393.982)"/><path d="M0 0a.135.135 0 0 0-.039.005l-3.54.841a.168.168 0 0 0-.124.201c.022.09.108.145.201.124L.039.329A.167.167 0 0 0 0 0" style="fill:#231f20;fill-opacity:1;fill-rule:nonzero;stroke:none" transform="translate(366.154 377.445)"/><path d="M0 0a.164.164 0 0 0-.102.035l-2.883 2.22a.167.167 0 0 0 .204.265L.102.299A.167.167 0 0 0 0 0" style="fill:#231f20;fill-opacity:1;fill-rule:nonzero;stroke:none" transform="translate(364.82 374.798)"/><path d="M0 0a.166.166 0 0 0-.088.025l-3.091 1.921a.167.167 0 0 0 .176.283L.088.309A.167.167 0 0 0 0 0" style="fill:#231f20;fill-opacity:1;fill-rule:nonzero;stroke:none" transform="translate(349.781 384.917)"/><path d="M0 0c-.007 0-.015 0-.022.002l-3.607.483a.166.166 0 0 0-.143.187.168.168 0 0 0 .187.143L.022.332A.167.167 0 0 0 .166.145.168.168 0 0 0 0 0" style="fill:#231f20;fill-opacity:1;fill-rule:nonzero;stroke:none" transform="translate(349.357 383.543)"/><path d="M0 0a3.61 3.61 0 0 0-.405.023c-.862.101-1.57.526-2.049 1.231-.273.401-.866 1.439-.468 2.403l1.2 2.918.589-.243-1.2-2.916c-.288-.698.237-1.557.405-1.804.378-.555.915-.877 1.597-.957 1-.117 2.243.329 3.094 1.108.285.26.52.568.769.893.09.119.181.237.274.353a.318.318 0 1 0 .497-.397c-.09-.113-.178-.228-.265-.342-.255-.334-.519-.679-.845-.977C2.308.484 1.094 0 0 0" style="fill:#231f20;fill-opacity:1;fill-rule:nonzero;stroke:none" transform="translate(356.428 377.065)"/><path d="M0 0a1.57 1.57 0 0 0-.312.03c-.56.11-.999.51-1.304 1.187-.549 1.218.27 2.898.305 2.968a.319.319 0 0 0 .571-.282c-.007-.015-.72-1.482-.296-2.424C-.82 1-.535.723-.188.654c.656-.128 1.454.468 1.708.709A.319.319 0 0 0 1.957.9C1.915.86.993 0 0 0" style="fill:#231f20;fill-opacity:1;fill-rule:nonzero;stroke:none" transform="translate(352.062 379.475)"/><path d="m0 0 .659-12.936c2.769-.952 5.962-1.458 8.77-.637.007.385.021.761.052 1.119.386 4.391 1.446 8.672 2.468 12.952C7.879-1.429 3.669-2.176 0 0" style="fill:#42718a;fill-opacity:1;fill-rule:nonzero;stroke:none" transform="translate(373.263 365.903)"/><path d="M0 0a1.382 1.382 0 1 1-2.681-.67A1.382 1.382 0 0 1 0 0" style="fill:#fff;fill-opacity:1;fill-rule:nonzero;stroke:none" transform="translate(373.556 376.604)"/><path d="M0 0c2.136-.267 3.09 1.492 2.08 3.642-.877 1.869-2.879 3.172-4.458 3.124-1.203-.037-1.959-.863-1.978-2.044.26-.817.546-1.626.849-2.428C-2.68 1.118-1.36.17 0 0" style="fill:#fff;fill-opacity:1;fill-rule:nonzero;stroke:none" transform="translate(340.447 346.975)"/><path d="M0 0c.479.555.584 1.448.31 2.016-.255.529-.793.675-1.264.325-.232-.171-.416-.444-.536-.756.134-.642.278-1.282.433-1.919C-.733-.488-.332-.385 0 0" style="fill:#fff;fill-opacity:1;fill-rule:nonzero;stroke:none" transform="translate(336.161 355.562)"/><path d="M0 0c-1.357.115-2.312-1-1.808-2.425.471-1.329 1.905-1.977 2.982-1.611.872.298 1.292 1.21 1.065 2.122C2.001-.96 1.077-.091 0 0" style="fill:#fff;fill-opacity:1;fill-rule:nonzero;stroke:none" transform="translate(377.694 351.17)"/><path d="M0 0c-1.503-.374-2.473-1.677-2.166-2.908.306-1.231 1.773-1.926 3.277-1.552 1.503.374 2.472 1.676 2.166 2.908C2.97-.321 1.503.374 0 0" style="fill:#fff;fill-opacity:1;fill-rule:nonzero;stroke:none" transform="translate(375.283 343.78)"/><path d="M0 0c4.592-2.724 9.637-2.565 14.589.456.113.069 2.771 1.667 3.73.151 1.165-1.844-.411-4.999-1.143-6.27-1.979-3.436-4.779-5.944-7.885-7.062a13.773 13.773 0 0 0-9.104-.059z" style="fill:#68bbd9;fill-opacity:1;fill-rule:nonzero;stroke:none" transform="translate(373.263 365.903)"/><path d="M0 0s.763 11.347-11.101 11.448C-23.032 11.551-22.327.269-22.327.269S-11.465-2.765 0 0" style="fill:#fdde34;fill-opacity:1;fill-rule:nonzero;stroke:none" transform="translate(374.402 399.245)"/><path d="M0 0c-1.618.829-3.454.975-5.237 1.076l-.57.026c.765-2.38.626-4.449.626-4.449l4.69.961c.567.146.959.263 1.216.716C1.138-.939.59-.302 0 0" style="fill:#f57b2e;fill-opacity:1;fill-rule:nonzero;stroke:none" transform="translate(379.584 402.592)"/><path d="M0 0s5.346-.945 9.57-.712l-.113-2.193s-3.819-.192-9.645.806z" style="fill:#fff;fill-opacity:1;fill-rule:nonzero;stroke:none" transform="translate(355.159 400.99)"/><path d="M0 0c-1.645-3.187-3.368-6.335-4.948-9.555-.087-.178-.226-.384-.231-.572.001.031 1.187-.289 1.294-.333a3.35 3.35 0 0 0 1.176-.772c.761-.79 1.033-1.971.752-3.024a1.198 1.198 0 0 0-1.158-.89c-2.898 0-5.836-.15-8.727-.004-.418.022-.84.095-1.204.312-.483.287-.81.796-.948 1.34-.26 1.032.086 2.263.244 3.297.073.475.158.95.185 1.43.017.292.066.358-.155.463L1.455 2.881C.985 1.912.492.953 0 0" style="fill:#fff;fill-opacity:1;fill-rule:nonzero;stroke:none" transform="translate(301.419 332.449)"/><path d="M0 0c-1.019-2.191-2.101-4.351-3.192-6.504l-1.629-3.234-.818-1.616-.408-.807c-.118-.26-.329-.58-.336-.748a.184.184 0 0 0-.357-.056l-.024.067c-.019.054.107.204.193.186.052 0 .025-.001.041-.002l.036-.005.054-.01.099-.021.19-.045.375-.094c.234-.066.521-.121.764-.241.49-.22.949-.548 1.286-.985a3.443 3.443 0 0 0 .565-3.133c-.2-.59-.859-.986-1.444-.942l-1.532-.03-3.071-.058c-1.025-.008-2.053-.022-3.082.027-.516.037-1.017.022-1.576.141a2.18 2.18 0 0 0-1.383.953c-.318.473-.43 1.047-.428 1.579 0 .536.091 1.053.194 1.558.101.506.226.996.302 1.5l.131.754c.023.125.044.253.057.381.031.134-.006.217-.133.273-.016.006-.022.024-.016.039a.03.03 0 0 0 .039.015l.002-.001c.058-.027.125-.053.17-.123.04-.074.03-.147.03-.211a5.476 5.476 0 0 0-.024-.382l-.066-.768c-.033-.515-.113-1.029-.19-1.53-.148-.989-.225-2.058.322-2.821a1.674 1.674 0 0 1 1.104-.707c.446-.083.978-.061 1.482-.078 1.018-.012 2.037-.027 3.059-.011l3.069.038 1.539-.005a.953.953 0 0 1 .981.589c.295.861.132 1.938-.446 2.685a2.933 2.933 0 0 1-1.113.882c-.216.113-.439.152-.694.231l-.368.099-.183.047-.088.02-.041.008-.011.002c.008 0-.027.002.017.001.078-.019.197.13.169.183l-.381.011c.07.438.267.61.389.899l.424.801.848 1.601 1.702 3.2C-2.257-4.27-1.124-2.138-.053.026A.03.03 0 0 0 0 0" style="fill:#aba8a7;fill-opacity:1;fill-rule:nonzero;stroke:none" transform="translate(302.813 335.226)"/><path d="M0 0c-1.453 4.249-3.562 8.366-6.626 11.683-2.859 3.098-6.558 5.486-10.644 6.578-4.738 1.267-9.983 1.061-14.461-1.031-4.687-2.188-8.499-6.248-9.83-11.294a17.34 17.34 0 0 1-.418-6.531c.472-3.897 2.156-7.406 4.563-10.472l.383-.482c1.969-2.47 4.075-4.851 5.915-7.422a12.575 12.575 0 0 0 1.859-3.858c.766-2.672.825-4.48.24-7.814a48.85 48.85 0 0 1-.385-2.824c-1.17-.523-2.353-.957-3.159-2.009a4.54 4.54 0 0 1-.918-3.136c.097-1.14 1.116-2.073 2.26-2.073h6.28c.958 0 1.859-.11 2.69.486.879.632 1.332 1.697 1.939 2.561.669.953 2.297 3.552 2.58 3.904.377-.058.756-.101 1.136-.125 2.468-.156 5.116.418 7.339 1.488.806.388 1.578.846 2.308 1.364 1.359.964 2.567 1.643 3.62 2.932a23.536 23.536 0 0 1 2.423 3.628c.503.923.951 1.878 1.337 2.856.274.692.63 1.854.807 2.577.594 2.425 1.044 4.883.975 7.39C2.105-7.664 1.279-3.742 0 0" style="fill:#fff;fill-opacity:1;fill-rule:nonzero;stroke:none" transform="translate(302.846 357.988)"/><path d="M0 0a1.015 1.015 0 1 1 1.985.427A1.015 1.015 0 0 1 0 0" style="fill:#8cd9e3;fill-opacity:1;fill-rule:nonzero;stroke:none" transform="translate(287.134 370.986)"/><path d="M0 0c.03-1.745 1.228-2.597 2.551-1.729 1.205.79 1.843 2.607 1.553 3.952-.256 1.193-1.191 1.726-2.174 1.28C.873 3.024-.026 1.517 0 0" style="fill:#8cd9e3;fill-opacity:1;fill-rule:nonzero;stroke:none" transform="translate(300.788 347.745)"/><path d="M0 0c.145-.675.717-1.141 1.389-1.055.829.107 1.565.998 1.445 2.027-.128 1.104-1.118 1.53-1.977 1.015C.176 1.579-.152.706 0 0" style="fill:#8cd9e3;fill-opacity:1;fill-rule:nonzero;stroke:none" transform="translate(272.53 339.77)"/><path d="M0 0c.196-.911 1.257-1.457 2.37-1.217C3.483-.978 4.226-.044 4.03.867c-.197.912-1.258 1.457-2.37 1.217C.547 1.845-.196.912 0 0" style="fill:#8cd9e3;fill-opacity:1;fill-rule:nonzero;stroke:none" transform="translate(275.71 335.578)"/><path d="M0 0c.213-.235.618-.215.905.045.287.259.347.661.135.895-.213.236-.619.215-.906-.044C-.153.637-.213.235 0 0" style="fill:#8cd9e3;fill-opacity:1;fill-rule:nonzero;stroke:none" transform="translate(272.374 343.503)"/><path d="M0 0c.57-.243 1.02.08.929.698C.847 1.263.35 1.766-.128 1.853c-.424.078-.732-.192-.729-.623C-.854.766-.495.212 0 0" style="fill:#8cd9e3;fill-opacity:1;fill-rule:nonzero;stroke:none" transform="translate(303.387 353.067)"/><path d="M0 0a3.282 3.282 0 1 1 6.417 1.381A3.282 3.282 0 0 1 0 0" style="fill:#fff;fill-opacity:1;fill-rule:nonzero;stroke:none" transform="translate(269.463 361.015)"/><path d="M0 0a2.608 2.608 0 1 1 5.1 1.098A2.608 2.608 0 0 1 0 0" style="fill:#fff;fill-opacity:1;fill-rule:nonzero;stroke:none" transform="translate(279.443 371.314)"/><path d="M0 0c-.546.334-1.354-.054-1.828-.474-.411-.362-1.025-1.082-.695-1.682.256-.464.959-.316 1.362-.182.604.202 1.202.625 1.438 1.236C.422-.729.368-.226 0 0" style="fill:#231f20;fill-opacity:1;fill-rule:nonzero;stroke:none" transform="translate(282.5 367.294)"/><path d="M0 0a3.282 3.282 0 1 1 6.417 1.381A3.282 3.282 0 0 1 0 0" style="fill:#fff;fill-opacity:1;fill-rule:nonzero;stroke:none" transform="translate(269.463 361.015)"/><path d="M0 0a3.14 3.14 0 0 1-3.067-3.797 3.114 3.114 0 0 1 1.365-1.975 3.115 3.115 0 0 1 2.361-.432 3.14 3.14 0 0 1 2.407 3.727A3.142 3.142 0 0 1 0 0m-.007-6.565c-.653 0-1.292.187-1.853.549a3.407 3.407 0 0 0-1.491 2.158A3.43 3.43 0 0 0-.722.213 3.43 3.43 0 0 0 3.35-2.416 3.431 3.431 0 0 0-.007-6.565" style="fill:#231f20;fill-opacity:1;fill-rule:nonzero;stroke:none" transform="translate(272.672 364.843)"/><path d="M0 0a2.608 2.608 0 1 1 5.1 1.098A2.608 2.608 0 0 1 0 0" style="fill:#fff;fill-opacity:1;fill-rule:nonzero;stroke:none" transform="translate(279.443 371.314)"/><path d="M0 0a2.467 2.467 0 0 1-1.342-4.534 2.45 2.45 0 0 1 1.855-.339 2.45 2.45 0 0 1 1.551 1.072c.357.553.478 1.211.339 1.854A2.447 2.447 0 0 1 1.332-.395C.928-.135.469 0 0 0m-.011-5.219c-.524 0-1.037.15-1.488.441a2.736 2.736 0 0 0-1.198 1.734A2.757 2.757 0 0 0-.584.228c.72.155 1.456.02 2.073-.379a2.736 2.736 0 0 0 1.198-1.735 2.732 2.732 0 0 0-.379-2.072A2.771 2.771 0 0 0-.011-5.219" style="fill:#231f20;fill-opacity:1;fill-rule:nonzero;stroke:none" transform="translate(281.998 374.328)"/><path d="M0 0c.093.02.185.024.277.031a.494.494 0 0 1-.135-.448.503.503 0 1 1 .985.212c-.011.049-.035.09-.058.132A1.976 1.976 0 0 0 2.354-1.52a1.982 1.982 0 0 0-3.874-.834A1.981 1.981 0 0 0 0 0" style="fill:#231f20;fill-opacity:1;fill-rule:nonzero;stroke:none" transform="translate(281.787 374.158)"/><path d="M0 0a.505.505 0 0 0-.599.386.495.495 0 0 0 .136.448C-.188.854.08.818.329.73.352.688.376.647.387.598A.505.505 0 0 0 0 0" style="fill:#fff;fill-opacity:1;fill-rule:nonzero;stroke:none" transform="translate(282.527 373.355)"/><path d="M0 0c.117.025.232.03.348.039a.624.624 0 0 1-.17-.563.634.634 0 0 1 1.24.266c-.013.062-.044.113-.073.166a2.486 2.486 0 0 0 1.616-1.821A2.492 2.492 0 1 0 0 0" style="fill:#231f20;fill-opacity:1;fill-rule:nonzero;stroke:none" transform="translate(272.46 364.677)"/><path d="M0 0a.634.634 0 0 0-.753.486.624.624 0 0 0 .17.563c.346.025.683-.02.997-.13C.443.866.474.814.487.753A.634.634 0 0 0 0 0" style="fill:#fff;fill-opacity:1;fill-rule:nonzero;stroke:none" transform="translate(273.39 363.666)"/><path d="M0 0a.122.122 0 0 0-.078.217l2.063 1.701c.053.043.13.036.173-.016a.123.123 0 0 0-.016-.173L.078.028A.123.123 0 0 0 0 0" style="fill:#231f20;fill-opacity:1;fill-rule:nonzero;stroke:none" transform="translate(276.465 357.786)"/><path d="M0 0a.116.116 0 0 0-.054.013.122.122 0 0 0-.056.164l1.183 2.398a.122.122 0 0 0 .164.055.122.122 0 0 0 .056-.164L.11.068A.124.124 0 0 0 0 0" style="fill:#231f20;fill-opacity:1;fill-rule:nonzero;stroke:none" transform="translate(278.202 356.471)"/><path d="M0 0a.12.12 0 0 0-.065.019.122.122 0 0 0-.039.169l1.417 2.267a.124.124 0 0 0 .169.039.122.122 0 0 0 .039-.169L.104.058A.12.12 0 0 0 0 0" style="fill:#231f20;fill-opacity:1;fill-rule:nonzero;stroke:none" transform="translate(284.687 367.382)"/><path d="M0 0a.121.121 0 0 0-.102.055.122.122 0 0 0 .034.17L2.155 1.71a.122.122 0 1 0 .136-.203L.068.021A.123.123 0 0 0 0 0" style="fill:#231f20;fill-opacity:1;fill-rule:nonzero;stroke:none" transform="translate(285.411 366.613)"/><path d="M0 0c.077.134.249.18.382.104.788-.452 2.138-.645 3.034-.185.488.25.766.661.823 1.222.059.57-.156 1.18-.546 1.553a29.088 29.088 0 0 1-1.63 1.453.28.28 0 0 0 .359.431c.184-.152.833-.692 1.645-1.468l.043-.039c.326-.288.912-.457 1.247-.269.074.043.173.113.199.247.047.283-.183.749-.616 1.252l-.119.136a.281.281 0 0 0 .15.459.282.282 0 0 0 .271-.089l.123-.143c.447-.518 1.076-1.425.575-2.105-.168-.228-.401-.321-.669-.37a1.434 1.434 0 0 0-.236-.022l-.346-.005.067-.34a2.44 2.44 0 0 0 .039-.737c-.08-.772-.539-1.431-1.26-1.731-1.066-.443-2.436-.307-3.431.264A.28.28 0 0 0 0 0" style="fill:#231f20;fill-opacity:1;fill-rule:nonzero;stroke:none" transform="translate(279.475 361.237)"/><path d="M0 0c3.25-.911 6.303.012 8.832 2.667.058.061 1.419 1.472 2.252.703 1.014-.935.568-3.119.33-4.015-.646-2.422-1.945-4.411-3.658-5.602a8.713 8.713 0 0 0-5.548-1.528" style="fill:#fff;fill-opacity:1;fill-rule:nonzero;stroke:none" transform="translate(287.11 350.453)"/><path d="M0 0c2.379-.576 4.92-.098 6.847 1.302.49.334.931.737 1.368 1.139.403.406.86.916 1.457 1.22.294.154.66.283 1.07.205a1.19 1.19 0 0 0 .544-.273c.13-.13.25-.266.34-.42.365-.619.419-1.302.406-1.936-.066-1.279-.427-2.485-.916-3.632-.503-1.139-1.176-2.226-2.088-3.092-1.802-1.764-4.396-2.591-6.82-2.288 2.43-.037 4.85.909 6.472 2.631 1.601 1.723 2.579 4.082 2.716 6.404.026.571-.033 1.157-.289 1.599-.133.225-.303.401-.487.427-.192.044-.446-.016-.685-.141-.502-.248-.885-.653-1.341-1.102-.46-.421-.942-.821-1.476-1.147C6.067.223 4.874-.237 3.641-.398A8.358 8.358 0 0 0 0 0" style="fill:#aba8a7;fill-opacity:1;fill-rule:nonzero;stroke:none" transform="translate(287.11 350.453)"/><path d="M0 0c1.22-3.615 2.018-7.392 2.163-11.212.093-1.915-.127-3.832-.498-5.701-.203-.933-.368-1.872-.674-2.78l-.429-1.369c-.075-.227-.137-.459-.222-.682l-.305-.648c-.418-.859-.782-1.745-1.246-2.579a23.853 23.853 0 0 0-1.562-2.402c-.561-.767-1.187-1.517-1.945-2.112-.748-.605-1.557-1.11-2.33-1.658-1.574-1.082-3.284-1.994-5.135-2.574a13.094 13.094 0 0 0-5.77-.373l.279.108-3.801-5.71c-.366-.468-.849-.91-1.456-1.121-.602-.215-1.221-.197-1.788-.187l-3.43.02-3.452.026c-1.273.101-2.32 1.29-2.271 2.541a4.715 4.715 0 0 0 1.227 3.273c.828.896 1.968 1.311 2.998 1.767l-.099-.135.446 3.094c.177 1.02.32 2.046.354 3.075.071 2.053-.385 4.124-1.17 6.022-.41.948-.957 1.823-1.586 2.646a61.885 61.885 0 0 1-1.918 2.451c-1.323 1.599-2.698 3.159-4.003 4.784-2.649 3.221-4.572 7.197-4.889 11.434-.173 2.103.006 4.244.603 6.273.577 2.038 1.591 3.938 2.885 5.602 2.6 3.33 6.349 5.705 10.431 6.73 4.091 1.006 8.446.768 12.429-.555 3.988-1.349 7.518-3.888 10.219-7.085C-3.231 7.756-1.348 3.94 0 0m-.351-.12C-1.7 3.784-3.578 7.551-6.26 10.696c-2.666 3.137-6.144 5.616-10.049 6.922-3.902 1.283-8.179 1.5-12.163.505-3.972-1.01-7.619-3.341-10.129-6.58-2.545-3.221-3.723-7.417-3.335-11.496.36-4.088 2.1-7.98 4.654-11.213l3.878-4.88c1.252-1.649 2.651-3.242 3.485-5.185.817-1.926 1.298-4.009 1.249-6.116-.026-1.049-.16-2.089-.329-3.118l-.413-3.081a.174.174 0 0 0-.098-.135c-1.041-.469-2.124-.888-2.862-1.71a4.33 4.33 0 0 1-1.096-3.012c-.036-1.074.865-2.039 1.906-2.115l3.413.008 3.437.012c.57-.007 1.123-.008 1.605.172.481.172.881.534 1.212.964l3.754 5.756a.255.255 0 0 0 .252.112l.028-.004c1.841-.283 3.719-.09 5.544.302 1.834.366 3.624 1.098 5.146 2.227 3.384 1.864 5.539 5.19 6.995 8.667l.301.643c.084.221.145.45.218.675l.423 1.353c.3.897.47 1.838.661 2.764.355 1.861.557 3.754.45 5.643C1.706-7.437.886-3.698-.351-.12" style="fill:#aba8a7;fill-opacity:1;fill-rule:nonzero;stroke:none" transform="translate(303.022 358.048)"/><path d="M0 0s-1.499 7.796 6.712 8.88c8.257 1.091 8.733-6.785 8.733-6.785S8.179-.935 0 0" style="fill:#5cb9eb;fill-opacity:1;fill-rule:nonzero;stroke:none" transform="translate(269.459 374.36)"/><path d="M0 0c1.05.712 2.309.971 3.536 1.193l.393.067c-.327-1.715-.054-3.136-.054-3.136l-3.331.265c-.405.052-.687.1-.903.392C-.708-.748-.383-.26 0 0" style="fill:#127bca;fill-opacity:1;fill-rule:nonzero;stroke:none" transform="translate(265.584 376.237)"/><path d="M0 0s-3.623-1.111-6.569-1.311l.265-1.51s2.662.193 6.613 1.383z" style="fill:#127bca;fill-opacity:1;fill-rule:nonzero;stroke:none" transform="translate(282.642 377.215)"/><path d="M0 0s.672-3.554 2.621-6.57c2.197-3.399.938-7.539-3.847-7.534-1.545.002-3.355.22-4.504 1.373-1.444 1.449.723 2.654 1.891 3.202.903.424 1.866.915 2.419 1.761C-.6-6.515-.376-4.683-.225-3.044-.148-2.205-.054-1.425 0 0" style="fill:#fff;fill-opacity:1;fill-rule:nonzero;stroke:none" transform="translate(303.975 354.187)"/><path d="M0 0c-.112-1.689-.06-3.153-.273-4.785-.109-.796-.27-1.596-.586-2.36a3.97 3.97 0 0 0-1.577-1.913c-.689-.472-1.452-.756-2.106-1.148-.637-.379-1.322-.91-1.376-1.506-.015-.574.675-1.133 1.31-1.455.666-.334 1.424-.492 2.191-.564.77-.081 1.559-.088 2.302.027.751.103 1.478.367 2.065.819 1.222.883 1.654 2.526 1.361 4.013a6.38 6.38 0 0 1-.828 2.141 17.876 17.876 0 0 0-1.116 2.139C.746-3.112.263-1.575 0 0m0 0a22.87 22.87 0 0 1 1.649-4.462c.347-.711.737-1.394 1.172-2.054.451-.684.786-1.45.968-2.26.18-.808.19-1.676-.061-2.491a4.12 4.12 0 0 0-1.427-2.078c-.675-.531-1.496-.834-2.318-.958-.829-.136-1.649-.135-2.463-.061-.815.084-1.644.264-2.404.655a4.14 4.14 0 0 0-1.04.753c-.302.308-.599.747-.573 1.278.046.52.352.912.657 1.208.315.299.664.531 1.02.739.717.423 1.472.677 2.118 1.085 1.381.742 1.843 2.385 2.121 3.909.144.784.24 1.551.325 2.382C-.165-1.533-.058-.758 0 0" style="fill:#aba8a7;fill-opacity:1;fill-rule:nonzero;stroke:none" transform="translate(303.975 354.187)"/></g></svg>