<svg xmlns="http://www.w3.org/2000/svg" xml:space="preserve" width="600" height="393.41" viewBox="0 0 600 393.41"><defs><clipPath id="a" clipPathUnits="userSpaceOnUse"><path d="M0 841.89h595.276V0H0Z"/></clipPath><clipPath id="b" clipPathUnits="userSpaceOnUse"><path d="M317.955 350.995h.083v-1.615h-.083z"/></clipPath><clipPath id="c" clipPathUnits="userSpaceOnUse"><path d="M419.208 415.853h40.253v-34.38h-40.253z"/></clipPath></defs><g clip-path="url(#a)" transform="matrix(1.33333 0 0 -1.33333 0 1122.52)"><path d="M0 0c-2.416 1.079-5.111-1.163-5.111-1.163l-4.68-3.77L-8.5-1.597c3.359 9.202-1.615 9.701-1.615 9.701-2.706.388-6.934-6.424-9.074-10.38 2.14-1.589 3.492-3.8 3.548-6.273.098-4.861-4.808-8.922-11.092-9.345-5.436-24.095-27.994-42.457-55.407-43.053-10.277-.223-19.97 2.087-28.428 6.299a.578.578 0 0 0 .113-.06c-.962-1.408-2.883-4.601-2.261-6.953 1.895-7.193 12.505-6.575 15.354-4.117 1.012.872 2.491 2.661 3.85 2.936 3.789.762 3.782-2.925 3.782-2.925.113-2.521-2.253-4.291-2.253-4.291s2.06-1.37 7.356-1.095c2.717.132 5.314.668 7.722-1.091 2.876-2.106 2.733-7.628 1.166-10.273-2.038-3.473-6.16-5.869-9.832-7.217-7.877-2.902-16.909-1.827-24.982-.392a35.835 35.835 0 0 0-6.854 1.924 13.51 13.51 0 0 0-.457-2.453c-2.106-7.224-4.835-14.259-8.341-20.841-7.182-14.411 7.666-15.282 7.666-15.282 16.044-1.114 23.249 6.514 23.249 6.514l14.565 15.278-.309-11.775s.03-1.993 1.313-2.786c11.795-4.424 33.75-2.638 33.75-2.638 9.941 1.589 7.96 13.074-1.951 15.052 8.881 24.359-.51 44.974-.51 44.974 22.329 15.384 31.776 28.164 35.426 34.395-1.193.449-2.295 1.336-3.216 2.74-1.544 2.371-1.698 4.756.057 7.055 2.117 2.785 6.223 5.42 9.9 4.446.4-.094.762-.212 1.094-.347C5.492-2.412 0 0 0 0" style="fill:#9e9c9d;fill-opacity:1;fill-rule:nonzero;stroke:none" transform="translate(218.732 729.38) scale(1.43132)"/><path d="M0 0a67.48 67.48 0 0 0-3.155.026c4.442-2.6 10.93-5.038 19.287-4.589 0 0 28.616-2.672 14.644-42.238 0 0 7.869-10.481-4.794-14.788 5.851 0 10.187.351 10.187.351 9.942 1.589 7.96 13.074-1.951 15.052 8.881 24.359-.51 44.974-.51 44.974s-2.241 4.469-4.898 9.123C20.389 3.102 10.557.223 0 0" style="fill:#868484;fill-opacity:1;fill-rule:nonzero;stroke:none" transform="translate(101.163 642.145) scale(1.43132)"/><path d="M0 0c-3.676.974-7.783-1.661-9.9-4.446-1.755-2.299-1.6-4.684-.057-7.054 2.752-4.212 7.172-3.842 10.481-.619 1.552 1.51 2.775 3.51 3.247 5.635C4.469-3.295 3.299-.755 0 0" style="fill:#aeacac;fill-opacity:1;fill-rule:nonzero;stroke:none" transform="translate(209.764 710.024) scale(1.43132)"/><path d="M0 0c1.551 1.51 2.774 3.51 3.246 5.635.46 2.087.102 3.88-1.113 5.091h-.015S.363-1.468-10.481.619C-7.73-3.593-3.31-3.223 0 0" style="fill:#918f90;fill-opacity:1;fill-rule:nonzero;stroke:none" transform="translate(210.515 692.678) scale(1.43132)"/><path d="M0 0c10.662 11.459 5.171 13.87 5.171 13.87a1.996 1.996 0 0 1-.265.087C5.299 12.632 6.02 7.48-2.884.543A6.786 6.786 0 0 0-1.095.347 7.227 7.227 0 0 0 0 0" style="fill:#888687;fill-opacity:1;fill-rule:nonzero;stroke:none" transform="translate(211.33 709.527) scale(1.43132)"/><path d="M0 0c-4.265-5.148-7.643-12.308-6.111-19.117C-4.137-27.824 5.25-32.195 13.248-33.61c8.073-1.434 17.105-2.51 24.982.392 3.672 1.348 7.794 3.744 9.832 7.217 1.566 2.646 1.71 8.167-1.167 10.273-2.407 1.759-5.004 1.223-7.722 1.091-5.295-.275-7.356 1.095-7.356 1.095s2.367 1.77 2.254 4.291c0 0 .007 3.688-3.782 2.925-1.359-.275-2.839-2.064-3.85-2.936-2.85-2.457-13.459-3.076-15.354 4.117-.623 2.352 1.299 5.545 2.261 6.953a58.172 58.172 0 0 0-6.802 3.978C4.012 4.404.475.57 0 0" style="fill:#b2b1b1;fill-opacity:1;fill-rule:nonzero;stroke:none" transform="translate(41.533 648.487) scale(1.43132)"/><path d="M0 0c-4.265-5.148-7.643-12.308-6.111-19.117C-4.137-27.824 5.25-32.195 13.248-33.61c8.073-1.434 17.105-2.51 24.982.392 3.672 1.348 7.794 3.744 9.832 7.217 1.566 2.646 1.71 8.167-1.167 10.273-2.407 1.759-5.004 1.223-7.722 1.091-5.295-.275-7.356 1.095-7.356 1.095s2.367 1.77 2.254 4.291c0 0 .007 3.688-3.782 2.925-1.359-.275-2.839-2.064-3.85-2.936-2.85-2.457-13.459-3.076-15.354 4.117-.623 2.352 1.299 5.545 2.261 6.953a58.172 58.172 0 0 0-6.802 3.978C4.012 4.404.475.57 0 0" style="fill:#aeacac;fill-opacity:1;fill-rule:nonzero;stroke:none" transform="translate(41.533 648.487) scale(1.43132)"/><g clip-path="url(#b)" opacity="0.149994" transform="translate(-272.96 221.337) scale(1.43132)"><path d="M0 0c.027-.54.068-1.079.083-1.616A30.24 30.24 0 0 1 0 0" style="fill:#231f20;fill-opacity:1;fill-rule:nonzero;stroke:none" transform="translate(317.955 350.995)"/></g><path d="M0 0c-10.281-2.272-18.536.083-18.536.083 1.416-1.091 3.145-2.227 4.794-2.552-.744-.758-20.404-20.637-38.479-18.841.007-.011.011-.011.015-.018 2.838-2.741 7.454-3.016 7.454-3.016 16.044-1.114 23.25 6.514 23.25 6.514L-6.937-2.551l-.004-.068.011.041C-2.287-2.245 0 0 0 0" style="fill:#868484;fill-opacity:1;fill-rule:nonzero;stroke:none" transform="translate(113.118 582.763) scale(1.43132)"/><path d="M0 0s-.532-.105-.536-.109c-.162-.031.034-.797.083-.88.298-.49.88-.121 1.03.283C.679-.438.328.072 0 0" style="fill:#4a463d;fill-opacity:1;fill-rule:nonzero;stroke:none" transform="translate(143.56 580.37) scale(1.43132)"/><path d="M0 0c-1.147-.359-.408-1.989.695-1.362.256.15.483.517.437.822C1.049-.03.456.14 0 0" style="fill:#4a463d;fill-opacity:1;fill-rule:nonzero;stroke:none" transform="translate(146.774 575.481) scale(1.43132)"/><path d="M0 0c-.476.079-1.008-.125-1.053-.638-.038-.411.944-1.034 1.257-.743.302.29.611.456.483.845C.592-.238.306-.061 0 0" style="fill:#4a463d;fill-opacity:1;fill-rule:nonzero;stroke:none" transform="translate(139.373 576.227) scale(1.43132)"/><path d="M0 0c-.732-.709.412-2.321 1.333-1.781.411.237.543.906.426 1.325C1.57.193.51.461 0 0" style="fill:#4a463d;fill-opacity:1;fill-rule:nonzero;stroke:none" transform="translate(140.626 569.388) scale(1.43132)"/><path d="M0 0c-.449-.192-.808-.906-.514-1.279C.23-2.223 2.54-.109.249.045A.547.547 0 0 1 0 0" style="fill:#4a463d;fill-opacity:1;fill-rule:nonzero;stroke:none" transform="translate(149.772 567.621) scale(1.43132)"/><path d="M0 0c-.536-.094-.838-1.136-.238-1.324C.596-1.6 1.14.192 0 0" style="fill:#4a463d;fill-opacity:1;fill-rule:nonzero;stroke:none" transform="translate(156.25 566.162) scale(1.43132)"/><path d="M0 0c-.362-.208-.6-.653.264-.592.125.007.347.437.302.543C.479.166.215.128 0 0" style="fill:#4a463d;fill-opacity:1;fill-rule:nonzero;stroke:none" transform="translate(152.846 570.5) scale(1.43132)"/><path d="M0 0c-.434-.094-.728-.63-.589-1.068.11-.329.876-.702 1.178-.393.215.219.611.4.581.759-.019.415-.656.679-1.004.706C.11.015.053.004 0 0" style="fill:#4a463d;fill-opacity:1;fill-rule:nonzero;stroke:none" transform="translate(141.339 563.78) scale(1.43132)"/><path d="M0 0c-.257.068-.528.03-.694-.166C-1.645-1.215.408-2.023.657-.864.74-.46.385-.102 0 0" style="fill:#4a463d;fill-opacity:1;fill-rule:nonzero;stroke:none" transform="translate(149.453 561.42) scale(1.43132)"/><path d="M0 0c-.381-.174-.936-.626-.532-1.049.321-.328 1.053-.242 1.34.102C1.275-.392.619.268 0 0" style="fill:#4a463d;fill-opacity:1;fill-rule:nonzero;stroke:none" transform="translate(154.818 560.242) scale(1.43132)"/><path d="M0 0c-.581-.238-.502-1.098-.083-1.434.457-.378 1.17-.216 1.665-.042.264.091.502.177.603.461C2.567.087.97.177.279.075A1.162 1.162 0 0 1 0 0" style="fill:#4a463d;fill-opacity:1;fill-rule:nonzero;stroke:none" transform="translate(134.662 559.172) scale(1.43132)"/><path d="M0 0c-.43-.128-.736-.465-.162-.838C.034-.981.672-.819.8-.6 1.144.022.491.143 0 0" style="fill:#4a463d;fill-opacity:1;fill-rule:nonzero;stroke:none" transform="translate(135.024 565.72) scale(1.43132)"/><path d="M0 0c-.185-.064-.661-.128-.74-.31-.102-.233.132-.509.328-.573.197-.072.672 0 .815.154C.747-.366.306-.226 0 0" style="fill:#4a463d;fill-opacity:1;fill-rule:nonzero;stroke:none" transform="translate(146.477 557.417) scale(1.43132)"/><path d="M0 0c-.181-.064-.664-.128-.74-.313-.102-.23.136-.502.332-.574.197-.072.665 0 .812.151C.751-.366.31-.23 0 0" style="fill:#4a463d;fill-opacity:1;fill-rule:nonzero;stroke:none" transform="translate(129.433 558.567) scale(1.43132)"/><path d="M0 0c-.596-.196-.97-.827-.438-1.313.54-.514 1.499-.064 1.317.739C.736.03.37.124 0 0" style="fill:#4a463d;fill-opacity:1;fill-rule:nonzero;stroke:none" transform="translate(123.858 559.993) scale(1.43132)"/><path d="M0 0c-.223-.042-.336-.344-.423-.513-.26-.563 2.299-.65.706.434C.174-.004.072.019 0 0" style="fill:#4a463d;fill-opacity:1;fill-rule:nonzero;stroke:none" transform="translate(112.292 559.653) scale(1.43132)"/><path d="m0 0-1.136-1.185 1.004-1.408.913.068z" style="fill:#4a463d;fill-opacity:1;fill-rule:nonzero;stroke:none" transform="translate(146.542 573.78) scale(1.43132)"/><path d="m0 0-.872-1.529.132-1.951 1.461.098.842 2.016z" style="fill:#4a463d;fill-opacity:1;fill-rule:nonzero;stroke:none" transform="translate(155.547 567.891) scale(1.43132)"/><path d="m0 0-1.367-.366-.165-1.68 1.641.382z" style="fill:#4a463d;fill-opacity:1;fill-rule:nonzero;stroke:none" transform="translate(137.072 572.294) scale(1.43132)"/><path d="m0 0 .128-1.944 2.888.687z" style="fill:#4a463d;fill-opacity:1;fill-rule:nonzero;stroke:none" transform="translate(138.352 585.52) scale(1.43132)"/><path d="m0 0-1.189-1.362.117-1.706 2.548.173L1.333-.77z" style="fill:#4a463d;fill-opacity:1;fill-rule:nonzero;stroke:none" transform="translate(142.906 561.23) scale(1.43132)"/><path d="M0 0c-1.087.495-1.51-1.593-.989-2.223.453-.543.974-.362 1.408-.015C1.234-1.589.695-.317 0 0" style="fill:#4a463d;fill-opacity:1;fill-rule:nonzero;stroke:none" transform="translate(47.762 555.33) scale(1.43132)"/><path d="M0 0c-.71-.079-1.898-1.106-1.011-1.479.751-.329 2.166.905 1.317 1.426A.458.458 0 0 1 0 0" style="fill:#4a463d;fill-opacity:1;fill-rule:nonzero;stroke:none" transform="translate(56.038 554.494) scale(1.43132)"/><path d="m0 0-2.299-2.11 2.952-.287Z" style="fill:#4a463d;fill-opacity:1;fill-rule:nonzero;stroke:none" transform="translate(68.199 555.78) scale(1.43132)"/><path d="m0 0-.94-.555.06-.977L.328-1.2Z" style="fill:#4a463d;fill-opacity:1;fill-rule:nonzero;stroke:none" transform="translate(41.717 556.471) scale(1.43132)"/><path d="M0 0c-1.544 2.37-1.698 4.756.057 7.054 1.649 2.159 4.476 4.216 7.393 4.59-1.121.196-3.351.358-5.548-.898-.46-.261-1.487-.321-1.728.539-.132.48-.306 1.012-.529 1.517-1.702-3.098-5.548-5.363-10.156-5.672a46.19 46.19 0 0 0-.574-2.269c1.053-1.208 2.374-2.079 3.971-2.309 1.985-.28 3.762-.385 4.446-2.537a13.844 13.844 0 0 0-.133-8.673c-1.022-2.941-3.042-5.333-4.993-7.704-1.325-1.592-2.747-3.106-4.186-4.604C-3.563-12.999.936-6.612 3.216-2.74 2.023-2.283.917-1.404 0 0" style="fill:#868484;fill-opacity:1;fill-rule:nonzero;stroke:none" transform="translate(195.513 693.563) scale(1.43132)"/><path d="M0 0c1.045-1.811 2.906-3.159 5.261-2.891 3.586.4 5.11 4.167 3.34 6.839C6.665 1.812 3.566.317 0 0" style="fill:#9a9898;fill-opacity:1;fill-rule:nonzero;stroke:none" transform="translate(180.96 703.817) scale(1.43132)"/><path d="M0 0c-7.877-2.902-16.909-1.827-24.982-.392a35.865 35.865 0 0 0-6.855 1.924 13.423 13.423 0 0 0-.456-2.453c-.117-.419-.249-.834-.37-1.245C-13.327-9.141 0 0 0 0" style="fill:#888687;fill-opacity:1;fill-rule:nonzero;stroke:none" transform="translate(96.253 600.942) scale(1.43132)"/><path d="M0 0c1.974-8.707 11.361-13.078 19.358-14.493 8.074-1.435 17.106-2.51 24.983.392 3.672 1.348 7.794 3.744 9.832 7.217 1.177 2 1.551 5.631.43 8.197-.827-3.095-6.05-16.105-35.011-11.64 0 0-15.033 2.333-19.943 13.173C-.321 1.895-.211.94 0 0" style="fill:#918f90;fill-opacity:1;fill-rule:nonzero;stroke:none" transform="translate(32.787 621.125) scale(1.43132)"/><path d="M0 0c-1.808 1.498-4.25 2.533-7.009 2.869.094-.831.162-1.672.215-2.51-.007-2.099-.136-4.148-.441-5.786-.816-4.462-5.771-8.308-10.225-5.696-4.616 2.714-5.095 9.383-4.05 13.773.476 1.996 2.385.603 2.385.603 1.642-2.242.959-8.895 4.295-9.156 1.963-.151 1.869 3.529 1.88 4.688.012 1.649-.705 4.004-1.846 4.661-2.6 1.491-5.197 3.525-7.74 5.91-6.36 5.9-12.878 9.931-12.878 9.931.936-3.257 5.125-7.911 5.125-7.911-6.963 2.608-13.01 7.586-16.033 10.36h.008c-1.442 1.269-2.42 2.19-2.42 2.19 1.038-3.526 5.088-7.678 5.088-7.678-8.104 1.404-12.244 5.235-14.312 8.292.071-.003.155-.003.219-.003-.834.022-2.525.037-4.465.045-2.404-3.012-7.122-6.496-16.064-6.254 0 0 5.733 1.74 8.621 6.243-.925-.008-1.684-.016-2.163-.031-.204-.003-.415-.015-.615-.022-3.925-2.299-10.172-5.228-16.192-4.835 0 0 3.695 2.215 5.099 4.152a189.01 189.01 0 0 1-4.438-.461c-2.182-.743-4.779-1.751-7.153-2.966 0 0-6.39-1.869-12.949-8.251 0 0-.132 3.631 3.691 8.511-.377-.083-.755-.151-1.14-.23-2.189-1.468-6.069-4.673-10.145-10.919 0 0-4.911-8.972-7.624-10.629.053 1.382.143 2.756.302 4.103-2.601-.083-4.983-.804-6.907-1.94-2.831-1.683-4.662-4.291-4.662-7.235-.003-5.088 5.417-9.206 12.101-9.206.215 0 .427.012.634.023 5.997-24.182 29.137-42.212 56.8-42.216 27.657-.003 50.809 18.019 56.81 42.193 6.352.283 11.395 4.276 11.395 9.183C3.197-3.812 1.978-1.638 0 0" style="fill:#fbc589;fill-opacity:1;fill-rule:nonzero;stroke:none" transform="translate(192.574 724.54) scale(1.43132)"/><path d="M0 0c.242 0 .476.026.71.026A57.122 57.122 0 0 0-.989 13.791c.004 2.242.144 4.454.408 6.624-.155 0-.298-.018-.453-.022-.551-1.446-1.717-5.983-1.721-12.644 0-.506-.053-2.106-.245-2.552-.567-1.317-2.638-3.604-7.824-1.004C-8.383 1.657-4.454 0 0 0" style="fill:#e5b176;fill-opacity:1;fill-rule:nonzero;stroke:none" transform="translate(18.092 702.553) scale(1.43132)"/><path d="M0 0c-1.204 0-2.366.14-3.461.385 3.223-8.632 8.877-18.528 18.8-25.744C8.209-18.392 3.042-9.67.63.041L.634.022A11.903 11.903 0 0 0 0 0" style="fill:#231f20;fill-opacity:1;fill-rule:nonzero;stroke:none" transform="translate(17.32 702.515) scale(1.43132)"/><path d="M0 0c4.763 1.642 25.529 8.243 52.678 7.964 27.141.268 47.9-6.337 52.667-7.983.679-.234 2.309-.804 2.895-1.049a22.351 22.351 0 0 0 2.762-1.374c-12.259 30.274-37.569 37.751-52.04 39.468-2.408.291-9.651.317-11.692.102C32.965 35.611 6.888 28.451-5.631-2.404c.83.487 1.736.943 2.736 1.359C-2.31-.804-.687-.238 0 0" style="fill:#9e9c9d;fill-opacity:1;fill-rule:nonzero;stroke:none" transform="translate(24.478 788.545) scale(1.43132)"/><path d="M0 0c-1.049-.822.136-1.963 1.17-1.023C1.959-.313.589.472 0 0" style="fill:#4a463d;fill-opacity:1;fill-rule:nonzero;stroke:none" transform="translate(66.507 825.329) scale(1.43132)"/><path d="M0 0c-.332-.226-.407-.804-.242-1.136C.642-2.868 3.057.513.498.177A1.135 1.135 0 0 1 0 0" style="fill:#4a463d;fill-opacity:1;fill-rule:nonzero;stroke:none" transform="translate(54.839 824.594) scale(1.43132)"/><path d="M0 0c-.196-.208-.789-.513-.774-.823.015-.472.883-.751 1.299-.539C1.51-.879.385.404 0 0" style="fill:#4a463d;fill-opacity:1;fill-rule:nonzero;stroke:none" transform="translate(61.386 816.442) scale(1.43132)"/><path d="M0 0c-.74-.329-.664-1.695.442-.876C1.246-.283 1.136.494 0 0" style="fill:#4a463d;fill-opacity:1;fill-rule:nonzero;stroke:none" transform="translate(52.03 815.854) scale(1.43132)"/><path d="M0 0c-.192-.359-.106-.876.227-1.129.818-.615 1.37.574.981 1.178C1.023.325.891.43.491.362A.706.706 0 0 1 0 0" style="fill:#4a463d;fill-opacity:1;fill-rule:nonzero;stroke:none" transform="translate(43.472 814.373) scale(1.43132)"/><path d="M0 0c-.192-.355-.109-.872.223-1.125.822-.615 1.37.578.981 1.181-.181.272-.309.37-.717.306A.701.701 0 0 1 0 0" style="fill:#4a463d;fill-opacity:1;fill-rule:nonzero;stroke:none" transform="translate(46.935 803.98) scale(1.43132)"/><path d="M0 0c-.279-.087-.434-.362-.185-1.03C.204-2.102 2.446.797 0 0" style="fill:#4a463d;fill-opacity:1;fill-rule:nonzero;stroke:none" transform="translate(79.873 827.798) scale(1.43132)"/><path d="M0 0c-.841-.396.015-1.095.638-.917C1.544-.664.948.449 0 0" style="fill:#4a463d;fill-opacity:1;fill-rule:nonzero;stroke:none" transform="translate(72.628 818.852) scale(1.43132)"/><path d="M0 0a.397.397 0 0 1-.117-.087c-.551-.6.226-1.381.985-1.287C2.05-1.215 1.506.797 0 0" style="fill:#4a463d;fill-opacity:1;fill-rule:nonzero;stroke:none" transform="translate(53.159 810.56) scale(1.43132)"/><path d="M0 0c-.102-.117-.162-.208-.17-.253-.279-1.004 1.276-1.264 1.951-.77C2.993-.147 1.37 1.695 0 0" style="fill:#4a463d;fill-opacity:1;fill-rule:nonzero;stroke:none" transform="translate(40.301 806.778) scale(1.43132)"/><path d="M0 0c-.242-.09-.381-.272-.121-.558C.589-1.404 1.71.623 0 0" style="fill:#4a463d;fill-opacity:1;fill-rule:nonzero;stroke:none" transform="translate(95.005 832.87) scale(1.43132)"/><path d="M0 0c-.015-.041-.019-.083-.015-.105.034-.45.898-1.238 1.155-.469C1.593.732.514 1.653 0 0" style="fill:#4a463d;fill-opacity:1;fill-rule:nonzero;stroke:none" transform="translate(31.577 801.635) scale(1.43132)"/><path d="M0 0c-.219-.245-.408-.468-.442-.558.087-.103.374-.284.517-.333C1.219-1.238 1.079 1.174 0 0" style="fill:#4a463d;fill-opacity:1;fill-rule:nonzero;stroke:none" transform="translate(36.115 808.49) scale(1.43132)"/><path d="M0 0a.173.173 0 0 1-.049-.045.826.826 0 0 1 .973-1.272C2.242-.853 1.408 1.11 0 0" style="fill:#4a463d;fill-opacity:1;fill-rule:nonzero;stroke:none" transform="translate(34.964 799.593) scale(1.43132)"/><path d="M0 0c-.506-.264-.838-.785-.525-1.253.457-.657 2.412.034 2.163.717C1.34.272.566.302 0 0" style="fill:#4a463d;fill-opacity:1;fill-rule:nonzero;stroke:none" transform="translate(88.295 833.789) scale(1.43132)"/><path d="M0 0c-.434-.287-.8-1.079.004-1.197.491-.071.66.253.66.65C.664.155.313.2 0 0" style="fill:#4a463d;fill-opacity:1;fill-rule:nonzero;stroke:none" transform="translate(87.587 826.572) scale(1.43132)"/><path d="M0 0c-.438-.291-.8-1.079 0-1.193.491-.075.664.257.664.65C.657.158.31.204 0 0" style="fill:#4a463d;fill-opacity:1;fill-rule:nonzero;stroke:none" transform="translate(80.197 835.026) scale(1.43132)"/><path d="M0 0c-1.43-1.264 1.631-1.449 1.14-.109C.921.487.393.347 0 0" style="fill:#4a463d;fill-opacity:1;fill-rule:nonzero;stroke:none" transform="translate(101.768 835.68) scale(1.43132)"/><path d="M0 0a.848.848 0 0 1-.37-.14c-.588-.404-.536-1.385.325-1.46C1.083-1.68 1.366.204 0 0" style="fill:#4a463d;fill-opacity:1;fill-rule:nonzero;stroke:none" transform="translate(27.6 795.87) scale(1.43132)"/><path d="M0 0c-.475-.109-.781-.54-.313-1.408.245-.46 1.457.136 1.596.446C1.593-.264.642.162 0 0" style="fill:#4a463d;fill-opacity:1;fill-rule:nonzero;stroke:none" transform="translate(73.811 830.823) scale(1.43132)"/><path d="m0 0-2.491-1.932 2.948-.537Z" style="fill:#4a463d;fill-opacity:1;fill-rule:nonzero;stroke:none" transform="translate(64.811 823.093) scale(1.43132)"/><path d="m0 0-1.989-1.449 1.453-1.99L.94-3.454z" style="fill:#4a463d;fill-opacity:1;fill-rule:nonzero;stroke:none" transform="translate(61.122 811.17) scale(1.43132)"/><path d="m0 0-1.004-1.461-.03-1.966 1.483-.022 1.008 1.954z" style="fill:#4a463d;fill-opacity:1;fill-rule:nonzero;stroke:none" transform="translate(78.728 810.927) scale(1.43132)"/><path d="m0 0-2.469-.457-.528-2.951 2.959.453z" style="fill:#4a463d;fill-opacity:1;fill-rule:nonzero;stroke:none" transform="translate(41.971 801.575) scale(1.43132)"/><path d="m0 0-.019-1.963 2.955.446z" style="fill:#4a463d;fill-opacity:1;fill-rule:nonzero;stroke:none" transform="translate(46.65 809.852) scale(1.43132)"/><path d="m0 0-1.498-1.453-.027-1.97 2.952-.042L1.461-1Z" style="fill:#4a463d;fill-opacity:1;fill-rule:nonzero;stroke:none" transform="translate(80.365 823.795) scale(1.43132)"/><path d="m0 0-1.982-.962-.026-1.971 2.461.461z" style="fill:#4a463d;fill-opacity:1;fill-rule:nonzero;stroke:none" transform="translate(71.737 814.552) scale(1.43132)"/><path d="m0 0-1.981-.962-.031-1.963 2.472.453Z" style="fill:#4a463d;fill-opacity:1;fill-rule:nonzero;stroke:none" transform="translate(51.478 822.341) scale(1.43132)"/><path d="M0 0c-.166.842-.638 3.439-1.132 4.952-.993 3.087-3.665 8.254-10.704 11.142-.585.245-2.216.815-2.895 1.049-4.767 1.645-25.526 8.25-52.667 7.983-27.148.279-47.914-6.323-52.678-7.964-.686-.238-2.309-.804-2.894-1.046-7.04-2.887-9.716-8.058-10.715-11.145-.484-1.502-.963-4.103-1.129-4.945-1.03-5.129-1.412-11.183-1.412-11.183-.268-4.117 4.122-2.778 4.122-2.778 21.079 7.466 40.54 10.47 57.66 10.919 2.385.068 11.689.064 14.07-.003 17.121-.45 36.581-3.465 57.664-10.942 0 0 4.39-1.336 4.118 2.781 0 0-.374 6.054-1.408 11.18" style="fill:#aeacac;fill-opacity:1;fill-rule:nonzero;stroke:none" transform="translate(196.345 763.981) scale(1.43132)"/><path d="M0 0c17.12-.449 36.581-3.465 57.664-10.942 0 0 4.389-1.336 4.118 2.782 0 0-.374 6.054-1.408 11.179-.167.842-.638 3.439-1.133 4.952-.992 3.088-3.664 8.255-10.704 11.142-.585.245-2.215.815-2.894 1.049-1.808.623-5.93 1.97-11.825 3.374C37.419 11.406 35.346.388 15.407 1.155c0 0-22.831 1.434-40.31-1.774 3.699.324 7.319.532 10.833.622C-11.685.072-2.382.068 0 0" style="fill:#918f90;fill-opacity:1;fill-rule:nonzero;stroke:none" transform="translate(109.93 759.66) scale(1.43132)"/><path d="M0 0a21.62 21.62 0 0 0 2.763-1.374C-4.88 17.501-17.592 27.514-29.59 32.795c-.076.004-.155.06-.227.094h-.008c11.176-8.953 16.268-18.453 19.68-29.632 3.465-.947 5.955-1.762 7.25-2.208C-2.215.815-.585.245 0 0" style="fill:#868484;fill-opacity:1;fill-rule:nonzero;stroke:none" transform="translate(179.403 787.017) scale(1.43132)"/><path d="M0 0c-.064 0-.147 0-.219.003C1.849-3.054 5.99-6.885 14.093-8.289c0 0-4.05 4.152-5.087 7.678 0 0 .977-.921 2.419-2.19h-.004c3.019-2.774 9.066-7.752 16.029-10.36 0 0-4.189 4.654-5.125 7.911 0 0 6.518-4.031 12.878-9.93 2.544-2.386 5.141-4.42 7.741-5.911 1.14-.657 1.857-3.012 1.846-4.661-.012-1.159.083-4.839-1.88-4.688-3.336.261-2.653 6.914-4.295 9.156 0 0-1.91 1.393-2.386-.603-1.045-4.39-.566-11.059 4.05-13.773 4.454-2.612 9.41 1.234 10.225 5.696.306 1.638.434 3.687.442 5.786a49.85 49.85 0 0 1-.216 2.51c2.842-.344 5.36-1.439 7.179-3.005.351 2.419.419 3.861.419 3.861-.06 3.427-.242 6.707-.513 9.84l-.151.03C36.581-3.465 17.12-.449 0 0" style="fill:#231f20;fill-opacity:1;fill-rule:nonzero;stroke:none" transform="translate(109.93 759.66) scale(1.43132)"/><path d="M0 0c-.064 0-.147 0-.219.003C1.849-3.054 5.99-6.885 14.093-8.289c0 0-4.05 4.152-5.087 7.678 0 0 .977-.921 2.419-2.19h-.004c3.019-2.774 9.066-7.752 16.029-10.36 0 0-4.189 4.654-5.125 7.911 0 0 6.518-4.031 12.878-9.93 2.544-2.386 5.141-4.42 7.741-5.911 1.14-.657 1.857-3.012 1.846-4.661-.012-1.159.083-4.839-1.88-4.688-3.336.261-2.653 6.914-4.295 9.156 0 0-1.91 1.393-2.386-.603-1.045-4.39-.566-11.059 4.05-13.773 4.454-2.612 9.41 1.234 10.225 5.696.306 1.638.434 3.687.442 5.786a49.85 49.85 0 0 1-.216 2.51c2.842-.344 5.36-1.439 7.179-3.005.351 2.419.419 3.861.419 3.861-.06 3.427-.242 6.707-.513 9.84l-.151.03C36.581-3.465 17.12-.449 0 0" style="fill:#231f20;fill-opacity:1;fill-rule:nonzero;stroke:none" transform="translate(109.93 759.66) scale(1.43132)"/><path d="M0 0c-2.887-4.503-8.621-6.242-8.621-6.242C.321-6.484 5.039-3 7.443.012 4.956.019 2.064.019 0 0" style="fill:#231f20;fill-opacity:1;fill-rule:nonzero;stroke:none" transform="translate(92.887 759.708) scale(1.43132)"/><path d="M0 0c6.559 6.382 12.95 8.251 12.95 8.251 2.373 1.223 4.978 2.23 7.167 2.974A187.08 187.08 0 0 1 3.706 8.53C-.136 3.638 0 0 0 0" style="fill:#231f20;fill-opacity:1;fill-rule:nonzero;stroke:none" transform="translate(37.908 741.94) scale(1.43132)"/><path d="M0 0c-.279-3.14-.468-6.409-.528-9.843 0 0 .045-.985.256-2.695 1.925 1.136 4.307 1.857 6.907 1.94a52.679 52.679 0 0 1-.302-4.103c2.714 1.657 7.624 10.629 7.624 10.629C18.041 2.189 21.932 5.39 24.118 6.85A193.652 193.652 0 0 1 .14.03S.083.015 0 0" style="fill:#231f20;fill-opacity:1;fill-rule:nonzero;stroke:none" transform="translate(7.061 743.993) scale(1.43132)"/><path d="M0 0c6.02-.393 12.278 2.536 16.192 4.842a168.707 168.707 0 0 1-11.093-.69C3.695 2.215 0 0 0 0" style="fill:#231f20;fill-opacity:1;fill-rule:nonzero;stroke:none" transform="translate(65.735 752.712) scale(1.43132)"/><path d="M0 0s3.695 2.215 5.099 4.152c3.797.362 7.496.585 11.093.69C12.278 2.536 6.02-.393 0 0m73.787-25.586c1.963-.151 1.869 3.529 1.88 4.688.011 1.649-.706 4.004-1.846 4.661-2.6 1.491-5.197 3.525-7.741 5.91-6.359 5.9-12.878 9.931-12.878 9.931.937-3.257 5.126-7.911 5.126-7.911-6.964 2.608-13.01 7.586-16.033 10.36h.007c-1.442 1.269-2.419 2.189-2.419 2.189 1.038-3.525 5.088-7.677 5.088-7.677C36.867-2.031 32.727 1.8 30.659 4.857c.071-.003.154-.003.218-.003-.834.022-2.525.037-4.465.045-2.404-3.012-7.122-6.496-16.063-6.254 0 0 5.733 1.74 8.621 6.243-.925-.008-1.684-.016-2.163-.031A177.97 177.97 0 0 1 .664 3.691C-1.513 2.948-4.118 1.94-6.492.725c0 0-6.39-1.869-12.949-8.251 0 0-.137 3.638 3.706 8.526-.385-.079-.77-.166-1.155-.245-2.189-1.468-6.069-4.673-10.146-10.919 0 0-4.91-8.972-7.623-10.629 0 .068.011.136.011.201 0-.065-.011-.133-.011-.201 3.811.635 8.348 8.047 8.348 8.047 1.872 2.955 4.99 6.854 4.99 6.854-1.249-3.899 1.864-3.427 1.864-3.427l3.114 2.808C-7.934.332-1.706.015-1.706.015 3.125-2.317 7.945-.14 7.945-.14L6.858-1.385c10.587-4.359 20.083 4.148 20.083 4.148s1.766 1.038 3.635-.827c0 0 7.367-7.794 16.188-5.82 0 0 6.02-5.507 13.806-5.295 0 0 1.766-.412 3.114-1.967 0 0 1.947-2.54 5.065-4.914.419-.135.743-.37.743-.37 1.642-2.242.959-8.895 4.295-9.156" style="fill:#e5b176;fill-opacity:1;fill-rule:nonzero;stroke:none" transform="translate(65.735 752.712) scale(1.43132)"/><path d="M0 0c.094-1.302.049-7.749-9.79-9.598.554 3.015.86 6.114.86 9.285.004.551-.026 1.09-.045 1.634-.019.385-.053.781-.087 1.177-.03-1.909-.155-3.748-.434-5.246-.815-4.461-5.771-8.307-10.225-5.695-1.366.8-2.362 1.955-3.072 3.291-2.974-23.355-15.814-47.077-55.229-48.798a63.221 63.221 0 0 1 5.265-.702 5.29 5.29 0 0 0 .43-.034 55.77 55.77 0 0 1 2.25-.143c.928-.05 1.864-.072 2.808-.072 27.658-.004 50.809 18.018 56.811 42.193C-4.106-12.425.936-8.432.936-3.525.936-2.284.592-1.091 0 0" style="fill:#e5b176;fill-opacity:1;fill-rule:nonzero;stroke:none" transform="translate(195.81 720.704) scale(1.43132)"/><path d="M0 0c-2.944 4.756 2.906 7.073 4.367 11.195.234.667.434 1.415.626 2.211.635 2.48 1.291 5.76 3.99 6.779 2.902 1.087 6.265-1.098 7.76-3.646a4.965 4.965 0 0 1-.211.328l-.091-.049s-1.816-6.144-.287-9.775c1.132-2.695 1.748-5.594-.83-7.541-1.899-1.438-4.371-2.001-6.715-2.046-2.291-.038-4.706.261-6.963.672 2.974-2.42 7.481-2.219 11.33-1.925-1.192-.091-2.445-.173-3.706-.173C5.632-3.974 2.012-3.261 0 0" style="fill:#9e9c9d;fill-opacity:1;fill-rule:nonzero;stroke:none" transform="translate(82.033 696.378) scale(1.43132)"/><path d="M0 0c2.257-.411 4.673-.71 6.964-.672 2.343.046 4.816.608 6.714 2.046 2.578 1.948 1.963 4.846.83 7.541-1.528 3.631.287 9.776.287 9.776l.091.049c.075-.106.143-.216.211-.329.136-.241.264-.491.37-.743 1.159-2.673 1.117-5.809 2.936-8.206 1.303-1.721 3.269-2.642 3.254-4.888a4.36 4.36 0 0 0-.068-.735c-.638-3.647-4.793-5.371-8.069-5.594-.695-.045-1.427-.106-2.189-.17-1.178-.091-2.424-.173-3.669-.173C4.861-2.098 2.061-1.676 0 0" style="fill:#868484;fill-opacity:1;fill-rule:nonzero;stroke:none" transform="translate(84.389 693.698) scale(1.43132)"/><path d="M0 0c-1.208.713-2.616-.336-3.231-1.359-.32-.532-.562-1.223-.441-1.857.094-.498.709-1.517 1.173-.589.348.695.676 1.476 1.242 2.024.415.392 1.589.713 1.514 1.392A.486.486 0 0 1 0 0" style="fill:#fff;fill-opacity:1;fill-rule:nonzero;stroke:none" transform="translate(98.062 722.492) scale(1.43132)"/><path d="M0 0c-1.378-1.193-.94-4.137-.453-5.473 1.155-3.174 3.408-6.737-.042-8.805-1.928-.827-2.891 1.728-4.823 1.656-3.722-.147-2.212-5.057 2.74-6.152 4.771-1.049 8.734 1.556 10.081 5.934C10.262-3.869 5.114 4.401 0 0" style="fill:#231f20;fill-opacity:1;fill-rule:nonzero;stroke:none" transform="translate(58.032 728.219) scale(1.43132)"/><path d="M0 0c-.291-1.355-1.14-2.344-1.902-2.212-.766.136-1.159 1.34-.868 2.691.287 1.355 1.139 2.34 1.906 2.208C-.102 2.548.291 1.347 0 0" style="fill:#fff;fill-opacity:1;fill-rule:nonzero;stroke:none" transform="translate(64.406 723.12) scale(1.43132)"/><path d="M0 0c-1.382-1.197-.94-4.14-.457-5.473 1.151-3.174 3.408-6.74-.038-8.809-1.932-.827-2.894 1.729-4.827 1.661-3.725-.151-2.212-5.062 2.744-6.152 4.771-1.05 8.722 1.551 10.077 5.937C10.259-3.872 5.11 4.401 0 0" style="fill:#231f20;fill-opacity:1;fill-rule:nonzero;stroke:none" transform="translate(139.146 728.208) scale(1.43132)"/><path d="M0 0c-.283-1.355-1.14-2.344-1.902-2.208-.766.132-1.151 1.336-.868 2.687.29 1.355 1.143 2.34 1.906 2.212C-.094 2.547.287 1.347 0 0" style="fill:#fff;fill-opacity:1;fill-rule:nonzero;stroke:none" transform="translate(145.515 723.103) scale(1.43132)"/><path d="M0 0c-.068-.351-1.849-8.409-13.282-8.587-11.387.182-13.161 8.243-13.233 8.591a1.659 1.659 0 0 1-1.947 1.298 1.653 1.653 0 0 1-1.317-1.936c.026-.11 2.28-11.048 16.497-11.274C.981-11.689 3.242-.747 3.265-.638a1.653 1.653 0 0 1-1.306 1.936A1.671 1.671 0 0 1 0 0" style="fill:#f46f5e;fill-opacity:1;fill-rule:nonzero;stroke:none" transform="translate(115.927 684.099) scale(1.43132)"/><path d="M0 0c1.453-.842 2.601-1.913 3.265-2.608l.072.143.505-.275-.245 1.91c.023 1.951-.147 3.378.31 5.948C2.355 3.653 1.042 1.887 0 0" style="fill:#d1d0ca;fill-opacity:1;fill-rule:nonzero;stroke:none" transform="translate(373.635 633.334) scale(1.43132)"/><path d="m0 0-1.117 1.91-2.929 4.872a.669.669 0 0 0 .079-.117c1.653.906 2.095 2.08 2.19 2.786.792-.121 1.675-.144 2.158.241.484.385.661 1.344.661 2.299 0 .736-.11 1.468-.272 1.925l-.638 1.445c-.279.593-.876 1.653-1.234 2.461-2.253.227-5.103 1.065-8.194 3.295-.717.525-.8 1.253-.679 1.895-5.677-1.412-12.765-2.45-21.333-2.408-18.312.079-30.858 4.306-36.267 6.518-.864.355-1.442.887-1.762 1.521-4.069-10.727-6.439-22.08-.533-26.205 0 0 19.068-9.53 28.598-8.972 0 0 2.997-.184 5.609 2.058 0 0 4.718 4.91 10.844.932 0 0 5.053-4.669 10.284-5.046 0 0 11.119.207 16.339 5.646C1.287-2.219.85-1.464.419-.725z" style="fill:#4a463d;fill-opacity:1;fill-rule:nonzero;stroke:none" transform="translate(381.15 573.899) scale(1.43132)"/><path d="m0 0-.419.725-1.117 1.909-2.929 4.873a.738.738 0 0 0 .08-.117c1.653.906 2.094 2.08 2.189 2.785.792-.121 1.675-.143 2.159.242.483.385.66 1.343.66 2.298 0 .736-.11 1.469-.272 1.926l-.638 1.445c-.279.592-.876 1.653-1.234 2.461-2.253.226-5.103 1.064-8.194 3.295-.717.524-.8 1.253-.679 1.895-5.677-1.412-12.765-2.45-21.333-2.409-18.312.08-30.858 4.307-36.267 6.519-.864.355-1.442.886-1.762 1.521a74.632 74.632 0 0 1-.657-1.778c4.514-3.725 17.581-10.953 50.266-9.84 0 0 13.455-2.619 17.196-22.064v-.891c1.615.759 3.132 1.732 4.336 2.986C.868-1.495.431-.74 0 0" style="fill:#393536;fill-opacity:1;fill-rule:nonzero;stroke:none" transform="translate(381.75 572.861) scale(1.43132)"/><path d="M0 0s-2.562-1.457 3.733-2.944c1.038-.245-1.57-2.25-1.547-3.125.015-.876 3.472-.959 3.472-.959l1.676-.045s-2.76-3.382-2.555-4.333c.199-.955 1.211-.714 1.211-.714s2.25.665 3.51.586c.453-.031.166-.48.091-.993-.197-1.287-.03-4.706 1.943-2.823l8.542 10.621C18.064-2.506 16.475-.2 15.331 1.97Z" style="fill:#231f20;fill-opacity:1;fill-rule:nonzero;stroke:none" transform="translate(225.263 691.402) scale(1.43132)"/><path d="M0 0c-1.355.823-2.283 1.823-3.035 2.884-5.22-5.439-16.338-5.647-16.338-5.647-1.329.098-2.643.468-3.861.966.381-.849 2.777-5.19 11.896-4.517 0 0-1.491-4.111 4.677-3.926 0 0 8.329 1.178 10.356 8.704C2.37-1.17 1.121-.672 0 0" style="fill:#fbc589;fill-opacity:1;fill-rule:nonzero;stroke:none" transform="translate(388.075 565.558) scale(1.43132)"/><path d="M0 0c-.43.306-.808.653-1.155 1.03-1.143-2.389-2.314-4.295-3.182-4.397 0 0-4.585-.641-5.956-5.227 0 0-1.188-4.472 5.311-6.824 0 0 20.476-7.477 24.748-5.639 2.672 1.163 6.16 6.783 8.806 12.085C19.03-9.507 0 0 0 0" style="fill:#fbc589;fill-opacity:1;fill-rule:nonzero;stroke:none" transform="translate(281.144 577.388) scale(1.43132)"/><path d="M0 0c-.672 9.602-3.091 21.974-6.654 28.277-11.87 20.985-24.624 32.006-53.244 32.006-25.292 0-41.374-11.021-53.241-32.006-3.562-6.303-5.982-18.675-6.653-28.277-.468-6.613-9.685-14.818-4.858-34.743 1.159-4.804 5.51-11.632 12.58-16.693-12.757 40.083 15.599 57.565 15.599 57.565 12.753 7.941 25.707 9.194 36.573 9.24 10.866-.046 23.819-1.299 36.577-9.24 0 0 28.322-17.52 15.565-57.603C-.683-46.416 3.691-39.547 4.861-34.743 9.681-14.818.472-6.613 0 0" style="fill:#e9e9e9;fill-opacity:1;fill-rule:nonzero;stroke:none" transform="translate(422.995 750.595) scale(1.43132)"/><path d="M0 0c6.296 1.487 3.733 2.944 3.733 2.944l-15.328 1.97c-1.151-2.17-2.736-4.477-4.748-6.699l8.542-10.621c1.974-1.884 2.147 1.536 1.947 2.823-.079.513-.37.962.087.993 1.261.079 3.51-.586 3.51-.586s1.008-.241 1.215.714c.197.951-2.559 4.333-2.559 4.333l1.676.045s3.454.083 3.476.959C1.578-2.25-1.034-.245 0 0" style="fill:#231f20;fill-opacity:1;fill-rule:nonzero;stroke:none" transform="translate(443.918 687.189) scale(1.43132)"/><path d="M0 0c-12.757 7.941-25.71 9.194-36.577 9.239C-47.443 9.194-60.396 7.941-73.15 0c0 0-28.28-17.441-15.644-57.414 9.813-17.626 29.508-29.67 52.217-29.67 22.676 0 42.344 12.006 52.176 29.59C28.266-17.486 0 0 0 0" style="fill:#fbc589;fill-opacity:1;fill-rule:nonzero;stroke:none" transform="translate(389.615 759.368) scale(1.43132)"/><path d="M0 0c-12.757 7.941-25.71 9.194-36.577 9.239C-47.443 9.194-60.396 7.941-73.15 0c0 0-11.111-6.85-16.289-21.819 39.437 13.27 82.928 4.178 82.928 4.178 17.691-4.076 17.389-12.568 17.389-12.568l.067-.027C9.949-50.017-1.057-92.085-60.653-82.238l.694-.321c7.168-2.902 15.075-4.525 23.382-4.525 22.676 0 42.344 12.006 52.176 29.59C28.266-17.486 0 0 0 0" style="fill:#e5b176;fill-opacity:1;fill-rule:nonzero;stroke:none" transform="translate(389.615 759.368) scale(1.43132)"/><path d="M0 0c7.073 5.058 11.448 11.927 12.618 16.731 4.82 19.925-4.39 28.13-4.862 34.743-.671 9.602-3.091 21.974-6.654 28.277-5.487 9.7-11.16 17.264-18.509 22.604 2.986-3.502 22.095-26.065 7.703-29.081 0 0 21.687-25.582 8.757-33.395C3.333 30.572 5.545 17.419 0 0" style="fill:#aeacac;fill-opacity:1;fill-rule:nonzero;stroke:none" transform="translate(411.893 676.919) scale(1.43132)"/><path d="M0 0c0-14.961-16.984-24.778-37.935-24.778S-75.875-14.961-75.875 0c0 14.958 16.989 24.779 37.94 24.779C-16.984 24.779 0 14.958 0 0" style="fill:#8d8b8b;fill-opacity:1;fill-rule:nonzero;stroke:none" transform="translate(391.387 797.189) scale(1.43132)"/><path d="M0 0c1.691-2.876 2.63-6.095 2.63-9.598 0-14.961-16.984-24.778-37.935-24.778s-37.939 9.817-37.939 24.778c0 6.99 3.714 12.866 9.809 17.128-4.469-3.05-11.187-9.591-11.897-21.461 0 0-.135-23.287 26.904-27.635 9.273-1.816 19.588-.929 25.646-.068C4.835-38.724 4.967-15.716 4.967-15.716 4.808-8.873 2.608-3.737 0 0" style="fill:#f68994;fill-opacity:1;fill-rule:nonzero;stroke:none" transform="translate(387.622 810.927) scale(1.43132)"/><path d="M0 0c.495-1.582.989-3.661 1.136-5.967 3.171.313 18.181.313 21.355 0 .144 2.212.604 4.219 1.076 5.775C17.513-.959 8.379-1.547 0 0" style="fill:#231f20;fill-opacity:1;fill-rule:nonzero;stroke:none" transform="translate(318.98 751.308) scale(1.43132)"/><path d="M0 0a59.09 59.09 0 0 1-4.559 2.552C-8.67-1.355-14.852-4.627-24.174-5.612c-.114-.015-.238-.027-.351-.042.117-2.242.468-5.103 1.449-6.356 8.247-.985 15.342-2.389 21.295-3.91 1.483 5.714 3.596 7.432 3.596 7.432S.562-13.459 1.6-16.826c3.979-1.124 10.433-3.438 10.478-3.453 1.808-.899 4.087-5.903 3.827-10.776-.008-1.177.083-4.906-1.91-4.744-3.374.26-2.68 6.998-4.344 9.266 0 0-1.936 1.411-2.416-.608-1.06-4.45-.57-11.198 4.107-13.953 2.634-1.54 5.427-.842 7.465.898C20.034-12.402 0 0 0 0" style="fill:#231f20;fill-opacity:1;fill-rule:nonzero;stroke:none" transform="translate(389.615 759.368) scale(1.43132)"/><path d="M0 0a57.944 57.944 0 0 1-5.084-2.812s-10.738-6.631-16.018-21.072c3.163 1.291 7.318 2.789 12.489 4.246 1.046 3.367-.204 8.337-.204 8.337s2.114-1.717 3.586-7.431c5.963 1.521 13.059 2.925 21.306 3.91 1.022 1.295 1.354 4.322 1.46 6.59C9.458-6.801 3.857-3.665 0 0" style="fill:#231f20;fill-opacity:1;fill-rule:nonzero;stroke:none" transform="translate(292.191 763.393) scale(1.43132)"/><path d="M0 0c-.808-3.849-.611-5.22-.611-5.22s8.05 19.487 22.902 26.613c-.944 2.963-1.223 5.397-1.302 6.609C14.923 24.963 4.404 17.358 0 0" style="fill:#231f20;fill-opacity:1;fill-rule:nonzero;stroke:none" transform="translate(249.805 749.703) scale(1.43132)"/><path d="M0 0c-4.408 17.381-14.954 24.986-21.004 28.013.012-.317.046-.63.053-.955 0 0-.019-2.446-.989-5.831C-7.311 13.965.611-5.22.611-5.22S.804-3.849 0 0" style="fill:#231f20;fill-opacity:1;fill-rule:nonzero;stroke:none" transform="translate(424.718 749.703) scale(1.43132)"/><path d="M0 0c0-12.591-14.886-20.849-33.248-20.849-18.358 0-33.24 8.258-33.24 20.849 0 12.587 14.882 20.853 33.24 20.853C-14.886 20.853 0 12.587 0 0" style="fill:#e0f5f8;fill-opacity:1;fill-rule:nonzero;stroke:none" transform="translate(384.677 797.189) scale(1.43132)"/><g clip-path="url(#c)" opacity="0.199997" transform="translate(-272.96 221.337) scale(1.43132)"><path d="M0 0c0 5.416-2.763 10.029-7.367 13.531 1.396-3.529 11.768-33.123-32.886-33.961a57.735 57.735 0 0 1 7.005-.419C-14.886-20.849 0-12.591 0 0" style="fill:#231f20;fill-opacity:1;fill-rule:nonzero;stroke:none" transform="translate(459.461 402.322)"/></g><path d="M0 0c2.038 7.654 14.954 9.478 21.495 9.307 1.173-.033 4.174-.377 4-2.279-.252-2.721-5.035-3.095-7.005-3.352-2.411-.317-4.888-.294-7.261-.879-2.733-.66-4.107-2.208-6.16-3.914-1.487-1.234-5.832-2.197-5.095 1 .011.042.018.083.026.117" style="fill:#fff;fill-opacity:1;fill-rule:nonzero;stroke:none" transform="translate(300.921 807.512) scale(1.43132)"/><path d="M0 0c-1.51-.562-2.8-2.22-2.031-3.752.948-1.914 3.79-1.823 4.76-.215.974 1.608.89 3.801-1.284 4.144C.977.249.483.177 0 0" style="fill:#fff;fill-opacity:1;fill-rule:nonzero;stroke:none" transform="translate(297.188 801.1) scale(1.43132)"/><path d="M0 0c-1.4-1.204-.958-4.186-.464-5.545 1.174-3.208 3.45-6.823-.045-8.914-1.952-.838-2.926 1.747-4.881 1.672-3.77-.14-2.238-5.126 2.778-6.224 4.831-1.061 8.843 1.574 10.206 6.016C10.387-3.918 5.171 4.465 0 0" style="fill:#231f20;fill-opacity:1;fill-rule:nonzero;stroke:none" transform="translate(294.72 723.373) scale(1.43132)"/><path d="M0 0c-.294-1.37-1.155-2.37-1.925-2.234-.777.135-1.177 1.355-.887 2.732.298 1.366 1.163 2.363 1.937 2.231C-.105 2.589.291 1.37 0 0" style="fill:#fff;fill-opacity:1;fill-rule:nonzero;stroke:none" transform="translate(301.17 718.203) scale(1.43132)"/><path d="M0 0c-1.396-1.204-.951-4.186-.46-5.545 1.166-3.208 3.453-6.823-.038-8.914-1.955-.838-2.929 1.747-4.888 1.672-3.77-.14-2.238-5.126 2.782-6.224 4.835-1.061 8.839 1.574 10.209 6.016C10.395-3.918 5.179 4.465 0 0" style="fill:#231f20;fill-opacity:1;fill-rule:nonzero;stroke:none" transform="translate(376.866 723.373) scale(1.43132)"/><path d="M0 0c-.291-1.37-1.163-2.37-1.929-2.234-.777.135-1.177 1.355-.883 2.732.294 1.366 1.155 2.363 1.928 2.231C-.102 2.589.283 1.37 0 0" style="fill:#fff;fill-opacity:1;fill-rule:nonzero;stroke:none" transform="translate(383.332 718.203) scale(1.43132)"/><path d="M0 0a.038.038 0 0 0 .019.004C.022 0 .022 0 .03 0c.562 2.767 1.276 5.537 1.095 8.372-.121 2.083-2.771 3.098-4.488 2.487-1.4-.502-3.023-3.186-3.246-5.126-1.868 3.375-4.178 7.745-7.979 9.213-5.084 1.955-9.571-.094-11.421-4.491-2.026-4.823-1.068-8.911 2.404-14.308 2.272-3.533 4.658-5.949 8.13-9.406.347-.34.789-.777 1.291-1.253 1.932.951 4.948 2.691 7.545 5.284C-3.465-6.05-1.012-1.853 0 0" style="fill:#fbc589;fill-opacity:1;fill-rule:nonzero;stroke:none" transform="translate(269.653 666.52) scale(1.43132)"/><path d="M0 0a.038.038 0 0 0 .019.004C.022 0 .022 0 .03 0c.562 2.767 1.276 5.537 1.095 8.372-.121 2.083-2.771 3.098-4.488 2.487-.091-.034-.2-.11-.298-.163.876-.419 3.212-1.139 2.204-6.62-.657-3.581-2.061-6.238-4.25-9.149-1.585-2.109-3.627-4.299-5.99-5.533-2.736-1.434-5.846-.241-8.028 1.733 1.246-1.382 2.627-2.771 4.25-4.386.347-.34.789-.777 1.291-1.253 1.932.951 4.948 2.691 7.545 5.284C-3.465-6.05-1.012-1.853 0 0" style="fill:#e5b176;fill-opacity:1;fill-rule:nonzero;stroke:none" transform="translate(269.653 666.52) scale(1.43132)"/><path d="M0 0c-7.96-3.77-16.965-5.903-26.511-5.903-9.485 0-18.426 2.11-26.359 5.835a16.896 16.896 0 0 1 2.389-3.265 30.18 30.18 0 0 1 3.2-2.929c4.118-3.294 9.304-6.216 14.498-7.337 3.442-.747 7.065-.664 10.367-2.015 2.993-1.223 6.345-3.348 7.832-6.326 1.189-2.396.343-3.944-1.17-5.231 3.257.381 6.224.913 8.885 1.532a33.328 33.328 0 0 0-.547 3.103s.011-.011.022-.015c-5.88 4.061-6.027 8.413-5.122 11.315.638 2.046 3.65 4.827 4.564 5.19 1.279.498 2.521.554 3.683.362h-.007c1.03 1.932 2.279 3.797 3.782 5.42.166.087.328.177.494.264" style="fill:#d1d0ca;fill-opacity:1;fill-rule:nonzero;stroke:none" transform="translate(375.207 643.171) scale(1.43132)"/><path d="M0 0c-7.96-3.77-16.965-5.903-26.511-5.903-9.485 0-18.426 2.11-26.359 5.835a16.896 16.896 0 0 1 2.389-3.265 30.18 30.18 0 0 1 3.2-2.929c4.118-3.294 9.304-6.216 14.498-7.337 3.442-.747 7.065-.664 10.367-2.015 2.993-1.223 6.345-3.348 7.832-6.326 1.189-2.396.343-3.944-1.17-5.231 3.257.381 6.224.913 8.885 1.532a33.328 33.328 0 0 0-.547 3.103s.011-.011.022-.015c-5.88 4.061-6.027 8.413-5.122 11.315.638 2.046 3.65 4.827 4.564 5.19 1.279.498 2.521.554 3.683.362h-.007c1.03 1.932 2.279 3.797 3.782 5.42.166.087.328.177.494.264" style="fill:#aeacac;fill-opacity:1;fill-rule:nonzero;stroke:none" transform="translate(375.207 643.171) scale(1.43132)"/><path d="M0 0c1.061-1.91 3.401-4.503 8.368-4.922 0 0 6.507-.4 10.209 4.571a64.714 64.714 0 0 0-8.126-.521C6.885-.872 3.39-.574 0 0" style="fill:#cfa06a;fill-opacity:1;fill-rule:nonzero;stroke:none" transform="translate(322.303 635.97) scale(1.43132)"/><path d="M0 0c-3.974 3.536-5.994 3.824-7.798 1.276 0 0 24.877-25.979 23.858-55.346 0 0 5.05-.778 4.635 9.065 0 0 .128 18.57-17.283 41.272C2.831-2.982.506-.453 0 0" style="fill:#835f04;fill-opacity:1;fill-rule:nonzero;stroke:none" transform="translate(396.432 646.958) scale(1.43132)"/><path d="M0 0a60.347 60.347 0 0 0-7.42-4.114c-1.431-1.593-2.94-3.684-3.91-5.511 1.155-.192 2.23-.637 3.181-1.189 2.22 4.001 5.594 7.508 10.04 8.651C.713-.778-.019-.019-.019-.019-.015-.008-.003 0 0 0" style="fill:#908e7a;fill-opacity:1;fill-rule:nonzero;stroke:none" transform="translate(385.298 648.811) scale(1.43132)"/><path d="M0 0c-.468-2.597-.294-4.027-.317-5.982l.245-1.91-.505.275-7.549-14.738s-1.378-2.091.166-3.205c6.443-4.653 11.867-3.268 12.946-2.853 5.563 1.94 12.886 9.266 10.549 19.011C11.848-3.483 8.251 1.011 6.137 3.491 3.786 2.887 1.736 1.642 0 0" style="fill:#e9e9e9;fill-opacity:1;fill-rule:nonzero;stroke:none" transform="translate(379.237 640.708) scale(1.43132)"/><path d="M0 0c-.913-.363-3.925-3.144-4.563-5.19-1.004-3.23-.732-8.243 7.295-12.666l7.387 14.421C8.598-1.842 4.499 1.762 0 0" style="fill:#fbc589;fill-opacity:1;fill-rule:nonzero;stroke:none" transform="translate(363.825 634.517) scale(1.43132)"/><path d="M0 0a11.018 11.018 0 0 0-.558-1.544s-7.391-14.229-12.346-7.439c.932-2.23 3.004-4.619 7.061-6.85L1.54-1.411C1.17-1.023.642-.517 0 0" style="fill:#e5b176;fill-opacity:1;fill-rule:nonzero;stroke:none" transform="translate(376.098 631.621) scale(1.43132)"/><path d="m0 0 .09.174A23.24 23.24 0 0 0-2.106 1.54c.181-1.464.46-2.88.8-4.246l.008.023c.075-.355.154-.702.253-1.035 1.981-7.167 5.604-12.61 6.54-13.938 1.661.906 2.095 2.091 2.193 2.785a47.438 47.438 0 0 0-4.48 8.976 180.8 180.8 0 0 0-.396 1.075c-.857.435-1.74.963-2.646 1.616C-1.378-2.091 0 0 0 0" style="fill:#908e7a;fill-opacity:1;fill-rule:nonzero;stroke:none" transform="translate(367.606 608.71) scale(1.43132)"/><path d="M0 0c-.566.577-2.404 1.755-3.159 1.963C-6.05 2.766-11.821 3.276-16.06-.2-4.469-18.921-4.567-33.097-4.567-33.097c.004-.14 0-.253.004-.385 5.114-.815 9.168 1.781 11.194 4.114.483.543 1.446 3.02 1.57 3.752C10.058-14.659 4.004-4.091 0 0" style="fill:#e9e9e9;fill-opacity:1;fill-rule:nonzero;stroke:none" transform="translate(432.59 629.914) scale(1.43132)"/><path d="M0 0c-.913-3.974-4.038-12.772-13.429-9.991 1.151-5.178 1.129-8.254 1.129-8.254.003-.14 0-.253.003-.385 5.115-.815 9.168 1.781 11.195 4.114.483.543 1.446 3.02 1.57 3.752C1.098-7.05.8-3.386 0 0" style="fill:#aeacac;fill-opacity:1;fill-rule:nonzero;stroke:none" transform="translate(443.659 608.657) scale(1.43132)"/><path d="M0 0c-1.487 2.978-4.839 5.103-7.832 6.326-3.302 1.351-6.926 1.268-10.368 2.015-5.193 1.121-10.379 4.042-14.497 7.337a30.18 30.18 0 0 0-3.2 2.929 16.901 16.901 0 0 0-2.39 3.265c.023-.011.049-.019.072-.034-.996.475-1.981.955-2.944 1.472-7.035 3.778-13.157 8.888-17.984 14.946-.004 0-.012 0-.019-.004-1.012-1.853-3.465-6.05-6.639-9.228-2.763-2.759-4.929-3.898-6.832-4.808-2.578-1.544-.909-3.605-.634-3.925 8.557-9.916 17.101-11.927 23.586-13.286v.004c-.329-.732-.619-1.408-.883-2.016-.797-1.838-.238-3.529 1.725-4.329 5.408-2.211 17.954-6.439 36.267-6.518a95.174 95.174 0 0 1 11.44.623h-.027C.343-3.944 1.189-2.397 0 0" style="fill:#e9e9e9;fill-opacity:1;fill-rule:nonzero;stroke:none" transform="translate(354.333 611.768) scale(1.43132)"/><path d="M0 0c2.672 1.163 6.159 6.782 8.805 12.085-2.057-.113-4.555.234-7.209.865C.97 10.549-2.423 1.06-16.132 2.778-9.995.894-2.412-1.038 0 0" style="fill:#e5b176;fill-opacity:1;fill-rule:nonzero;stroke:none" transform="translate(309.435 547.25) scale(1.43132)"/><path d="M0 0s7.386-2.34 12.81 3.827C12.81 3.827 6.36-.189 0 0" style="fill:#e5b176;fill-opacity:1;fill-rule:nonzero;stroke:none" transform="translate(363.879 556.925) scale(1.43132)"/><path d="M0 0c6.442-4.654 11.866-3.269 12.946-2.853C17.75-1.181 23.85 4.51 23.929 12.308v.004c-.004.004-.008.015-.012.019C22.955 9.424 17.173-5.099.8 4.692l-.151.102-.815-1.59S-1.544 1.113 0 0" style="fill:#aeacac;fill-opacity:1;fill-rule:nonzero;stroke:none" transform="translate(367.844 604.124) scale(1.43132)"/><path d="M0 0a20.917 20.917 0 0 0-1.985-.494 94.102 94.102 0 0 1-.306 4.578 32.23 32.23 0 0 1 4.386 1.445c.158-1.506.256-3.053.313-4.631A23.586 23.586 0 0 0 0 0m-3.091 10.172a30.27 30.27 0 0 1 4.25 1.645c.256-1.279.468-2.589.656-3.937a29.707 29.707 0 0 0-4.359-1.505 87.513 87.513 0 0 1-.547 3.797m-1.276 6.205A31.605 31.605 0 0 1-.43 18.218a66.35 66.35 0 0 0 1.098-4.117 26.54 26.54 0 0 0-4.167-1.668 86.861 86.861 0 0 1-.868 3.944M-8.088-.634a86.659 86.659 0 0 1-.166 3.631c1.2.139 2.464.332 3.759.585.128-1.431.211-2.887.275-4.367-1.328-.098-2.627-.057-3.868.151m-.763 9.526c1.17.178 2.371.408 3.586.698.2-1.219.374-2.464.524-3.729a44.43 44.43 0 0 0-3.698-.596 96.554 96.554 0 0 1-.412 3.627m-.951 5.828a44.24 44.24 0 0 1 3.314.913 79.78 79.78 0 0 0 .823-3.793 42.267 42.267 0 0 0-3.514-.691 100.29 100.29 0 0 1-.623 3.571m-1.177 5.197c1.052.385 2.041.781 2.959 1.204.339-1.072.671-2.182.977-3.318a38.156 38.156 0 0 0-3.219-.89 89.249 89.249 0 0 1-.717 3.004M-12.663.97c-.468.287-.871.6-1.23.936.011.23.015.479.022.728a58.82 58.82 0 0 1 3.382.151c.064-.936.11-1.895.144-2.861A11.57 11.57 0 0 0-12.663.97m-1.559 7.382a58.35 58.35 0 0 1 3.144.25 86.4 86.4 0 0 0 .404-3.552 50.542 50.542 0 0 0-3.261-.151 61.852 61.852 0 0 1-.287 3.453m-.713 5.481c.853.094 1.85.241 2.933.441.215-1.087.415-2.238.6-3.412a54.145 54.145 0 0 0-3.08-.253 133.345 133.345 0 0 1-.453 3.224m-.608 4.729a46.08 46.08 0 0 1 2.424.653c.226-.865.441-1.786.656-2.748a42.077 42.077 0 0 0-2.826-.415c-.038.219-.159 2-.254 2.51m10.429 11.493c.506-.989 1.147-2.548 1.642-3.646a26.16 26.16 0 0 0-3.258-2.136c-.347.981-.845 2.441-1.215 3.351a38.04 38.04 0 0 1 2.831 2.431m2.544-5.775a65.884 65.884 0 0 0 1.441-3.88 29.404 29.404 0 0 0-3.804-1.842 79.05 79.05 0 0 1-1.064 3.556A29.14 29.14 0 0 1-2.57 24.28M-18.068 8.284c.469-.011.993-.018 1.601-.011.121-1.075.207-2.159.272-3.181-.038.052-1.74 2.97-1.873 3.192m-1.373 2.288c-.302.506-.619 1.026-.91 1.513 1.095-.117 2.329-.068 3.31.627.102-.668.2-1.404.302-2.178a42.878 42.878 0 0 0-2.702.038M4.601 2.019s-.189 3.054-.351 4.514c1.143.6 2.506 1.552 3.567 2.393-.095.91-.204 1.804-.333 2.703A19.007 19.007 0 0 0 3.94 8.956c-.2 1.363-.43 2.692-.694 3.979a18.43 18.43 0 0 1 3.502 2.766 69.4 69.4 0 0 1-.637 2.657 14.626 14.626 0 0 0-3.39-3.069 78.369 78.369 0 0 1-1.139 4.179 21.89 21.89 0 0 1 3.374 2.823 64.036 64.036 0 0 1-.819 2.404 19.036 19.036 0 0 0-3.273-3.019 71.669 71.669 0 0 1-1.566 4.14 20.868 20.868 0 0 1 3.038 3.423c-.354.823-.72 1.635-1.094 2.435a17.328 17.328 0 0 0-2.899-3.68c-.528 1.147-1.2 2.751-1.744 3.778A49.738 49.738 0 0 1-.49 35.191a84.798 84.798 0 0 1-1.299 2.416c-.774-1.015-1.861-2.393-2.918-3.574-.962-3.103-2.845-5.7-5.004-7.632.185-.611.724-2.446.974-3.144a34.07 34.07 0 0 0-2.827-1.158c-.136.467-.412 1.709-.593 2.445a13.842 13.842 0 0 0-2.076-1.091c.2-.705.423-1.672.536-2.064a41.027 41.027 0 0 0-2.585-.698s-.533 1.207-.88 2a12.773 12.773 0 0 0-2.608.011c.359-.807.955-1.868 1.234-2.46l.638-1.446c.162-.457.272-1.189.272-1.925 0-.955-.177-1.914-.66-2.298-.483-.385-1.367-.363-2.159-.242-.095-.706-.536-1.88-2.189-2.785a.677.677 0 0 1-.08.117l2.929-4.873 1.117-1.91.419-.724c1.05-1.824 2.133-3.715 4.42-5.103C-9.945-3.299-4.533-3.748.664-2.144 3.212-1.351 5.337-.329 6.975.917c.056.049.509.4 1.094.947v.019c.034.925.034 1.846.019 2.771-1.222-1.367-3.487-2.635-3.487-2.635" style="fill:#c6ad7b;fill-opacity:1;fill-rule:nonzero;stroke:none" transform="translate(407.869 566.914) scale(1.43132)"/><path d="M0 0s-11.75 2.978-17.373-6.005c2.668-.634 5.174-.978 7.235-.864 0 0 2.997-.185 5.609 2.057 0 0 4.718 4.91 10.843.932 0 0 1.627-1.502 3.994-2.872C9.813-5.926 6.345-.517 0 0" style="fill:#393536;fill-opacity:1;fill-rule:nonzero;stroke:none" transform="translate(336.587 574.38) scale(1.43132)"/><path d="M0 0c-.785-.962-1.408-.951-3.072-1.027-1.265-.056-3.892.181-2.899 1.729.876 1.359 4.412 1.543 5.835.355C.09.853.098.109 0 0m.438 4.797c-3.303.883-7.273-.079-9.523-2.396-2.302-2.367-3.189-7.307-.37-9.81C-6.492-10.04-.162-9.587 1.71-7.983c.641.551.717 1.812-.872 1.812-.661-.004-2.62-.162-3.314-.143-1.996.045-4.635.781-5.163 2.109 3.612-.449 9.224-.936 11.76 2.401 2.19 2.891-.887 5.861-3.683 6.601" style="fill:#231f20;fill-opacity:1;fill-rule:nonzero;stroke:none" transform="translate(341.054 699.63) scale(1.43132)"/><path d="M0 0c-1.4-1.204-.958-4.186-.464-5.545 1.174-3.208 3.45-6.823-.045-8.914-1.952-.838-2.926 1.747-4.881 1.672-3.77-.14-2.238-5.126 2.778-6.224 4.831-1.061 8.843 1.574 10.206 6.016C10.387-3.918 5.171 4.465 0 0" style="fill:#231f20;fill-opacity:1;fill-rule:nonzero;stroke:none" transform="translate(294.72 723.373) scale(1.43132)"/><path d="M0 0c-.294-1.37-1.155-2.37-1.925-2.234-.777.135-1.177 1.355-.887 2.732.298 1.366 1.163 2.363 1.937 2.231C-.105 2.589.291 1.37 0 0" style="fill:#fff;fill-opacity:1;fill-rule:nonzero;stroke:none" transform="translate(301.17 718.203) scale(1.43132)"/><path d="M0 0c-1.396-1.204-.951-4.186-.46-5.545 1.166-3.208 3.453-6.823-.038-8.914-1.955-.838-2.929 1.747-4.888 1.672-3.77-.14-2.238-5.126 2.782-6.224 4.835-1.061 8.839 1.574 10.209 6.016C10.395-3.918 5.179 4.465 0 0" style="fill:#231f20;fill-opacity:1;fill-rule:nonzero;stroke:none" transform="translate(376.866 723.373) scale(1.43132)"/><path d="M0 0c-.291-1.37-1.163-2.37-1.929-2.234-.777.135-1.177 1.355-.883 2.732.294 1.366 1.155 2.363 1.928 2.231C-.102 2.589.283 1.37 0 0" style="fill:#fff;fill-opacity:1;fill-rule:nonzero;stroke:none" transform="translate(383.332 718.203) scale(1.43132)"/><path d="M0 0c-.419 0-.71.019-.838.026-11.885.208-13.776 9.364-13.795 9.455a1.39 1.39 0 0 0 2.733.524c.053-.286 1.547-7.05 11.145-7.208h.117c.378-.042 9.41-.793 12.621 7.608a1.387 1.387 0 1 0 2.593-.984C11.267.747 2.797 0 0 0" style="fill:#f46f5e;fill-opacity:1;fill-rule:nonzero;stroke:none" transform="translate(337.629 659.508) scale(1.43132)"/><path d="M0 0c0-4.288-4.574-7.76-10.217-7.76-5.635 0-10.209 3.472-10.209 7.76 0 4.287 4.574 7.76 10.209 7.76C-4.574 7.76 0 4.287 0 0" style="fill:#f89a7b;fill-opacity:1;fill-rule:nonzero;stroke:none" transform="translate(294.72 688.69) scale(1.43132)"/><path d="M0 0c0-4.288-4.571-7.76-10.209-7.76-5.639 0-10.217 3.472-10.217 7.76 0 4.287 4.578 7.76 10.217 7.76C-4.571 7.76 0 4.287 0 0" style="fill:#f89a7b;fill-opacity:1;fill-rule:nonzero;stroke:none" transform="translate(407.869 688.69) scale(1.43132)"/></g></svg>