<svg xmlns="http://www.w3.org/2000/svg" xml:space="preserve" width="600" height="471.138" viewBox="0 0 600 471.13799"><defs><radialGradient id="a" cx="0" cy="0" r="1" fx="0" fy="0" gradientTransform="matrix(7.78723 0 0 -7.78723 207.897 332.083)" gradientUnits="userSpaceOnUse" spreadMethod="pad"><stop offset="0" style="stop-opacity:1;stop-color:#fff"/><stop offset="0.0424242" style="stop-opacity:1;stop-color:#fff"/><stop offset="0.70039054" style="stop-opacity:1;stop-color:#fff"/><stop offset="1" style="stop-opacity:0;stop-color:#fff"/></radialGradient><radialGradient id="h" cx="0" cy="0" r="1" fx="0" fy="0" gradientTransform="matrix(7.78723 0 0 -7.78723 207.897 332.083)" gradientUnits="userSpaceOnUse" spreadMethod="pad"><stop offset="0" style="stop-opacity:1;stop-color:#fac6ca"/><stop offset="0.0424242" style="stop-opacity:1;stop-color:#fac6ca"/><stop offset="0.70039054" style="stop-opacity:1;stop-color:#fac6ca"/><stop offset="1" style="stop-opacity:1;stop-color:#ffe6cb"/></radialGradient><radialGradient id="b" cx="0" cy="0" r="1" fx="0" fy="0" gradientTransform="matrix(7.7876 0 0 -7.7876 276.066 345.147)" gradientUnits="userSpaceOnUse" spreadMethod="pad"><stop offset="0" style="stop-opacity:1;stop-color:#fff"/><stop offset="0.0424242" style="stop-opacity:1;stop-color:#fff"/><stop offset="0.70039054" style="stop-opacity:1;stop-color:#fff"/><stop offset="1" style="stop-opacity:0;stop-color:#fff"/></radialGradient><radialGradient id="k" cx="0" cy="0" r="1" fx="0" fy="0" gradientTransform="matrix(7.7876 0 0 -7.7876 276.066 345.147)" gradientUnits="userSpaceOnUse" spreadMethod="pad"><stop offset="0" style="stop-opacity:1;stop-color:#fac6ca"/><stop offset="0.0424242" style="stop-opacity:1;stop-color:#fac6ca"/><stop offset="0.70039054" style="stop-opacity:1;stop-color:#fac6ca"/><stop offset="1" style="stop-opacity:1;stop-color:#ffe6cb"/></radialGradient><radialGradient id="c" cx="0" cy="0" r="1" fx="0" fy="0" gradientTransform="scale(7.41668 -7.41668) rotate(28.151 116.825 69.544)" gradientUnits="userSpaceOnUse" spreadMethod="pad"><stop offset="0" style="stop-opacity:1;stop-color:#fff"/><stop offset="0.0424242" style="stop-opacity:1;stop-color:#fff"/><stop offset="0.70039054" style="stop-opacity:1;stop-color:#fff"/><stop offset="1" style="stop-opacity:0;stop-color:#fff"/></radialGradient><radialGradient id="o" cx="0" cy="0" r="1" fx="0" fy="0" gradientTransform="scale(7.41668 -7.41668) rotate(28.151 116.825 69.544)" gradientUnits="userSpaceOnUse" spreadMethod="pad"><stop offset="0" style="stop-opacity:1;stop-color:#fac6ca"/><stop offset="0.0424242" style="stop-opacity:1;stop-color:#fac6ca"/><stop offset="0.70039054" style="stop-opacity:1;stop-color:#fac6ca"/><stop offset="1" style="stop-opacity:1;stop-color:#ffe6cb"/></radialGradient><radialGradient id="d" cx="0" cy="0" r="1" fx="0" fy="0" gradientTransform="scale(7.41692 -7.41692) rotate(28.151 118.027 88.545)" gradientUnits="userSpaceOnUse" spreadMethod="pad"><stop offset="0" style="stop-opacity:1;stop-color:#fff"/><stop offset="0.0424242" style="stop-opacity:1;stop-color:#fff"/><stop offset="0.70039054" style="stop-opacity:1;stop-color:#fff"/><stop offset="1" style="stop-opacity:0;stop-color:#fff"/></radialGradient><radialGradient id="r" cx="0" cy="0" r="1" fx="0" fy="0" gradientTransform="scale(7.41692 -7.41692) rotate(28.151 118.027 88.545)" gradientUnits="userSpaceOnUse" spreadMethod="pad"><stop offset="0" style="stop-opacity:1;stop-color:#fac6ca"/><stop offset="0.0424242" style="stop-opacity:1;stop-color:#fac6ca"/><stop offset="0.70039054" style="stop-opacity:1;stop-color:#fac6ca"/><stop offset="1" style="stop-opacity:1;stop-color:#ffe6cb"/></radialGradient><clipPath id="e" clipPathUnits="userSpaceOnUse"><path d="M0 841.89h595.28V0H0Z"/></clipPath><clipPath id="f" clipPathUnits="userSpaceOnUse"><path d="M200.11 332.085a7.786 7.786 0 0 1 7.786-7.79 7.788 7.788 0 0 1 7.787 7.79 7.787 7.787 0 0 1-7.787 7.786 7.785 7.785 0 0 1-7.786-7.786"/></clipPath><clipPath id="i" clipPathUnits="userSpaceOnUse"><path d="M268.278 345.147a7.786 7.786 0 0 1 7.787-7.787 7.788 7.788 0 1 1 0 15.575 7.788 7.788 0 0 1-7.787-7.788"/></clipPath><clipPath id="l" clipPathUnits="userSpaceOnUse"><path d="M0 841.89h595.28V0H0Z"/></clipPath><clipPath id="m" clipPathUnits="userSpaceOnUse"><path d="M339.306 351.281a7.42 7.42 0 0 1 3.042-10.04 7.417 7.417 0 0 1 10.038 3.04 7.42 7.42 0 0 1-3.039 10.039 7.365 7.365 0 0 1-3.493.879 7.422 7.422 0 0 1-6.548-3.918"/></clipPath><clipPath id="p" clipPathUnits="userSpaceOnUse"><path d="M406.864 338.824a7.418 7.418 0 0 1 3.04-10.04 7.418 7.418 0 0 1 6.998 13.081 7.42 7.42 0 0 1-10.038-3.041"/></clipPath><clipPath id="s" clipPathUnits="userSpaceOnUse"><path d="M0 841.89h595.28V0H0Z"/></clipPath><mask id="g" width="1" height="1" x="0" y="0" maskUnits="userSpaceOnUse"><path d="M-32768 32767h65535v-65535h-65535Z" style="fill:url(#a);stroke:none"/></mask><mask id="j" width="1" height="1" x="0" y="0" maskUnits="userSpaceOnUse"><path d="M-32768 32767h65535v-65535h-65535Z" style="fill:url(#b);stroke:none"/></mask><mask id="n" width="1" height="1" x="0" y="0" maskUnits="userSpaceOnUse"><path d="M-32768 32767h65535v-65535h-65535Z" style="fill:url(#c);stroke:none"/></mask><mask id="q" width="1" height="1" x="0" y="0" maskUnits="userSpaceOnUse"><path d="M-32768 32767h65535v-65535h-65535Z" style="fill:url(#d);stroke:none"/></mask></defs><g clip-path="url(#e)" transform="matrix(2.07198 0 0 -2.07198 -343.87 948.668)"><path d="M0 0c6.429 5.937 2.79 9.313 2.79 9.313-2.968 3.271-6.174.237-6.174.237-1.577-1.449-3.472-1.973-3.472-1.973-7.069 1.626-8.382-3.874-8.382-3.874-.912.132-1.478-.038-2.53-.12-.868-1.016-2.652-3.31-4.17-6.596 1.518-.281 2.218-.311 2.218-.311 4.529-12.575 15.299-20.661 23.017-15.571 3.656 2.41 4.42 5.466 4.42 5.466C10.971-4.774 0 0 0 0" style="fill:#ffe6cb;fill-opacity:1;fill-rule:nonzero;stroke:none" transform="translate(303.343 312.997)"/><path d="M0 0c6.429 5.937 2.79 9.313 2.79 9.313-2.968 3.271-6.174.237-6.174.237-1.577-1.449-3.472-1.973-3.472-1.973-7.069 1.626-8.382-3.874-8.382-3.874-.912.132-1.478-.038-2.53-.12-.868-1.016-2.652-3.31-4.17-6.596 1.518-.281 2.218-.311 2.218-.311 4.529-12.575 15.299-20.661 23.017-15.571 3.656 2.41 4.42 5.466 4.42 5.466C10.971-4.774 0 0 0 0Z" style="fill:none;stroke:#231f20;stroke-width:1.666;stroke-linecap:round;stroke-linejoin:round;stroke-miterlimit:4;stroke-dasharray:none;stroke-opacity:1" transform="translate(303.343 312.997)"/><path d="M0 0c-.752-.615-1.781-2.168-4.952-1.773" style="fill:none;stroke:#231f20;stroke-width:1.666;stroke-linecap:round;stroke-linejoin:round;stroke-miterlimit:4;stroke-dasharray:none;stroke-opacity:1" transform="translate(303.874 313.527)"/><path d="M0 0s8.345-4.863 13.334-9.021c4.991-4.153-2.57 10.761-2.57 10.761" style="fill:#ffe6cb;fill-opacity:1;fill-rule:nonzero;stroke:#231f20;stroke-width:1.666;stroke-linecap:round;stroke-linejoin:round;stroke-miterlimit:4;stroke-dasharray:none;stroke-opacity:1" transform="translate(239.837 320.56)"/><path d="m0 0-.058-5.845s7.018-5.764 15.835-4.905c0 0 5.262 5.99 10.9 5.42 0 0-9.452 5.822-17.008 8.602z" style="fill:#fff;fill-opacity:1;fill-rule:nonzero;stroke:none" transform="translate(237.243 258.787)"/><path d="m0 0-.058-5.845s7.018-5.764 15.835-4.905c0 0 5.262 5.99 10.9 5.42 0 0-9.452 5.822-17.008 8.602z" style="fill:none;stroke:#231f20;stroke-width:1.666;stroke-linecap:round;stroke-linejoin:round;stroke-miterlimit:4;stroke-dasharray:none;stroke-opacity:1" transform="translate(237.243 258.787)"/><path d="M0 0c-.939 1.148-2.833 1.598-2.833 1.598-7.186.182-9.145-4.704-10.9-5.42-7.062.138-11.37 1.972-14.158 3.65-1.375.824-2.121 1.607-2.523 2.34-.349-1.846-.737-4.725-.301-6.744.692-3.187 6.458-6.08 14.837-7.243 8.382-1.168 17.234-1.39 19.051 1.84C4.991-6.751 2.393-2.153 0 0" style="fill:#eb9339;fill-opacity:1;fill-rule:nonzero;stroke:none" transform="translate(266.753 251.859)"/><path d="M0 0c-.939 1.148-2.833 1.598-2.833 1.598-7.186.182-9.145-4.704-10.9-5.42-7.062.138-11.37 1.972-14.158 3.65-1.375.824-2.121 1.607-2.523 2.34-.349-1.846-.737-4.725-.301-6.744.692-3.187 6.458-6.08 14.837-7.243 8.382-1.168 17.234-1.39 19.051 1.84C4.991-6.751 2.393-2.153 0 0Z" style="fill:none;stroke:#231f20;stroke-width:1.999;stroke-linecap:butt;stroke-linejoin:miter;stroke-miterlimit:10;stroke-dasharray:none;stroke-opacity:1" transform="translate(266.753 251.859)"/><path d="m0 0 1.607-5.991-2.656-2.625s-6.079-4.029-15.286-5.298c0 0-6.61 7.453-13.021 5.23 0 0 10.372 7.956 18.46 11.751z" style="fill:#fff;fill-opacity:1;fill-rule:nonzero;stroke:none" transform="translate(237.298 257.17)"/><path d="m0 0 1.607-5.991-2.656-2.625s-6.079-4.029-15.286-5.298c0 0-6.61 7.453-13.021 5.23 0 0 10.372 7.956 18.46 11.751z" style="fill:none;stroke:#231f20;stroke-width:1.666;stroke-linecap:round;stroke-linejoin:round;stroke-miterlimit:4;stroke-dasharray:none;stroke-opacity:1" transform="translate(237.298 257.17)"/><path d="M0 0c.944 1.4 2.988 2.064 2.988 2.064 7.895.753 10.435-4.768 12.424-5.469 7.76.691 12.349 3.142 15.286 5.298 1.448 1.061 2.205 2.023 2.588 2.905.528-2.115 1.184-5.428.863-7.799-.503-3.749-6.336-9.107-15.461-11.086C9.564-16.066-.444-15.426-2.7-11.815-4.957-8.205-2.457-2.681 0 0" style="fill:#eb9339;fill-opacity:1;fill-rule:nonzero;stroke:none" transform="translate(205.551 246.66)"/><path d="M0 0c.944 1.4 2.988 2.064 2.988 2.064 7.895.753 10.435-4.768 12.424-5.469 7.76.691 12.349 3.142 15.286 5.298 1.448 1.061 2.205 2.023 2.588 2.905.528-2.115 1.184-5.428.863-7.799-.503-3.749-6.336-9.107-15.461-11.086C9.564-16.066-.444-15.426-2.7-11.815-4.957-8.205-2.457-2.681 0 0Z" style="fill:none;stroke:#231f20;stroke-width:1.999;stroke-linecap:butt;stroke-linejoin:round;stroke-miterlimit:10;stroke-dasharray:none;stroke-opacity:1" transform="translate(205.551 246.66)"/><path d="M0 0c-8.121-4.168-12.55 1.245-12.55 1.245s-.423-1.298-2.955-3.497c-3.556-3.086-17.331-4.381-19.829 4.798-3.393 12.462 3.6 24.702 3.6 24.702 1.403 2.651 3.259 2.768 3.259 2.768l4.213.976 27.152-.216s2.048-4.245 2.841-9.956C7.798 5.961 1.395.716 0 0" style="fill:#b3d334;fill-opacity:1;fill-rule:nonzero;stroke:none" transform="translate(254.905 260.66)"/><path d="M0 0c-8.121-4.168-12.55 1.245-12.55 1.245s-.423-1.298-2.955-3.497c-3.556-3.086-17.331-4.381-19.829 4.798-3.393 12.462 3.6 24.702 3.6 24.702 1.403 2.651 3.259 2.768 3.259 2.768l4.213.976 27.152-.216s2.048-4.245 2.841-9.956C7.798 5.961 1.395.716 0 0Z" style="fill:none;stroke:#231f20;stroke-width:1.666;stroke-linecap:round;stroke-linejoin:round;stroke-miterlimit:4;stroke-dasharray:none;stroke-opacity:1" transform="translate(254.905 260.66)"/><path d="M0 0c3.758-7.986.054-23.67-2.666-26.705-3.248-3.625-8.245-2.729-8.719-2.626-.584.126-.388.954-.388.954l-.167 4.648-3.474-4.913c-.517-.728-.849-.672-.849-.672-16.178-.7-23.639 7.586-24.065 8.324-.422.736.194 1.402.194 1.402 2.483 4.757 4.877 11.397 4.877 11.395-8.969-9.72-17.006-8.339-17.006-8.339-8.064 4.262-10.41 16.493-10.41 16.493-.112 1.795 1.412 1.757 1.412 1.757 19.821 2.383 26.845 7.997 26.845 7.997a86.726 86.726 0 0 1 5.671-.013c-1.089-.004 11.731-5.173 16.453-16.432l5.125.357.19.013.355.024.386.027s-.149 6.173-.531 8.027c-.378 1.852-.846 5.896-4.941 10.632l.01-.039a60.66 60.66 0 0 1 2.792 1.025s17.24-4.262 30.463-5.171c0 0 1.993.083 1.019-1.586-.973-1.672-3.869-6.876-3.861-11.121 0 0 .304-1.731-1.148-2.412-1.454-.68-6.717-3.593-15.829 1.118" style="fill:#f26122;fill-opacity:1;fill-rule:nonzero;stroke:#231f20;stroke-width:1.999;stroke-linecap:round;stroke-linejoin:round;stroke-miterlimit:10;stroke-dasharray:none;stroke-opacity:1" transform="translate(264.106 310.34)"/><path d="M0 0s-2.836 1.476-5.795 5.458l-4.53 10.395c-.416 1.873.72 2.246.72 2.246 1.967.228 3.804.47 5.517.734C-1.035 16.225 4.466 9.606 4.355.325 2.818.048 1.563-.139 0 0" style="fill:#fff450;fill-opacity:1;fill-rule:nonzero;stroke:none" transform="translate(211.844 293.807)"/><path d="M0 0s-2.836 1.476-5.795 5.458l-4.53 10.395c-.416 1.873.72 2.246.72 2.246 1.967.228 3.804.47 5.517.734C-1.035 16.225 4.466 9.606 4.355.325 2.818.048 1.563-.139 0 0Z" style="fill:none;stroke:#231f20;stroke-width:1.999;stroke-linecap:round;stroke-linejoin:round;stroke-miterlimit:4;stroke-dasharray:none;stroke-opacity:1" transform="translate(211.844 293.807)"/><path d="M0 0c-2.481-3.454-5.648-9.932-4.652-16.845 2.276.301 3.744 1.082 4.411 1.394 1.452.678 1.147 2.413 1.147 2.413C.899-8.794 3.795-3.591 4.769-1.921c.973 1.673-1.02 1.59-1.02 1.59A99.605 99.605 0 0 0 0 0" style="fill:#fff450;fill-opacity:1;fill-rule:nonzero;stroke:none" transform="translate(281.914 318.834)"/><path d="M0 0c-2.481-3.454-5.648-9.932-4.652-16.845 2.276.301 3.744 1.082 4.411 1.394 1.452.678 1.147 2.413 1.147 2.413C.899-8.794 3.795-3.591 4.769-1.921c.973 1.673-1.02 1.59-1.02 1.59A99.605 99.605 0 0 0 0 0Z" style="fill:none;stroke:#231f20;stroke-width:1.999;stroke-linecap:round;stroke-linejoin:round;stroke-miterlimit:4;stroke-dasharray:none;stroke-opacity:1" transform="translate(281.914 318.834)"/><path d="M0 0c-.626 4.728-3.788 8.405-3.788 8.405C-2.477 8.658.018 9.541.018 9.541 4.11 4.804 4.578.76 4.961-1.092c.379-1.855.53-8.028.53-8.028l-.387-.025-.354-.026-.189-.011-5.126-.359C-5.29 1.717-18.109 6.865-17.018 6.87c1.088.003 7.761.524 7.761.524S-.828 1.859 2.097-3.879" style="fill:#fff450;fill-opacity:1;fill-rule:nonzero;stroke:#231f20;stroke-width:1.999;stroke-linecap:round;stroke-linejoin:round;stroke-miterlimit:4;stroke-dasharray:none;stroke-opacity:1" transform="translate(252.305 313.16)"/><path d="M0 0c-6.429 5.937-2.791 9.313-2.791 9.313 2.97 3.271 6.176.237 6.176.237 1.578-1.448 3.47-1.973 3.47-1.973 7.069 1.627 8.382-3.872 8.382-3.872.913.132 1.48-.04 2.53-.122.87-1.016 2.654-3.309 4.17-6.597-1.516-.279-2.217-.311-2.217-.311-4.527-12.573-15.299-20.66-23.017-15.57-3.657 2.411-4.42 5.466-4.42 5.466C-10.97-4.774 0 0 0 0" style="fill:#ffe6cb;fill-opacity:1;fill-rule:nonzero;stroke:none" transform="translate(187.037 305.582)"/><path d="M0 0c-6.429 5.937-2.791 9.313-2.791 9.313 2.97 3.271 6.176.237 6.176.237 1.578-1.448 3.47-1.973 3.47-1.973 7.069 1.627 8.382-3.872 8.382-3.872.913.132 1.48-.04 2.53-.122.87-1.016 2.654-3.309 4.17-6.597-1.516-.279-2.217-.311-2.217-.311-4.527-12.573-15.299-20.66-23.017-15.57-3.657 2.411-4.42 5.466-4.42 5.466C-10.97-4.774 0 0 0 0Z" style="fill:none;stroke:#231f20;stroke-width:1.666;stroke-linecap:round;stroke-linejoin:round;stroke-miterlimit:4;stroke-dasharray:none;stroke-opacity:1" transform="translate(187.037 305.582)"/><path d="M0 0c.751-.614 1.78-2.168 4.952-1.772" style="fill:none;stroke:#231f20;stroke-width:1.666;stroke-linecap:round;stroke-linejoin:round;stroke-miterlimit:4;stroke-dasharray:none;stroke-opacity:1" transform="translate(186.506 306.112)"/><path d="M0 0s5.38-4.655 7.609-12.282" style="fill:none;stroke:#231f20;stroke-width:1.666;stroke-linecap:round;stroke-linejoin:round;stroke-miterlimit:10;stroke-dasharray:none;stroke-opacity:1" transform="translate(203.364 310.54)"/><path d="M0 0s3.132 4.877 2.95 12.831" style="fill:#f47920;fill-opacity:1;fill-rule:nonzero;stroke:#231f20;stroke-width:1.999;stroke-linecap:round;stroke-linejoin:round;stroke-miterlimit:10;stroke-dasharray:none;stroke-opacity:1" transform="translate(242.355 261.905)"/><path d="M0 0a44.044 44.044 0 0 0-2.669-3.223" style="fill:#ffc20d;fill-opacity:1;fill-rule:nonzero;stroke:#231f20;stroke-width:1.666;stroke-linecap:round;stroke-linejoin:round;stroke-miterlimit:4;stroke-dasharray:none;stroke-opacity:1" transform="translate(231.249 305.369)"/><path d="M0 0c18.271 4.119 34.074 15.974 34.074 15.974 4.512 3.201 5.08 6.551 4.217 9.362 5.721.861 7.321 6.735 7.032 11.258-.166 2.586-1.636 10.512-6.73 10.616-5.095.104-6.368-10.888-6.368-10.888 4.914 16.229-1.83 38.504-1.83 38.504-9.412 37.414-35.738 34.279-56.783 30.186-21.046-4.093-42.633-29.682-40.308-51.431 2.327-21.743 12.841-32.884 12.841-32.884s-4.59 5.136-8.733 3.621c-4.151-1.509-2.861-9.64 2.352-15.14 5.219-5.498 8.853-2.727 8.853-2.727 1.298-2.582 4.157-5.162 10.072-6.586 14.771-3.553 36.26-.786 36.26-.786" style="fill:#feefda;fill-opacity:1;fill-rule:nonzero;stroke:#231f20;stroke-width:1.666;stroke-linecap:round;stroke-linejoin:round;stroke-miterlimit:4;stroke-dasharray:none;stroke-opacity:1" transform="translate(248.876 321.46)"/><path d="M0 0s3.92-2.854 5.108-6.735" style="fill:#ffe6cb;fill-opacity:1;fill-rule:nonzero;stroke:#231f20;stroke-width:1.666;stroke-linecap:round;stroke-linejoin:round;stroke-miterlimit:4;stroke-dasharray:none;stroke-opacity:1" transform="translate(282.058 353.53)"/><path d="M0 0c-3.043-.609-6.664 2.719-8.09 9.882-1.407 7.157-.079 13.453 2.972 14.065 3.049.608 6.668-4.707 8.08-11.861C4.374 4.925 3.054.61 0 0" style="fill:#231f20;fill-opacity:1;fill-rule:nonzero;stroke:none" transform="translate(262.584 345.862)"/><path d="M0 0c-3.043-.609-6.664 2.719-8.09 9.882-1.407 7.157-.079 13.453 2.972 14.065 3.049.608 6.668-4.707 8.08-11.861C4.374 4.925 3.054.61 0 0Z" style="fill:none;stroke:#231f20;stroke-width:1.666;stroke-linecap:round;stroke-linejoin:round;stroke-miterlimit:4;stroke-dasharray:none;stroke-opacity:1" transform="translate(262.584 345.862)"/><path d="M0 0c-2.011-.471-4.364 2.242-5.267 6.064-.91 3.847-.01 7.326 1.985 7.796 2.012.467 4.376-2.234 5.277-6.074C2.899 3.954 1.995.472 0 0" style="fill:#fff;fill-opacity:1;fill-rule:nonzero;stroke:none" transform="translate(259.868 354.615)"/><path d="M0 0c-2.011-.471-4.364 2.242-5.267 6.064-.91 3.847-.01 7.326 1.985 7.796 2.012.467 4.376-2.234 5.277-6.074C2.899 3.954 1.995.472 0 0Z" style="fill:none;stroke:#231f20;stroke-width:1.666;stroke-linecap:round;stroke-linejoin:round;stroke-miterlimit:4;stroke-dasharray:none;stroke-opacity:1" transform="translate(259.868 354.615)"/><path d="M0 0c-2.995-.832-6.999 2.213-8.938 9.248-1.952 7.033-1.091 13.412 1.907 14.254 2.999.836 7.001-4.191 8.935-11.227C3.85 5.233 2.997.842 0 0" style="fill:#231f20;fill-opacity:1;fill-rule:nonzero;stroke:none" transform="translate(221.347 336.727)"/><path d="M0 0c-2.995-.832-6.999 2.213-8.938 9.248-1.952 7.033-1.091 13.412 1.907 14.254 2.999.836 7.001-4.191 8.935-11.227C3.85 5.233 2.997.842 0 0Z" style="fill:none;stroke:#231f20;stroke-width:1.666;stroke-linecap:round;stroke-linejoin:round;stroke-miterlimit:4;stroke-dasharray:none;stroke-opacity:1" transform="translate(221.347 336.727)"/><path d="M0 0c-1.961-.622-4.515 1.915-5.705 5.655-1.184 3.752-.544 7.3 1.421 7.923 1.964.631 4.516-1.915 5.698-5.664C2.601 4.159 1.967.61 0 0" style="fill:#fff;fill-opacity:1;fill-rule:nonzero;stroke:none" transform="translate(217.834 345.254)"/><path d="M0 0c-1.961-.622-4.515 1.915-5.705 5.655-1.184 3.752-.544 7.3 1.421 7.923 1.964.631 4.516-1.915 5.698-5.664C2.601 4.159 1.967.61 0 0Z" style="fill:none;stroke:#231f20;stroke-width:1.666;stroke-linecap:round;stroke-linejoin:round;stroke-miterlimit:4;stroke-dasharray:none;stroke-opacity:1" transform="translate(217.834 345.254)"/><path d="M0 0s-.247 4.33-2.315 9.145c0 0-4.332.802-6.5 1.095l-.051-.014c.251-.873.492-1.769.723-2.688 0 0 6.742-22.276 1.831-38.507 0 0 1.215 10.51 6.031 10.881l.087-.002C1.228-11.555 0 0 0 0" style="fill:#3d1d00;fill-opacity:1;fill-rule:nonzero;stroke:#231f20;stroke-width:1.666;stroke-linecap:round;stroke-linejoin:round;stroke-miterlimit:4;stroke-dasharray:none;stroke-opacity:1" transform="translate(286.77 388.729)"/><path d="M0 0c-2.413 1.904-8.684 13.6-8.684 13.6s-1.604 2.919-2.471 5.879c0 0 2.448 2.331 6.943 5.649C-1.138 5.983 8.102-3.803 8.102-3.803S3.97.823 0 0" style="fill:#3d1d00;fill-opacity:1;fill-rule:nonzero;stroke:none" transform="translate(186.98 345.856)"/><path d="M0 0c-2.413 1.904-8.684 13.6-8.684 13.6s-1.604 2.919-2.471 5.879c0 0 2.448 2.331 6.943 5.649C-1.138 5.983 8.102-3.803 8.102-3.803S3.97.823 0 0Z" style="fill:none;stroke:#231f20;stroke-width:1.666;stroke-linecap:round;stroke-linejoin:round;stroke-miterlimit:4;stroke-dasharray:none;stroke-opacity:1" transform="translate(186.98 345.856)"/><path d="M0 0s2.101 4.693 7.75 3.008" style="fill:none;stroke:#231f20;stroke-width:1.666;stroke-linecap:round;stroke-linejoin:round;stroke-miterlimit:4;stroke-dasharray:none;stroke-opacity:1" transform="translate(202.361 372.25)"/><path d="M0 0s3.544 3.729 8.311.264" style="fill:none;stroke:#231f20;stroke-width:1.666;stroke-linecap:round;stroke-linejoin:round;stroke-miterlimit:4;stroke-dasharray:none;stroke-opacity:1" transform="translate(256.334 386.664)"/></g><g clip-path="url(#f)" transform="matrix(2.07198 0 0 -2.07198 -343.87 948.668)"><g mask="url(#g)"><path d="M200.11 332.085a7.786 7.786 0 0 1 7.786-7.79 7.788 7.788 0 0 1 7.787 7.79 7.787 7.787 0 0 1-7.787 7.786 7.785 7.785 0 0 1-7.786-7.786" style="fill:url(#h);stroke:none"/></g></g><g clip-path="url(#i)" transform="matrix(2.07198 0 0 -2.07198 -343.87 948.668)"><g mask="url(#j)"><path d="M268.278 345.147a7.786 7.786 0 0 1 7.787-7.787 7.788 7.788 0 1 1 0 15.575 7.788 7.788 0 0 1-7.787-7.788" style="fill:url(#k);stroke:none"/></g></g><g clip-path="url(#l)" transform="matrix(2.07198 0 0 -2.07198 -343.87 948.668)"><path d="M0 0c-35.98-8.102-39.661-70.289-39.661-70.289C14.822-25.17 73.532-43.186 73.532-43.186S60.32-25.824 44.736-13.898C44.736-13.898 22.622 5.095 0 0" style="fill:#eb9339;fill-opacity:1;fill-rule:nonzero;stroke:none" transform="translate(209.05 456.147)"/><path d="M0 0c-35.98-8.102-39.661-70.289-39.661-70.289C14.822-25.17 73.532-43.186 73.532-43.186S60.32-25.824 44.736-13.898C44.736-13.898 22.622 5.095 0 0z" style="fill:none;stroke:#231f20;stroke-width:1.666;stroke-linecap:round;stroke-linejoin:round;stroke-miterlimit:10;stroke-dasharray:none;stroke-opacity:1" transform="translate(209.05 456.147)"/><path d="M0 0s1.987-1.195 4.036-.762c0 0-1.605 2.922-2.469 5.877 0 0 48.513 44.428 108.669 32.438 2.068-4.815 2.372-9.756 2.372-9.756s4.653 2.767 4.667 8.259c.013 5.496-.332 9.486-3.388 14.085 0 0-2.483 2.945-4.234 3.4 0 0-58.71 18.014-113.193-27.105 0 0-2.287-2.137-3.383-4.369 0 0-1.123-3.954 0-8.176C-6.923 13.891-5.661 3.51 0 0" style="fill:#fff450;fill-opacity:1;fill-rule:nonzero;stroke:#231f20;stroke-width:1.666;stroke-linecap:round;stroke-linejoin:round;stroke-miterlimit:4;stroke-dasharray:none;stroke-opacity:1" transform="translate(174.219 360.32)"/><path d="M0 0c-1.925 2.409-3.025 4.674-3.025 4.674 12.088.967 22.892 5.986 22.892 5.986.28-1.263.58-5.706-1.065-9.658C17.272 2.068 6.835 2.855 0 0" style="fill:#231f20;fill-opacity:1;fill-rule:nonzero;stroke:none" transform="translate(233.987 330.78)"/><path d="M0 0c-1.925 2.409-3.025 4.674-3.025 4.674 12.088.967 22.892 5.986 22.892 5.986.28-1.263.58-5.706-1.065-9.658C17.272 2.068 6.835 2.855 0 0Z" style="fill:none;stroke:#231f20;stroke-width:.522;stroke-linecap:round;stroke-linejoin:round;stroke-miterlimit:4;stroke-dasharray:none;stroke-opacity:1" transform="translate(233.987 330.78)"/><path d="M0 0c-1.004-2.58-3.826-5.623-7.92-6.526-3.219-.71-8.413 2.007-10.884 5.524C-11.964 1.853-1.521 1.066 0 0" style="fill:#f9aa8f;fill-opacity:1;fill-rule:nonzero;stroke:none" transform="translate(252.79 331.782)"/><path d="M0 0s-10.807-5.02-22.892-5.986c0 0 5.721-11.781 13.909-10.199C1.058-14.246.49-2.217 0 0Z" style="fill:none;stroke:#231f20;stroke-width:1.999;stroke-linecap:round;stroke-linejoin:round;stroke-miterlimit:4;stroke-dasharray:none;stroke-opacity:1" transform="translate(253.853 341.44)"/><path d="M0 0c-.245.121-.36.269-.606.404 0 0-6.454 4.273-9.747 21.169 0 0-.799 5.872-5.416 5.138 0 0-4.197-.367-2.928-7.975 0 0 2.298-23.625 23.057-30.783 0 0 22.028-8.543 37.654 7.935 3.868 4.081 7.458 8.62 7.458 16.186.094 4.927-3.433 7.945-3.433 7.945-7.617 7.218-22.001 7.67-32.982 1.131C2.075 14.611 0 0 0 0" style="fill:#b3d334;fill-opacity:1;fill-rule:nonzero;stroke:none" transform="translate(204.228 400.577)"/><path d="M0 0c-.245.121-.36.269-.606.404 0 0-6.454 4.273-9.747 21.169 0 0-.799 5.872-5.416 5.138 0 0-4.197-.367-2.928-7.975 0 0 2.298-23.625 23.057-30.783 0 0 22.028-8.543 37.654 7.935 3.868 4.081 7.458 8.62 7.458 16.186.094 4.927-3.433 7.945-3.433 7.945-7.617 7.218-22.001 7.67-32.982 1.131C2.075 14.611 0 0 0 0Z" style="fill:none;stroke:#231f20;stroke-width:1.666;stroke-linecap:round;stroke-linejoin:round;stroke-miterlimit:4;stroke-dasharray:none;stroke-opacity:1" transform="translate(204.228 400.577)"/><path d="M0 0c-17.176-13.535-32.837-2.068-32.837-2.068" style="fill:none;stroke:#231f20;stroke-width:1.666;stroke-linecap:round;stroke-linejoin:round;stroke-miterlimit:4;stroke-dasharray:none;stroke-opacity:1" transform="translate(236.459 403.05)"/><path d="M0 0s-1.469-3.688.387-7.37" style="fill:#ffe6cb;fill-opacity:1;fill-rule:nonzero;stroke:#231f20;stroke-width:1.666;stroke-linecap:round;stroke-linejoin:round;stroke-miterlimit:4;stroke-dasharray:none;stroke-opacity:1" transform="translate(197.18 335.324)"/><path d="m0 0 9.219-3.911-.615-9.144s-9.631-7.127-18.43-5.888c0 0-2.878 6.478-7.767 6.446 0 0 7.826 4.895 14.868 8.104z" style="fill:#fff;fill-opacity:1;fill-rule:nonzero;stroke:none" transform="translate(377.038 266.158)"/><path d="m0 0 9.219-3.911-.615-9.144s-9.631-7.127-18.43-5.888c0 0-2.878 6.478-7.767 6.446 0 0 7.826 4.895 14.868 8.104z" style="fill:none;stroke:#231f20;stroke-width:1.666;stroke-linecap:round;stroke-linejoin:round;stroke-miterlimit:4;stroke-dasharray:none;stroke-opacity:1" transform="translate(377.038 266.158)"/><path d="M0 0c.925 1.195 2.402 1.917 2.402 1.917 6.221-.524 6.902-5.451 7.767-6.446 6.974.155 14.232 2.894 16.981 4.644 1.356.865 2.094 1.678 2.487 2.443.346-1.922.735-4.921.308-7.021-.674-3.318-6.366-6.346-14.638-7.569-8.272-1.226-17.014-1.478-18.816 1.883C-5.309-6.789-2.354-2.248 0 0" style="fill:#eb9339;fill-opacity:1;fill-rule:nonzero;stroke:none" transform="translate(357.043 251.744)"/><path d="M0 0c.925 1.195 2.402 1.917 2.402 1.917 6.221-.524 6.902-5.451 7.767-6.446 6.974.155 14.232 2.894 16.981 4.644 1.356.865 2.094 1.678 2.487 2.443.346-1.922.735-4.921.308-7.021-.674-3.318-6.366-6.346-14.638-7.569-8.272-1.226-17.014-1.478-18.816 1.883C-5.309-6.789-2.354-2.248 0 0Z" style="fill:none;stroke:#231f20;stroke-width:1.999;stroke-linecap:butt;stroke-linejoin:miter;stroke-miterlimit:10;stroke-dasharray:none;stroke-opacity:1" transform="translate(357.043 251.744)"/><path d="M0 0s-1.04-2.823-1.651-6.108L-3.08-7.357s.774 3.556 2.093 7.46z" style="fill:#231f20;fill-opacity:1;fill-rule:nonzero;stroke:none" transform="translate(392.225 264.445)"/><path d="M0 0s-1.04-2.823-1.651-6.108L-3.08-7.357s.774 3.556 2.093 7.46z" style="fill:none;stroke:#231f20;stroke-width:1.666;stroke-linecap:butt;stroke-linejoin:miter;stroke-miterlimit:10;stroke-dasharray:none;stroke-opacity:1" transform="translate(392.225 264.445)"/><path d="m0 0-10.125-4.646-.222-8.84s5.906-7.26 21.868-7.26c0 0 2.258 8.136 8.811 7.215 0 0-9.24 5.39-17.167 8.73z" style="fill:#fff;fill-opacity:1;fill-rule:nonzero;stroke:none" transform="translate(393.237 265.365)"/><path d="m0 0-10.125-4.646-.222-8.84s5.906-7.26 21.868-7.26c0 0 2.258 8.136 8.811 7.215 0 0-9.24 5.39-17.167 8.73z" style="fill:none;stroke:#231f20;stroke-width:1.666;stroke-linecap:round;stroke-linejoin:round;stroke-miterlimit:4;stroke-dasharray:none;stroke-opacity:1" transform="translate(393.237 265.365)"/><path d="M0 0c-1.066 1.301-2.729 2.057-2.729 2.057-6.898-.779-7.501-6.275-8.427-7.411-7.758-.045-15.911 2.766-19.022 4.624-1.535.916-2.379 1.798-2.845 2.636-.32-2.148-.66-5.494-.117-7.812.855-3.673 7.276-6.854 16.511-7.951 9.232-1.101 18.957-1.101 20.852 2.69C6.119-7.375 2.69-2.422 0 0" style="fill:#eb9339;fill-opacity:1;fill-rule:nonzero;stroke:none" transform="translate(415.914 249.972)"/><path d="M0 0c-1.066 1.301-2.729 2.057-2.729 2.057-6.898-.779-7.501-6.275-8.427-7.411-7.758-.045-15.911 2.766-19.022 4.624-1.535.916-2.379 1.798-2.845 2.636-.32-2.148-.66-5.494-.117-7.812.855-3.673 7.276-6.854 16.511-7.951 9.232-1.101 18.957-1.101 20.852 2.69C6.119-7.375 2.69-2.422 0 0Z" style="fill:none;stroke:#231f20;stroke-width:1.999;stroke-linecap:butt;stroke-linejoin:miter;stroke-miterlimit:10;stroke-dasharray:none;stroke-opacity:1" transform="translate(415.914 249.972)"/><path d="M0 0s-10.786-14.42-.893-38.759c2.356-5.797 16.311-8.017 27.208-7.029 14.159 1.283 23.287 7.143 26.892 10.397.672.606.434 2.093-.998 2.81-3.949 1.984-10.555 6.049-15.095 18.426 0 0 .046 7.929-4.312 10.774z" style="fill:#b3d334;fill-opacity:1;fill-rule:nonzero;stroke:none" transform="translate(360.034 305.957)"/><path d="M0 0s-10.786-14.42-.893-38.759c2.356-5.797 16.311-8.017 27.208-7.029 14.159 1.283 23.287 7.143 26.892 10.397.672.606.434 2.093-.998 2.81-3.949 1.984-10.555 6.049-15.095 18.426 0 0 .046 7.929-4.312 10.774z" style="fill:none;stroke:#231f20;stroke-width:1.999;stroke-linecap:round;stroke-linejoin:round;stroke-miterlimit:10;stroke-dasharray:none;stroke-opacity:1" transform="translate(360.034 305.957)"/><path d="M0 0c-6.431 5.936-2.791 9.313-2.791 9.313 2.968 3.271 6.174.238 6.174.238 1.579-1.45 3.47-1.975 3.47-1.975 7.071 1.627 8.384-3.872 8.384-3.872.912.132 1.478-.038 2.53-.12.869-1.016 2.653-3.311 4.168-6.597-1.515-.281-2.216-.312-2.216-.312C15.051-15.929 3.238-23.352-3.298-18.894c-3.618 2.467-4.419 5.466-4.419 5.466C-10.505-5.642 0 0 0 0" style="fill:#ffe6cb;fill-opacity:1;fill-rule:nonzero;stroke:none" transform="translate(324.836 314.341)"/><path d="M0 0c-6.431 5.936-2.791 9.313-2.791 9.313 2.968 3.271 6.174.238 6.174.238 1.579-1.45 3.47-1.975 3.47-1.975 7.071 1.627 8.384-3.872 8.384-3.872.912.132 1.478-.038 2.53-.12.869-1.016 2.653-3.311 4.168-6.597-1.515-.281-2.216-.312-2.216-.312C15.051-15.929 3.238-23.352-3.298-18.894c-3.618 2.467-4.419 5.466-4.419 5.466C-10.505-5.642 0 0 0 0Z" style="fill:none;stroke:#231f20;stroke-width:1.666;stroke-linecap:round;stroke-linejoin:round;stroke-miterlimit:4;stroke-dasharray:none;stroke-opacity:1" transform="translate(324.836 314.341)"/><path d="M0 0c.751-.614 1.781-2.167 4.952-1.773" style="fill:none;stroke:#231f20;stroke-width:1.666;stroke-linecap:round;stroke-linejoin:round;stroke-miterlimit:4;stroke-dasharray:none;stroke-opacity:1" transform="translate(324.005 314.987)"/><path d="M0 0s5.442-8.234 4.519-14.492c7.054-5.385 18.098-2.126 29.051 8.291L31.615 5.184S8.842-.561 0 0" style="fill:#f26122;fill-opacity:1;fill-rule:nonzero;stroke:none" transform="translate(340.915 320.474)"/><path d="M0 0s5.442-8.234 4.519-14.492c7.054-5.385 18.098-2.126 29.051 8.291L31.615 5.184S8.842-.561 0 0Z" style="fill:none;stroke:#231f20;stroke-width:1.999;stroke-linecap:round;stroke-linejoin:round;stroke-miterlimit:10;stroke-dasharray:none;stroke-opacity:1" transform="translate(340.915 320.474)"/><path d="M0 0c-1.905-.141-5.494-.194-6.993-.097 0 0 5.443-8.234 4.519-14.492 1.723-1.311 5.236-2.188 6.981-2.609C5.458-9.945 2.366-3.62 0 0" style="fill:#ffc20d;fill-opacity:1;fill-rule:nonzero;stroke:none" transform="translate(347.908 320.57)"/><path d="M0 0c-1.905-.141-5.494-.194-6.993-.097 0 0 5.443-8.234 4.519-14.492 1.723-1.311 5.236-2.188 6.981-2.609C5.458-9.945 2.366-3.62 0 0Z" style="fill:none;stroke:#231f20;stroke-width:1.666;stroke-linecap:round;stroke-linejoin:round;stroke-miterlimit:4;stroke-dasharray:none;stroke-opacity:1" transform="translate(347.908 320.57)"/><path d="M0 0c.951 7.253-2.142 13.578-4.507 17.198" style="fill:#ffc20d;fill-opacity:1;fill-rule:nonzero;stroke:#231f20;stroke-width:1.666;stroke-linecap:round;stroke-linejoin:round;stroke-miterlimit:4;stroke-dasharray:none;stroke-opacity:1" transform="translate(352.415 303.373)"/><path d="M0 0c-13.03 1.645-18.576 4.455-21.789 6.041-1.555.913-3.846 2.379-4.393 2.928l-28.514 4.261s-11.215-7.677-10.072-25.591c0 0 3.81-3.854 9.367-7.389.862-.549 1.563.364 1.563.364l1.542 2.65 2.217-3.33s.731-1.129 2.078-1.129c12.292 0 21.539 4.188 23.675 6.894-.073.826-1.778 4.684-1.782 5.586 6.51-7.795 11.083-9.808 17.474-9.18 0 0 2.185.461 5.003 4.632L.687-2.357C1.08-.395 0 0 0 0" style="fill:#f26122;fill-opacity:1;fill-rule:nonzero;stroke:none" transform="translate(422.355 313.042)"/><path d="M0 0c-13.03 1.645-18.576 4.455-21.789 6.041-1.555.913-3.846 2.379-4.393 2.928l-28.514 4.261s-11.215-7.677-10.072-25.591c0 0 3.81-3.854 9.367-7.389.862-.549 1.563.364 1.563.364l1.542 2.65 2.217-3.33s.731-1.129 2.078-1.129c12.292 0 21.539 4.188 23.675 6.894-.073.826-1.778 4.684-1.782 5.586 6.51-7.795 11.083-9.808 17.474-9.18 0 0 2.185.461 5.003 4.632L.687-2.357C1.08-.395 0 0 0 0Z" style="fill:none;stroke:#231f20;stroke-width:1.999;stroke-linecap:round;stroke-linejoin:round;stroke-miterlimit:10;stroke-dasharray:none;stroke-opacity:1" transform="translate(422.355 313.042)"/><path d="m0 0-2.858-10.729L9.827-2.654Z" style="fill:#ffe6cb;fill-opacity:1;fill-rule:nonzero;stroke:none" transform="translate(377.295 325.723)"/><path d="m0 0-2.858-10.729L9.827-2.654Z" style="fill:none;stroke:#231f20;stroke-width:1.666;stroke-linecap:butt;stroke-linejoin:miter;stroke-miterlimit:10;stroke-dasharray:none;stroke-opacity:1" transform="translate(377.295 325.723)"/><path d="M0 0s2.185.46 5.003 4.632l4.318 10.905c.392 1.963-.687 2.358-.687 2.358-1.88.235-5.948 1.497-7.584 1.771-2.908-2.734-8.072-8.988-7.971-18.72C-5.47.732-1.487-.146 0 0" style="fill:#ffc20d;fill-opacity:1;fill-rule:nonzero;stroke:none" transform="translate(413.722 295.148)"/><path d="M0 0s2.185.46 5.003 4.632l4.318 10.905c.392 1.963-.687 2.358-.687 2.358-1.88.235-5.948 1.497-7.584 1.771-2.908-2.734-8.072-8.988-7.971-18.72C-5.47.732-1.487-.146 0 0Z" style="fill:none;stroke:#231f20;stroke-width:1.666;stroke-linecap:round;stroke-linejoin:round;stroke-miterlimit:4;stroke-dasharray:none;stroke-opacity:1" transform="translate(413.722 295.148)"/><path d="M0 0c-2.911-2.734-7.886-8.853-7.783-18.584" style="fill:none;stroke:#231f20;stroke-width:1.666;stroke-linecap:round;stroke-linejoin:round;stroke-miterlimit:4;stroke-dasharray:none;stroke-opacity:1" transform="translate(414.586 314.283)"/><path d="m0 0 3.923-.582c-1.969-5.03-.489-8.59-.282-12.025a66.774 66.774 0 0 1-2.988-3.569S-3.546-8.341 0 0" style="fill:#ffc20d;fill-opacity:1;fill-rule:nonzero;stroke:none" transform="translate(373.074 325.017)"/><path d="m0 0 3.923-.582c-1.969-5.03-.489-8.59-.282-12.025a66.774 66.774 0 0 1-2.988-3.569S-3.546-8.341 0 0Z" style="fill:none;stroke:#231f20;stroke-width:1.666;stroke-linecap:round;stroke-linejoin:round;stroke-miterlimit:4;stroke-dasharray:none;stroke-opacity:1" transform="translate(373.074 325.017)"/><path d="m0 0 10.623-1.086s-11.887-.279-21.814-13.035c0 0-1.197 2.428-1.517 5.441C-7.193-2.474-2.844-1.352 0 0" style="fill:#ffc20d;fill-opacity:1;fill-rule:nonzero;stroke:none" transform="translate(384.918 322.962)"/><path d="m0 0 10.623-1.086s-11.887-.279-21.814-13.035c0 0-1.197 2.428-1.517 5.441C-7.193-2.474-2.844-1.352 0 0Z" style="fill:none;stroke:#231f20;stroke-width:1.666;stroke-linecap:round;stroke-linejoin:round;stroke-miterlimit:4;stroke-dasharray:none;stroke-opacity:1" transform="translate(384.918 322.962)"/><path d="M0 0c3.522 1.791 3.655 6.074 3.655 6.074-.87 4.852-4.448 2.408-4.448 2.408-2.376-3.145-4.094-2.296-4.094-2.296-7.139 1.311-8.723-3.774-8.723-3.774-.918.092-1.477-.105-2.522-.232-.825-1.053-3.324-4.848-4.693-8.201a51.133 51.133 0 0 0 2.963-.504C-12.95-17.568-5.974-20.498-5.974-20.498c6.219-3.608 12.608 2.933 12.997 5.386C9.484-8.406 0 0 0 0" style="fill:#ffe6cb;fill-opacity:1;fill-rule:nonzero;stroke:none" transform="translate(435.597 307.976)"/><path d="M0 0c3.522 1.791 3.655 6.074 3.655 6.074-.87 4.852-4.448 2.408-4.448 2.408-2.376-3.145-4.094-2.296-4.094-2.296-7.139 1.311-8.723-3.774-8.723-3.774-.918.092-1.477-.105-2.522-.232-.825-1.053-3.324-4.848-4.693-8.201a51.133 51.133 0 0 0 2.963-.504C-12.95-17.568-5.974-20.498-5.974-20.498c6.219-3.608 12.608 2.933 12.997 5.386C9.484-8.406 0 0 0 0Z" style="fill:none;stroke:#231f20;stroke-width:1.666;stroke-linecap:round;stroke-linejoin:round;stroke-miterlimit:4;stroke-dasharray:none;stroke-opacity:1" transform="translate(435.597 307.976)"/><path d="M0 0s-2.664-1.874-5.061-1.845" style="fill:none;stroke:#231f20;stroke-width:1.666;stroke-linecap:round;stroke-linejoin:round;stroke-miterlimit:4;stroke-dasharray:none;stroke-opacity:1" transform="translate(435.597 307.976)"/><path d="M0 0s3.241-4.174 11.941-3.494c2.109.165 3.37-3.796 2.243-5.16-2.068-2.507-6.429-7.314-19.67-7.004 0 0-16.695-1.027-28.735 8.649z" style="fill:#3d1d00;fill-opacity:1;fill-rule:nonzero;stroke:none" transform="translate(426.074 330.503)"/><path d="M0 0s3.241-4.174 11.941-3.494c2.109.165 3.37-3.796 2.243-5.16-2.068-2.507-6.429-7.314-19.67-7.004 0 0-16.695-1.027-28.735 8.649z" style="fill:none;stroke:#231f20;stroke-width:1.666;stroke-linecap:round;stroke-linejoin:round;stroke-miterlimit:4;stroke-dasharray:none;stroke-opacity:1" transform="translate(426.074 330.503)"/><path d="M0 0s-1.613-5.31-12.23-2.434c-2.379.645-4.902-.862-2.806-5.596 1.751-3.95 5.377-8.727 13.957-12.848 0 0 15.509-6.697 28.156-.345z" style="fill:#3d1d00;fill-opacity:1;fill-rule:nonzero;stroke:none" transform="translate(333.014 350.234)"/><path d="M0 0s-1.613-5.31-12.23-2.434c-2.379.645-4.902-.862-2.806-5.596 1.751-3.95 5.377-8.727 13.957-12.848 0 0 15.509-6.697 28.156-.345z" style="fill:none;stroke:#231f20;stroke-width:1.666;stroke-linecap:round;stroke-linejoin:round;stroke-miterlimit:4;stroke-dasharray:none;stroke-opacity:1" transform="translate(333.014 350.234)"/><path d="M0 0c7.085 25.717-7.23 56.972-46.139 67.561-43.386 11.918-68.888-14.719-74.205-35.253-3.757-14.533.773-34.496 1.132-36.24.501-2.5.924-3.666.924-3.666l1.036-.44 2.69-3.551c-1.069 10.267 3.147 22.193 3.147 22.193s10.207 37.181 55.104 25.578c0 0 38.719-5.953 39.988-40.944-3.291-17.974-8.501-26.103-8.501-26.103l3.815 1.005c-.342-.422-.683-.838-1.03-1.263l2.115.438c.61.809 1.2 1.615 1.771 2.418C-14.368-24.868-4.013-14.538 0 0" style="fill:#3d1d00;fill-opacity:1;fill-rule:nonzero;stroke:none" transform="translate(452.968 378.09)"/><path d="M0 0c7.085 25.717-7.23 56.972-46.139 67.561-43.386 11.918-68.888-14.719-74.205-35.253-3.757-14.533.773-34.496 1.132-36.24.501-2.5.924-3.666.924-3.666l1.036-.44 2.69-3.551c-1.069 10.267 3.147 22.193 3.147 22.193s10.207 37.181 55.104 25.578c0 0 38.719-5.953 39.988-40.944-3.291-17.974-8.501-26.103-8.501-26.103l3.815 1.005c-.342-.422-.683-.838-1.03-1.263l2.115.438c.61.809 1.2 1.615 1.771 2.418C-14.368-24.868-4.013-14.538 0 0Z" style="fill:none;stroke:#231f20;stroke-width:1.666;stroke-linecap:round;stroke-linejoin:round;stroke-miterlimit:4;stroke-dasharray:none;stroke-opacity:1" transform="translate(452.968 378.09)"/><path d="M0 0s-3.9-10.764-3.158-21.609c0 0-1.053 4.118-4.997 3.673 0 0-3.462.768-5.888-8.235 0 0-2.768-10.9 6.702-13.448 0 0-4.861-11.839 39.928-24.734 0 0 2.456-.982 9.56-1.581 0 0 35.273-3.681 40.131 8.157 0 0 7.163-2.423 12.082 8.393 0 0 3.992 9.245-2.655 9.874 0 0-2.35-.077-5.698-2.006 0 0 6.66 10.383 8.542 25.358 0 0 4.063 30.777-36.684 41.988C10.527 38.852 0 0 0 0" style="fill:#feefda;fill-opacity:1;fill-rule:nonzero;stroke:none" transform="translate(341.47 388.38)"/><path d="M0 0s-3.9-10.764-3.158-21.609c0 0-1.053 4.118-4.997 3.673 0 0-3.462.768-5.888-8.235 0 0-2.768-10.9 6.702-13.448 0 0-4.861-11.839 39.928-24.734 0 0 2.456-.982 9.56-1.581 0 0 35.273-3.681 40.131 8.157 0 0 7.163-2.423 12.082 8.393 0 0 3.992 9.245-2.655 9.874 0 0-2.35-.077-5.698-2.006 0 0 6.66 10.383 8.542 25.358 0 0 4.063 30.777-36.684 41.988C10.527 38.852 0 0 0 0Z" style="fill:none;stroke:#231f20;stroke-width:1.666;stroke-linecap:round;stroke-linejoin:round;stroke-miterlimit:4;stroke-dasharray:none;stroke-opacity:1" transform="translate(341.47 388.38)"/><path d="M0 0c-5.732-3.536-7.517-11.037-3.978-16.772a12.142 12.142 0 0 1 6.313-5.085 12.06 12.06 0 0 1-7.917-1.709c-5.734-3.534-7.511-11.045-3.982-16.768 3.535-5.73 11.043-7.51 16.774-3.975a12.117 12.117 0 0 1 5.084 6.311 12.148 12.148 0 0 1 1.709-7.924c3.528-5.724 11.042-7.503 16.77-3.973 5.727 3.534 7.505 11.042 3.973 16.768a12.146 12.146 0 0 1-6.31 5.086 12.1 12.1 0 0 1 7.923 1.71c5.723 3.531 7.503 11.042 3.963 16.771-3.526 5.72-11.033 7.509-16.76 3.974a12.174 12.174 0 0 1-5.086-6.318 12.16 12.16 0 0 1-1.712 7.933C13.232 1.754 5.723 3.531 0 0" style="fill:#f47920;fill-opacity:1;fill-rule:nonzero;stroke:none" transform="translate(400.473 430.402)"/><path d="M0 0c-5.732-3.536-7.517-11.037-3.978-16.772a12.142 12.142 0 0 1 6.313-5.085 12.06 12.06 0 0 1-7.917-1.709c-5.734-3.534-7.511-11.045-3.982-16.768 3.535-5.73 11.043-7.51 16.774-3.975a12.117 12.117 0 0 1 5.084 6.311 12.148 12.148 0 0 1 1.709-7.924c3.528-5.724 11.042-7.503 16.77-3.973 5.727 3.534 7.505 11.042 3.973 16.768a12.146 12.146 0 0 1-6.31 5.086 12.1 12.1 0 0 1 7.923 1.71c5.723 3.531 7.503 11.042 3.963 16.771-3.526 5.72-11.033 7.509-16.76 3.974a12.174 12.174 0 0 1-5.086-6.318 12.16 12.16 0 0 1-1.712 7.933C13.232 1.754 5.723 3.531 0 0Z" style="fill:none;stroke:#231f20;stroke-width:1.666;stroke-linecap:round;stroke-linejoin:round;stroke-miterlimit:4;stroke-dasharray:none;stroke-opacity:1" transform="translate(400.473 430.402)"/><path d="M0 0s-4.526-1.591-6.603-6.903" style="fill:none;stroke:#231f20;stroke-width:1.666;stroke-linecap:round;stroke-linejoin:round;stroke-miterlimit:4;stroke-dasharray:none;stroke-opacity:1" transform="translate(340.73 355.663)"/><path d="M0 0s1.884-5.917.241-8.395" style="fill:none;stroke:#231f20;stroke-width:1.666;stroke-linecap:round;stroke-linejoin:round;stroke-miterlimit:4;stroke-dasharray:none;stroke-opacity:1" transform="translate(423.506 338.997)"/><path d="M0 0s3.69 3.219 7.902-.491" style="fill:none;stroke:#231f20;stroke-width:1.666;stroke-linecap:round;stroke-linejoin:round;stroke-miterlimit:4;stroke-dasharray:none;stroke-opacity:1" transform="translate(356.91 389.413)"/><path d="M0 0s4.441 2.066 7.454-2.67" style="fill:none;stroke:#231f20;stroke-width:1.666;stroke-linecap:round;stroke-linejoin:round;stroke-miterlimit:4;stroke-dasharray:none;stroke-opacity:1" transform="translate(409.005 377.855)"/><path d="M0 0c3.026-.582 6.579 2.834 7.93 9.96 1.339 7.119-.035 13.367-3.067 13.945-3.04.574-6.583-4.731-7.925-11.851C-4.405 4.934-3.04.578 0 0" style="fill:#231f20;fill-opacity:1;fill-rule:nonzero;stroke:none" transform="translate(358.797 347.95)"/><path d="M0 0c3.026-.582 6.579 2.834 7.93 9.96 1.339 7.119-.035 13.367-3.067 13.945-3.04.574-6.583-4.731-7.925-11.851C-4.405 4.934-3.04.578 0 0Z" style="fill:none;stroke:#231f20;stroke-width:1.666;stroke-linecap:butt;stroke-linejoin:miter;stroke-miterlimit:10;stroke-dasharray:none;stroke-opacity:1" transform="translate(358.797 347.95)"/><path d="M0 0c1.999-.454 4.315 2.266 5.179 6.065.868 3.83-.05 7.282-2.04 7.731-2.001.447-4.326-2.262-5.184-6.081C-2.91 3.904-1.99.452 0 0" style="fill:#fff;fill-opacity:1;fill-rule:nonzero;stroke:none" transform="translate(361.404 356.745)"/><path d="M0 0c1.999-.454 4.315 2.266 5.179 6.065.868 3.83-.05 7.282-2.04 7.731-2.001.447-4.326-2.262-5.184-6.081C-2.91 3.904-1.99.452 0 0Z" style="fill:none;stroke:#231f20;stroke-width:1.666;stroke-linecap:butt;stroke-linejoin:miter;stroke-miterlimit:10;stroke-dasharray:none;stroke-opacity:1" transform="translate(361.404 356.745)"/><path d="M0 0c2.986-.799 6.918 2.336 8.782 9.34 1.876 7.003.967 13.333-2.01 14.142-2.988.803-6.923-4.221-8.785-11.225C-3.887 5.245-2.98.811 0 0" style="fill:#231f20;fill-opacity:1;fill-rule:nonzero;stroke:none" transform="translate(399.832 339.223)"/><path d="M0 0c2.986-.799 6.918 2.336 8.782 9.34 1.876 7.003.967 13.333-2.01 14.142-2.988.803-6.923-4.221-8.785-11.225C-3.887 5.245-2.98.811 0 0Z" style="fill:none;stroke:#231f20;stroke-width:1.666;stroke-linecap:butt;stroke-linejoin:miter;stroke-miterlimit:10;stroke-dasharray:none;stroke-opacity:1" transform="translate(399.832 339.223)"/><path d="M0 0c1.951-.604 4.47 1.941 5.618 5.669 1.149 3.732.475 7.251-1.476 7.854-1.957.613-4.471-1.941-5.61-5.678C-2.615 4.111-1.967.586 0 0" style="fill:#fff;fill-opacity:1;fill-rule:nonzero;stroke:none" transform="translate(403.232 347.802)"/><path d="M0 0c1.951-.604 4.47 1.941 5.618 5.669 1.149 3.732.475 7.251-1.476 7.854-1.957.613-4.471-1.941-5.61-5.678C-2.615 4.111-1.967.586 0 0Z" style="fill:none;stroke:#231f20;stroke-width:1.666;stroke-linecap:butt;stroke-linejoin:miter;stroke-miterlimit:10;stroke-dasharray:none;stroke-opacity:1" transform="translate(403.232 347.802)"/><path d="M0 0c3.98-.849 7.162 3.301 7.162 3.301.125.117.23.327.07.469-.16.138-.469-.165-.469-.165C3.888.884.146 2.039.146 2.039Z" style="fill:#231f20;fill-opacity:1;fill-rule:nonzero;stroke:none" transform="translate(409.116 353.585)"/><path d="M0 0c3.98-.849 7.162 3.301 7.162 3.301.125.117.23.327.07.469-.16.138-.469-.165-.469-.165C3.888.884.146 2.039.146 2.039Z" style="fill:none;stroke:#231f20;stroke-width:1.666;stroke-linecap:round;stroke-linejoin:round;stroke-miterlimit:4;stroke-dasharray:none;stroke-opacity:1" transform="translate(409.116 353.585)"/><path d="M0 0c-3.679 1.74-3.689 6.971-3.689 6.971-.026.17.016.398.229.415.211.014.274-.417.274-.417.633-3.906 4.307-5.26 4.307-5.26z" style="fill:#231f20;fill-opacity:1;fill-rule:nonzero;stroke:none" transform="translate(358.404 364.709)"/><path d="M0 0c-3.679 1.74-3.689 6.971-3.689 6.971-.026.17.016.398.229.415.211.014.274-.417.274-.417.633-3.906 4.307-5.26 4.307-5.26z" style="fill:none;stroke:#231f20;stroke-width:1.666;stroke-linecap:round;stroke-linejoin:round;stroke-miterlimit:4;stroke-dasharray:none;stroke-opacity:1" transform="translate(358.404 364.709)"/><path d="M0 0s-5.818-5.242-7.248-14.845" style="fill:none;stroke:#231f20;stroke-width:1.666;stroke-linecap:round;stroke-linejoin:round;stroke-miterlimit:10;stroke-dasharray:none;stroke-opacity:1" transform="translate(420.652 311.678)"/></g><g clip-path="url(#m)" transform="matrix(2.07198 0 0 -2.07198 -343.87 948.668)"><g mask="url(#n)"><path d="M339.306 351.281a7.42 7.42 0 0 1 3.042-10.04 7.417 7.417 0 0 1 10.038 3.04 7.42 7.42 0 0 1-3.039 10.039 7.365 7.365 0 0 1-3.493.879 7.422 7.422 0 0 1-6.548-3.918" style="fill:url(#o);stroke:none"/></g></g><g clip-path="url(#p)" transform="matrix(2.07198 0 0 -2.07198 -343.87 948.668)"><g mask="url(#q)"><path d="M406.864 338.824a7.418 7.418 0 0 1 3.04-10.04 7.418 7.418 0 0 1 6.998 13.081 7.42 7.42 0 0 1-10.038-3.041" style="fill:url(#r);stroke:none"/></g></g><g clip-path="url(#s)" transform="matrix(2.07198 0 0 -2.07198 -343.87 948.668)"><path d="M0 0c1.832 2.295 2.881 4.452 2.881 4.452-11.509.921-21.803 5.702-21.803 5.702-.265-1.203-.552-5.434 1.015-9.199C-16.45 1.971-6.512 2.721 0 0" style="fill:#231f20;fill-opacity:1;fill-rule:nonzero;stroke:none" transform="translate(386.994 333.925)"/><path d="M0 0c1.832 2.295 2.881 4.452 2.881 4.452-11.509.921-21.803 5.702-21.803 5.702-.265-1.203-.552-5.434 1.015-9.199C-16.45 1.971-6.512 2.721 0 0Z" style="fill:none;stroke:#231f20;stroke-width:.522;stroke-linecap:round;stroke-linejoin:round;stroke-miterlimit:4;stroke-dasharray:none;stroke-opacity:1" transform="translate(386.994 333.925)"/><path d="M0 0c.957-2.456 3.644-5.353 7.545-6.213 3.064-.677 8.011 1.911 10.365 5.26C11.396 1.768 1.45 1.018 0 0" style="fill:#f9aa8f;fill-opacity:1;fill-rule:nonzero;stroke:none" transform="translate(369.084 334.878)"/><path d="M0 0s10.292-4.781 21.802-5.702c0 0-5.45-11.218-13.246-9.712C-1.006-13.567-.466-2.111 0 0Z" style="fill:none;stroke:#231f20;stroke-width:1.999;stroke-linecap:round;stroke-linejoin:round;stroke-miterlimit:4;stroke-dasharray:none;stroke-opacity:1" transform="translate(368.073 344.08)"/><path d="M0 0c3.49-5.656 10.906-7.411 16.551-3.926 5.656 3.489 7.405 10.899 3.923 16.553-3.484 5.648-10.894 7.408-16.549 3.919C-1.724 13.061-3.483 5.65 0 0" style="fill:#ffc20d;fill-opacity:1;fill-rule:nonzero;stroke:none" transform="translate(405.618 399.144)"/><path d="M0 0c3.49-5.656 10.906-7.411 16.551-3.926 5.656 3.489 7.405 10.899 3.923 16.553-3.484 5.648-10.894 7.408-16.549 3.919C-1.724 13.061-3.483 5.65 0 0Z" style="fill:none;stroke:#231f20;stroke-width:1.666;stroke-linecap:butt;stroke-linejoin:miter;stroke-miterlimit:10;stroke-dasharray:none;stroke-opacity:1" transform="translate(405.618 399.144)"/></g></svg>