<svg xmlns="http://www.w3.org/2000/svg" xml:space="preserve" width="711.10498" height="1000" viewBox="0 0 711.10498 999.99998"><defs><clipPath id="a" clipPathUnits="userSpaceOnUse"><path d="M0 841.89h595.276V0H0Z"/></clipPath></defs><g clip-path="url(#a)" transform="matrix(1.22402 0 0 -1.22402 -9.792 1021.784)"><path d="M0 0c0-31.116-104.808-56.336-234.088-56.336-129.278 0-234.081 25.22-234.081 56.336 0 31.113 104.803 56.336 234.081 56.336C-104.808 56.336 0 31.113 0 0" style="fill:#c9cacb;fill-opacity:1;fill-rule:nonzero;stroke:none" transform="translate(497.1 74.133)"/><path d="M0 0c-4.76-18.383 4.408-48.815 46.449-52.587C88.484-56.36 70.267-17.615 40.62-7.785 10.974 2.034 0 0 0 0" style="fill:#fff;fill-opacity:1;fill-rule:nonzero;stroke:none" transform="translate(48.731 395.606)"/><path d="M0 0c.265-16.105 10.08-35.984 43.853-39.25a58.13 58.13 0 0 1 5.076-.234c12.873.449 14.899 4.048 15.14 8.633.425 8.182-11.88 23.45-27.703 28.41C16.243 4.233 5.09 5.269.413 5.311A33.579 33.579 0 0 1 0 0m43.116-47.433C5.798-44.306-8.469-19.709-8.207 0c0 3.607.444 7.074 1.266 10.265a4.11 4.11 0 0 0 3.213 3.01c.265.05 1.479.249 3.796.249 5.583 0 17.622-1.127 38.874-8.171 18.54-6.413 32.915-21.969 33.343-36.204.059-4.662-2.005-9.409-6.17-12.398-4.135-3.018-9.816-4.435-17.186-4.449-1.83 0-3.758.086-5.813.265" style="fill:#774100;fill-opacity:1;fill-rule:nonzero;stroke:none" transform="translate(51.691 386.365)"/><path d="M0 0c-4.769-18.381 4.406-48.804 46.44-52.587 42.029-3.773 23.821 34.97-5.828 44.802C10.974 2.032 0 0 0 0" style="fill:#fff;fill-opacity:1;fill-rule:nonzero;stroke:none" transform="translate(32.726 420.771)"/><path d="M0 0c.265-16.096 10.093-35.972 43.856-39.237a56.62 56.62 0 0 1 5.073-.238c12.879.448 14.893 4.037 15.143 8.64.419 8.173-11.883 23.448-27.706 28.404C16.242 4.242 5.089 5.278.412 5.315A34.463 34.463 0 0 1 0 0m43.119-47.421C5.807-44.296-8.466-19.712-8.208 0c0 3.611.451 7.081 1.276 10.275a4.13 4.13 0 0 0 3.21 3.013c.278.053 1.479.243 3.799.243 5.573 0 17.62-1.128 38.87-8.164 18.535-6.418 32.91-21.97 33.335-36.202.071-4.665-2-9.417-6.167-12.401-4.132-3.022-9.813-4.439-17.186-4.451-1.823 0-3.758.086-5.81.266" style="fill:#774100;fill-opacity:1;fill-rule:nonzero;stroke:none" transform="translate(35.678 411.52)"/><path d="M0 0c-48.277 58.825-110.165 45.969-138.958 54.244-17.517 5.033-18.824 8.848-26.59 12.329-16.103 7.222-7.388-50.084 75.569-49.792 0 0-10.795-9.819-11.467-20.612-1.131-17.972 13.691-39.15 64.3-25.853C43.819-8.414 49.604-60.427 0 0" style="fill:#fff;fill-opacity:1;fill-rule:nonzero;stroke:none" transform="translate(184.95 378.798)"/><path d="M0 0c-6.738 6.354-9.477 14.786-9.465 22.602 0 .742.025 1.466.074 2.165.536 6.298 3.303 11.76 6.147 15.86-55.572 3.118-76.58 32.626-76.919 49.053.012 2.43.456 4.797 1.891 6.928 1.393 2.176 4.215 3.723 6.907 3.642 1.621-.012 3.121-.419 4.542-1.048 9.165-4.245 8.974-7.165 25.952-12.088 26.237-7.967 91.519 5.021 141.314-55.805l-3.663-2.998-3.657-3.013C46.353 82.132-12.124 69.392-43.483 78.007c-17.986 5.123-20.839 9.794-27.151 12.524a4.996 4.996 0 0 1-.059-.851c-.127-4.384 4.129-14.779 15.99-23.476C-42.885 57.433-23.575 49.84 6.149 49.84c.191 0 .444 0 .758-.016a4.719 4.719 0 0 0 4.337-3.072 4.762 4.762 0 0 0-1.25-5.17c.021-.024-2.354-2.131-4.855-5.548C2.615 32.627.265 28.083.064 24.169a29.495 29.495 0 0 1-.052-1.567C.444 11.341 6.346-.357 31.313-.813c7.357 0 16.34 1.184 27.117 4.005 15.882 4.187 29.052 5.629 39.619 5.629 3.741 0 7.135-.187 10.22-.48-4.311 4.365-9.364 9.929-15.146 16.957l3.657 3.013 3.663 2.998c13.635-16.742 23.275-24.672 27.366-27.584.162-.07.316-.133.472-.209 1.742-.949 2.129-.814 3.831-2.511.212-.435.948-.734 1.127-3.103.179-1.281-1.072-3.58-2.438-4.144-1.271-.665-1.934-.575-2.337-.615-2.496.271-2.064.566-2.947.853-.597.32-1.283.727-2.112 1.269-.056.037-.117.071-.18.121-.923.369-2.1.795-3.53 1.223-4.578 1.356-11.741 2.735-21.646 2.735-9.701 0-22.046-1.318-37.203-5.315-11.409-2.984-21.159-4.315-29.533-4.315h-.071C17.067-10.286 6.719-6.35 0 0" style="fill:#774100;fill-opacity:1;fill-rule:nonzero;stroke:none" transform="translate(88.163 350.494)"/><path d="M0 0c-12.989-11.888-10.552-31.997 2.098-42.382 14.134-11.611 52.521-11.668 68.135-2.136L34.736-28.05c7.748 6.574 8.916 17.998 2.107 25.869C27.628 8.473 10.687 9.76 0 0" style="fill:#fff;fill-opacity:1;fill-rule:nonzero;stroke:none" transform="translate(81.382 391.016)"/><path d="M0 0c-6.096-5.456-13.429 1.984-6.984 6.057C9.695 16.575-9.27 40.765-29.212 30.832a21.945 21.945 0 0 1-4.939-3.351c-9.658-8.706-9.944-23.168-2.921-33.181a25.59 25.59 0 0 1 4.683-5.086c22.374-16.241 61.093-1.996 62.298-1.266 0 0 4.341-2.668.736-4.852 0 0-42.374-19.684-67.079 2.63a32.721 32.721 0 0 0-5.761 6.032c-8.626 11.868-8.863 29.238 3.266 40.458a26.898 26.898 0 0 0 6.374 4.383c11.836 5.91 26.572 3.094 35.134-6.959a21.78 21.78 0 0 0 3.139-4.883C9.628 16.295 7.385 6.235 0 0" style="fill:#774100;fill-opacity:1;fill-rule:nonzero;stroke:none" transform="translate(117.895 361.166)"/><path d="M0 0a26.612 26.612 0 0 1-6.236-4.27c-6.368-5.906-9.242-13.506-9.242-21.116 0-6.553 2.15-13.109 6.069-18.495a32.044 32.044 0 0 1 5.675-5.932c8.78-7.924 19.847-10.475 30.481-10.475 9.36-.011 18.325 1.974 24.949 3.964 6.611 1.982 10.882 3.953 10.872 3.953.949.595 1.118 1.052 1.118 1.411.099.752-1.056 1.739-1.59 2.145-2.778-1.156-17.837-6.353-34.233-6.377-9.853.009-20.158 1.913-28.405 7.895a26.627 26.627 0 0 0-4.797 5.204 27.488 27.488 0 0 0-4.972 15.715c0 6.725 2.547 13.411 7.988 18.319a22.746 22.746 0 0 0 5.089 3.454c3.359 1.678 6.71 2.411 9.877 2.411 10.918-.021 19.637-8.628 19.681-17.24.003-4.079-2.049-8.154-6.704-11.075-1.645-1.041-2.2-2.209-2.206-3.235.006-1.783 1.827-3.546 4.245-3.546 1.294 0 2.736.48 4.174 1.753l.432-.484-.419.494c4.822 4.082 7.388 9.84 7.388 15.653 0 2.837-.607 5.675-1.845 8.34a20.828 20.828 0 0 1-3.038 4.747c-5.448 6.39-13.457 9.782-21.584 9.782C8.417 2.995 4.035 2.021 0 0m-4.567-50.793a33.034 33.034 0 0 0-5.883 6.149c-4.079 5.61-6.326 12.419-6.326 19.258 0 7.927 3.023 15.919 9.665 22.065 1.975 1.826 4.19 3.309 6.532 4.48a29.874 29.874 0 0 0 13.346 3.127c8.481 0 16.858-3.546 22.563-10.248a22.097 22.097 0 0 0 3.235-5.033 21.082 21.082 0 0 0 1.953-8.879c0-6.195-2.726-12.311-7.837-16.642v.008c-1.639-1.463-3.408-2.08-5.022-2.08-3.025.004-5.508 2.185-5.533 4.844 0 1.543.893 3.136 2.81 4.325 4.332 2.745 6.076 6.323 6.088 9.985-.012 7.73-8.134 15.941-18.381 15.952-2.969 0-6.112-.673-9.303-2.27A21.373 21.373 0 0 1-1.454-9.02c-5.158-4.649-7.561-10.965-7.561-17.358A26.158 26.158 0 0 1-4.279-41.35a24.97 24.97 0 0 1 4.531-4.927c7.887-5.742 17.918-7.619 27.611-7.619 17.203-.037 33.445 6.032 33.975 6.379h.665c.012-.084 2.37-1.298 2.484-3.443.002-.911-.583-1.815-1.803-2.547-.046-.019-17.354-8.065-36.437-8.075-10.825-.003-22.256 2.603-31.314 10.789" style="fill:#774100;fill-opacity:1;fill-rule:nonzero;stroke:none" transform="translate(85.63 397.187)"/><path d="M0 0c10.147-16.042 10.727-47.818-28.138-64.272-38.869-16.442-33.38 26.014-8.16 44.435C-11.082-1.411 0 0 0 0" style="fill:#fff;fill-opacity:1;fill-rule:nonzero;stroke:none" transform="translate(491.448 431.258)"/><path d="M0 0c-5.614-2.514-14.444-7.325-26.869-16.395-11.337-8.137-18.411-22.312-18.281-31.292.486-6.495 1.919-9.041 8.904-9.428 3.228-.013 7.766.942 13.514 3.388C1.528-43.322 8.638-27.789 8.764-14.172 8.77-8.188 7.267-2.535 5.001 1.985 3.78 1.581 2.118.952 0 0m-49.216-60.093c-2.992 3.404-4.151 7.843-4.151 12.406.133 12.634 8.294 28.034 21.655 37.918C-6.116 8.931 5.563 10.703 6.493 10.832a4.119 4.119 0 0 0 3.986-1.879c3.924-6.226 6.48-14.317 6.492-23.125.117-16.777-9.83-35.965-36.498-47.12-6.445-2.724-11.944-4.037-16.719-4.037h-.164c-5.283 0-9.871 1.856-12.806 5.236" style="fill:#774100;fill-opacity:1;fill-rule:nonzero;stroke:none" transform="translate(484.433 424.505)"/><path d="M0 0c10.159-16.039 10.732-47.827-28.14-64.266-38.867-16.458-33.377 25.999-8.151 44.429C-11.073-1.42 0 0 0 0" style="fill:#fff;fill-opacity:1;fill-rule:nonzero;stroke:none" transform="translate(498.989 460.122)"/><path d="M0 0c-5.607-2.514-14.436-7.317-26.865-16.393-11.34-8.139-18.411-22.306-18.275-31.295.484-6.489 1.918-9.03 8.891-9.424 3.244-.012 7.766.936 13.525 3.379C1.532-43.32 8.657-27.792 8.765-14.159 8.778-8.192 7.283-2.527 5.006 1.987 3.787 1.581 2.126.952 0 0m-49.216-60.085c-2.986 3.389-4.135 7.831-4.135 12.397.118 12.644 8.288 28.038 21.653 37.928C-6.106 8.934 5.561 10.709 6.491 10.832a4.097 4.097 0 0 0 3.993-1.88c3.925-6.216 6.489-14.313 6.497-23.111.121-16.785-9.836-35.984-36.507-47.137-6.452-2.714-11.942-4.019-16.723-4.031h-.159c-5.285 0-9.866 1.85-12.808 5.242" style="fill:#774100;fill-opacity:1;fill-rule:nonzero;stroke:none" transform="translate(491.971 453.36)"/><path d="M0 0c27.977 70.766 90.834 77.452 115.716 94.15 15.139 10.145 15.226 14.165 21.541 19.852 13.12 11.816 22.359-45.417-56.712-70.507 0 0 13.276-6.045 17.222-16.113 6.563-16.778-1.06-41.472-53.308-44.29C-39.139-21.416-28.735-72.707 0 0" style="fill:#fff;fill-opacity:1;fill-rule:nonzero;stroke:none" transform="translate(366.884 373.6)"/><path d="M0 0c10.909 4.72 26.849 9.163 49.046 10.361C90.43 12.962 99.78 27.801 99.87 39.607c0 2.945-.609 5.87-1.66 8.587-1.389 3.648-5.021 7.252-8.472 9.719-3.417 2.505-6.304 3.811-6.308 3.811a4.734 4.734 0 0 0-2.766 4.594 4.727 4.727 0 0 0 3.297 4.224c49.98 15.891 62.169 44.271 62.131 57.303.009 1.935-.265 3.475-.619 4.476-.083.272-.17.484-.25.66-5.179-4.532-6.461-9.853-22.019-20.229C95.982 94.97 36.393 89.208 9.251 20.789 5.838 12.274 2.745 5.449 0 0m-19.686-19.156c-1.175 1.503-1.075 2.637-1.108 3.049.501 3.354.931 2.463 1.172 3.213.289.383.598.729.965 1.114.403.418.893.886 1.466 1.408.872 1.133 2.006 2.768 3.36 4.956C-10.314.256-5.33 9.68.443 24.274c28.812 73.139 94.945 80.748 117.481 96.353 14.661 9.867 13.59 12.6 21.014 19.427 1.759 1.605 4.011 2.797 6.605 2.81 3.813.012 6.649-2.634 7.977-5.314 1.43-2.764 2.034-5.996 2.045-9.705-.029-17.219-14.119-45.74-59.213-63 3.953-3.034 8.239-7.391 10.675-13.194 1.457-3.732 2.313-7.811 2.313-12.044C109.446 21.16 92.619 2.862 49.564.901 12.88-.976-4.893-12.446-10.285-16.913c-1.108-1.369-1.996-2.277-2.649-2.837-.601-.179-.073-.719-3.102-1.11h-.144c-.688 0-2.34.296-3.506 1.704" style="fill:#774100;fill-opacity:1;fill-rule:nonzero;stroke:none" transform="translate(362.035 351.064)"/><path d="M0 0c15.995-7.339 19.823-27.229 10.955-40.985-9.908-15.379-46.434-27.182-64.21-22.875l-19.462 4.129c-4.948 2.048 39.644 28.349 37.931 32.971-1.543 4.162-1.555 8.894.367 13.423C-28.905-.371-13.161 6.031 0 0" style="fill:#fff;fill-opacity:1;fill-rule:nonzero;stroke:none" transform="translate(461.767 416.899)"/><path d="M0 0c7.486-3.318 12.188 6.005 4.806 7.903-19.105 4.913-8.442 33.756 13.58 30.397a21.539 21.539 0 0 0 5.722-1.691c11.873-5.338 16.556-19.006 12.938-30.691a25.73 25.73 0 0 0-2.908-6.273c-16.332-22.319-63.32-20.11-64.684-19.79 0 0 2.44-4.329 6.541-5.317 0 0 46.362-5.783 63.061 23.018a32.707 32.707 0 0 1 3.644 7.5c4.591 13.939-.511 30.544-15.485 37.536a28.018 28.018 0 0 1-7.409 2.222c-13.078 1.996-26.245-5.195-31.32-17.38a21.265 21.265 0 0 1-1.493-5.6C-14.147 12.57-8.935 3.687 0 0" style="fill:#774100;fill-opacity:1;fill-rule:nonzero;stroke:none" transform="translate(436.12 377.313)"/><path d="M0 0c.01 0 3.758-.468 9.541-.468C23.974-.48 50.756 2.516 62.439 22.733a31.565 31.565 0 0 1 3.57 7.355 31.936 31.936 0 0 1 1.59 9.963c-.006 10.869-5.542 21.553-16.726 26.781a26.789 26.789 0 0 1-7.246 2.163 28.193 28.193 0 0 1-4.28.323c-11.288.009-21.947-6.73-26.353-17.313a20.558 20.558 0 0 1-1.432-5.435 19.132 19.132 0 0 1-.164-2.447c0-8.05 4.878-15.444 12.777-18.7l-.25-.604.261.588c1.039-.452 1.997-.644 2.863-.644 2.881 0 4.733 2.154 4.742 4.052-.025 1.333-.818 2.64-3.226 3.287-7.15 1.808-10.432 7.05-10.398 12.674.003 9.055 8.146 19.25 20.636 19.271a22.9 22.9 0 0 0 3.604-.287 22.351 22.351 0 0 0 5.89-1.737c9.501-4.286 14.511-13.753 14.511-23.352 0-2.736-.4-5.478-1.22-8.125a26.229 26.229 0 0 0-3.011-6.454C45.22 5.959 12.621 3.86-.79 3.823a99.165 99.165 0 0 0-4.53.105C-4.353 2.636-2.472.567 0 0m-.231-1.273c-4.461 1.11-6.917 5.589-6.956 5.63a.646.646 0 0 0 .708.948c.086-.025 2.341-.199 5.689-.185 13.283-.037 45.655 2.292 58.306 19.699a25.025 25.025 0 0 1 2.837 6.107 26.46 26.46 0 0 1 1.161 7.745c0 9.169-4.76 18.133-13.743 22.178a21.894 21.894 0 0 1-5.565 1.643 22.076 22.076 0 0 1-3.403.269c-11.73-.026-19.329-9.669-19.348-17.985.025-5.128 2.779-9.688 9.431-11.42 2.807-.689 4.211-2.594 4.189-4.541-.013-2.71-2.495-5.34-6.026-5.342-1.053 0-2.2.236-3.389.761v.006c-8.342 3.441-13.55 11.317-13.55 19.883 0 .869.056 1.738.164 2.605.228 1.936.748 3.871 1.541 5.782 4.611 11.078 15.739 18.097 27.532 18.109 1.492 0 2.983-.124 4.477-.357a28.552 28.552 0 0 0 7.595-2.256c11.666-5.451 17.483-16.657 17.471-27.955 0-3.496-.552-7.01-1.654-10.376a33.273 33.273 0 0 0-3.7-7.62C51.366 1.144 24.101-1.753 9.541-1.762c-5.856 0-9.683.477-9.772.489" style="fill:#774100;fill-opacity:1;fill-rule:nonzero;stroke:none" transform="translate(412.194 352.494)"/><path d="M0 0s138.945 148.418 170.527 326.841c22.421 126.658-111.042 48.413-115.266 12.628C51.055 303.685.958 102.736-34.822 49.053-70.609-4.63-31.579-37.894 0 0" style="fill:#774100;fill-opacity:1;fill-rule:nonzero;stroke:none" transform="translate(397.523 372.907)"/><path d="M0 0s132.629 145.261 162.631 306.314c20.959 112.473-86.242 46.049-90.001 14.209C68.894 288.699-1.318 85.647-33.156 37.897-64.974-9.854-28.084-33.702 0 0" style="fill:#fdd000;fill-opacity:1;fill-rule:nonzero;stroke:none" transform="translate(388.049 376.065)"/><path d="M0 0c0-38.817-31.578-74.209-45.787-80.522-41.052 0-101.053 12.627-148.27-23.337-37.623 11.136-67.556 35.283-73.317 71.591-14.554 91.725 71.831 123.76 144.215 134.9C-55.263 113.684 0 58.422 0 0" style="fill:#774100;fill-opacity:1;fill-rule:nonzero;stroke:none" transform="translate(441.732 305.012)"/><path d="M0 0s-32.518-105.996-36.317-116.843c-11.053-31.575-36.317-83.683-115.262-69.475-78.947 14.212-57.547 100.422 14.211 116.844 0 0 20.522 37.893 39.469 110.524C-78.949 113.68 23.683 58.418 0 0" style="fill:#774100;fill-opacity:1;fill-rule:nonzero;stroke:none" transform="translate(299.014 231.442)"/><path d="M0 0c-66.657-19.859-81.13-87.495-13.919-99.597 67.217-12.086 88.721 32.269 98.133 59.15 3.235 9.239 30.916 99.47 30.916 99.47 20.16 49.736-74.357 108.567-77.012 44.723-1.18-28.241-20.761-72.254-30.669-92.856 0 0 19.169 2.062 28.529-9.461 0 0-19.064 3.602-35.978-1.429" style="fill:#fdd000;fill-opacity:1;fill-rule:nonzero;stroke:none" transform="translate(166.157 154.536)"/><path d="M0 0s-.348 19.07 13.679 30.937c0 0-11.149-1.072-19.428-17.983C-14.027-3.947-1.435-3.947 0 0" style="fill:#774100;fill-opacity:1;fill-rule:nonzero;stroke:none" transform="translate(114.35 70.704)"/><path d="M0 0s-10.428 8.633 3.956 32.737c0 0-12.588-4.673-15.145-22.116C-13.931-7.994-.814-4.133 0 0" style="fill:#774100;fill-opacity:1;fill-rule:nonzero;stroke:none" transform="translate(166.157 52.72)"/><path d="M0 0c-2.253-17.342-12.902-65.128-20.965-98.718-13.63-42.011 132.277-25.134 105.207 4.771-10.794 42.623 11.506 96.144 35.41 144.823C133.164 112.116 6.343 34.69 0 0" style="fill:#774100;fill-opacity:1;fill-rule:nonzero;stroke:none" transform="translate(308.284 212.659)"/><path d="M0 0c-2.049-15.832-11.051-62.472-17.866-93.151-11.284-38.367 101.387-22.836 81.103 4.452C56.324-49.668 65.8-18.093 92.452 38.144 103.993 94.073 5.54 31.671 0 0" style="fill:#fdd000;fill-opacity:1;fill-rule:nonzero;stroke:none" transform="translate(319.094 212.581)"/><path d="M0 0c38.546 31.033 109.051 13.014 105.268-43.52-1.704-25.632-39.121-29.014-76.479-28.95-44.622.065-89.715 9.6-74.116 53.433C-37.868 1.91 12.221-25.038 0 0" style="fill:#774100;fill-opacity:1;fill-rule:nonzero;stroke:none" transform="translate(332.977 137.786)"/><path d="M0 0c26.137.494 71.589-5.98 69.459-47.81C68.428-67.896 35.97-69.09 3.878-69.041c-38.309.062-75.547 6.066-62.162 40.395C-48.89-2.304-26.132-.481 0 0" style="fill:#fdd000;fill-opacity:1;fill-rule:nonzero;stroke:none" transform="translate(356.332 145.765)"/><path d="M0 0s6.587 30.035-17.863 41.054c0 0 16.925-19.026 5.634-42.056z" style="fill:#774100;fill-opacity:1;fill-rule:nonzero;stroke:none" transform="translate(414.77 76.703)"/><path d="M0 0c2.293-79.32-136.479-83.328-138.768-4.013-1.189 41.266 28.907 75.605 67.226 76.704C-33.223 73.804-1.198 41.26 0 0" style="fill:#774100;fill-opacity:1;fill-rule:nonzero;stroke:none" transform="translate(367.07 254.725)"/><path d="M0 0c13.752-126.166-228.708-156.426-245.538-33.652-9.209 67.23 38.279 129.262 106.085 138.563C-71.644 114.199-7.355 67.46 0 0" style="fill:#fdd000;fill-opacity:1;fill-rule:nonzero;stroke:none" transform="translate(428.861 314.464)"/><path d="M0 0c40.751 52.429 98.204 96.661 145.459 116.239 12.353 5.12 6.315-31.582 6.315-31.582s3.891-11.404-17.37-41.048C115.057 16.613 80.567-30.564 67.473-57.863 46.398-101.802-7.28-9.35 0 0" style="fill:#774100;fill-opacity:1;fill-rule:nonzero;stroke:none" transform="translate(45.222 274.037)"/><path d="M0 0c42.491 54.66 112.142 101.239 149.408 111.817 69.964 19.876 7.92-19.337 7.92-19.337S65.951.927 42.999-51.231C26.769-88.087-6.011-7.734 0 0" style="fill:#fdd000;fill-opacity:1;fill-rule:nonzero;stroke:none" transform="translate(61.8 276.878)"/><path d="M0 0c0-32.111-26.242-58.151-58.609-58.151-32.367 0-58.613 26.04-58.613 58.151 0 32.108 35.648 63.633 62.572 44.776C-30.901 49.489 0 32.108 0 0" style="fill:#774100;fill-opacity:1;fill-rule:nonzero;stroke:none" transform="translate(135.256 229.055)"/><path d="M0 0c0-27.166-22.031-49.196-49.197-49.196-27.17 0-49.201 22.03-49.201 49.196 0 27.174 22.031 49.206 49.201 49.206C-22.031 49.206.81 26.404 0 0" style="fill:#fff;fill-opacity:1;fill-rule:nonzero;stroke:none" transform="translate(125.844 229.069)"/><path d="m0 0-13.58-11.777-11.135-14.125c4.899-23.138 22.74-28.233 32.491-18.686C21.051-31.577 11.578-11.574 0 0" style="fill:#fff;fill-opacity:1;fill-rule:nonzero;stroke:none" transform="translate(122.175 256.695)"/><path d="M0 0c-11.578.01-22.62 9.745-26.162 27.003v-.015c-.537 2.566 1.096 5.087 3.653 5.629 2.558.542 5.084-1.1 5.614-3.662C-13.728 14.493-5.893 9.462 0 9.474c2.785 0 5.379 1.038 7.64 3.197 3.669 3.66 4.988 7.509 5.035 12.014.116 8.425-7.08 18.403-13.094 27.482 0 0-1.59 3.224.265 5.072 1.836 1.849 3.271.641 5.113-1.211 5.67-6.229 16.89-19.689 17.019-32.183.043-6.59-2.187-12.584-7.714-17.952C10.364 2.098 5.28 0 .053 0Z" style="fill:#774100;fill-opacity:1;fill-rule:nonzero;stroke:none" transform="translate(118.983 202.815)"/><path d="M0 0c-5.937 7.184-.853 14.772 3.938 7.32 12.406-19.332 29.883-.089 17.357 22.803a33.91 33.91 0 0 1-3.885 5.729C7.954 47.243-4.747 48.642-12.12 41.61c-1.376-1.319-2.572-2.936-3.53-4.822-6.517-12.828-4.575-29.557 4.051-45.458a95.76 95.76 0 0 1 2.468-4.18c2.64-4.21-.034-6.563-2.641-2.404a86.956 86.956 0 0 0-2.742 4.646c-9.701 17.677-12.15 37.602-4.971 52.143 1.126 2.305 2.541 4.292 4.155 5.934 8.704 8.695 23.806 7.646 35.965-6.645a46.457 46.457 0 0 0 5.047-7.416c7.434-13.596 7.818-29.743.703-38.486-1.088-1.333-2.321-2.368-3.676-3.127C16.095-11.913 6.873-8.657 0 0" style="fill:#774100;fill-opacity:1;fill-rule:nonzero;stroke:none" transform="translate(204.288 255.288)"/><path d="M0 0c3.784 8.509-3.145 14.443-5.761 5.967-6.757-21.956-28.756-8.117-22.858 17.306a34.251 34.251 0 0 0 2.211 6.566C-20.363 43.342-8.527 48.108.479 43.32c1.672-.9 3.265-2.13 4.707-3.7 9.716-10.595 12.348-27.226 8.306-44.863a86.815 86.815 0 0 0-1.232-4.686c-1.428-4.766 1.802-6.316 3.186-1.605a74.19 74.19 0 0 1 1.372 5.203c4.604 19.653 1.593 39.488-9.229 51.568-1.717 1.921-3.586 3.446-5.596 4.595-10.721 6.033-24.994.962-32.844-16.084-1.245-2.714-2.194-5.577-2.871-8.497-3.506-15.087.458-30.753 9.686-37.254 1.399-.988 2.864-1.669 4.353-2.023C-12.288-15.813-4.288-10.206 0 0" style="fill:#774100;fill-opacity:1;fill-rule:nonzero;stroke:none" transform="translate(413.774 281.825)"/><path d="M0 0c20.718 17.406 31.258 43.666 35.279 73.049 7.384 53.884-25.799 103.683-67.086 108.618-37.758 4.509-60.103-29.855-66.346-50.666-2.343-7.41-5.308-6.739-8.86-4.018-13.124 10.074-31.784 9.594-42.577-2.52-18.753-21.02 16.122-38.018 32.235-76.049 5.964-14.06 17.73-30.044 26.477-39.313 9.688-10.274 23.869-12.455 12.518.678-11.348 13.117 79.016 7.222 67.737-4.98C-22.164-7.682-6.297-5.291 0 0" style="fill:#774100;fill-opacity:1;fill-rule:nonzero;stroke:none" transform="translate(551.85 651.91)"/><path d="M0 0c0-.926-.433-1.836-1.193-2.646-2.893-3.101-3.916-5.263-3.879-6.285 0-.951.685-1.38 2.622-1.448 3.072-.022 8.035 1.791 10.77 4.116 20.507 17.211 30.994 43.27 35.002 72.527a111.794 111.794 0 0 1 1.023 15.042c.011 47.424-30.58 88.3-67.415 92.657a53.908 53.908 0 0 1-6.587.407c-33.146.05-53.091-31.132-58.889-50.512-1.377-4.391-3.146-6.438-5.54-6.474-1.599.023-3.068.929-4.581 2.07-5.974 4.591-13.129 6.935-20.114 6.935-8.008 0-15.777-3.069-21.375-9.35-3.703-4.159-5.183-8.032-5.183-11.945-.196-15.512 24.559-32.759 37.562-63.253 5.903-13.922 17.642-29.887 26.317-39.08 4.854-5.192 11.047-8.239 13.881-8.194 1.227.103 1.384.255 1.445 1.006.038 1.035-1.049 3.415-3.995 6.784-.752.859-1.189 1.739-1.189 2.665.65 5.083 11.044 5.856 23.734 6.1C-27.097 10.805-.854 7.71 0 0m-6.686-8.931c.034 1.874 1.337 4.133 4.319 7.377.568.628.748 1.137.748 1.554.379 1.974-5.976 5.033-15.107 6.682-9.088 1.793-20.752 2.825-30.858 2.825-6.288 0-11.985-.403-16.045-1.243-4.146-.809-6.257-2.275-6.077-3.242 0-.375.194-.913.8-1.608 3.007-3.526 4.352-5.942 4.39-7.841 0-1.718-1.491-2.617-3.063-2.617-3.715.051-9.892 3.284-15.046 8.694-8.814 9.353-20.598 25.351-26.637 39.562-12.693 30.161-37.5 46.827-37.691 63.882-.005 4.343 1.698 8.664 5.598 13.02 5.923 6.644 14.163 9.893 22.574 9.879 7.348 0 14.84-2.454 21.094-7.265 1.408-1.096 2.677-1.748 3.601-1.727 1.217-.037 2.629 1.051 3.996 5.337 5.937 19.741 26.14 51.587 60.433 51.637 2.212 0 4.468-.126 6.784-.405 37.919-4.577 68.814-46.183 68.825-94.264 0-5.025-.338-10.122-1.034-15.256C40.878 36.548 30.28 10.071 9.361-7.513l-.519.617.511-.617c-3.139-2.588-8.177-4.466-11.803-4.478-2.092 0-4.227.828-4.236 3.06" style="fill:#774100;fill-opacity:1;fill-rule:nonzero;stroke:none" transform="translate(543.009 658.806)"/><path d="M0 0c-14.243-58.321-48.025-74.704-74.951-67.807-21.873 5.614-44.262 28.568-55.624 56.138-20.925 50.71-50.07 58.554-31.304 74.928 9.275 8.102 32.871 2.279 43.466-18.084 0 0 9.401 74.934 63.805 67.658C-13.375 107.32 11.502 47.125 0 0" style="fill:#fff;fill-opacity:1;fill-rule:nonzero;stroke:none" transform="translate(573.337 711.648)"/><path d="m0 0-6.082-11.585 4.022-10.001s21.321-2.909 37.149-28.792c12.467-20.426 1.123 25.719-30.349 34.76 0 0-5.741 1.322-4.74 15.618" style="fill:#774100;fill-opacity:1;fill-rule:nonzero;stroke:none" transform="translate(458.51 775.005)"/><path d="M0 0c-36.667-4.011-71.93 32.678-44.539 92.253C-37.142 108.34-8.382 161.827-.763 179.9c0 0 36.156-176.027.763-179.9" style="fill:#774100;fill-opacity:1;fill-rule:nonzero;stroke:none" transform="translate(81.113 503.43)"/><path d="M0 0c-32.629-3.704-63.801 28.318-39.133 80.717C-32.49 94.869-6.655 141.93.203 157.828.203 157.828 31.492 3.573 0 0" style="fill:#fdd000;fill-opacity:1;fill-rule:nonzero;stroke:none" transform="translate(83.72 513.88)"/><path d="M0 0c30.796 20.295 34.559 71.04-24.529 99.475-15.962 7.658-72.218 30.529-89.618 39.594 0 0 84.406-158.657 114.147-139.069" style="fill:#774100;fill-opacity:1;fill-rule:nonzero;stroke:none" transform="translate(428.978 628.73)"/><path d="M0 0c27.485 17.965 31.077 62.492-21.323 87.138-14.156 6.659-64.071 26.435-79.485 34.305 0 0 74.261-138.774 100.808-121.443" style="fill:#fdd000;fill-opacity:1;fill-rule:nonzero;stroke:none" transform="translate(420.302 635.12)"/><path d="M0 0c-.22.301-.368.582-.596.867-77.467 100.311-146.745 158.47-257.353 130.899-4.297-.506-32.785-10.769-36.411-13.11-102.78-49.307-119.043-138.267-114.768-264.952.023-.354.087-.677.112-1.038-4.387-61.983 62.786-181.548 265.082-115.024.858.257 12.28 4.367 13.088 4.709C67.385-179.886 42.89-44.947 0 0" style="fill:#774100;fill-opacity:1;fill-rule:nonzero;stroke:none" transform="translate(453.252 655.696)"/><path d="M0 0c-73.358 94.935-137.953 153.933-244.571 127.362-4.135-.491-31.604-10.385-35.097-12.64-99.073-47.523-111.205-134.163-107.163-254.063 1.883-55.876 104.237-45.577 205.709-14.479 3.282.554 29.012 9.818 31.896 11.482C-51.229-101.596 34.169-44.234 0 0" style="fill:#fdd000;fill-opacity:1;fill-rule:nonzero;stroke:none" transform="translate(441.72 652.909)"/><path d="M0 0c7.477 27.707 26.083 43.09 42.602 35.389 5.221-2.429 6.183-.666 1.605 3.37-11.603 10.177-28.559 6.473-39.225-12.99C-1.734 13.63 0 0 0 0" style="fill:#774100;fill-opacity:1;fill-rule:nonzero;stroke:none" transform="translate(65.91 656.832)"/><path d="M0 0c-23.1 16.331-46.89 16.567-55.042.763-2.411-4.648-4.572-4.959-3.777.542 2.252 15.484 17.776 23.636 38.556 15.36C-7.351 11.605 0 0 0 0" style="fill:#774100;fill-opacity:1;fill-rule:nonzero;stroke:none" transform="translate(342.194 756.355)"/><path d="M0 0c-.912 5.317 2.025 14.643 7.173 20.463 5.594 6.318-.26 11.354-10.001-3.367-1.931-2.933-4.104-7.138-5.53-11.766C-11.657-5.404-10.148-47.293 0 0" style="fill:#774100;fill-opacity:1;fill-rule:nonzero;stroke:none" transform="translate(59.726 523.535)"/><path d="M0 0c-2.677 4.698-10.887 10.007-18.576 11.199-8.331 1.294-7.015 8.92 9.855 3.786 3.374-1.032 7.724-2.884 11.763-5.534C12.429 3.279 37.98-29.953 0 0" style="fill:#774100;fill-opacity:1;fill-rule:nonzero;stroke:none" transform="translate(431.37 657.4)"/><path d="M0 0c156.185 107.502 98.277 220.752 55.689 240.775-46.723 21.981-91.336-9.224-117.267-55.486-25.226-7.733-99.94-34.648-124.322-44.79-49.477 19.098-103.733 14.694-125.703-32.03-19.415-41.255 20.595-169.38 198.727-148.211 19.013 2.254 30.699-1.236 52.982 6.08.807.232 11.565 4.104 12.347 4.443C-31.852-23.042-12.003-8.263 0 0" style="fill:#fdd000;fill-opacity:1;fill-rule:nonzero;stroke:none" transform="translate(371.015 423.174)"/><path d="M0 0c-7.696-60.194-51.172-108.363-115.053-131.374-78.496-28.281-137.254-1.466-166.592 31.323 0 0 21.557 72.809 124.585 102.417C-54.041 31.971 0 0 0 0" style="fill:#774100;fill-opacity:1;fill-rule:nonzero;stroke:none" transform="translate(419.609 556.31)"/><path d="M0 0c19.028.003 40.05 3.454 62.864 11.67 61.823 22.311 103.682 68.197 112.13 125.485-2.703 1.32-7.844 3.603-15.611 5.935-12.086 3.624-30.229 7.3-54.268 7.3-22.259 0-49.586-3.145-81.849-12.409-76.096-21.908-106.593-67.4-117.188-88.583-2.061-4.141-3.326-7.274-4.026-9.162C-77.784 18.639-44.173 0 0 0m-105.315 36.696a3.899 3.899 0 0 0-.837 3.727c.126.663 22.573 75.009 127.256 105.07 32.931 9.475 61.009 12.732 84.011 12.732 48.005 0 73.881-14.196 75.989-15.407.227-.122.426-.259.617-.423.007 0 .016-.012.019-.012.006-.003.019-.022.032-.022a3.936 3.936 0 0 0 1.181-1.752c.072-.199.125-.407.155-.62 0 0 0-.009.01-.021v-.062c0-.016.009-.026.009-.038v-.039c.006-.021.006-.045.012-.067a3.432 3.432 0 0 0-.034-1.025C175.163 76.946 130.433 27.638 65.522 4.304 41.924-4.196 19.982-7.822 0-7.822c-47.635 0-83.952 20.651-105.315 44.518" style="fill:#774100;fill-opacity:1;fill-rule:nonzero;stroke:none" transform="translate(240.36 416.947)"/><path d="M0 0c-34.727-12.511-61.696-35.864-77.944-66.98 26.208-4.886 57.177-3.211 92.033 9.356C48.163-45.356 76.352-25.866 96.466-1.273 69.488 10.127 36.72 13.223 0 0" style="fill:#e35305;fill-opacity:1;fill-rule:nonzero;stroke:none" transform="translate(290.467 482.56)"/><path d="M0 0c19.012.003 40.008 3.454 62.803 11.656 31.541 11.358 57.854 28.987 77.195 51.052-12.915 4.812-27.074 7.653-42.336 7.653-14.476 0-29.952-2.554-46.305-8.439C19.295 50.351-5.827 29.435-21.83 1.566-14.874.546-7.597 0 0 0m-28.614-5.234a3.94 3.94 0 0 0-2.81 2.136 3.894 3.894 0 0 0 .049 3.521c16.692 32.007 44.506 56.049 80.079 68.853 17.158 6.189 33.564 8.904 48.958 8.904 18.35 0 35.254-3.86 50.366-10.25a3.923 3.923 0 0 0 2.27-2.653 3.942 3.942 0 0 0-.768-3.423C128.919 36.66 100.12 16.776 65.452 4.302 41.871-4.195 19.964-7.827 0-7.827c-10.053 0-19.606.92-28.614 2.593" style="fill:#774100;fill-opacity:1;fill-rule:nonzero;stroke:none" transform="translate(240.429 416.959)"/><path d="M0 0s10.28-34.231 25.114-30.42C39.437-26.757 40.94 2.086 40.94 2.086S7.168-3.371 0 0" style="fill:#774100;fill-opacity:1;fill-rule:nonzero;stroke:none" transform="translate(118.481 456.9)"/><path d="M0 0s6.174-21.874 14.942-21.218c5.946.444 8.1 21.328 8.1 21.328S4.11-1.938 0 0" style="fill:#fff;fill-opacity:1;fill-rule:nonzero;stroke:none" transform="translate(127.819 455.79)"/><path d="M0 0s13.9-32.925.066-39.453c-13.378-6.3-32.938 14.942-32.938 14.942S-3.38-7.166 0 0" style="fill:#774100;fill-opacity:1;fill-rule:nonzero;stroke:none" transform="translate(428.87 568.708)"/><path d="M0 0s9.178-20.8 2.012-25.88c-4.843-3.445-19.837 11.266-19.837 11.266S-1.943-4.122 0 0" style="fill:#fff;fill-opacity:1;fill-rule:nonzero;stroke:none" transform="translate(422.384 561.899)"/><path d="M0 0c-18.543-35.691 12.97-54.635 36.742-52.636 41.114 3.442 86.34 43.273 132.261 58.689 45.921 15.42 123.314 18.643 152.159 46.951 28.84 28.309-1.993 64.202-32.85 59.8C257.445 108.4 25.783 49.562 0 0" style="fill:#fdd000;fill-opacity:1;fill-rule:nonzero;stroke:none" transform="translate(101.222 508.895)"/><path d="M0 0c-8.883 12.012-16.005 8.44-9.27-.628C5.844-20.997-1.59-49.909-31.504-60.752c-.214-.089-.669-.214-.96-.344-50.063-17.208-83.086-15.433-121.513-29.213-.863-.309-4.513-1.612-5.379-1.935-38.368-13.892-62.701-36.317-112.234-54.99-.302-.089-.746-.277-.962-.345-29.948-10.724-54.105 6.806-55.448 32.143-.607 11.272-8.389 9.488-7.56-5.441 1.898-33.96 32.505-47.134 67.636-34.475 34.591 12.459 74.963 41.752 111.569 55.322.817.321 4.191 1.532 5.044 1.827 36.837 12.878 86.625 16.061 121.214 28.519C5.012-57.024 20.216-27.362 0 0" style="fill:#774100;fill-opacity:1;fill-rule:nonzero;stroke:none" transform="translate(427.913 610.822)"/><path d="M0 0c-22.117-8.945-15.451-70.325-15.451-70.325L55.26-46.408C43.485-23.984 16.833 6.807 0 0" style="fill:#774100;fill-opacity:1;fill-rule:nonzero;stroke:none" transform="translate(177.177 783.777)"/><path d="M0 0c-15.244-6.202-10.001-51.242-10.001-51.242l48.755 16.419C30.293-18.407 11.581 4.715 0 0" style="fill:#fdd000;fill-opacity:1;fill-rule:nonzero;stroke:none" transform="translate(179.906 776.213)"/><path d="M0 0c-12.865 17.86-38.174 17.738-52.891 3.552-16.47-15.863-19.649-38.586-10.074-59.359l23.112 16.739c7.03-10.56 21.038-13.667 31.818-6.354C6.538-35.54 10.574-14.667 0 0" style="fill:#fdd000;fill-opacity:1;fill-rule:nonzero;stroke:none" transform="translate(189.688 731.647)"/><path d="M0 0c-5.878 8.373 4.418 16.394 8.528 7.806 10.647-22.249 43.446-2.219 34.006 23.992-.844 2.332-1.969 4.552-3.469 6.612-9.406 13.261-27.314 15.715-40.759 8.45a32.651 32.651 0 0 1-6.984-5.083C-23.066 28.061-26.673 9.435-20.197-8.761a62.156 62.156 0 0 1 1.977-4.784c2.216-4.848-2.569-7.264-4.769-2.493a69.364 69.364 0 0 0-2.2 5.342c-7.363 20.244-3.265 42.446 12.761 58.001a39.927 39.927 0 0 0 8.316 6.266c15.985 9.004 37.592 6.771 49.776-9.901a34.167 34.167 0 0 0 4.505-8.563c5.606-15.558-.01-33.443-13.738-42.606a26.742 26.742 0 0 0-6.531-3.186C18.843-14.313 6.676-10.066 0 0" style="fill:#774100;fill-opacity:1;fill-rule:nonzero;stroke:none" transform="translate(147.338 690.645)"/><path d="M0 0a39.775 39.775 0 0 1-8.153-6.149C-18.904-16.595-24.191-30.036-24.2-43.865c0-6.489 1.167-13.065 3.49-19.443a64.452 64.452 0 0 1 2.175-5.266c.762-1.642 1.723-2.13 2.36-2.12.725.009 1.399.553 1.436 1.912 0 .548-.136 1.23-.493 2.024a62.736 62.736 0 0 0-2.011 4.851c-2.089 5.867-3.143 11.775-3.143 17.572 0 12.434 4.901 24.309 14.874 33.825a33.274 33.274 0 0 0 7.147 5.19 34.445 34.445 0 0 0 16.32 4.122c9.717 0 19.36-4.167 25.478-12.806 1.553-2.118 2.711-4.406 3.58-6.806 1.182-3.319 1.725-6.545 1.725-9.621-.024-14.308-11.608-24.997-22.557-25.033-5.768-.015-11.357 3.086-14.656 10.043-1.186 2.416-2.69 3.218-4.101 3.236-2.274-.01-4.664-2.314-4.67-5.549.006-1.422.456-3.015 1.623-4.683l-.656-.465.666.442c4.935-7.44 12.958-11.594 21.239-11.594 2.588 0 5.188.397 7.745 1.24a26 26 0 0 1 6.325 3.077c9.93 6.637 15.536 17.963 15.536 29.568 0 4.071-.684 8.163-2.107 12.099a33.343 33.343 0 0 1-4.387 8.364C41.325.442 30.42 5.103 19.437 5.103 12.705 5.103 5.952 3.341 0 0m-19.992-69.251a59.71 59.71 0 0 0-2.233 5.403c-2.382 6.544-3.587 13.298-3.587 19.983 0 14.235 5.466 28.138 16.538 38.868A40.825 40.825 0 0 0-.795 1.392c6.199 3.493 13.219 5.329 20.232 5.329 11.439 0 22.887-4.895 30.595-15.457a35.116 35.116 0 0 0 4.616-8.772 37.13 37.13 0 0 0 2.199-12.641c0-12.12-5.841-23.95-16.248-30.912a28.4 28.4 0 0 0-6.729-3.268 26.393 26.393 0 0 0-8.244-1.323c-8.811 0-17.339 4.427-22.57 12.312-1.337 1.9-1.916 3.834-1.913 5.606.009 4.017 2.935 7.136 6.281 7.16 2.101.012 4.227-1.344 5.549-4.146 3.127-6.486 8.019-9.113 13.208-9.128 9.92.028 20.924 9.996 20.949 23.417 0 2.887-.505 5.934-1.642 9.078-.82 2.265-1.907 4.415-3.362 6.411C36.329-6.763 27.222-2.816 17.955-2.799A32.709 32.709 0 0 1 2.409-6.74 31 31 0 0 1-4.4-11.685c-9.674-9.226-14.362-20.636-14.375-32.65 0-5.601 1.023-11.323 3.05-17.029a58.962 58.962 0 0 1 1.96-4.73c.43-.965.634-1.875.634-2.688 0-1.998-1.324-3.52-3.044-3.53-1.466.01-2.917 1.076-3.817 3.061" style="fill:#774100;fill-opacity:1;fill-rule:nonzero;stroke:none" transform="translate(143.618 743.526)"/><path d="M0 0c-1.466 21.957 18.097 38.019 38.498 36.475C61.284 34.745 78.22 19.28 84.101-2.826L55.609-4.673c1.325-12.621-7.486-23.961-20.456-25.191C17.629-31.543 1.214-18.044 0 0" style="fill:#fdd000;fill-opacity:1;fill-rule:nonzero;stroke:none" transform="translate(198.807 734.926)"/><path d="M0 0c-.808 10.187-13.873 9.802-11.557.574 5.993-23.915-32.053-29.418-41.486-3.203a26.363 26.363 0 0 0-1.56 7.3c-1.214 16.211 11.021 29.52 26.01 32.504a32.41 32.41 0 0 0 8.622.543c19.834-1.39 34.499-13.433 41.105-31.58a63.611 63.611 0 0 0 1.549-4.958c1.371-5.145 6.596-3.96 5.235 1.125a58.917 58.917 0 0 1-1.71 5.515C18.977 28.096 1.66 42.591-20.614 44.353c-3.519.306-7.012.14-10.4-.468-18.054-3.255-33.265-18.752-32.011-39.374.2-3.268.906-6.452 1.984-9.473 5.6-15.543 21.332-25.746 37.758-24.051 2.493.267 4.847.848 7.049 1.724C-5.392-23.034 1.263-12.008 0 0" style="fill:#774100;fill-opacity:1;fill-rule:nonzero;stroke:none" transform="translate(257.587 730.354)"/><path d="M0 0c-17.021-3.084-31.43-17.22-31.424-36.215 0-.765.015-1.537.068-2.321.203-3.189.887-6.29 1.947-9.24 5.071-14.096 18.695-23.706 33.433-23.706 1.155 0 2.314.061 3.481.177 2.425.252 4.704.819 6.841 1.671 9.642 3.79 15.868 13.101 15.868 23.633 0 .933-.049 1.881-.144 2.827l.804.078-.808-.063c-.393 4.76-3.524 6.807-6.186 6.832-2.222-.061-4.006-1.297-4.039-4.117 0-.56.084-1.175.254-1.879.442-1.785.651-3.492.651-5.094-.012-10.508-9.118-16.431-18.992-16.442-9.628-.013-20.257 5.549-24.688 17.858-.861 2.394-1.428 4.899-1.601 7.512-.055.766-.09 1.531-.09 2.283.016 15.633 12.108 28.164 26.744 31.087 2.118.421 4.292.629 6.494.629.777 0 1.558-.024 2.34-.077C31.101-5.97 46.086-18.268 52.765-36.686a69.393 69.393 0 0 0 1.567-5.019c.57-2.073 1.684-2.727 2.411-2.727.709.024 1.42.523 1.464 2.071 0 .396-.056.852-.197 1.368a62.37 62.37 0 0 1-1.683 5.451C49.171-15.544 32.142-1.294 10.188.456A38.014 38.014 0 0 1 0 0m-30.928-48.322a35.262 35.262 0 0 0-2.037 9.685 44.348 44.348 0 0 0-.073 2.422C-33.029-16.345-17.979-1.604-.284 1.59c2.325.412 4.699.63 7.099.63 1.164 0 2.339-.051 3.51-.156C32.925.282 50.523-14.458 57.84-34.995a63.198 63.198 0 0 0 1.731-5.592 6.858 6.858 0 0 0 .244-1.774c-.003-2.144-1.357-3.676-3.072-3.676-1.698 0-3.318 1.41-3.968 3.91a64.347 64.347 0 0 1-1.528 4.9C44.718-19.343 30.372-7.562 10.842-6.182c-.749.051-1.485.075-2.229.075-2.097 0-4.164-.202-6.179-.597-13.962-2.783-25.456-14.748-25.45-29.502 0-.713.034-1.431.082-2.169.167-2.455.703-4.804 1.523-7.074 4.189-11.648 14.132-16.788 23.165-16.808 9.321.044 17.387 5.418 17.387 14.84 0 1.465-.194 3.032-.606 4.7a9.247 9.247 0 0 0-.308 2.273c.006 3.656 2.742 5.722 5.653 5.731 3.501.011 7.366-2.825 7.794-8.301.099-1 .151-2 .151-2.987 0-11.173-6.62-21.105-16.888-25.138-2.274-.903-4.705-1.492-7.272-1.774a39.314 39.314 0 0 0-3.641-.176c-15.441 0-29.638 10.019-34.952 24.767" style="fill:#774100;fill-opacity:1;fill-rule:nonzero;stroke:none" transform="translate(226.713 773.45)"/><path d="M0 0c2.644-7.521 5.965-30.386-23.673-46.084-23.968-12.692-48.375-10.124-59.17-3.478-16.636 15.888-18.306 60.135 11.615 79.576C-39.773 50.43-7.738 22.043 0 0" style="fill:#774100;fill-opacity:1;fill-rule:nonzero;stroke:none" transform="translate(177.697 613.397)"/><path d="M0 0c2.828-6.279.887-22.842-25.91-37.971-10.321-5.835-43.082-13.504-50.649.843-10.548 19.956-7.476 51.499 15.46 64.192C-40.094 38.669-13.356 29.669 0 0" style="fill:#fff;fill-opacity:1;fill-rule:nonzero;stroke:none" transform="translate(171.893 608.982)"/><path d="M0 0c6.479-17.935-3.337-37.894-21.874-44.569-18.562-6.688-38.834 2.431-45.285 20.379-6.467 17.937 3.315 37.894 21.88 44.582C-26.733 27.064-6.449 17.932 0 0" style="fill:#774100;fill-opacity:1;fill-rule:nonzero;stroke:none" transform="translate(166.456 611.487)"/><path d="M0 0c3.755-2.516 4.19-8.483.946-13.347-3.225-4.843-8.943-6.733-12.702-4.229-3.768 2.54-4.209 8.511-.974 13.383C-9.489.63-3.808 2.517 0 0" style="fill:#fff;fill-opacity:1;fill-rule:nonzero;stroke:none" transform="translate(121.552 616.79)"/><path d="M0 0c2.756-7.491 14.787-27.21 47.622-20.401 26.566 5.5 43.736 23.041 47.793 35.05 2.696 22.838-24.243 57.994-59.685 53.875C-1.523 64.193-8.092 21.917 0 0" style="fill:#774100;fill-opacity:1;fill-rule:nonzero;stroke:none" transform="translate(284.208 651.774)"/><path d="M0 0c1.826-6.624 13.891-18.155 44.166-12.716 11.672 2.079 41.795 17.071 38.492 32.948-4.606 22.103-27.086 44.428-52.86 39.582C6.223 55.372-8.621 31.38 0 0" style="fill:#fff;fill-opacity:1;fill-rule:nonzero;stroke:none" transform="translate(291.5 652.058)"/><path d="M0 0c6.441-17.938 26.734-27.051 45.281-20.38C63.846-13.691 73.636 6.268 67.164 24.2c-6.452 17.938-26.723 27.063-45.288 20.381C3.342 37.906-6.47 17.921 0 0" style="fill:#774100;fill-opacity:1;fill-rule:nonzero;stroke:none" transform="translate(294.092 657.46)"/><path d="M0 0c-1.294-4.343 2.199-9.215 7.782-10.881 5.573-1.675 11.18.506 12.474 4.847 1.275 4.356-2.199 9.23-7.779 10.907C6.904 6.537 1.316 4.365 0 0" style="fill:#fff;fill-opacity:1;fill-rule:nonzero;stroke:none" transform="translate(325.306 690.187)"/><path d="M0 0c15.037-36.402-19.876-64.683-69.368-83.977-49.525-19.332-93.279-25.623-109.964 14.022-11.365 27.008 7.884 74.545 63.397 96.034C-60.37 47.577-11.185 27.079 0 0" style="fill:#774100;fill-opacity:1;fill-rule:nonzero;stroke:none" transform="translate(334.367 628.2)"/><path d="M0 0c12.73-30.567-19.128-55.266-63.939-72.634-44.804-17.391-84.186-23.618-98.361 9.673-9.646 22.66 7.576 66.213 57.808 85.545C-54.231 41.954-9.482 22.731 0 0" style="fill:#f39700;fill-opacity:1;fill-rule:nonzero;stroke:none" transform="translate(325.76 624.96)"/><path d="M0 0c10.999-.761 23.648 1.211 37.327 5.01C23.814 30.163-7.077 18.693 0 0" style="fill:#774100;fill-opacity:1;fill-rule:nonzero;stroke:none" transform="translate(197.723 537.546)"/><path d="M0 0c-8.023 15.392-35.565 4.76-31.2-21.167C-18.595-14.816-7.863-7.745 0 0" style="fill:#774100;fill-opacity:1;fill-rule:nonzero;stroke:none" transform="translate(315.533 582.685)"/><path d="M0 0c-.703-24.691 18.746-45.253 43.439-45.963 24.693-.72 45.278 18.739 45.991 43.41.717 24.699-18.734 45.298-43.44 46.015C21.311 44.165.714 24.725 0 0" style="fill:#774100;fill-opacity:1;fill-rule:nonzero;stroke:none" transform="translate(274.762 361.273)"/><path d="M0 0c-.583-20.575 15.616-37.706 36.194-38.282C56.77-38.889 73.915-22.68 74.506-2.118c.594 20.561-15.613 37.733-36.193 38.324C17.752 36.789.594 20.602 0 0" style="fill:#fff;fill-opacity:1;fill-rule:nonzero;stroke:none" transform="translate(282.223 361.064)"/><path d="M0 0c6.502-6.044 20.312-4.248 20.312-4.248-7.055-2.181-23.19 2.172-28.597 8.351-15.634 17.914-2.796 37.59 12.056 37.17 14.877-.418 20.536-16.556 11.559-21.217-4.331-2.231-8.966.394-10.333 2.491C-2.273 33.697-15.727 14.684 0 0" style="fill:#774100;fill-opacity:1;fill-rule:nonzero;stroke:none" transform="translate(304.035 326.492)"/></g></svg>